<?xml version="1.0" encoding="UTF-8"?>
<svg xmlns="http://www.w3.org/2000/svg" viewBox="0 0 949.71 755.93">
  <defs>
    <style>
      .cls-1 {
        fill: #59595b;
      }

      .cls-1, .cls-2, .cls-3, .cls-4, .cls-5, .cls-6, .cls-7, .cls-8, .cls-9, .cls-10, .cls-11, .cls-12, .cls-13, .cls-14, .cls-15, .cls-16, .cls-17 {
        stroke-width: 0px;
      }

      .cls-2 {
        fill: #343436;
        opacity: .46;
      }

      .cls-2, .cls-6 {
        mix-blend-mode: overlay;
      }

      .cls-3 {
        fill: #5f3a12;
      }

      .cls-4, .cls-5 {
        fill: #6d6e72;
      }

      .cls-18 {
        isolation: isolate;
      }

      .cls-5 {
        opacity: .31;
      }

      .cls-6 {
        opacity: .58;
      }

      .cls-6, .cls-12 {
        fill: #414143;
      }

      .cls-7 {
        fill: #8a8b8e;
      }

      .cls-8 {
        fill: #40230a;
      }

      .cls-9 {
        fill: #cdd1d2;
      }

      .cls-10 {
        fill: #362e2e;
      }

      .cls-11 {
        fill: #82522e;
      }

      .cls-13 {
        fill: #b6916a;
      }

      .cls-14 {
        fill: #a77d51;
      }

      .cls-15 {
        fill: #424244;
      }

      .cls-16 {
        fill: #c39a72;
      }

      .cls-17 {
        fill: #83d5f7;
      }
    </style>
  </defs>
  <g class="cls-18">
    <g id="Layer_2" data-name="Layer 2">
      <g id="Layer_1-2" data-name="Layer 1">
        <g>
          <g>
            <path class="cls-13" d="m431.5,98.91v-.04q-.04-.07-.11-.11s.04-.04.04-.07c-.07-.22-.18-.25-.22-.22-.44-.58-.25-.22-.04.11-.07.15,0,.29.15.22.11.15.22.25.22.18,0,0-.04-.04-.04-.07Zm383.08,375.5c-19.62-20.89-41.38-43.96-51.43-54.44-15.49-16.21-19.8-20.64-25.5-26.55-.47-.51-.87-.91-1.2-1.27l-.18-.18s-.04-.07-.07-.11c-.18-.15-.29-.29-.4-.4-.15-.14-.29-.29-.44-.44l-.25-.25-.04-.07c-.04-.07-.11-.11-.15-.15-.04-.04-.04-.07-.07-.07-16.9-17.48-30.61-32.03-47.8-49.87-17.74-18.39-60.75-64.42-74.17-79.03-.8-.87-1.49-1.63-2.03-2.25-.22-.22-.36-.4-.58-.58,0-.04-.04-.07-.07-.11-.18-.18-.33-.36-.51-.54-.22-.25-.4-.47-.54-.62l-.07-.07c-.07-.11-.18-.18-.29-.29-.04-.04-.07-.11-.11-.11-.04-.07-.07-.11-.11-.15-14.69-16.1-40.01-44.14-45.95-50.78-.73-.83-1.34-1.49-1.74-1.99l-.22-.25s-.07-.07-.11-.11l-.15-.18c-.15-.11-.22-.22-.29-.29-.11-.15-.18-.25-.22-.25-.04-.04-.07-.07-.07-.11-.04-.04-.07-.04-.07-.07l-.15-.15s-.11-.11-.15-.18c-9.39-10.45-27.2-30.54-31.85-35.83-.65-.73-1.12-1.27-1.49-1.67,0,0-.11-.11-.22-.25-.15-.18-.29-.33-.4-.47l-.15-.15s-.11-.11-.11-.15c-7-7.91-19.15-21.73-23.61-26.77,0,0-.25-.29-.62-.69-.04-.04-.07-.07-.07-.11-.11-.11-.18-.18-.29-.29l-.15-.18c-.04-.07-.11-.15-.18-.22-5.26-5.98-15.34-17.45-17.55-19.95-.69-.76-1.02-1.12-1.12-1.27-2.94-3.34-8.16-9.21-11.46-12.91v-.04c-1.16-1.31-2.07-2.28-2.58-2.87-.18-.22-.36-.4-.51-.58-2.97-3.26-5.62-6.31-8.31-9.29l-.07,4.43c1.31,1.41,2.61,2.87,3.88,4.28-1.31,1.02-2.65,2.03-3.95,3.05l-.07,5.48c3.84,4.75,7.73,9.5,11.57,14.25-2.1,1.6-4.17,3.23-6.24,4.82-1.85-2.5-3.66-5.01-5.48-7.51l-.07,4.97c1.09,1.45,2.14,2.9,3.19,4.35-1.09.83-2.18,1.7-3.26,2.54l-.04,3.81c1.67-1.31,3.37-2.65,5.04-3.92,2.47,3.37,4.9,6.75,7.33,10.16v.04c2.65,3.59,5.22,7.15,7.83,10.77-2.03,1.6-4.1,3.19-6.17,4.82-.51-.76-1.02-1.52-1.49-2.29-4.21-6.38-8.38-12.8-12.55-19.15l-.07,5.11c4.06,6.09,8.31,12.44,12.69,19.01v.04c51.9,77.69,123.54,184.25,149.36,220.52,4.03,5.66,7.18,10.12,9.61,13.53.44.62.91,1.27,1.38,1.92.22.33.44.62.62.87.58.83,1.12,1.56,1.56,2.21.25.36.44.62.58.8.15.18.22.29.22.29.15.25.36.54.58.83.14.18.25.33.36.51.22.29.4.58.54.8.15.14.25.29.33.44.18.22.33.44.44.62.11.15.22.29.33.44.04.07.11.11.11.18l.07.07s.04.04.04.07l.04.04c18.46,25.9,37.83,52.81,48.89,68.22,12.91,17.99,22.85,32.06,28.22,39.64.47.65.83,1.2,1.2,1.67,7.91,11.17,15.23,21.69,22.49,32.06,2.58,3.66,5.11,7.33,7.65,11.03l2.03-2.28c-2.47-3.59-4.97-7.15-7.47-10.74-7.29-10.45-14.58-20.89-21.94-31.26,7.11-5.77,14.18-11.53,21.25-17.26,7.51,9.65,14.94,19.3,22.38,28.98,1.89,2.5,3.81,5.01,5.73,7.51l1.96-2.25c-1.85-2.43-3.66-4.82-5.51-7.22-7.4-9.65-14.8-19.3-22.27-28.87,8.2-6.64,16.39-13.27,24.55-19.91,7.54,8.78,15.09,17.55,22.6,26.37,1.09,1.27,2.18,2.54,3.26,3.84l1.99-2.29c-1.02-1.16-2.03-2.36-3.05-3.55-7.47-8.74-14.98-17.52-22.49-26.22,7.07-5.73,14.15-11.46,21.18-17.19,7.54,8.05,15.12,16.1,22.63,24.16.33.29.62.62.91.94l1.99-2.25c-.22-.25-.44-.47-.65-.73Zm-80.95-80.92c-6.13,4.97-12.26,9.94-18.39,14.87-13.71-15.67-27.46-31.34-41.17-47.04,5.4-4.35,10.81-8.7,16.21-13.06,14.44,15.09,28.87,30.18,43.34,45.23Zm-224.33-215.37c1.52-1.2,3.01-2.36,4.53-3.55,10.19,12.73,20.49,25.39,30.79,38.01-1.85,1.45-3.66,2.9-5.51,4.35-1.81,1.45-3.63,2.9-5.48,4.35-9.65-13.17-19.26-26.37-28.83-39.61,1.49-1.2,3.01-2.36,4.5-3.55Zm-6.24,1.12c-6.86-9.43-13.67-18.86-20.49-28.33,2.5-1.96,5.01-3.88,7.54-5.84,7.25,9.07,14.54,18.14,21.83,27.17-2.97,2.32-5.95,4.68-8.89,7Zm37.9,40.04c1.85-1.45,3.66-2.94,5.51-4.39,15.27,18.68,30.58,37.29,46.06,55.78-2.32,1.85-4.64,3.74-6.96,5.59-2.32,1.89-4.64,3.74-6.96,5.62-14.51-19.33-28.91-38.74-43.2-58.21,1.85-1.45,3.7-2.94,5.55-4.39Zm53.5,53.68c24.77,29.63,50.02,58.87,75.37,87.99-6.2,5.04-12.44,10.05-18.68,15.09-23.83-30.43-47.51-60.9-70.76-91.8,4.68-3.77,9.36-7.54,14.07-11.28Zm77.33,90.2c13.67,15.74,27.42,31.41,41.17,47.08-7.11,5.73-14.22,11.5-21.33,17.26-12.88-16.39-25.82-32.75-38.66-49.15,6.27-5.04,12.55-10.12,18.82-15.2Zm-62.64-101.34c16.97,18.72,51.54,55.38,64.89,69.38,13.35,14,5.3,5.55,14.58,15.27-6.17,3.48-10.88,8.52-16.47,12.62-25.39-29.12-50.6-58.39-75.41-88.03,4.24-2.97,7.58-6.85,12.4-9.25Zm-2.36-2.57c-3.99,3.19-7.98,6.38-11.93,9.58-15.49-18.5-30.79-37.1-46.06-55.78,3.16-2.47,6.27-4.97,9.39-7.47,16.1,17.99,32.28,35.91,48.6,53.68Zm-50.56-55.89c-3.12,2.47-6.2,4.93-9.32,7.4-10.26-12.66-20.53-25.32-30.76-38.01,2.54-1.99,5.08-3.99,7.58-5.98,10.77,12.26,21.65,24.45,32.5,36.6Zm-34.46-38.81c-2.5,1.96-5.01,3.92-7.51,5.88-7.29-9.07-14.54-18.13-21.83-27.17,2.1-1.63,4.17-3.3,6.27-4.93,7.69,8.74,15.38,17.48,23.07,26.22Zm-25.03-28.44l-6.2,4.79c-5.37-6.71-10.74-13.42-16.18-20.09,1.78-1.38,3.52-2.72,5.26-4.1,5.73,6.46,11.43,12.95,17.12,19.4Zm-36.63-32.9c1.49-1.16,2.97-2.32,4.46-3.45,1.89,2.14,3.77,4.24,5.66,6.38,2.5,2.76,4.97,5.55,7.44,8.34-1.7,1.31-3.45,2.65-5.19,3.99-.69-.87-1.41-1.74-2.14-2.61-3.37-4.21-6.78-8.45-10.23-12.66Zm10.48,31.16c-1.63-2.28-3.26-4.57-4.93-6.82,1.56-1.27,3.19-2.47,4.79-3.7.54-.4,1.05-.83,1.6-1.23,5.4,6.67,10.77,13.42,16.18,20.13-2.47,1.92-4.93,3.84-7.4,5.77l-10.23-14.15Zm3.34,23.29l6.31-4.9c6.82,9.43,13.64,18.86,20.46,28.33-2.5,1.96-5.01,3.92-7.51,5.88-6.42-9.76-12.84-19.55-19.26-29.31Zm20.93,31.81c2.54-1.99,5.08-3.99,7.62-5.98,9.58,13.24,19.19,26.44,28.83,39.64-3.08,2.47-6.2,4.93-9.32,7.4-9.1-13.67-18.14-27.35-27.13-41.06Zm28.8,43.52c3.16-2.47,6.27-4.97,9.43-7.47,14.29,19.48,28.69,38.92,43.2,58.21-3.95,3.19-7.94,6.38-11.9,9.58-13.67-20.02-27.24-40.15-40.73-60.32Zm109.1,157.88c-22.45-31.55-44.83-63.15-66.7-95.1,4.03-3.23,8.02-6.46,12.04-9.65,23.21,30.87,46.93,61.37,70.73,91.76-5.33,4.35-10.7,8.67-16.07,12.98Zm1.7,2.39c5.4-4.35,10.81-8.7,16.18-13.06,12.88,16.43,25.79,32.79,38.7,49.15-6.13,4.97-12.26,9.9-18.39,14.87-12.19-16.97-24.37-33.95-36.49-50.96Zm81.93,114.65c-14.47-20.49-29.12-40.88-43.74-61.3,6.17-5.01,12.33-9.97,18.5-14.94,15.49,19.66,31.01,39.32,46.39,59.08-7.04,5.69-14.07,11.43-21.15,17.16Zm23.43-19.01c-15.38-19.77-30.9-39.43-46.39-59.12,7.15-5.77,14.29-11.57,21.44-17.34,16.54,18.82,33.04,37.65,49.4,56.62-8.16,6.6-16.29,13.2-24.45,19.84Zm26.73-21.69c-16.32-18.97-32.86-37.79-49.36-56.65,6.24-4.9,12.19-10.12,18.61-14.83,10.05,10.45,25.79,26.88,34.46,35.98s10.26,10.81,17.55,18.53c-7.29,5.44-14.15,11.35-21.25,16.97Z"/>
            <polygon class="cls-16" points="476.55 617.86 452.29 617.86 458.2 138.84 458.27 133.73 458.27 133.29 458.31 129.48 458.38 122.59 458.45 117.62 458.6 106.05 458.67 100.58 458.74 93.25 458.82 88.83 459.9 0 468.93 0 470.2 101.56 470.2 101.59 470.24 106.16 470.35 115.88 470.46 123.86 470.6 134.38 470.64 139.53 470.64 139.57 470.82 152.88 470.89 157.85 470.89 157.88 476.55 617.86"/>
            <path class="cls-15" d="m531.22,279.36l-26.75,1.72-99.59,6.41s-21.03-42.79,2.91-89.77c.13-.33.33-.69.5-1.02l117.97-20.7s-17.23,56.84,4.96,103.36Z"/>
            <path class="cls-15" d="m545.12,444.42c7.98,50.16,24.59,77.58,35.25,90.64-1.45,1.12-3.12,2.14-4.39,3.12-1.38,1.12-2.65,2.32-3.92,3.55l-40.62-7.25-199.56-35.69s-45.3-90.89-2.14-173.7c.69-1.34,1.38-2.68,2.14-4.03l258.28-8.78s-57.05,56.69-45.05,132.13Z"/>
            <path class="cls-1" d="m32.31,381.2s117.18,19.07,127.22,111.17c0,0,276.93-381.4,304.91-410.1,0,0-378.56,251.34-432.13,298.93Z"/>
            <path class="cls-14" d="m281.38,696.56c-.4.25-.8.51-1.2.76-3.12,1.96-6.27,3.99-9.43,6.02-.04.04-.07.04-.11.07-25.9-26.66-81.57-92.56-122.59-202.57,0,0-125.24-123.75-148.05-150.52,4.71,4.1,155.82,135.07,170.65,142.03,0,0-.36,4.82.91,14.07v.07c.11.83.25,1.74.4,2.65,0,.11.04.22.04.33.15.83.29,1.74.47,2.65l.11.65c.14.83.33,1.67.51,2.58.07.33.14.65.22.98.14.83.33,1.63.54,2.5.07.44.18.91.29,1.38.18.76.4,1.56.58,2.32.15.62.29,1.23.47,1.85.18.69.36,1.41.54,2.14.22.76.44,1.56.65,2.36.07.25.14.51.22.76.07.22.14.44.18.65,1.34,4.53,2.94,9.47,4.9,14.8.04.11.07.25.11.36,2.07,5.62,4.5,11.68,7.36,18.14.04.04.04.07.07.11,1.09,2.47,2.25,5.01,3.48,7.58.25.58.58,1.2.87,1.81.87,1.81,1.78,3.66,2.72,5.51.58,1.12,1.12,2.21,1.7,3.34.8,1.49,1.56,2.97,2.39,4.5.65,1.2,1.27,2.43,1.96,3.66,1.12,2.07,2.32,4.13,3.52,6.24.36.62.65,1.2,1.02,1.81,1.16,1.99,2.36,3.99,3.59,6.02.22.44.44.8.69,1.2,4.53,7.47,9.54,15.27,15.09,23.39,1.38,1.99,2.72,3.92,4.03,5.84.33.47.65.91.98,1.38,1.49,2.14,2.97,4.21,4.42,6.2.22.33.44.62.65.91,1.49,2.07,2.94,4.1,4.39,6.06.33.47.69.94,1.05,1.41,1.09,1.45,2.18,2.9,3.23,4.32,2.14,2.83,4.24,5.59,6.27,8.16h.04c2.1,2.65,4.13,5.19,6.09,7.58.29.33.54.62.8.94.87,1.05,1.7,2.07,2.54,3.05.62.69,1.2,1.38,1.78,2.03.58.65,1.16,1.34,1.7,1.96,1.16,1.38,2.32,2.65,3.45,3.92.22.22.4.44.62.65.94,1.05,1.92,2.1,2.83,3.08.33.33.62.65.91.94.83.87,1.63,1.7,2.43,2.54.29.29.62.62.91.91.8.83,1.6,1.63,2.36,2.39.25.22.51.47.73.73,1.02.98,1.99,1.92,2.94,2.79Z"/>
            <path class="cls-3" d="m820.64,468.97l-5.4,6.17-1.99,2.25-19.19,21.87-1.99,2.29-22.63,25.79-1.96,2.25-19.95,22.78-2.03,2.28-6.64,7.58c0-.22-.04-8.67-5.37-14.69l4.35-3.92,2.21-1.99,21.69-19.55,2.18-1.96,24.88-22.41,2.21-1.99,21.33-19.26,2.25-2.03,6.06-5.44Z"/>
            <polygon class="cls-14" points="721.63 525.99 628.74 520.26 621.56 547.89 723.8 547.53 721.63 525.99"/>
            <g>
              <path class="cls-14" d="m713.61,663.92c-3.92,7.87-8.49,15.38-13.75,22.23-5.19.8-10.23,1.96-14.8,3.05-2.43.54-4.93,1.16-7.47,1.85-1.05.22-2.14.51-3.19.8-1.49.4-2.97.8-4.46,1.23-2.97.83-5.91,1.81-8.74,2.9-1.38.54-2.76,1.12-4.1,1.74.18-.04.29-.15.47-.25.22-.11.44-.22.65-.36.25-.14.47-.33.69-.54.11-.07.25-.15.36-.25.29-.25.54-.54.8-.83.04,0,.07-.04.07-.04.8-.94,1.31-2.03,1.49-3.16,0-.04.04-.07.04-.11.04-.22,0-.47,0-.69,0-.58-.04-1.16-.25-1.78-.22-.65-.51-1.31-.98-1.96-13.13-18.06-42.87-9.76-59.81-3.84-11.5,4.03-23.61,8.96-33.91,15.56,9.76-6.27,7.47-15.41-1.05-21.51-.07-.04-.15-.07-.22-.15-1.09-.76-2.21-1.45-3.34-2.07-.51-.29-1.02-.54-1.52-.8-.76-.36-1.56-.73-2.36-1.02-.76-.33-1.52-.62-2.28-.83-.87-.29-1.7-.54-2.54-.73-.65-.18-1.31-.29-1.96-.44-.73-.11-1.45-.22-2.18-.33-.4-.04-.8-.15-1.2-.18,13.38-.33,26.33-.69,38.7-1.12,3.55-.11,7-.22,10.45-.36,3.7-.11,7.33-.25,10.88-.4,2.9-.11,5.77-.22,8.6-.33,5.04-.22,9.9-.44,14.65-.65,4.61-.18,9.03-.4,13.35-.62,1.41-.07,2.87-.15,4.24-.22,9.83-.47,18.86-.98,27.02-1.45,1.6-.07,3.16-.18,4.68-.25,1.41-.07,2.83-.14,4.21-.25.36-.04.73-.04,1.09-.07,2.1-.11,4.13-.22,6.06-.36.22,0,.47-.04.69-.04,2-.11,3.92-.25,5.73-.36,6.09-.4,11.21-.76,15.2-1.02Z"/>
              <path class="cls-14" d="m730.95,614.81c-1.92,8.09-4.32,16.61-7.29,25.14-6.93.4-13.86.76-20.78,1.12-178.34,9.03-357.88.69-440.61-4.35-13.31-.83-24.08-1.56-31.99-2.1-1.31-1.92-2.65-3.84-4.03-5.84-5.55-8.12-10.55-15.92-15.09-23.39-.25-.4-.47-.76-.69-1.2-1.23-2.03-2.43-4.03-3.59-6.02,8.45,1.27,16.87,2.47,25.24,3.63,114.43,15.7,223.89,20.2,311.81,20.2,75.88,0,135.72-3.34,168.76-5.77,7.51-.51,13.64-1.02,18.24-1.41Z"/>
              <path class="cls-14" d="m444.34,600.56c-61.01-3.59-114.5-10.3-157.88-17.34-31.37-5.11-57.49-10.41-77.29-14.87-7.62-1.74-14.33-3.34-20.02-4.75v-.04c-2.87-6.46-5.3-12.48-7.36-18.1-.04-.11-.07-.25-.11-.36-1.96-5.33-3.55-10.26-4.9-14.8-.04-.22-.11-.44-.18-.65,30.97,7.29,122.48,27.2,240.14,37.14,3.19,4.68,6.75,9.65,10.48,14.47,5.55,7.22,11.46,14.15,17.12,19.3Z"/>
              <path class="cls-14" d="m738.75,564.29c-.25,3.95-1.02,13.42-2.97,25.86-4.79.65-9.58,1.27-14.33,1.85-6.17.76-12.3,1.49-18.39,2.14-12.19,1.38-24.26,2.58-36.23,3.59-.4.04-.76.07-1.16.11-5.26.44-10.48.87-15.7,1.23-1.05.11-2.1.18-3.16.22-4.39.36-8.74.65-13.09.91-4.43.33-8.85.58-13.24.8-1.38.07-2.79.14-4.17.22-2.65.15-5.3.29-7.91.4-3.95.18-7.87.36-11.79.51-5.73.22-11.39.44-17.05.58l.04-.04c6.82-4.93,14.73-11.64,21-19.98,2.61-3.45,4.97-7.18,6.82-11.21,54.99-2.18,97.89-4.68,131.33-7.18Z"/>
              <path class="cls-14" d="m344.35,669.73c-.11,0-.22.04-.29.04-.47.04-.91.04-1.38.11-.58.04-1.2.15-1.81.25h-.07c-.11,0-.25.04-.36.07-.51.07-.98.11-1.49.22-.22.04-.47.11-.73.15-.36.07-.73.15-1.09.22-.69.15-1.41.29-2.1.47-.58.15-1.16.29-1.74.44-.83.22-1.63.47-2.47.69-.29.11-.58.18-.87.29-.25.07-.47.14-.69.22-.98.29-1.96.62-2.97.98h-.04c-.4.14-.76.25-1.16.4-1.02.36-2.07.8-3.12,1.2-.36.15-.76.29-1.12.44h-.04c-1.56.62-3.12,1.27-4.71,1.99-3.19,1.38-6.46,2.94-9.79,4.61l-.04.04c-.94.47-1.89.98-2.83,1.45-7.22,3.74-14.65,7.98-22.05,12.59-.94-.87-1.92-1.81-2.94-2.79-.22-.25-.47-.51-.73-.73-.76-.76-1.56-1.56-2.36-2.39-.29-.29-.62-.62-.91-.91-.8-.83-1.6-1.67-2.43-2.54-.29-.29-.58-.62-.91-.94-.91-.98-1.89-2.03-2.83-3.08-.22-.22-.4-.44-.62-.65-1.12-1.27-2.28-2.57-3.45-3.92-.54-.62-1.12-1.31-1.7-1.96-.58-.65-1.16-1.34-1.78-2.03-.83-.98-1.67-1.99-2.54-3.05-.25-.33-.51-.62-.8-.94-1.96-2.39-3.99-4.93-6.09-7.58,15.38,1.56,31.05,2.87,46.93,4.03,15.23,1.05,30.65,1.92,46.1,2.65Z"/>
              <path class="cls-14" d="m494.4,674.59c-.04.12-.1.23-.15.35-.28.66-.63,1.32-1.04,1.98-.08.12-.15.25-.23.37-.49.73-1.04,1.45-1.67,2.17-.02.02-.03.04-.05.06-1.37,1.56-3.04,3.09-4.9,4.56-.07.06-.15.11-.22.17-.84.66-1.72,1.31-2.62,1.95-.13.09-.25.18-.38.27-.96.66-1.93,1.31-2.92,1.94,0,0-.02.01-.03.02-1.07.67-2.14,1.34-3.22,1.96-1.69.98-3.37,1.91-5,2.76,7.11-3.16,14.34-6.06,21.64-8.75.55-.2,1.08-.43,1.63-.63,3.44-1.26,6.89-2.48,10.36-3.64,3.27-1.09,6.65-2.25,10.09-3.36.67-.22,1.34-.43,2.02-.65.53-.17,1.06-.33,1.59-.49,1.01-.31,2.02-.61,3.03-.9.39-.11.77-.22,1.16-.33,1.11-.31,2.23-.6,3.34-.87.34-.09.69-.17,1.03-.26,1.12-.27,2.24-.5,3.37-.72.36-.07.72-.15,1.08-.22,1.03-.19,2.07-.34,3.1-.48.4-.06.79-.14,1.19-.19-13.51.29-27.41.47-41.61.62-.08.76-.29,1.53-.58,2.29Z"/>
              <path class="cls-14" d="m362.87,670.66c.25.05.5.1.73.15.03,0,.06.02.09.03.09.02.17.04.26.06.31.08.59.18.88.27.17.05.36.09.52.15.15.07.29.11.4.15.07.03.13.06.2.09.31.12.61.24.89.37.07.03.14.07.21.1.07.03.14.05.22.09.28.14.52.31.76.45.01,0,.03.02.05.03.02.01.04.03.07.04.12.07.24.15.33.21.12.08.21.17.32.26.09.07.19.15.28.22.07.06.13.12.2.18.05.04.1.09.15.13.06.06.11.13.17.2.08.09.16.18.24.27.02.03.04.05.06.08.08.09.14.2.23.28.07.18.18.33.25.47.07.14.11.29.18.44.04.14.11.29.14.47.02.09.03.2.04.3.01.07.03.13.03.2.02.13.03.27.04.4,0,.07,0,.14,0,.21v.38c-.04.11-.04.25-.04.36-.04.22-.07.47-.15.69,0,0,0,0,0,0,0,0,0,0,0,0-.02.09-.04.17-.06.26-.08.28-.18.55-.29.83,0,.02-.02.04-.02.06,0,.03-.02.06-.02.08-.29.68-.67,1.35-1.1,2.02-.03.04-.06.08-.09.12-.41.62-.86,1.22-1.35,1.82-.08.09-.16.18-.23.27-.47.55-.94,1.08-1.44,1.59-.06.06-.12.12-.19.19-2.45,2.48-5.01,4.41-5.68,4.91.46-.22,1.77-.83,3.71-1.71,7.13-3.26,23.36-10.42,42.15-17.04-14.51-.29-29.14-.72-43.72-1.27.21.04.41.09.61.13Z"/>
              <path class="cls-16" d="m735.77,590.15c-.8,5.11-1.81,10.7-3.05,16.65-.54,2.61-1.12,5.3-1.78,8.02-4.61.4-10.74.91-18.24,1.41-33.04,2.43-92.89,5.77-168.76,5.77-87.92,0-197.38-4.5-311.81-20.2-8.38-1.16-16.79-2.36-25.24-3.63-.36-.62-.65-1.2-1.02-1.81-1.2-2.1-2.39-4.17-3.52-6.24-.69-1.23-1.31-2.47-1.96-3.66-.83-1.52-1.63-3.01-2.39-4.5-.58-1.12-1.12-2.21-1.7-3.34-.94-1.85-1.85-3.7-2.72-5.51-.29-.62-.62-1.23-.87-1.81-1.23-2.57-2.39-5.11-3.48-7.58-.04-.04-.04-.07-.07-.11,5.69,1.41,12.4,3.01,20.02,4.75,19.8,4.46,45.92,9.76,77.29,14.87,43.38,7.04,96.88,13.75,157.88,17.34,3.45,3.16,6.78,5.62,9.87,7.11,20.75,10.05,109.72,4.53,109.72,4.53,0,0,7-3.3,15.63-9.5,5.66-.15,11.32-.36,17.05-.58,3.92-.14,7.83-.33,11.79-.51,2.61-.11,5.26-.25,7.91-.4,1.38-.07,2.79-.15,4.17-.22,4.39-.25,8.81-.51,13.24-.8,4.35-.25,8.7-.54,13.09-.91,1.05-.04,2.1-.11,3.16-.22,5.22-.36,10.45-.8,15.7-1.23.4-.04.76-.07,1.16-.11,11.97-1.02,24.05-2.21,36.23-3.59,6.09-.65,12.22-1.38,18.39-2.14,4.75-.58,9.54-1.2,14.33-1.85Z"/>
              <path class="cls-16" d="m723.66,639.95c-2.79,8.09-6.09,16.18-10.05,23.97-3.99.25-9.1.62-15.2,1.02-1.81.11-3.74.22-5.73.36-.22,0-.47.04-.69.04-1.96.11-3.95.25-6.06.36-.36.04-.73.04-1.09.07-1.38.07-2.76.15-4.21.25-1.52.07-3.08.18-4.68.25-8.16.47-17.19.94-27.02,1.45-1.38.07-2.83.15-4.24.22-4.32.18-8.78.4-13.35.62-4.75.22-9.61.44-14.65.65-2.83.07-5.69.22-8.6.33-3.55.14-7.18.29-10.88.4-3.45.14-6.93.25-10.45.36-12.37.44-25.32.8-38.7,1.12h-.29c-2.18-.22-4.39-.25-6.6-.15-1.52.07-3.05.22-4.61.4-13.49.29-27.38.47-41.6.62.44-3.95-2.18-7.87-9.72-11.32-4.06-1.85-9.07-2.76-14.69-2.97h-.29c-1.31-.04-2.65-.04-4.06-.04-.15.04-.29.04-.44.04-1.34.04-2.68.11-4.1.22-.18,0-.36.04-.54.04-1.34.11-2.76.25-4.17.4-.18.04-.4.07-.62.11-1.41.15-2.83.36-4.28.58-.18.04-.4.07-.58.11-1.49.22-2.94.47-4.46.76-.18.04-.36.07-.54.11-1.52.29-3.05.62-4.57.94-.18.04-.36.07-.54.11-1.56.36-3.12.73-4.68,1.09-.15.04-.29.07-.47.11-1.6.4-3.19.83-4.79,1.23-.14.04-.25.07-.36.11-1.67.44-3.3.91-4.93,1.38-.11.04-.22.07-.33.07-1.67.51-3.3.98-4.97,1.49-.07.04-.11.04-.18.07-1.7.51-3.41,1.05-5.08,1.6-.04,0-.04.04-.07.04-3.23,1.05-6.38,2.14-9.5,3.23-14.54-.29-29.16-.73-43.74-1.27-.14-.04-.29-.07-.44-.11h-.14c-3.74-.69-8.81-1.02-15.63-.8-.51,0-1.05.07-1.63.11h-.07c-15.45-.73-30.87-1.6-46.1-2.65-15.89-1.16-31.55-2.47-46.93-4.03h-.04c-2.03-2.57-4.13-5.33-6.27-8.16-1.05-1.41-2.14-2.83-3.23-4.32-.36-.47-.73-.94-1.05-1.41-1.45-1.96-2.9-3.99-4.39-6.06-.22-.29-.44-.58-.65-.91-1.45-1.99-2.94-4.06-4.42-6.2-.33-.47-.65-.91-.98-1.38,7.91.54,18.68,1.27,31.99,2.1,82.73,5.04,262.27,13.38,440.61,4.35,6.93-.36,13.86-.73,20.78-1.12Z"/>
            </g>
            <path class="cls-3" d="m171.54,506.42s0,.05.01.08c.12.85.25,1.74.4,2.66.02.11.03.22.05.33.14.84.29,1.72.45,2.63.04.22.08.44.12.67.15.83.32,1.69.5,2.56.07.34.13.67.21,1.01.17.8.35,1.63.54,2.47.1.46.21.92.32,1.4.18.76.37,1.54.56,2.33.15.61.3,1.22.46,1.85.18.7.37,1.41.57,2.13.21.77.42,1.55.65,2.35.07.26.14.51.21.77,0,0,0,0,.01,0,30.95,7.29,122.49,27.2,240.13,37.14,7.98,11.68,18.17,25.16,27.59,33.76,0,0,0,0,0,0,3.45,3.16,6.78,5.62,9.87,7.11,20.75,10.05,109.72,4.53,109.72,4.53,0,0,6.99-3.29,15.64-9.52,0,0,.02-.01.03-.02,9.68-6.96,21.47-17.55,27.82-31.19,54.99-2.18,97.89-4.68,131.33-7.18.07-1.34.11-2.07.11-2.07,0-.22-.04-8.67-5.37-14.69h-9.68l-102.25.36h-24.77c-1.05,6.06-7.25,15.45-14.07,24.34-9.43,12.19-19.98,23.36-19.98,23.36,0,0-90.75,5.37-104.02.36-7.73-2.94-17.3-16.72-23.9-27.71-4.75-7.83-8.02-14.25-8.02-14.25,0,0-8.16-1.85-21.58-4.9-59.48-13.56-222.26-50.96-234.56-56.73,0,0-.38,4.82.89,14.06Z"/>
            <path class="cls-17" d="m737.33,692.05c-1.07-.98-2.29-1.81-3.55-2.53-9.75-5.52-22.22-5.24-33.9-3.38h0s0,0,0,0c-5.19.83-10.23,1.96-14.8,3.05-3.48.82-7.07,1.7-10.67,2.65-5.97,1.57-11.93,3.4-17.34,5.94-.04.02-.08.03-.12.05.22-.1.41-.23.61-.34.22-.12.44-.23.65-.37.25-.16.48-.35.71-.53.11-.09.23-.17.34-.26.3-.26.57-.54.83-.83.02-.02.05-.04.07-.07.79-.93,1.31-2.01,1.48-3.15,0-.04.02-.08.03-.12.03-.22.01-.44.01-.67,0-.58-.05-1.17-.25-1.78-.21-.66-.51-1.32-.99-1.98-13.14-18.05-42.88-9.75-59.82-3.83-11.49,4.02-23.62,8.96-33.9,15.56h0s0,0,0,0c9.76-6.27,7.46-15.4-1.04-21.5-.07-.05-.15-.09-.22-.14-1.1-.78-2.22-1.46-3.35-2.08-.51-.28-1.02-.54-1.53-.79-.77-.38-1.55-.71-2.33-1.03-.77-.31-1.54-.59-2.31-.84-.84-.27-1.69-.52-2.54-.73-.64-.16-1.29-.28-1.94-.4-.72-.13-1.44-.24-2.17-.34-.5-.06-.99-.14-1.49-.19-2.19-.2-4.4-.25-6.62-.14-1.52.07-3.05.21-4.58.4-.39.05-.79.13-1.19.19-1.03.15-2.07.29-3.1.48-.36.07-.72.15-1.08.22-1.12.22-2.25.46-3.37.72-.34.08-.69.17-1.03.26-1.12.28-2.23.56-3.34.87-.39.11-.77.22-1.16.33-1.01.29-2.03.59-3.03.9-.53.16-1.06.33-1.59.49-.68.21-1.35.43-2.02.65-3.44,1.12-6.83,2.28-10.09,3.36-3.47,1.15-6.92,2.38-10.36,3.64-.55.2-1.08.42-1.63.63-7.34,2.72-14.62,5.64-21.78,8.82.03-.02.07-.04.1-.05.01,0,.03-.02.04-.02,1.63-.85,3.31-1.78,5-2.76,1.08-.63,2.16-1.29,3.22-1.96,0,0,.02-.01.03-.02,1-.63,1.97-1.28,2.92-1.94.13-.09.25-.18.38-.27.9-.64,1.78-1.29,2.62-1.95.07-.06.15-.11.22-.17,1.86-1.48,3.53-3,4.9-4.56.02-.02.03-.04.05-.06.63-.72,1.18-1.44,1.67-2.17.08-.12.16-.25.23-.37.42-.66.76-1.32,1.04-1.98.05-.12.11-.23.15-.35.29-.76.5-1.53.58-2.29.41-3.97-2.2-7.87-9.74-11.31-4.06-1.85-9.05-2.78-14.69-2.98-.09,0-.19,0-.28,0-1.32-.04-2.66-.05-4.05-.02-.15,0-.3.02-.45.02-1.34.04-2.7.1-4.09.21-.18.01-.36.03-.54.05-1.37.11-2.77.24-4.18.41-.2.02-.41.06-.61.08-1.41.17-2.84.37-4.29.59-.19.03-.39.07-.59.1-1.47.23-2.94.49-4.44.77-.19.04-.38.08-.57.11-1.51.29-3.03.6-4.56.94-.18.04-.36.08-.54.12-1.55.34-3.11.7-4.68,1.09-.15.04-.31.08-.46.12-1.6.39-3.2.8-4.81,1.23-.12.03-.25.07-.37.1-1.64.44-3.27.9-4.91,1.37-.11.03-.21.06-.32.09-1.67.48-3.33.98-4.99,1.49-.06.02-.12.04-.18.06-1.7.52-3.4,1.06-5.09,1.61-.01,0-.03,0-.04.01-3.23,1.05-6.41,2.14-9.53,3.24-18.79,6.62-35.02,13.78-42.15,17.04-2.47,1.13-3.9,1.81-3.9,1.81,0,0,3.02-2.12,5.87-5.02.06-.06.12-.12.19-.19.5-.51.98-1.05,1.44-1.59.08-.09.16-.17.23-.27.49-.59.94-1.2,1.35-1.82.03-.04.06-.08.09-.12.43-.67.81-1.34,1.09-2.02.01-.03.02-.05.03-.08,0-.02.02-.04.02-.06.11-.28.21-.55.29-.83.03-.09.04-.17.06-.26,0,0,0,0,0,0,.06-.23.11-.47.14-.7.02-.11.02-.23.03-.34.01-.13,0-.26.01-.39,0-.07,0-.14,0-.21,0-.13-.02-.27-.04-.4,0-.07-.02-.13-.03-.2-.02-.11-.03-.21-.06-.32-.04-.15-.08-.29-.13-.44-.05-.15-.11-.3-.18-.44-.08-.16-.16-.31-.26-.46-.06-.1-.14-.2-.21-.3-.02-.03-.04-.05-.06-.08-.07-.09-.16-.18-.24-.27-.06-.07-.11-.14-.18-.2-.04-.04-.09-.09-.14-.13-.07-.06-.13-.12-.2-.18-.09-.08-.19-.15-.28-.22-.1-.08-.2-.17-.31-.25-.1-.07-.22-.14-.33-.22-.02-.01-.04-.03-.07-.04-.01,0-.03-.02-.05-.03-.24-.15-.49-.3-.77-.44-.06-.03-.13-.06-.2-.1-.07-.03-.14-.07-.21-.1-.28-.13-.58-.25-.89-.37-.07-.03-.12-.06-.19-.08-.13-.05-.27-.09-.41-.14-.16-.06-.35-.11-.52-.16-.29-.09-.56-.19-.88-.27-.08-.02-.17-.04-.26-.06-.03,0-.05-.01-.08-.02-.23-.06-.5-.11-.75-.17-.2-.05-.4-.09-.61-.13-.16-.03-.29-.07-.45-.1-.04,0-.09-.02-.14-.02-3.74-.69-8.8-1.01-15.61-.8-.53.02-1.08.07-1.63.12-.03,0-.06,0-.1,0-.1,0-.19.01-.29.02-.46.04-.9.05-1.36.1-.59.06-1.2.16-1.81.25-.03,0-.05,0-.08.01-.12.02-.25.04-.37.06-.49.07-.97.14-1.47.23-.24.04-.49.1-.73.15-.36.07-.73.14-1.09.22-.7.15-1.4.3-2.12.47-.58.14-1.16.29-1.74.45-.81.22-1.62.44-2.44.69-.29.09-.59.18-.89.27-.23.07-.46.14-.69.21-.97.31-1.96.64-2.96.99-.01,0-.03,0-.04.01-.39.13-.77.26-1.16.4-1.03.37-2.08.78-3.13,1.19-.38.15-.75.28-1.13.43,0,0,0,0,0,0,0,0-.02,0-.03.01-4.67,1.87-9.53,4.1-14.49,6.59h-.03s-.02.02-.03.03c-.93.47-1.87.98-2.81,1.47-7.62,3.96-15.45,8.48-23.24,13.33-3.15,1.98-6.31,3.98-9.43,6.02-.04.02-.07.05-.11.07-36.95,24.2-70.23,52.52-70.24,52.52,4.69-3.99,18.52-4.9,24.6-6.43,70.11-17.63,144.11-14.84,215.96-7.04,71.42,7.75,147.12,10.63,218.08-3.66,8.24-1.66,16.43-3.59,24.53-5.83,11.39-3.15,68.34-19.63,55.85-38.48-.6-.91-1.32-1.72-2.12-2.45Z"/>
            <g>
              <g>
                <g>
                  <path class="cls-11" d="m669.06,627.51l-6.13,23.5h-18.06l6.13-23.5c1.21-4.65,5.71-8.48,10.34-9,.35-.04.7-.06,1.05-.06s.69.02,1.02.06c2.02.24,3.63,1.18,4.67,2.59,1.2,1.64,1.63,3.9.97,6.4Z"/>
                  <path class="cls-17" d="m661.56,648.48h-14l5.35-20.48c1.01-3.88,4.97-7.03,8.84-7.03h0c3.87,0,6.18,3.15,5.17,7.03l-5.35,20.48Z"/>
                  <path class="cls-11" d="m663.42,618.51l-8.48,32.49h-2.08l8.48-32.49c.35-.04.7-.06,1.05-.06s.69.02,1.02.06Z"/>
                  <g>
                    <polygon class="cls-11" points="665.87 639.74 665.32 641.83 647.26 641.83 647.8 639.74 665.87 639.74"/>
                    <polygon class="cls-11" points="669.03 627.62 668.49 629.7 650.42 629.7 650.97 627.62 669.03 627.62"/>
                  </g>
                </g>
                <g>
                  <path class="cls-11" d="m638.13,627.51l-6.13,23.5h-18.06l6.13-23.5c1.21-4.65,5.71-8.48,10.34-9,.35-.04.7-.06,1.05-.06s.69.02,1.02.06c2.02.24,3.63,1.18,4.67,2.59,1.2,1.64,1.63,3.9.97,6.4Z"/>
                  <path class="cls-17" d="m630.63,648.48h-14l5.35-20.48c1.01-3.88,4.97-7.03,8.84-7.03h0c3.87,0,6.18,3.15,5.17,7.03l-5.35,20.48Z"/>
                  <path class="cls-11" d="m632.49,618.51l-8.48,32.49h-2.08l8.48-32.49c.35-.04.7-.06,1.05-.06s.69.02,1.02.06Z"/>
                  <g>
                    <polygon class="cls-11" points="634.94 639.74 634.39 641.83 616.33 641.83 616.87 639.74 634.94 639.74"/>
                    <polygon class="cls-11" points="638.1 627.62 637.56 629.7 619.49 629.7 620.04 627.62 638.1 627.62"/>
                  </g>
                </g>
                <g>
                  <path class="cls-11" d="m678.79,590.21l-6.13,23.5h-18.06l6.13-23.5c1.21-4.65,5.71-8.48,10.34-9,.35-.04.7-.06,1.05-.06s.69.02,1.02.06c2.02.24,3.63,1.18,4.67,2.59,1.2,1.64,1.63,3.9.97,6.4Z"/>
                  <path class="cls-17" d="m671.29,611.18h-14l5.35-20.48c1.01-3.88,4.97-7.03,8.84-7.03h0c3.87,0,6.18,3.15,5.17,7.03l-5.35,20.48Z"/>
                  <path class="cls-11" d="m673.15,581.22l-8.48,32.49h-2.08l8.48-32.49c.35-.04.7-.06,1.05-.06s.69.02,1.02.06Z"/>
                  <g>
                    <polygon class="cls-11" points="675.6 602.45 675.05 604.54 656.99 604.54 657.54 602.45 675.6 602.45"/>
                    <polygon class="cls-11" points="678.77 590.32 678.22 592.41 660.16 592.41 660.7 590.32 678.77 590.32"/>
                  </g>
                </g>
                <g>
                  <path class="cls-11" d="m647.87,590.21l-6.13,23.5h-18.06l6.13-23.5c1.21-4.65,5.71-8.48,10.34-9,.35-.04.7-.06,1.05-.06s.69.02,1.02.06c2.02.24,3.63,1.18,4.67,2.59,1.2,1.64,1.63,3.9.97,6.4Z"/>
                  <path class="cls-17" d="m640.36,611.18h-14l5.35-20.48c1.01-3.88,4.97-7.03,8.84-7.03h0c3.87,0,6.18,3.15,5.17,7.03l-5.35,20.48Z"/>
                  <path class="cls-11" d="m642.22,581.22l-8.48,32.49h-2.08l8.48-32.49c.35-.04.7-.06,1.05-.06s.69.02,1.02.06Z"/>
                  <g>
                    <polygon class="cls-11" points="644.67 602.45 644.13 604.54 626.06 604.54 626.61 602.45 644.67 602.45"/>
                    <polygon class="cls-11" points="647.84 590.32 647.29 592.41 629.23 592.41 629.77 590.32 647.84 590.32"/>
                  </g>
                </g>
              </g>
              <g>
                <g>
                  <path class="cls-11" d="m697.51,627.51l-6.13,23.5h-18.06l6.13-23.5c1.21-4.65,5.71-8.48,10.34-9,.35-.04.7-.06,1.05-.06s.69.02,1.02.06c2.02.24,3.63,1.18,4.67,2.59,1.2,1.64,1.63,3.9.97,6.4Z"/>
                  <path class="cls-17" d="m690.01,648.48h-14l5.35-20.48c1.01-3.88,4.97-7.03,8.84-7.03h0c3.87,0,6.18,3.15,5.17,7.03l-5.35,20.48Z"/>
                  <path class="cls-11" d="m691.87,618.51l-8.48,32.49h-2.08l8.48-32.49c.35-.04.7-.06,1.05-.06s.69.02,1.02.06Z"/>
                  <g>
                    <polygon class="cls-11" points="694.32 639.74 693.77 641.83 675.71 641.83 676.26 639.74 694.32 639.74"/>
                    <polygon class="cls-11" points="697.48 627.62 696.94 629.7 678.88 629.7 679.42 627.62 697.48 627.62"/>
                  </g>
                </g>
                <g>
                  <path class="cls-11" d="m707.25,590.21l-6.13,23.5h-18.06l6.13-23.5c1.21-4.65,5.71-8.48,10.34-9,.35-.04.7-.06,1.05-.06s.69.02,1.02.06c2.02.24,3.63,1.18,4.67,2.59,1.2,1.64,1.63,3.9.97,6.4Z"/>
                  <path class="cls-17" d="m699.74,611.18h-14l5.35-20.48c1.01-3.88,4.97-7.03,8.84-7.03h0c3.87,0,6.18,3.15,5.17,7.03l-5.35,20.48Z"/>
                  <path class="cls-11" d="m701.6,581.22l-8.48,32.49h-2.08l8.48-32.49c.35-.04.7-.06,1.05-.06s.69.02,1.02.06Z"/>
                  <g>
                    <polygon class="cls-11" points="704.05 602.45 703.51 604.54 685.44 604.54 685.99 602.45 704.05 602.45"/>
                    <polygon class="cls-11" points="707.22 590.32 706.67 592.41 688.61 592.41 689.15 590.32 707.22 590.32"/>
                  </g>
                </g>
              </g>
            </g>
            <path class="cls-8" d="m281.38,696.56c-.4.25-.8.51-1.2.76-3.12,1.96-6.27,3.99-9.43,6.02-.04.04-.07.04-.11.07-25.9-26.66-81.57-92.56-122.59-202.57l22.6-8.49s-.36,4.82.91,14.07v.07c.11.83.25,1.74.4,2.65,0,.11.04.22.04.33.15.83.29,1.74.47,2.65l.11.65c.14.83.33,1.67.51,2.58.07.33.14.65.22.98.14.83.33,1.63.54,2.5.07.44.18.91.29,1.38.18.76.4,1.56.58,2.32.15.62.29,1.23.47,1.85.18.69.36,1.41.54,2.14.22.76.44,1.56.65,2.36.07.25.14.51.22.76.07.22.14.44.18.65,1.34,4.53,2.94,9.47,4.9,14.8.04.11.07.25.11.36,2.07,5.62,4.5,11.68,7.36,18.14.04.04.04.07.07.11,1.09,2.47,2.25,5.01,3.48,7.58.25.58.58,1.2.87,1.81.87,1.81,1.78,3.66,2.72,5.51.58,1.12,1.12,2.21,1.7,3.34.8,1.49,1.56,2.97,2.39,4.5.65,1.2,1.27,2.43,1.96,3.66,1.12,2.07,2.32,4.13,3.52,6.24.36.62.65,1.2,1.02,1.81,1.16,1.99,2.36,3.99,3.59,6.02.22.44.44.8.69,1.2,4.53,7.47,9.54,15.27,15.09,23.39,1.38,1.99,2.72,3.92,4.03,5.84.33.47.65.91.98,1.38,1.49,2.14,2.97,4.21,4.42,6.2.22.33.44.62.65.91,1.49,2.07,2.94,4.1,4.39,6.06.33.47.69.94,1.05,1.41,1.09,1.45,2.18,2.9,3.23,4.32,2.14,2.83,4.24,5.59,6.27,8.16h.04c2.1,2.65,4.13,5.19,6.09,7.58.29.33.54.62.8.94.87,1.05,1.7,2.07,2.54,3.05.62.69,1.2,1.38,1.78,2.03.58.65,1.16,1.34,1.7,1.96,1.16,1.38,2.32,2.65,3.45,3.92.22.22.4.44.62.65.94,1.05,1.92,2.1,2.83,3.08.33.33.62.65.91.94.83.87,1.63,1.7,2.43,2.54.29.29.62.62.91.91.8.83,1.6,1.63,2.36,2.39.25.22.51.47.73.73,1.02.98,1.99,1.92,2.94,2.79Z"/>
            <g>
              <g>
                <circle class="cls-3" cx="316.22" cy="634.81" r="15.4"/>
                <circle class="cls-4" cx="316.22" cy="634.81" r="10.78"/>
                <circle class="cls-12" cx="316.22" cy="634.81" r="5.79"/>
              </g>
              <g>
                <circle class="cls-3" cx="369.34" cy="634.81" r="15.4"/>
                <circle class="cls-4" cx="369.34" cy="634.81" r="10.78"/>
                <circle class="cls-12" cx="369.34" cy="634.81" r="5.79"/>
              </g>
            </g>
            <g>
              <g>
                <g>
                  <circle class="cls-3" cx="289.86" cy="597.36" r="15.4"/>
                  <circle class="cls-4" cx="289.86" cy="597.36" r="10.78"/>
                  <circle class="cls-12" cx="289.86" cy="597.36" r="5.79"/>
                </g>
                <g>
                  <circle class="cls-3" cx="395.71" cy="597.36" r="15.4"/>
                  <circle class="cls-4" cx="395.71" cy="597.36" r="10.78"/>
                  <circle class="cls-12" cx="395.71" cy="597.36" r="5.79"/>
                </g>
              </g>
              <g>
                <circle class="cls-3" cx="342.78" cy="597.36" r="15.4"/>
                <circle class="cls-4" cx="342.78" cy="597.36" r="10.78"/>
                <circle class="cls-12" cx="342.78" cy="597.36" r="5.79"/>
              </g>
            </g>
            <path class="cls-15" d="m464.41,8.73v60.62s11.99,11.96,37.34,5.02c25.35-6.94,54.29-13.37,64.81,2.16,0,0-3.11-39.71,5.5-50.95,0,0-26.54-19.37-44.24-14.59-17.7,4.78-15.31,14.35-38.74,11.96-23.44-2.39-24.66-14.23-24.66-14.23Z"/>
            <g>
              <path class="cls-9" d="m507.77,51.61s.05,4.48,1.55,7.79c1.5,3.31,3.34,4.93,3.92.42,0,0,1.3,5.23,3.96,4.13,2.67-1.11,2.22-5.55,2.22-5.55,0,0-.13,5.78,2.46,5.18,2.59-.61,2.14-6.34,2.14-6.34,0,0-.38,3.94,2.07,3.95s3.77-7.55,2.33-11.63c-.03-.08.75-.91.82-.99.65-.88,1.2-1.84,1.63-2.85,1.37-3.17,1.47-6.71.28-9.97-1.19-3.26-3.56-6.4-6.25-8.56-2.54-2.04-5.77-3.33-9.02-3.11-4.91.33-9,3.89-11.44,7.95-5.32,8.86-.49,18.33,3.31,19.6Z"/>
              <path class="cls-12" d="m523.94,33.75c5.56,2.2,4.11,13.07-2.27,10.02-5.58-2.67-4.65-12.75,2.27-10.02Z"/>
              <path class="cls-12" d="m505.69,39.82c.1-1.35.76-2.63,1.7-3.61.53-.55,1.17-1.03,1.91-1.21,1.43-.35,2.91.5,3.9,1.59,1.03,1.14,1.74,2.6,1.81,4.14.06,1.53-.57,3.12-1.78,4.06-3.43,2.66-7.81-1.25-7.53-4.97Z"/>
              <path class="cls-12" d="m516.71,51.57c-.9-.79-1.64-1.86-1.69-3.06s.74-2.47,1.92-2.67c1.31-.22,2.51.9,2.96,2.15.37,1.02.37,2.24-.29,3.11-.65.87-2.06,1.16-2.86.43l-.04.04Z"/>
            </g>
            <g>
              <path class="cls-9" d="m537.68,50.32s8.1-5.56,8.12-28.18c0,0,14.89,18.6-5.97,29.94,0,0,3.41,2.19,3.26,3.38-.15,1.19-2.38,2.94-4.81.84,0,0-1.03,3.8-4.33,2.41-3.29-1.38,1.36-5.19,1.36-5.19,0,0-3.94-1.94-3.19-3.37.74-1.43,2.66-2.38,5.56.17Z"/>
              <path class="cls-9" d="m498.99,56.33s-9.04-3.85-13.54-26.02c0,0-10.91,21.18,11.78,28.17,0,0-2.91,2.83-2.53,3.96.38,1.13,2.91,2.41,4.88-.13,0,0,1.76,3.52,4.72,1.51s-2.36-4.82-2.36-4.82c0,0,3.47-2.68,2.46-3.93s-3.07-1.81-5.42,1.26Z"/>
            </g>
            <path class="cls-6" d="m298.25,667.08c5.77,3.92,11.72,7.54,17.84,10.81-3.19,1.38-6.46,2.94-9.79,4.61l-.04.04c-.94.47-1.89.98-2.83,1.45-7.22,3.74-14.65,7.98-22.05,12.59-.94-.87-1.92-1.81-2.94-2.79-.22-.25-.47-.51-.73-.73-.76-.76-1.56-1.56-2.36-2.39-.29-.29-.62-.62-.91-.91-.8-.83-1.6-1.67-2.43-2.54-.29-.29-.58-.62-.91-.94-.91-.98-1.89-2.03-2.83-3.08-.22-.22-.4-.44-.62-.65-1.12-1.27-2.28-2.57-3.45-3.92-.54-.62-1.12-1.31-1.7-1.96-.58-.65-1.16-1.34-1.78-2.03-.83-.98-1.67-1.99-2.54-3.05-.25-.33-.51-.62-.8-.94-1.96-2.39-3.99-4.93-6.09-7.58h-.04c-2.03-2.57-4.13-5.33-6.27-8.16-1.05-1.41-2.14-2.83-3.23-4.32-.36-.47-.73-.94-1.05-1.41-1.45-1.96-2.9-3.99-4.39-6.06-.22-.29-.44-.58-.65-.91-1.45-1.99-2.94-4.06-4.42-6.2-.33-.47-.65-.91-.98-1.38-1.31-1.92-2.65-3.84-4.03-5.84-5.55-8.12-10.55-15.92-15.09-23.39-.25-.4-.47-.76-.69-1.2-1.23-2.03-2.43-4.03-3.59-6.02-.36-.62-.65-1.2-1.02-1.81-1.2-2.1-2.39-4.17-3.52-6.24-.69-1.23-1.31-2.47-1.96-3.66-.83-1.52-1.63-3.01-2.39-4.5-.58-1.12-1.12-2.21-1.7-3.34-.94-1.85-1.85-3.7-2.72-5.51-.29-.62-.62-1.23-.87-1.81-1.23-2.57-2.39-5.11-3.48-7.58-.04-.04-.04-.07-.07-.11v-.04c-2.87-6.46-5.3-12.48-7.36-18.1-.04-.11-.07-.25-.11-.36-1.96-5.33-3.55-10.26-4.9-14.8-.04-.22-.11-.44-.18-.65,30.97,7.29,122.48,27.2,240.14,37.14,3.19,4.68,6.75,9.65,10.48,14.47-25.21-3.59-142.32-20.78-234.52-42.11,0,0,5.77,11.93,16.47,29.2,6.09,9.83,13.78,21.4,22.96,33.44,8.74,11.53,18.82,23.54,30.14,34.93,10.92,11.03,22.92,21.47,35.98,30.36Z"/>
            <path class="cls-6" d="m738.75,564.29c-.25,3.95-1.02,13.42-2.97,25.86-.8,5.11-1.81,10.7-3.05,16.65-.54,2.61-1.12,5.3-1.78,8.02-1.92,8.09-4.32,16.61-7.29,25.14-2.79,8.09-6.09,16.18-10.05,23.97-3.92,7.87-8.49,15.38-13.75,22.23-5.19.8-10.23,1.96-14.8,3.05-2.43.54-4.93,1.16-7.47,1.85,4.79-7.11,9.68-16,14.4-25.72,3.77-7.73,7.44-15.96,10.88-24.26,3.52-8.41,6.82-16.87,9.83-24.84,3.34-8.89,6.31-17.19,8.74-24.23,4.53-13.13,7.25-21.87,7.25-21.87-69.06,3.16-114.36,10.19-128.11,12.55,2.61-3.45,4.97-7.18,6.82-11.21,54.99-2.18,97.89-4.68,131.33-7.18Z"/>
            <path class="cls-5" d="m551.12,444.42c7.98,50.16,24.59,77.58,35.25,90.64-1.45,1.12-3.12,2.14-4.39,3.12-1.38,1.12-2.65,2.32-3.92,3.55l-40.62-7.25c24.66-171.48-172.86-205.36-201.7-209.39.69-1.34,1.38-2.68,2.14-4.03l258.28-8.78s-57.05,56.69-45.05,132.13Z"/>
            <path class="cls-11" d="m332.26,313.31l267-11.62c4.71-.21,8.57,2.79,8.57,6.68v1.02c0,3.9-3.85,7.17-8.57,7.31l-267,7.97c-2.68.08-4.84-2.21-4.84-5.12v-.76c0-2.91,2.16-5.36,4.84-5.48Z"/>
            <path class="cls-11" d="m334.52,488.26l250.16,41.74c4.59.77,8.34,4.51,8.34,8.35v1.01c0,3.84-3.75,6.28-8.34,5.45l-250.16-45.17c-2.69-.49-4.86-3.24-4.86-6.16v-.77c0-2.92,2.17-4.92,4.86-4.47Z"/>
            <path class="cls-5" d="m531.22,279.36l-26.75,1.72c.17-1.95.36-4.03.66-6.28,8.66-68.11-74.66-76.15-97.34-77.07.13-.33.33-.69.5-1.02l117.97-20.7s-17.23,56.84,4.96,103.36Z"/>
            <path class="cls-11" d="m396.96,282.51l133.21-9.49c3.51-.25,6.37,2.05,6.37,5.15h0c0,3.09-2.86,5.77-6.37,5.98l-133.21,7.91c-2.56.15-4.63-1.85-4.63-4.47h0c0-2.62,2.07-4.89,4.63-5.08Z"/>
            <path class="cls-11" d="m396.96,193.92l133.21-24.18c3.51-.64,6.37,1.35,6.37,4.45h0c0,3.09-2.86,6.09-6.37,6.68l-133.21,22.6c-2.56.43-4.63-1.34-4.63-3.96h0c0-2.62,2.07-5.12,4.63-5.59Z"/>
          </g>
          <g>
            <path class="cls-10" d="m726.59,465.62c12.17-66.22,31.89-121.76,51.18-165.12-7.22,14.01-16.97,34.13-26.93,59.01-22.29,55.69-32.38,102.15-39.84,137.21-3.71,17.44-8.08,40.15-12.02,67.01l16.25,3.19c1.27-30.44,4.59-64.51,11.35-101.31Z"/>
            <g>
              <path class="cls-12" d="m728.18,353.41l.12,7.41c7.76,5.84,22.22,22.27.89,53.46l.12,7.39c10.02,6.7,41.81,22.83,96.2,4.56,66.96-22.49,124.2,2.56,124.2,2.56,0,0-16.87-29.13-50.09-39.36,0,0,18.91-3.58,28.62-.51,0,0-12.78-29.4-74.11-31.82,0,0,15.33-38.71,59.29-21.85,0,0-27.6-16.36-11.76-23,15.84-6.64,33.22-1.53,33.22-1.53,0,0-25.56-16.87-65.42-9.71-37.34,6.7-100.08,17.88-142.4-14.34l.07,4.3c8.67,14.1,18.56,39.07,1.04,62.45Z"/>
              <g>
                <path class="cls-9" d="m835.87,319.98s-13.48,44.65-58.18,74.08l-4.23-5.8-5.29,3.86,4.71,6.45-9.33,6.81,3.4,4.66,9.33-6.81,4.71,6.45,5.29-3.86-3.58-4.91c9.37-6.08,54.7-37.79,53.17-80.95Z"/>
                <path class="cls-9" d="m758.08,325.3s19.43,42.4,67.72,65.47l3.4-6.32,5.76,3.1-3.79,7.03,10.17,5.47-2.74,5.08-10.17-5.47-3.79,7.03-5.76-3.1,2.88-5.35c-10.11-4.75-59.34-29.99-63.69-72.95Z"/>
              </g>
            </g>
            <g>
              <polygon class="cls-16" points="623.31 621.21 599.04 621.21 604.95 142.2 605.03 137.08 605.03 136.65 605.06 132.84 605.13 125.95 605.21 120.98 605.35 109.41 605.42 103.93 605.5 96.61 605.57 92.18 606.66 3.36 615.69 3.36 616.96 104.91 616.96 104.95 616.99 109.52 617.1 119.24 617.21 127.22 617.36 137.74 617.39 142.89 617.39 142.92 617.57 156.23 617.65 161.2 617.65 161.24 623.31 621.21"/>
              <path class="cls-15" d="m677.98,282.71l-26.75,1.72-99.59,6.41s-21.03-42.79,2.91-89.77c.13-.33.33-.69.5-1.02l117.97-20.7s-17.23,56.84,4.96,103.36Z"/>
              <path class="cls-15" d="m697.88,447.77c7.98,50.16,24.59,77.58,35.25,90.64-1.45,1.12-3.12,2.14-4.39,3.12-1.38,1.12-2.65,2.32-3.92,3.55l-40.62-7.25-199.56-35.69s-45.3-90.89-2.14-173.7c.69-1.34,1.38-2.68,2.14-4.03l258.28-8.78s-57.05,56.69-45.05,132.13Z"/>
              <path class="cls-15" d="m611.16,12.09v60.62s11.99,11.96,37.34,5.02c25.35-6.94,54.29-13.37,64.81,2.16,0,0-3.11-39.71,5.5-50.95,0,0-26.54-19.37-44.24-14.59-17.7,4.78-15.31,14.35-38.74,11.96-23.44-2.39-24.66-14.23-24.66-14.23Z"/>
              <g>
                <path class="cls-9" d="m654.53,54.97s.05,4.48,1.55,7.79c1.5,3.31,3.34,4.93,3.92.42,0,0,1.3,5.23,3.96,4.13,2.67-1.11,2.22-5.55,2.22-5.55,0,0-.13,5.78,2.46,5.18,2.59-.61,2.14-6.34,2.14-6.34,0,0-.38,3.94,2.07,3.95s3.77-7.55,2.33-11.63c-.03-.08.75-.91.82-.99.65-.88,1.2-1.84,1.63-2.85,1.37-3.17,1.47-6.71.28-9.97-1.19-3.26-3.56-6.4-6.25-8.56-2.54-2.04-5.77-3.33-9.02-3.11-4.91.33-9,3.89-11.44,7.95-5.32,8.86-.49,18.33,3.31,19.6Z"/>
                <path class="cls-12" d="m670.69,37.11c5.56,2.2,4.11,13.07-2.27,10.02-5.58-2.67-4.65-12.75,2.27-10.02Z"/>
                <path class="cls-12" d="m652.45,43.18c.1-1.35.76-2.63,1.7-3.61.53-.55,1.17-1.03,1.91-1.21,1.43-.35,2.91.5,3.9,1.59,1.03,1.14,1.74,2.6,1.81,4.14.06,1.53-.57,3.12-1.78,4.06-3.43,2.66-7.81-1.25-7.53-4.97Z"/>
                <path class="cls-12" d="m663.46,54.92c-.9-.79-1.64-1.86-1.69-3.06s.74-2.47,1.92-2.67c1.31-.22,2.51.9,2.96,2.15.37,1.02.37,2.24-.29,3.11-.65.87-2.06,1.16-2.86.43l-.04.04Z"/>
              </g>
              <g>
                <path class="cls-9" d="m684.43,53.68s8.1-5.56,8.12-28.18c0,0,14.89,18.6-5.97,29.94,0,0,3.41,2.19,3.26,3.38-.15,1.19-2.38,2.94-4.81.84,0,0-1.03,3.8-4.33,2.41-3.29-1.38,1.36-5.19,1.36-5.19,0,0-3.94-1.94-3.19-3.37.74-1.43,2.66-2.38,5.56.17Z"/>
                <path class="cls-9" d="m645.75,59.68s-9.04-3.85-13.54-26.02c0,0-10.91,21.18,11.78,28.17,0,0-2.91,2.83-2.53,3.96.38,1.13,2.91,2.41,4.88-.13,0,0,1.76,3.52,4.72,1.51s-2.36-4.82-2.36-4.82c0,0,3.47-2.68,2.46-3.93s-3.07-1.81-5.42,1.26Z"/>
              </g>
              <path class="cls-5" d="m697.88,447.77c7.98,50.16,24.59,77.58,35.25,90.64-1.45,1.12-3.12,2.14-4.39,3.12-1.38,1.12-2.65,2.32-3.92,3.55l-40.62-7.25c24.66-171.48-172.86-205.36-201.7-209.39.69-1.34,1.38-2.68,2.14-4.03l258.28-8.78s-57.05,56.69-45.05,132.13Z"/>
              <path class="cls-11" d="m479.02,316.66l267-11.62c4.71-.21,8.57,2.79,8.57,6.68v1.02c0,3.9-3.85,7.17-8.57,7.31l-267,7.97c-2.68.08-4.84-2.21-4.84-5.12v-.76c0-2.91,2.16-5.36,4.84-5.48Z"/>
              <path class="cls-11" d="m481.27,491.62l250.16,41.74c4.59.77,8.34,4.51,8.34,8.35v1.01c0,3.84-3.75,6.28-8.34,5.45l-250.16-45.17c-2.69-.49-4.86-3.24-4.86-6.16v-.77c0-2.92,2.17-4.92,4.86-4.47Z"/>
              <path class="cls-5" d="m677.98,282.71l-26.75,1.72c.17-1.95.36-4.03.66-6.28,8.66-68.11-74.66-76.15-97.34-77.07.13-.33.33-.69.5-1.02l117.97-20.7s-17.23,56.84,4.96,103.36Z"/>
              <path class="cls-11" d="m543.72,285.87l133.21-9.49c3.51-.25,6.37,2.05,6.37,5.15h0c0,3.09-2.86,5.77-6.37,5.98l-133.21,7.91c-2.56.15-4.63-1.85-4.63-4.47h0c0-2.62,2.07-4.89,4.63-5.08Z"/>
              <path class="cls-11" d="m543.72,197.28l133.21-24.18c3.51-.64,6.37,1.35,6.37,4.45h0c0,3.09-2.86,6.09-6.37,6.68l-133.21,22.6c-2.56.43-4.63-1.34-4.63-3.96h0c0-2.62,2.07-5.12,4.63-5.59Z"/>
            </g>
            <path class="cls-13" d="m435.5,98.91v-.04q-.04-.07-.11-.11s.04-.04.04-.07c-.07-.22-.18-.25-.22-.22-.44-.58-.25-.22-.04.11-.07.15,0,.29.15.22.11.15.22.25.22.18,0,0-.04-.04-.04-.07Zm383.08,375.5c-19.62-20.89-41.38-43.96-51.43-54.44-15.49-16.21-19.8-20.64-25.5-26.55-.47-.51-.87-.91-1.2-1.27l-.18-.18s-.04-.07-.07-.11c-.18-.15-.29-.29-.4-.4-.15-.14-.29-.29-.44-.44l-.25-.25-.04-.07c-.04-.07-.11-.11-.15-.15-.04-.04-.04-.07-.07-.07-16.9-17.48-30.61-32.03-47.8-49.87-17.74-18.39-60.75-64.42-74.17-79.03-.8-.87-1.49-1.63-2.03-2.25-.22-.22-.36-.4-.58-.58,0-.04-.04-.07-.07-.11-.18-.18-.33-.36-.51-.54-.22-.25-.4-.47-.54-.62l-.07-.07c-.07-.11-.18-.18-.29-.29-.04-.04-.07-.11-.11-.11-.04-.07-.07-.11-.11-.15-14.69-16.1-40.01-44.14-45.95-50.78-.73-.83-1.34-1.49-1.74-1.99l-.22-.25s-.07-.07-.11-.11l-.15-.18c-.15-.11-.22-.22-.29-.29-.11-.15-.18-.25-.22-.25-.04-.04-.07-.07-.07-.11-.04-.04-.07-.04-.07-.07l-.15-.15s-.11-.11-.15-.18c-9.39-10.45-27.2-30.54-31.85-35.83-.65-.73-1.12-1.27-1.49-1.67,0,0-.11-.11-.22-.25-.15-.18-.29-.33-.4-.47l-.15-.15s-.11-.11-.11-.15c-7-7.91-19.15-21.73-23.61-26.77,0,0-.25-.29-.62-.69-.04-.04-.07-.07-.07-.11-.11-.11-.18-.18-.29-.29l-.15-.18c-.04-.07-.11-.15-.18-.22-5.26-5.98-15.34-17.45-17.55-19.95-.69-.76-1.02-1.12-1.12-1.27-2.94-3.34-8.16-9.21-11.46-12.91v-.04c-1.16-1.31-2.07-2.28-2.58-2.87-.18-.22-.36-.4-.51-.58-2.97-3.26-5.62-6.31-8.31-9.29l-.07,4.43c1.31,1.41,2.61,2.87,3.88,4.28-1.31,1.02-2.65,2.03-3.95,3.05l-.07,5.48c3.84,4.75,7.73,9.5,11.57,14.25-2.1,1.6-4.17,3.23-6.24,4.82-1.85-2.5-3.66-5.01-5.48-7.51l-.07,4.97c1.09,1.45,2.14,2.9,3.19,4.35-1.09.83-2.18,1.7-3.26,2.54l-.04,3.81c1.67-1.31,3.37-2.65,5.04-3.92,2.47,3.37,4.9,6.75,7.33,10.16v.04c2.65,3.59,5.22,7.15,7.83,10.77-2.03,1.6-4.1,3.19-6.17,4.82-.51-.76-1.02-1.52-1.49-2.29-4.21-6.38-8.38-12.8-12.55-19.15l-.07,5.11c4.06,6.09,8.31,12.44,12.69,19.01v.04c51.9,77.69,123.54,184.25,149.36,220.52,4.03,5.66,7.18,10.12,9.61,13.53.44.62.91,1.27,1.38,1.92.22.33.44.62.62.87.58.83,1.12,1.56,1.56,2.21.25.36.44.62.58.8.15.18.22.29.22.29.15.25.36.54.58.83.14.18.25.33.36.51.22.29.4.58.54.8.15.14.25.29.33.44.18.22.33.44.44.62.11.15.22.29.33.44.04.07.11.11.11.18l.07.07s.04.04.04.07l.04.04c18.46,25.9,37.83,52.81,48.89,68.22,12.91,17.99,22.85,32.06,28.22,39.64.47.65.83,1.2,1.2,1.67,7.91,11.17,15.23,21.69,22.49,32.06,2.58,3.66,5.11,7.33,7.65,11.03l2.03-2.28c-2.47-3.59-4.97-7.15-7.47-10.74-7.29-10.45-14.58-20.89-21.94-31.26,7.11-5.77,14.18-11.53,21.25-17.26,7.51,9.65,14.94,19.3,22.38,28.98,1.89,2.5,3.81,5.01,5.73,7.51l1.96-2.25c-1.85-2.43-3.66-4.82-5.51-7.22-7.4-9.65-14.8-19.3-22.27-28.87,8.2-6.64,16.39-13.27,24.55-19.91,7.54,8.78,15.09,17.55,22.6,26.37,1.09,1.27,2.18,2.54,3.26,3.84l1.99-2.29c-1.02-1.16-2.03-2.36-3.05-3.55-7.47-8.74-14.98-17.52-22.49-26.22,7.07-5.73,14.15-11.46,21.18-17.19,7.54,8.05,15.12,16.1,22.63,24.16.33.29.62.62.91.94l1.99-2.25c-.22-.25-.44-.47-.65-.73Zm-80.95-80.92c-6.13,4.97-12.26,9.94-18.39,14.87-13.71-15.67-27.46-31.34-41.17-47.04,5.4-4.35,10.81-8.7,16.21-13.06,14.44,15.09,28.87,30.18,43.34,45.23Zm-224.33-215.37c1.52-1.2,3.01-2.36,4.53-3.55,10.19,12.73,20.49,25.39,30.79,38.01-1.85,1.45-3.66,2.9-5.51,4.35-1.81,1.45-3.63,2.9-5.48,4.35-9.65-13.17-19.26-26.37-28.83-39.61,1.49-1.2,3.01-2.36,4.5-3.55Zm-6.24,1.12c-6.86-9.43-13.67-18.86-20.49-28.33,2.5-1.96,5.01-3.88,7.54-5.84,7.25,9.07,14.54,18.14,21.83,27.17-2.97,2.32-5.95,4.68-8.89,7Zm37.9,40.04c1.85-1.45,3.66-2.94,5.51-4.39,15.27,18.68,30.58,37.29,46.06,55.78-2.32,1.85-4.64,3.74-6.96,5.59-2.32,1.89-4.64,3.74-6.96,5.62-14.51-19.33-28.91-38.74-43.2-58.21,1.85-1.45,3.7-2.94,5.55-4.39Zm53.5,53.68c24.77,29.63,50.02,58.87,75.37,87.99-6.2,5.04-12.44,10.05-18.68,15.09-23.83-30.43-47.51-60.9-70.76-91.8,4.68-3.77,9.36-7.54,14.07-11.28Zm77.33,90.2c13.67,15.74,27.42,31.41,41.17,47.08-7.11,5.73-14.22,11.5-21.33,17.26-12.88-16.39-25.82-32.75-38.66-49.15,6.27-5.04,12.55-10.12,18.82-15.2Zm-62.64-101.34c16.97,18.72,51.54,55.38,64.89,69.38,13.35,14,5.3,5.55,14.58,15.27-6.17,3.48-10.88,8.52-16.47,12.62-25.39-29.12-50.6-58.39-75.41-88.03,4.24-2.97,7.58-6.85,12.4-9.25Zm-2.36-2.57c-3.99,3.19-7.98,6.38-11.93,9.58-15.49-18.5-30.79-37.1-46.06-55.78,3.16-2.47,6.27-4.97,9.39-7.47,16.1,17.99,32.28,35.91,48.6,53.68Zm-50.56-55.89c-3.12,2.47-6.2,4.93-9.32,7.4-10.26-12.66-20.53-25.32-30.76-38.01,2.54-1.99,5.08-3.99,7.58-5.98,10.77,12.26,21.65,24.45,32.5,36.6Zm-34.46-38.81c-2.5,1.96-5.01,3.92-7.51,5.88-7.29-9.07-14.54-18.13-21.83-27.17,2.1-1.63,4.17-3.3,6.27-4.93,7.69,8.74,15.38,17.48,23.07,26.22Zm-25.03-28.44l-6.2,4.79c-5.37-6.71-10.74-13.42-16.18-20.09,1.78-1.38,3.52-2.72,5.26-4.1,5.73,6.46,11.43,12.95,17.12,19.4Zm-36.63-32.9c1.49-1.16,2.97-2.32,4.46-3.45,1.89,2.14,3.77,4.24,5.66,6.38,2.5,2.76,4.97,5.55,7.44,8.34-1.7,1.31-3.45,2.65-5.19,3.99-.69-.87-1.41-1.74-2.14-2.61-3.37-4.21-6.78-8.45-10.23-12.66Zm10.48,31.16c-1.63-2.28-3.26-4.57-4.93-6.82,1.56-1.27,3.19-2.47,4.79-3.7.54-.4,1.05-.83,1.6-1.23,5.4,6.67,10.77,13.42,16.18,20.13-2.47,1.92-4.93,3.84-7.4,5.77l-10.23-14.15Zm3.34,23.29l6.31-4.9c6.82,9.43,13.64,18.86,20.46,28.33-2.5,1.96-5.01,3.92-7.51,5.88-6.42-9.76-12.84-19.55-19.26-29.31Zm20.93,31.81c2.54-1.99,5.08-3.99,7.62-5.98,9.58,13.24,19.19,26.44,28.83,39.64-3.08,2.47-6.2,4.93-9.32,7.4-9.1-13.67-18.14-27.35-27.13-41.06Zm28.8,43.52c3.16-2.47,6.27-4.97,9.43-7.47,14.29,19.48,28.69,38.92,43.2,58.21-3.95,3.19-7.94,6.38-11.9,9.58-13.67-20.02-27.24-40.15-40.73-60.32Zm109.1,157.88c-22.45-31.55-44.83-63.15-66.7-95.1,4.03-3.23,8.02-6.46,12.04-9.65,23.21,30.87,46.93,61.37,70.73,91.76-5.33,4.35-10.7,8.67-16.07,12.98Zm1.7,2.39c5.4-4.35,10.81-8.7,16.18-13.06,12.88,16.43,25.79,32.79,38.7,49.15-6.13,4.97-12.26,9.9-18.39,14.87-12.19-16.97-24.37-33.95-36.49-50.96Zm81.93,114.65c-14.47-20.49-29.12-40.88-43.74-61.3,6.17-5.01,12.33-9.97,18.5-14.94,15.49,19.66,31.01,39.32,46.39,59.08-7.04,5.69-14.07,11.43-21.15,17.16Zm23.43-19.01c-15.38-19.77-30.9-39.43-46.39-59.12,7.15-5.77,14.29-11.57,21.44-17.34,16.54,18.82,33.04,37.65,49.4,56.62-8.16,6.6-16.29,13.2-24.45,19.84Zm26.73-21.69c-16.32-18.97-32.86-37.79-49.36-56.65,6.24-4.9,12.19-10.12,18.61-14.83,10.05,10.45,25.79,26.88,34.46,35.98s10.26,10.81,17.55,18.53c-7.29,5.44-14.15,11.35-21.25,16.97Z"/>
            <g>
              <path class="cls-15" d="m326.33,330.7v135.42s26.78,26.71,83.4,11.22c56.62-15.49,121.26-29.86,144.76,4.83,0,0-6.94-88.7,12.29-113.81,0,0-59.29-43.27-98.82-32.59-39.53,10.68-34.19,32.05-86.54,26.71-52.35-5.34-55.09-31.78-55.09-31.78Z"/>
              <g>
                <path class="cls-9" d="m423.2,426.48s.11,10,3.46,17.39c3.35,7.39,7.46,11.02,8.76.94,0,0,2.9,11.69,8.86,9.21,5.96-2.47,4.96-12.41,4.96-12.41,0,0-.3,12.92,5.48,11.56,5.78-1.35,4.79-14.16,4.79-14.16,0,0-.85,8.8,4.63,8.83,5.49.03,8.42-16.86,5.19-25.99-.06-.17,1.69-2.03,1.83-2.22,1.45-1.97,2.68-4.12,3.65-6.37,3.07-7.09,3.27-15,.63-22.26-2.65-7.27-7.94-14.3-13.96-19.13-5.67-4.55-12.89-7.43-20.14-6.94-10.96.74-20.11,8.69-25.55,17.76-11.87,19.8-1.1,40.94,7.4,43.77Z"/>
                <path class="cls-12" d="m459.31,386.59c12.43,4.91,9.18,29.2-5.06,22.38-12.47-5.97-10.4-28.49,5.06-22.38Z"/>
                <path class="cls-12" d="m418.55,400.15c.23-3.02,1.7-5.87,3.79-8.06,1.18-1.23,2.6-2.3,4.26-2.7,3.2-.77,6.5,1.11,8.72,3.55,2.31,2.54,3.89,5.81,4.03,9.24.14,3.43-1.26,6.97-3.97,9.07-7.66,5.94-17.45-2.8-16.83-11.1Z"/>
                <path class="cls-12" d="m443.16,426.39c-2.02-1.76-3.65-4.17-3.78-6.84-.13-2.67,1.64-5.52,4.28-5.96,2.92-.49,5.6,2.02,6.62,4.8.83,2.28.82,5.01-.64,6.94-1.46,1.93-4.6,2.6-6.39.96l-.09.1Z"/>
              </g>
              <g>
                <path class="cls-9" d="m490,423.6s18.08-12.42,18.14-62.95c0,0,33.26,41.55-13.33,66.88,0,0,7.62,4.9,7.28,7.55-.34,2.65-5.32,6.57-10.75,1.88,0,0-2.31,8.48-9.66,5.39-7.35-3.09,3.04-11.59,3.04-11.59,0,0-8.79-4.34-7.13-7.53,1.66-3.19,5.93-5.32,12.42.37Z"/>
                <path class="cls-9" d="m403.59,437.01s-20.19-8.6-30.23-58.12c0,0-24.38,47.31,26.31,62.92,0,0-6.5,6.31-5.65,8.84.86,2.53,6.51,5.39,10.91-.29,0,0,3.94,7.86,10.54,3.38s-5.28-10.76-5.28-10.76c0,0,7.76-5.99,5.5-8.79-2.26-2.79-6.87-4.04-12.1,2.82Z"/>
              </g>
            </g>
            <path class="cls-1" d="m36.31,381.2s117.18,19.07,127.22,111.17c0,0,276.93-381.4,304.91-410.1,0,0-378.56,251.34-432.13,298.93Z"/>
            <path class="cls-14" d="m285.38,696.56c-.4.25-.8.51-1.2.76-3.12,1.96-6.27,3.99-9.43,6.02-.04.04-.07.04-.11.07-25.9-26.66-81.57-92.56-122.59-202.57,0,0-125.24-123.75-148.05-150.52,4.71,4.1,155.82,135.07,170.65,142.03,0,0-.36,4.82.91,14.07v.07c.11.83.25,1.74.4,2.65,0,.11.04.22.04.33.15.83.29,1.74.47,2.65l.11.65c.14.83.33,1.67.51,2.58.07.33.14.65.22.98.14.83.33,1.63.54,2.5.07.44.18.91.29,1.38.18.76.4,1.56.58,2.32.15.62.29,1.23.47,1.85.18.69.36,1.41.54,2.14.22.76.44,1.56.65,2.36.07.25.14.51.22.76.07.22.14.44.18.65,1.34,4.53,2.94,9.47,4.9,14.8.04.11.07.25.11.36,2.07,5.62,4.5,11.68,7.36,18.14.04.04.04.07.07.11,1.09,2.47,2.25,5.01,3.48,7.58.25.58.58,1.2.87,1.81.87,1.81,1.78,3.66,2.72,5.51.58,1.12,1.12,2.21,1.7,3.34.8,1.49,1.56,2.97,2.39,4.5.65,1.2,1.27,2.43,1.96,3.66,1.12,2.07,2.32,4.13,3.52,6.24.36.62.65,1.2,1.02,1.81,1.16,1.99,2.36,3.99,3.59,6.02.22.44.44.8.69,1.2,4.53,7.47,9.54,15.27,15.09,23.39,1.38,1.99,2.72,3.92,4.03,5.84.33.47.65.91.98,1.38,1.49,2.14,2.97,4.21,4.42,6.2.22.33.44.62.65.91,1.49,2.07,2.94,4.1,4.39,6.06.33.47.69.94,1.05,1.41,1.09,1.45,2.18,2.9,3.23,4.32,2.14,2.83,4.24,5.59,6.27,8.16h.04c2.1,2.65,4.13,5.19,6.09,7.58.29.33.54.62.8.94.87,1.05,1.7,2.07,2.54,3.05.62.69,1.2,1.38,1.78,2.03.58.65,1.16,1.34,1.7,1.96,1.16,1.38,2.32,2.65,3.45,3.92.22.22.4.44.62.65.94,1.05,1.92,2.1,2.83,3.08.33.33.62.65.91.94.83.87,1.63,1.7,2.43,2.54.29.29.62.62.91.91.8.83,1.6,1.63,2.36,2.39.25.22.51.47.73.73,1.02.98,1.99,1.92,2.94,2.79Z"/>
            <path class="cls-3" d="m824.64,468.97l-5.4,6.17-1.99,2.25-19.19,21.87-1.99,2.29-22.63,25.79-1.96,2.25-19.95,22.78-2.03,2.28-6.64,7.58c0-.22-.04-8.67-5.37-14.69l4.35-3.92,2.21-1.99,21.69-19.55,2.18-1.96,24.88-22.41,2.21-1.99,21.33-19.26,2.25-2.03,6.06-5.44Z"/>
            <polygon class="cls-14" points="725.63 525.99 632.74 520.26 625.56 547.89 727.8 547.53 725.63 525.99"/>
            <g>
              <path class="cls-14" d="m717.61,663.92c-3.92,7.87-8.49,15.38-13.75,22.23-5.19.8-10.23,1.96-14.8,3.05-2.43.54-4.93,1.16-7.47,1.85-1.05.22-2.14.51-3.19.8-1.49.4-2.97.8-4.46,1.23-2.97.83-5.91,1.81-8.74,2.9-1.38.54-2.76,1.12-4.1,1.74.18-.04.29-.15.47-.25.22-.11.44-.22.65-.36.25-.14.47-.33.69-.54.11-.07.25-.15.36-.25.29-.25.54-.54.8-.83.04,0,.07-.04.07-.04.8-.94,1.31-2.03,1.49-3.16,0-.04.04-.07.04-.11.04-.22,0-.47,0-.69,0-.58-.04-1.16-.25-1.78-.22-.65-.51-1.31-.98-1.96-13.13-18.06-42.87-9.76-59.81-3.84-11.5,4.03-23.61,8.96-33.91,15.56,9.76-6.27,7.47-15.41-1.05-21.51-.07-.04-.15-.07-.22-.15-1.09-.76-2.21-1.45-3.34-2.07-.51-.29-1.02-.54-1.52-.8-.76-.36-1.56-.73-2.36-1.02-.76-.33-1.52-.62-2.28-.83-.87-.29-1.7-.54-2.54-.73-.65-.18-1.31-.29-1.96-.44-.73-.11-1.45-.22-2.18-.33-.4-.04-.8-.15-1.2-.18,13.38-.33,26.33-.69,38.7-1.12,3.55-.11,7-.22,10.45-.36,3.7-.11,7.33-.25,10.88-.4,2.9-.11,5.77-.22,8.6-.33,5.04-.22,9.9-.44,14.65-.65,4.61-.18,9.03-.4,13.35-.62,1.41-.07,2.87-.15,4.24-.22,9.83-.47,18.86-.98,27.02-1.45,1.6-.07,3.16-.18,4.68-.25,1.41-.07,2.83-.14,4.21-.25.36-.04.73-.04,1.09-.07,2.1-.11,4.13-.22,6.06-.36.22,0,.47-.04.69-.04,2-.11,3.92-.25,5.73-.36,6.09-.4,11.21-.76,15.2-1.02Z"/>
              <path class="cls-14" d="m734.95,614.81c-1.92,8.09-4.32,16.61-7.29,25.14-6.93.4-13.86.76-20.78,1.12-178.34,9.03-357.88.69-440.61-4.35-13.31-.83-24.08-1.56-31.99-2.1-1.31-1.92-2.65-3.84-4.03-5.84-5.55-8.12-10.55-15.92-15.09-23.39-.25-.4-.47-.76-.69-1.2-1.23-2.03-2.43-4.03-3.59-6.02,8.45,1.27,16.87,2.47,25.24,3.63,114.43,15.7,223.89,20.2,311.81,20.2,75.88,0,135.72-3.34,168.76-5.77,7.51-.51,13.64-1.02,18.24-1.41Z"/>
              <path class="cls-14" d="m448.34,600.56c-61.01-3.59-114.5-10.3-157.88-17.34-31.37-5.11-57.49-10.41-77.29-14.87-7.62-1.74-14.33-3.34-20.02-4.75v-.04c-2.87-6.46-5.3-12.48-7.36-18.1-.04-.11-.07-.25-.11-.36-1.96-5.33-3.55-10.26-4.9-14.8-.04-.22-.11-.44-.18-.65,30.97,7.29,122.48,27.2,240.14,37.14,3.19,4.68,6.75,9.65,10.48,14.47,5.55,7.22,11.46,14.15,17.12,19.3Z"/>
              <path class="cls-14" d="m742.75,564.29c-.25,3.95-1.02,13.42-2.97,25.86-4.79.65-9.58,1.27-14.33,1.85-6.17.76-12.3,1.49-18.39,2.14-12.19,1.38-24.26,2.58-36.23,3.59-.4.04-.76.07-1.16.11-5.26.44-10.48.87-15.7,1.23-1.05.11-2.1.18-3.16.22-4.39.36-8.74.65-13.09.91-4.43.33-8.85.58-13.24.8-1.38.07-2.79.14-4.17.22-2.65.15-5.3.29-7.91.4-3.95.18-7.87.36-11.79.51-5.73.22-11.39.44-17.05.58l.04-.04c6.82-4.93,14.73-11.64,21-19.98,2.61-3.45,4.97-7.18,6.82-11.21,54.99-2.18,97.89-4.68,131.33-7.18Z"/>
              <path class="cls-14" d="m348.35,669.73c-.11,0-.22.04-.29.04-.47.04-.91.04-1.38.11-.58.04-1.2.15-1.81.25h-.07c-.11,0-.25.04-.36.07-.51.07-.98.11-1.49.22-.22.04-.47.11-.73.15-.36.07-.73.15-1.09.22-.69.15-1.41.29-2.1.47-.58.15-1.16.29-1.74.44-.83.22-1.63.47-2.47.69-.29.11-.58.18-.87.29-.25.07-.47.14-.69.22-.98.29-1.96.62-2.97.98h-.04c-.4.14-.76.25-1.16.4-1.02.36-2.07.8-3.12,1.2-.36.15-.76.29-1.12.44h-.04c-1.56.62-3.12,1.27-4.71,1.99-3.19,1.38-6.46,2.94-9.79,4.61l-.04.04c-.94.47-1.89.98-2.83,1.45-7.22,3.74-14.65,7.98-22.05,12.59-.94-.87-1.92-1.81-2.94-2.79-.22-.25-.47-.51-.73-.73-.76-.76-1.56-1.56-2.36-2.39-.29-.29-.62-.62-.91-.91-.8-.83-1.6-1.67-2.43-2.54-.29-.29-.58-.62-.91-.94-.91-.98-1.89-2.03-2.83-3.08-.22-.22-.4-.44-.62-.65-1.12-1.27-2.28-2.57-3.45-3.92-.54-.62-1.12-1.31-1.7-1.96-.58-.65-1.16-1.34-1.78-2.03-.83-.98-1.67-1.99-2.54-3.05-.25-.33-.51-.62-.8-.94-1.96-2.39-3.99-4.93-6.09-7.58,15.38,1.56,31.05,2.87,46.93,4.03,15.23,1.05,30.65,1.92,46.1,2.65Z"/>
              <path class="cls-14" d="m498.4,674.59c-.04.12-.1.23-.15.35-.28.66-.63,1.32-1.04,1.98-.08.12-.15.25-.23.37-.49.73-1.04,1.45-1.67,2.17-.02.02-.03.04-.05.06-1.37,1.56-3.04,3.09-4.9,4.56-.07.06-.15.11-.22.17-.84.66-1.72,1.31-2.62,1.95-.13.09-.25.18-.38.27-.96.66-1.93,1.31-2.92,1.94,0,0-.02.01-.03.02-1.07.67-2.14,1.34-3.22,1.96-1.69.98-3.37,1.91-5,2.76,7.11-3.16,14.34-6.06,21.64-8.75.55-.2,1.08-.43,1.63-.63,3.44-1.26,6.89-2.48,10.36-3.64,3.27-1.09,6.65-2.25,10.09-3.36.67-.22,1.34-.43,2.02-.65.53-.17,1.06-.33,1.59-.49,1.01-.31,2.02-.61,3.03-.9.39-.11.77-.22,1.16-.33,1.11-.31,2.23-.6,3.34-.87.34-.09.69-.17,1.03-.26,1.12-.27,2.24-.5,3.37-.72.36-.07.72-.15,1.08-.22,1.03-.19,2.07-.34,3.1-.48.4-.06.79-.14,1.19-.19-13.51.29-27.41.47-41.61.62-.08.76-.29,1.53-.58,2.29Z"/>
              <path class="cls-14" d="m366.87,670.66c.25.05.5.1.73.15.03,0,.06.02.09.03.09.02.17.04.26.06.31.08.59.18.88.27.17.05.36.09.52.15.15.07.29.11.4.15.07.03.13.06.2.09.31.12.61.24.89.37.07.03.14.07.21.1.07.03.14.05.22.09.28.14.52.31.76.45.01,0,.03.02.05.03.02.01.04.03.07.04.12.07.24.15.33.21.12.08.21.17.32.26.09.07.19.15.28.22.07.06.13.12.2.18.05.04.1.09.15.13.06.06.11.13.17.2.08.09.16.18.24.27.02.03.04.05.06.08.08.09.14.2.23.28.07.18.18.33.25.47.07.14.11.29.18.44.04.14.11.29.14.47.02.09.03.2.04.3.01.07.03.13.03.2.02.13.03.27.04.4,0,.07,0,.14,0,.21v.38c-.04.11-.04.25-.04.36-.04.22-.07.47-.15.69,0,0,0,0,0,0,0,0,0,0,0,0-.02.09-.04.17-.06.26-.08.28-.18.55-.29.83,0,.02-.02.04-.02.06,0,.03-.02.06-.02.08-.29.68-.67,1.35-1.1,2.02-.03.04-.06.08-.09.12-.41.62-.86,1.22-1.35,1.82-.08.09-.16.18-.23.27-.47.55-.94,1.08-1.44,1.59-.06.06-.12.12-.19.19-2.45,2.48-5.01,4.41-5.68,4.91.46-.22,1.77-.83,3.71-1.71,7.13-3.26,23.36-10.42,42.15-17.04-14.51-.29-29.14-.72-43.72-1.27.21.04.41.09.61.13Z"/>
              <path class="cls-16" d="m739.77,590.15c-.8,5.11-1.81,10.7-3.05,16.65-.54,2.61-1.12,5.3-1.78,8.02-4.61.4-10.74.91-18.24,1.41-33.04,2.43-92.89,5.77-168.76,5.77-87.92,0-197.38-4.5-311.81-20.2-8.38-1.16-16.79-2.36-25.24-3.63-.36-.62-.65-1.2-1.02-1.81-1.2-2.1-2.39-4.17-3.52-6.24-.69-1.23-1.31-2.47-1.96-3.66-.83-1.52-1.63-3.01-2.39-4.5-.58-1.12-1.12-2.21-1.7-3.34-.94-1.85-1.85-3.7-2.72-5.51-.29-.62-.62-1.23-.87-1.81-1.23-2.57-2.39-5.11-3.48-7.58-.04-.04-.04-.07-.07-.11,5.69,1.41,12.4,3.01,20.02,4.75,19.8,4.46,45.92,9.76,77.29,14.87,43.38,7.04,96.88,13.75,157.88,17.34,3.45,3.16,6.78,5.62,9.87,7.11,20.75,10.05,109.72,4.53,109.72,4.53,0,0,7-3.3,15.63-9.5,5.66-.15,11.32-.36,17.05-.58,3.92-.14,7.83-.33,11.79-.51,2.61-.11,5.26-.25,7.91-.4,1.38-.07,2.79-.15,4.17-.22,4.39-.25,8.81-.51,13.24-.8,4.35-.25,8.7-.54,13.09-.91,1.05-.04,2.1-.11,3.16-.22,5.22-.36,10.45-.8,15.7-1.23.4-.04.76-.07,1.16-.11,11.97-1.02,24.05-2.21,36.23-3.59,6.09-.65,12.22-1.38,18.39-2.14,4.75-.58,9.54-1.2,14.33-1.85Z"/>
              <path class="cls-16" d="m727.66,639.95c-2.79,8.09-6.09,16.18-10.05,23.97-3.99.25-9.1.62-15.2,1.02-1.81.11-3.74.22-5.73.36-.22,0-.47.04-.69.04-1.96.11-3.95.25-6.06.36-.36.04-.73.04-1.09.07-1.38.07-2.76.15-4.21.25-1.52.07-3.08.18-4.68.25-8.16.47-17.19.94-27.02,1.45-1.38.07-2.83.15-4.24.22-4.32.18-8.78.4-13.35.62-4.75.22-9.61.44-14.65.65-2.83.07-5.69.22-8.6.33-3.55.14-7.18.29-10.88.4-3.45.14-6.93.25-10.45.36-12.37.44-25.32.8-38.7,1.12h-.29c-2.18-.22-4.39-.25-6.6-.15-1.52.07-3.05.22-4.61.4-13.49.29-27.38.47-41.6.62.44-3.95-2.18-7.87-9.72-11.32-4.06-1.85-9.07-2.76-14.69-2.97h-.29c-1.31-.04-2.65-.04-4.06-.04-.15.04-.29.04-.44.04-1.34.04-2.68.11-4.1.22-.18,0-.36.04-.54.04-1.34.11-2.76.25-4.17.4-.18.04-.4.07-.62.11-1.41.15-2.83.36-4.28.58-.18.04-.4.07-.58.11-1.49.22-2.94.47-4.46.76-.18.04-.36.07-.54.11-1.52.29-3.05.62-4.57.94-.18.04-.36.07-.54.11-1.56.36-3.12.73-4.68,1.09-.15.04-.29.07-.47.11-1.6.4-3.19.83-4.79,1.23-.14.04-.25.07-.36.11-1.67.44-3.3.91-4.93,1.38-.11.04-.22.07-.33.07-1.67.51-3.3.98-4.97,1.49-.07.04-.11.04-.18.07-1.7.51-3.41,1.05-5.08,1.6-.04,0-.04.04-.07.04-3.23,1.05-6.38,2.14-9.5,3.23-14.54-.29-29.16-.73-43.74-1.27-.14-.04-.29-.07-.44-.11h-.14c-3.74-.69-8.81-1.02-15.63-.8-.51,0-1.05.07-1.63.11h-.07c-15.45-.73-30.87-1.6-46.1-2.65-15.89-1.16-31.55-2.47-46.93-4.03h-.04c-2.03-2.57-4.13-5.33-6.27-8.16-1.05-1.41-2.14-2.83-3.23-4.32-.36-.47-.73-.94-1.05-1.41-1.45-1.96-2.9-3.99-4.39-6.06-.22-.29-.44-.58-.65-.91-1.45-1.99-2.94-4.06-4.42-6.2-.33-.47-.65-.91-.98-1.38,7.91.54,18.68,1.27,31.99,2.1,82.73,5.04,262.27,13.38,440.61,4.35,6.93-.36,13.86-.73,20.78-1.12Z"/>
            </g>
            <path class="cls-3" d="m175.54,506.42s0,.05.01.08c.12.85.25,1.74.4,2.66.02.11.03.22.05.33.14.84.29,1.72.45,2.63.04.22.08.44.12.67.15.83.32,1.69.5,2.56.07.34.13.67.21,1.01.17.8.35,1.63.54,2.47.1.46.21.92.32,1.4.18.76.37,1.54.56,2.33.15.61.3,1.22.46,1.85.18.7.37,1.41.57,2.13.21.77.42,1.55.65,2.35.07.26.14.51.21.77,0,0,0,0,.01,0,30.95,7.29,122.49,27.2,240.13,37.14,7.98,11.68,18.17,25.16,27.59,33.76,0,0,0,0,0,0,3.45,3.16,6.78,5.62,9.87,7.11,20.75,10.05,109.72,4.53,109.72,4.53,0,0,6.99-3.29,15.64-9.52,0,0,.02-.01.03-.02,9.68-6.96,21.47-17.55,27.82-31.19,54.99-2.18,97.89-4.68,131.33-7.18.07-1.34.11-2.07.11-2.07,0-.22-.04-8.67-5.37-14.69h-9.68l-102.25.36h-24.77c-1.05,6.06-7.25,15.45-14.07,24.34-9.43,12.19-19.98,23.36-19.98,23.36,0,0-90.75,5.37-104.02.36-7.73-2.94-17.3-16.72-23.9-27.71-4.75-7.83-8.02-14.25-8.02-14.25,0,0-8.16-1.85-21.58-4.9-59.48-13.56-222.26-50.96-234.56-56.73,0,0-.38,4.82.89,14.06Z"/>
            <path class="cls-17" d="m741.33,692.05c-1.07-.98-2.29-1.81-3.55-2.53-9.75-5.52-22.22-5.24-33.9-3.38h0s0,0,0,0c-5.19.83-10.23,1.96-14.8,3.05-3.48.82-7.07,1.7-10.67,2.65-5.97,1.57-11.93,3.4-17.34,5.94-.04.02-.08.03-.12.05.22-.1.41-.23.61-.34.22-.12.44-.23.65-.37.25-.16.48-.35.71-.53.11-.09.23-.17.34-.26.3-.26.57-.54.83-.83.02-.02.05-.04.07-.07.79-.93,1.31-2.01,1.48-3.15,0-.04.02-.08.03-.12.03-.22.01-.44.01-.67,0-.58-.05-1.17-.25-1.78-.21-.66-.51-1.32-.99-1.98-13.14-18.05-42.88-9.75-59.82-3.83-11.49,4.02-23.62,8.96-33.9,15.56h0s0,0,0,0c9.76-6.27,7.46-15.4-1.04-21.5-.07-.05-.15-.09-.22-.14-1.1-.78-2.22-1.46-3.35-2.08-.51-.28-1.02-.54-1.53-.79-.77-.38-1.55-.71-2.33-1.03-.77-.31-1.54-.59-2.31-.84-.84-.27-1.69-.52-2.54-.73-.64-.16-1.29-.28-1.94-.4-.72-.13-1.44-.24-2.17-.34-.5-.06-.99-.14-1.49-.19-2.19-.2-4.4-.25-6.62-.14-1.52.07-3.05.21-4.58.4-.39.05-.79.13-1.19.19-1.03.15-2.07.29-3.1.48-.36.07-.72.15-1.08.22-1.12.22-2.25.46-3.37.72-.34.08-.69.17-1.03.26-1.12.28-2.23.56-3.34.87-.39.11-.77.22-1.16.33-1.01.29-2.03.59-3.03.9-.53.16-1.06.33-1.59.49-.68.21-1.35.43-2.02.65-3.44,1.12-6.83,2.28-10.09,3.36-3.47,1.15-6.92,2.38-10.36,3.64-.55.2-1.08.42-1.63.63-7.34,2.72-14.62,5.64-21.78,8.82.03-.02.07-.04.1-.05.01,0,.03-.02.04-.02,1.63-.85,3.31-1.78,5-2.76,1.08-.63,2.16-1.29,3.22-1.96,0,0,.02-.01.03-.02,1-.63,1.97-1.28,2.92-1.94.13-.09.25-.18.38-.27.9-.64,1.78-1.29,2.62-1.95.07-.06.15-.11.22-.17,1.86-1.48,3.53-3,4.9-4.56.02-.02.03-.04.05-.06.63-.72,1.18-1.44,1.67-2.17.08-.12.16-.25.23-.37.42-.66.76-1.32,1.04-1.98.05-.12.11-.23.15-.35.29-.76.5-1.53.58-2.29.41-3.97-2.2-7.87-9.74-11.31-4.06-1.85-9.05-2.78-14.69-2.98-.09,0-.19,0-.28,0-1.32-.04-2.66-.05-4.05-.02-.15,0-.3.02-.45.02-1.34.04-2.7.1-4.09.21-.18.01-.36.03-.54.05-1.37.11-2.77.24-4.18.41-.2.02-.41.06-.61.08-1.41.17-2.84.37-4.29.59-.19.03-.39.07-.59.1-1.47.23-2.94.49-4.44.77-.19.04-.38.08-.57.11-1.51.29-3.03.6-4.56.94-.18.04-.36.08-.54.12-1.55.34-3.11.7-4.68,1.09-.15.04-.31.08-.46.12-1.6.39-3.2.8-4.81,1.23-.12.03-.25.07-.37.1-1.64.44-3.27.9-4.91,1.37-.11.03-.21.06-.32.09-1.67.48-3.33.98-4.99,1.49-.06.02-.12.04-.18.06-1.7.52-3.4,1.06-5.09,1.61-.01,0-.03,0-.04.01-3.23,1.05-6.41,2.14-9.53,3.24-18.79,6.62-35.02,13.78-42.15,17.04-2.47,1.13-3.9,1.81-3.9,1.81,0,0,3.02-2.12,5.87-5.02.06-.06.12-.12.19-.19.5-.51.98-1.05,1.44-1.59.08-.09.16-.17.23-.27.49-.59.94-1.2,1.35-1.82.03-.04.06-.08.09-.12.43-.67.81-1.34,1.09-2.02.01-.03.02-.05.03-.08,0-.02.02-.04.02-.06.11-.28.21-.55.29-.83.03-.09.04-.17.06-.26,0,0,0,0,0,0,.06-.23.11-.47.14-.7.02-.11.02-.23.03-.34.01-.13,0-.26.01-.39,0-.07,0-.14,0-.21,0-.13-.02-.27-.04-.4,0-.07-.02-.13-.03-.2-.02-.11-.03-.21-.06-.32-.04-.15-.08-.29-.13-.44-.05-.15-.11-.3-.18-.44-.08-.16-.16-.31-.26-.46-.06-.1-.14-.2-.21-.3-.02-.03-.04-.05-.06-.08-.07-.09-.16-.18-.24-.27-.06-.07-.11-.14-.18-.2-.04-.04-.09-.09-.14-.13-.07-.06-.13-.12-.2-.18-.09-.08-.19-.15-.28-.22-.1-.08-.2-.17-.31-.25-.1-.07-.22-.14-.33-.22-.02-.01-.04-.03-.07-.04-.01,0-.03-.02-.05-.03-.24-.15-.49-.3-.77-.44-.06-.03-.13-.06-.2-.1-.07-.03-.14-.07-.21-.1-.28-.13-.58-.25-.89-.37-.07-.03-.12-.06-.19-.08-.13-.05-.27-.09-.41-.14-.16-.06-.35-.11-.52-.16-.29-.09-.56-.19-.88-.27-.08-.02-.17-.04-.26-.06-.03,0-.05-.01-.08-.02-.23-.06-.5-.11-.75-.17-.2-.05-.4-.09-.61-.13-.16-.03-.29-.07-.45-.1-.04,0-.09-.02-.14-.02-3.74-.69-8.8-1.01-15.61-.8-.53.02-1.08.07-1.63.12-.03,0-.06,0-.1,0-.1,0-.19.01-.29.02-.46.04-.9.05-1.36.1-.59.06-1.2.16-1.81.25-.03,0-.05,0-.08.01-.12.02-.25.04-.37.06-.49.07-.97.14-1.47.23-.24.04-.49.1-.73.15-.36.07-.73.14-1.09.22-.7.15-1.4.3-2.12.47-.58.14-1.16.29-1.74.45-.81.22-1.62.44-2.44.69-.29.09-.59.18-.89.27-.23.07-.46.14-.69.21-.97.31-1.96.64-2.96.99-.01,0-.03,0-.04.01-.39.13-.77.26-1.16.4-1.03.37-2.08.78-3.13,1.19-.38.15-.75.28-1.13.43,0,0,0,0,0,0,0,0-.02,0-.03.01-4.67,1.87-9.53,4.1-14.49,6.59h-.03s-.02.02-.03.03c-.93.47-1.87.98-2.81,1.47-7.62,3.96-15.45,8.48-23.24,13.33-3.15,1.98-6.31,3.98-9.43,6.02-.04.02-.07.05-.11.07-36.95,24.2-70.23,52.52-70.24,52.52,4.69-3.99,18.52-4.9,24.6-6.43,70.11-17.63,144.11-14.84,215.96-7.04,71.42,7.75,147.12,10.63,218.08-3.66,8.24-1.66,16.43-3.59,24.53-5.83,11.39-3.15,68.34-19.63,55.85-38.48-.6-.91-1.32-1.72-2.12-2.45Z"/>
            <g>
              <g>
                <g>
                  <path class="cls-11" d="m673.06,627.51l-6.13,23.5h-18.06l6.13-23.5c1.21-4.65,5.71-8.48,10.34-9,.35-.04.7-.06,1.05-.06s.69.02,1.02.06c2.02.24,3.63,1.18,4.67,2.59,1.2,1.64,1.63,3.9.97,6.4Z"/>
                  <path class="cls-17" d="m665.56,648.48h-14l5.35-20.48c1.01-3.88,4.97-7.03,8.84-7.03h0c3.87,0,6.18,3.15,5.17,7.03l-5.35,20.48Z"/>
                  <path class="cls-11" d="m667.42,618.51l-8.48,32.49h-2.08l8.48-32.49c.35-.04.7-.06,1.05-.06s.69.02,1.02.06Z"/>
                  <g>
                    <polygon class="cls-11" points="669.87 639.74 669.32 641.83 651.26 641.83 651.8 639.74 669.87 639.74"/>
                    <polygon class="cls-11" points="673.03 627.62 672.49 629.7 654.42 629.7 654.97 627.62 673.03 627.62"/>
                  </g>
                </g>
                <g>
                  <path class="cls-11" d="m642.13,627.51l-6.13,23.5h-18.06l6.13-23.5c1.21-4.65,5.71-8.48,10.34-9,.35-.04.7-.06,1.05-.06s.69.02,1.02.06c2.02.24,3.63,1.18,4.67,2.59,1.2,1.64,1.63,3.9.97,6.4Z"/>
                  <path class="cls-17" d="m634.63,648.48h-14l5.35-20.48c1.01-3.88,4.97-7.03,8.84-7.03h0c3.87,0,6.18,3.15,5.17,7.03l-5.35,20.48Z"/>
                  <path class="cls-11" d="m636.49,618.51l-8.48,32.49h-2.08l8.48-32.49c.35-.04.7-.06,1.05-.06s.69.02,1.02.06Z"/>
                  <g>
                    <polygon class="cls-11" points="638.94 639.74 638.39 641.83 620.33 641.83 620.87 639.74 638.94 639.74"/>
                    <polygon class="cls-11" points="642.1 627.62 641.56 629.7 623.49 629.7 624.04 627.62 642.1 627.62"/>
                  </g>
                </g>
                <g>
                  <path class="cls-11" d="m682.79,590.21l-6.13,23.5h-18.06l6.13-23.5c1.21-4.65,5.71-8.48,10.34-9,.35-.04.7-.06,1.05-.06s.69.02,1.02.06c2.02.24,3.63,1.18,4.67,2.59,1.2,1.64,1.63,3.9.97,6.4Z"/>
                  <path class="cls-17" d="m675.29,611.18h-14l5.35-20.48c1.01-3.88,4.97-7.03,8.84-7.03h0c3.87,0,6.18,3.15,5.17,7.03l-5.35,20.48Z"/>
                  <path class="cls-11" d="m677.15,581.22l-8.48,32.49h-2.08l8.48-32.49c.35-.04.7-.06,1.05-.06s.69.02,1.02.06Z"/>
                  <g>
                    <polygon class="cls-11" points="679.6 602.45 679.05 604.54 660.99 604.54 661.54 602.45 679.6 602.45"/>
                    <polygon class="cls-11" points="682.77 590.32 682.22 592.41 664.16 592.41 664.7 590.32 682.77 590.32"/>
                  </g>
                </g>
                <g>
                  <path class="cls-11" d="m651.87,590.21l-6.13,23.5h-18.06l6.13-23.5c1.21-4.65,5.71-8.48,10.34-9,.35-.04.7-.06,1.05-.06s.69.02,1.02.06c2.02.24,3.63,1.18,4.67,2.59,1.2,1.64,1.63,3.9.97,6.4Z"/>
                  <path class="cls-17" d="m644.36,611.18h-14l5.35-20.48c1.01-3.88,4.97-7.03,8.84-7.03h0c3.87,0,6.18,3.15,5.17,7.03l-5.35,20.48Z"/>
                  <path class="cls-11" d="m646.22,581.22l-8.48,32.49h-2.08l8.48-32.49c.35-.04.7-.06,1.05-.06s.69.02,1.02.06Z"/>
                  <g>
                    <polygon class="cls-11" points="648.67 602.45 648.13 604.54 630.06 604.54 630.61 602.45 648.67 602.45"/>
                    <polygon class="cls-11" points="651.84 590.32 651.29 592.41 633.23 592.41 633.77 590.32 651.84 590.32"/>
                  </g>
                </g>
              </g>
              <g>
                <g>
                  <path class="cls-11" d="m701.51,627.51l-6.13,23.5h-18.06l6.13-23.5c1.21-4.65,5.71-8.48,10.34-9,.35-.04.7-.06,1.05-.06s.69.02,1.02.06c2.02.24,3.63,1.18,4.67,2.59,1.2,1.64,1.63,3.9.97,6.4Z"/>
                  <path class="cls-17" d="m694.01,648.48h-14l5.35-20.48c1.01-3.88,4.97-7.03,8.84-7.03h0c3.87,0,6.18,3.15,5.17,7.03l-5.35,20.48Z"/>
                  <path class="cls-11" d="m695.87,618.51l-8.48,32.49h-2.08l8.48-32.49c.35-.04.7-.06,1.05-.06s.69.02,1.02.06Z"/>
                  <g>
                    <polygon class="cls-11" points="698.32 639.74 697.77 641.83 679.71 641.83 680.26 639.74 698.32 639.74"/>
                    <polygon class="cls-11" points="701.48 627.62 700.94 629.7 682.88 629.7 683.42 627.62 701.48 627.62"/>
                  </g>
                </g>
                <g>
                  <path class="cls-11" d="m711.25,590.21l-6.13,23.5h-18.06l6.13-23.5c1.21-4.65,5.71-8.48,10.34-9,.35-.04.7-.06,1.05-.06s.69.02,1.02.06c2.02.24,3.63,1.18,4.67,2.59,1.2,1.64,1.63,3.9.97,6.4Z"/>
                  <path class="cls-17" d="m703.74,611.18h-14l5.35-20.48c1.01-3.88,4.97-7.03,8.84-7.03h0c3.87,0,6.18,3.15,5.17,7.03l-5.35,20.48Z"/>
                  <path class="cls-11" d="m705.6,581.22l-8.48,32.49h-2.08l8.48-32.49c.35-.04.7-.06,1.05-.06s.69.02,1.02.06Z"/>
                  <g>
                    <polygon class="cls-11" points="708.05 602.45 707.51 604.54 689.44 604.54 689.99 602.45 708.05 602.45"/>
                    <polygon class="cls-11" points="711.22 590.32 710.67 592.41 692.61 592.41 693.15 590.32 711.22 590.32"/>
                  </g>
                </g>
              </g>
            </g>
            <path class="cls-8" d="m285.38,696.56c-.4.25-.8.51-1.2.76-3.12,1.96-6.27,3.99-9.43,6.02-.04.04-.07.04-.11.07-25.9-26.66-81.57-92.56-122.59-202.57l22.6-8.49s-.36,4.82.91,14.07v.07c.11.83.25,1.74.4,2.65,0,.11.04.22.04.33.15.83.29,1.74.47,2.65l.11.65c.14.83.33,1.67.51,2.58.07.33.14.65.22.98.14.83.33,1.63.54,2.5.07.44.18.91.29,1.38.18.76.4,1.56.58,2.32.15.62.29,1.23.47,1.85.18.69.36,1.41.54,2.14.22.76.44,1.56.65,2.36.07.25.14.51.22.76.07.22.14.44.18.65,1.34,4.53,2.94,9.47,4.9,14.8.04.11.07.25.11.36,2.07,5.62,4.5,11.68,7.36,18.14.04.04.04.07.07.11,1.09,2.47,2.25,5.01,3.48,7.58.25.58.58,1.2.87,1.81.87,1.81,1.78,3.66,2.72,5.51.58,1.12,1.12,2.21,1.7,3.34.8,1.49,1.56,2.97,2.39,4.5.65,1.2,1.27,2.43,1.96,3.66,1.12,2.07,2.32,4.13,3.52,6.24.36.62.65,1.2,1.02,1.81,1.16,1.99,2.36,3.99,3.59,6.02.22.44.44.8.69,1.2,4.53,7.47,9.54,15.27,15.09,23.39,1.38,1.99,2.72,3.92,4.03,5.84.33.47.65.91.98,1.38,1.49,2.14,2.97,4.21,4.42,6.2.22.33.44.62.65.91,1.49,2.07,2.94,4.1,4.39,6.06.33.47.69.94,1.05,1.41,1.09,1.45,2.18,2.9,3.23,4.32,2.14,2.83,4.24,5.59,6.27,8.16h.04c2.1,2.65,4.13,5.19,6.09,7.58.29.33.54.62.8.94.87,1.05,1.7,2.07,2.54,3.05.62.69,1.2,1.38,1.78,2.03.58.65,1.16,1.34,1.7,1.96,1.16,1.38,2.32,2.65,3.45,3.92.22.22.4.44.62.65.94,1.05,1.92,2.1,2.83,3.08.33.33.62.65.91.94.83.87,1.63,1.7,2.43,2.54.29.29.62.62.91.91.8.83,1.6,1.63,2.36,2.39.25.22.51.47.73.73,1.02.98,1.99,1.92,2.94,2.79Z"/>
            <g>
              <g>
                <circle class="cls-3" cx="320.22" cy="634.81" r="15.4"/>
                <circle class="cls-4" cx="320.22" cy="634.81" r="10.78"/>
                <circle class="cls-12" cx="320.22" cy="634.81" r="5.79"/>
              </g>
              <g>
                <circle class="cls-3" cx="373.34" cy="634.81" r="15.4"/>
                <circle class="cls-4" cx="373.34" cy="634.81" r="10.78"/>
                <circle class="cls-12" cx="373.34" cy="634.81" r="5.79"/>
              </g>
            </g>
            <g>
              <g>
                <g>
                  <circle class="cls-3" cx="293.86" cy="597.36" r="15.4"/>
                  <circle class="cls-4" cx="293.86" cy="597.36" r="10.78"/>
                  <circle class="cls-12" cx="293.86" cy="597.36" r="5.79"/>
                </g>
                <g>
                  <circle class="cls-3" cx="399.71" cy="597.36" r="15.4"/>
                  <circle class="cls-4" cx="399.71" cy="597.36" r="10.78"/>
                  <circle class="cls-12" cx="399.71" cy="597.36" r="5.79"/>
                </g>
              </g>
              <g>
                <circle class="cls-3" cx="346.78" cy="597.36" r="15.4"/>
                <circle class="cls-4" cx="346.78" cy="597.36" r="10.78"/>
                <circle class="cls-12" cx="346.78" cy="597.36" r="5.79"/>
              </g>
            </g>
            <path class="cls-6" d="m302.25,667.08c5.77,3.92,11.72,7.54,17.84,10.81-3.19,1.38-6.46,2.94-9.79,4.61l-.04.04c-.94.47-1.89.98-2.83,1.45-7.22,3.74-14.65,7.98-22.05,12.59-.94-.87-1.92-1.81-2.94-2.79-.22-.25-.47-.51-.73-.73-.76-.76-1.56-1.56-2.36-2.39-.29-.29-.62-.62-.91-.91-.8-.83-1.6-1.67-2.43-2.54-.29-.29-.58-.62-.91-.94-.91-.98-1.89-2.03-2.83-3.08-.22-.22-.4-.44-.62-.65-1.12-1.27-2.28-2.57-3.45-3.92-.54-.62-1.12-1.31-1.7-1.96-.58-.65-1.16-1.34-1.78-2.03-.83-.98-1.67-1.99-2.54-3.05-.25-.33-.51-.62-.8-.94-1.96-2.39-3.99-4.93-6.09-7.58h-.04c-2.03-2.57-4.13-5.33-6.27-8.16-1.05-1.41-2.14-2.83-3.23-4.32-.36-.47-.73-.94-1.05-1.41-1.45-1.96-2.9-3.99-4.39-6.06-.22-.29-.44-.58-.65-.91-1.45-1.99-2.94-4.06-4.42-6.2-.33-.47-.65-.91-.98-1.38-1.31-1.92-2.65-3.84-4.03-5.84-5.55-8.12-10.55-15.92-15.09-23.39-.25-.4-.47-.76-.69-1.2-1.23-2.03-2.43-4.03-3.59-6.02-.36-.62-.65-1.2-1.02-1.81-1.2-2.1-2.39-4.17-3.52-6.24-.69-1.23-1.31-2.47-1.96-3.66-.83-1.52-1.63-3.01-2.39-4.5-.58-1.12-1.12-2.21-1.7-3.34-.94-1.85-1.85-3.7-2.72-5.51-.29-.62-.62-1.23-.87-1.81-1.23-2.57-2.39-5.11-3.48-7.58-.04-.04-.04-.07-.07-.11v-.04c-2.87-6.46-5.3-12.48-7.36-18.1-.04-.11-.07-.25-.11-.36-1.96-5.33-3.55-10.26-4.9-14.8-.04-.22-.11-.44-.18-.65,30.97,7.29,122.48,27.2,240.14,37.14,3.19,4.68,6.75,9.65,10.48,14.47-25.21-3.59-142.32-20.78-234.52-42.11,0,0,5.77,11.93,16.47,29.2,6.09,9.83,13.78,21.4,22.96,33.44,8.74,11.53,18.82,23.54,30.14,34.93,10.92,11.03,22.92,21.47,35.98,30.36Z"/>
            <path class="cls-6" d="m742.75,564.29c-.25,3.95-1.02,13.42-2.97,25.86-.8,5.11-1.81,10.7-3.05,16.65-.54,2.61-1.12,5.3-1.78,8.02-1.92,8.09-4.32,16.61-7.29,25.14-2.79,8.09-6.09,16.18-10.05,23.97-3.92,7.87-8.49,15.38-13.75,22.23-5.19.8-10.23,1.96-14.8,3.05-2.43.54-4.93,1.16-7.47,1.85,4.79-7.11,9.68-16,14.4-25.72,3.77-7.73,7.44-15.96,10.88-24.26,3.52-8.41,6.82-16.87,9.83-24.84,3.34-8.89,6.31-17.19,8.74-24.23,4.53-13.13,7.25-21.87,7.25-21.87-69.06,3.16-114.36,10.19-128.11,12.55,2.61-3.45,4.97-7.18,6.82-11.21,54.99-2.18,97.89-4.68,131.33-7.18Z"/>
          </g>
          <g>
            <path class="cls-14" d="m239.26,667.54c4.76,8.56,10.31,16.72,16.7,24.17,6.3.87,12.43,2.13,17.98,3.31,2.95.59,5.99,1.26,9.08,2.01,1.28.24,2.6.55,3.88.87,1.81.43,3.61.87,5.42,1.34,3.61.91,7.18,1.97,10.62,3.15,1.67.59,3.35,1.22,4.98,1.89-.22-.04-.35-.16-.57-.28-.26-.12-.53-.24-.79-.39-.31-.16-.57-.35-.84-.59-.13-.08-.31-.16-.44-.28-.35-.28-.66-.59-.97-.91-.04,0-.09-.04-.09-.04-.97-1.03-1.59-2.21-1.81-3.43,0-.04-.04-.08-.04-.12-.04-.24,0-.51,0-.75,0-.63.04-1.26.31-1.93.26-.71.62-1.42,1.19-2.13,15.95-19.64,52.08-10.61,72.66-4.18,13.97,4.38,28.69,9.74,41.2,16.91-11.85-6.82-9.08-16.76,1.28-23.38.09-.04.18-.08.26-.16,1.32-.83,2.69-1.58,4.05-2.25.62-.32,1.23-.59,1.85-.87.93-.39,1.89-.79,2.86-1.1.93-.35,1.85-.67,2.78-.91,1.06-.32,2.07-.59,3.08-.79.79-.2,1.59-.32,2.38-.47.88-.12,1.76-.24,2.64-.35.48-.04.97-.16,1.45-.2-16.26-.35-31.99-.75-47.02-1.22-4.32-.12-8.5-.24-12.69-.39-4.49-.12-8.9-.28-13.22-.43-3.53-.12-7.01-.24-10.44-.36-6.12-.24-12.03-.47-17.8-.71-5.6-.2-10.97-.43-16.22-.67-1.72-.08-3.48-.16-5.16-.24-11.94-.51-22.91-1.06-32.83-1.58-1.94-.08-3.83-.2-5.68-.28-1.72-.08-3.44-.16-5.11-.28-.44-.04-.88-.04-1.32-.08-2.56-.12-5.02-.24-7.36-.39-.26,0-.57-.04-.84-.04-2.42-.12-4.76-.28-6.96-.39-7.4-.43-13.62-.83-18.46-1.1Z"/>
            <path class="cls-14" d="m218.2,614.16c2.34,8.79,5.24,18.06,8.86,27.32,8.42.43,16.83.83,25.25,1.22,216.66,9.82,434.78.75,535.29-4.73,16.17-.91,29.26-1.7,38.86-2.29,1.59-2.09,3.22-4.18,4.89-6.35,6.74-8.83,12.82-17.31,18.33-25.43.31-.43.57-.83.84-1.3,1.5-2.21,2.95-4.38,4.36-6.54-10.27,1.38-20.49,2.68-30.67,3.94-139.02,17.07-272.01,21.96-378.82,21.96-92.18,0-164.89-3.63-205.03-6.27-9.12-.55-16.57-1.1-22.16-1.54Z"/>
            <path class="cls-14" d="m566.39,598.66c74.12-3.9,139.11-11.2,191.81-18.85,38.12-5.56,69.84-11.32,93.9-16.17,9.25-1.89,17.4-3.63,24.32-5.17v-.04c3.48-7.02,6.43-13.56,8.95-19.67.04-.12.09-.28.13-.39,2.38-5.8,4.32-11.16,5.95-16.09.04-.24.13-.47.22-.71-37.63,7.93-148.8,29.57-291.75,40.37-3.88,5.09-8.2,10.49-12.73,15.73-6.74,7.85-13.92,15.38-20.8,20.98Z"/>
            <path class="cls-14" d="m208.72,559.24c.31,4.3,1.23,14.59,3.61,28.11,5.82.71,11.63,1.38,17.4,2.01,7.49.83,14.94,1.62,22.34,2.33,14.81,1.5,29.48,2.8,44.02,3.9.48.04.93.08,1.41.12,6.39.47,12.73.95,19.08,1.34,1.28.12,2.56.2,3.83.24,5.33.39,10.62.71,15.91.99,5.38.35,10.75.63,16.08.87,1.67.08,3.39.16,5.07.24,3.22.16,6.43.32,9.61.43,4.8.2,9.56.39,14.32.55,6.96.24,13.84.47,20.71.63l-.04-.04c-8.28-5.36-17.89-12.66-25.51-21.72-3.17-3.75-6.04-7.81-8.28-12.18-66.8-2.37-118.93-5.09-159.56-7.81Z"/>
            <path class="cls-14" d="m687.87,673.85c.13,0,.26.04.35.04.57.04,1.1.04,1.67.12.7.04,1.45.16,2.2.28h.09c.13,0,.31.04.44.08.62.08,1.19.12,1.81.24.26.04.57.12.88.16.44.08.88.16,1.32.24.84.16,1.72.32,2.56.51.7.16,1.41.32,2.12.47,1.01.24,1.98.51,3,.75.35.12.71.2,1.06.32.31.08.57.16.84.24,1.19.32,2.38.67,3.61,1.06h.04c.48.16.93.28,1.41.43,1.23.39,2.51.87,3.79,1.3.44.16.93.32,1.37.47h.04c1.89.67,3.79,1.38,5.73,2.17,3.88,1.5,7.84,3.19,11.9,5.01l.04.04c1.15.51,2.29,1.06,3.44,1.58,8.77,4.06,17.8,8.67,26.79,13.68,1.15-.95,2.34-1.97,3.57-3.04.26-.28.57-.55.88-.79.93-.83,1.89-1.7,2.86-2.6.35-.32.75-.67,1.1-.99.97-.91,1.94-1.81,2.95-2.76.35-.32.7-.67,1.1-1.03,1.1-1.06,2.29-2.21,3.44-3.35.26-.24.48-.47.75-.71,1.37-1.38,2.78-2.8,4.19-4.26.66-.67,1.37-1.42,2.07-2.13.7-.71,1.41-1.46,2.16-2.21,1.01-1.06,2.03-2.17,3.08-3.31.31-.36.62-.67.97-1.03,2.38-2.6,4.85-5.36,7.4-8.24-18.68,1.7-37.72,3.12-57.02,4.38-18.51,1.14-37.23,2.09-56.01,2.88Z"/>
            <path class="cls-14" d="m505.58,679.14c.05.13.12.25.18.38.34.72.76,1.44,1.27,2.16.09.13.19.27.28.4.59.79,1.26,1.58,2.02,2.36.02.02.04.05.06.07,1.67,1.7,3.7,3.36,5.96,4.96.09.06.18.12.26.18,1.02.72,2.09,1.42,3.19,2.12.15.1.31.19.46.29,1.16.72,2.34,1.43,3.55,2.11.01,0,.02.01.03.02,1.29.73,2.6,1.45,3.91,2.14,2.05,1.07,4.1,2.08,6.07,3-8.63-3.44-17.43-6.58-26.29-9.51-.66-.22-1.32-.46-1.98-.68-4.18-1.37-8.37-2.7-12.58-3.96-3.97-1.18-8.08-2.44-12.26-3.66-.82-.24-1.63-.47-2.46-.71-.64-.18-1.28-.36-1.93-.53-1.22-.34-2.45-.66-3.69-.98-.47-.12-.94-.24-1.41-.36-1.35-.34-2.7-.65-4.06-.95-.42-.09-.83-.19-1.25-.28-1.36-.29-2.73-.54-4.09-.79-.44-.08-.87-.17-1.31-.24-1.26-.21-2.51-.37-3.77-.53-.48-.06-.96-.15-1.44-.2,16.41.31,33.3.51,50.55.67.1.83.36,1.66.71,2.49Z"/>
            <path class="cls-14" d="m665.37,674.87c-.3.06-.61.11-.89.17-.04.01-.07.02-.11.03-.1.02-.21.04-.31.07-.38.09-.72.19-1.07.29-.21.06-.44.1-.63.16-.18.08-.35.12-.48.16-.09.03-.16.07-.25.1-.38.13-.74.27-1.08.41-.09.04-.17.07-.26.11-.09.03-.18.06-.26.1-.33.15-.63.33-.92.49-.02,0-.04.02-.06.03-.03.02-.05.03-.08.05-.14.07-.29.16-.4.23-.14.09-.26.18-.38.28-.11.08-.24.16-.34.24-.08.07-.16.13-.24.2-.06.05-.13.1-.18.14-.08.07-.14.14-.21.22-.1.1-.2.2-.29.3-.02.03-.04.06-.07.08-.09.1-.17.21-.27.31-.09.2-.22.36-.31.51-.09.16-.13.32-.22.47-.04.16-.13.32-.18.51-.03.09-.04.22-.05.33-.01.07-.03.14-.04.21-.02.14-.04.29-.04.43,0,.07,0,.15,0,.23v.41c.04.12.04.28.04.39.04.24.09.51.18.75,0,0,0,0,0,0,0,0,0,0,0,0,.03.09.05.19.08.28.1.3.22.6.35.9,0,.02.02.04.03.07.01.03.02.07.02.09.35.73.81,1.47,1.34,2.19.03.05.07.09.11.13.5.67,1.05,1.33,1.64,1.98.09.1.19.19.28.29.57.6,1.15,1.18,1.75,1.73.08.07.15.13.23.2,2.98,2.7,6.08,4.79,6.9,5.34-.56-.24-2.15-.9-4.51-1.86-8.67-3.55-28.38-11.33-51.21-18.53,17.63-.31,35.4-.79,53.12-1.38-.25.05-.49.1-.74.15Z"/>
            <path class="cls-16" d="m212.34,587.35c.97,5.56,2.2,11.63,3.7,18.1.66,2.84,1.37,5.76,2.16,8.71,5.6.43,13.04.99,22.16,1.54,40.14,2.64,112.85,6.27,205.03,6.27,106.81,0,239.8-4.89,378.82-21.96,10.18-1.26,20.4-2.56,30.67-3.94.44-.67.79-1.3,1.23-1.97,1.45-2.29,2.91-4.53,4.27-6.78.84-1.34,1.59-2.68,2.38-3.98,1.01-1.66,1.98-3.27,2.91-4.89.71-1.22,1.37-2.41,2.07-3.63,1.15-2.01,2.25-4.02,3.3-5.99.35-.67.75-1.34,1.06-1.97,1.5-2.8,2.91-5.56,4.23-8.24.04-.04.04-.08.09-.12-6.92,1.54-15.07,3.27-24.32,5.17-24.06,4.85-55.79,10.61-93.9,16.17-52.7,7.65-117.69,14.94-191.81,18.85-4.19,3.43-8.24,6.11-11.99,7.73-25.2,10.92-133.29,4.93-133.29,4.93,0,0-8.5-3.59-18.99-10.33-6.87-.16-13.75-.39-20.71-.63-4.76-.16-9.52-.35-14.32-.55-3.17-.12-6.39-.28-9.61-.43-1.67-.08-3.39-.16-5.07-.24-5.33-.28-10.71-.55-16.08-.87-5.29-.28-10.58-.59-15.91-.99-1.28-.04-2.56-.12-3.83-.24-6.35-.39-12.69-.87-19.08-1.34-.48-.04-.93-.08-1.41-.12-14.54-1.1-29.21-2.41-44.02-3.9-7.4-.71-14.85-1.5-22.34-2.33-5.77-.63-11.59-1.3-17.4-2.01Z"/>
            <path class="cls-16" d="m227.05,641.48c3.39,8.79,7.4,17.59,12.21,26.06,4.85.28,11.06.67,18.46,1.1,2.2.12,4.54.24,6.96.39.26,0,.57.04.84.04,2.38.12,4.8.28,7.36.39.44.04.88.04,1.32.08,1.67.08,3.35.16,5.11.28,1.85.08,3.75.2,5.68.28,9.91.51,20.89,1.03,32.83,1.58,1.67.08,3.44.16,5.16.24,5.24.2,10.66.43,16.22.67,5.77.24,11.68.47,17.8.71,3.44.08,6.92.24,10.44.36,4.32.16,8.72.32,13.22.43,4.19.16,8.42.28,12.69.39,15.03.47,30.76.87,47.02,1.22h.35c2.64-.24,5.33-.28,8.02-.16,1.85.08,3.7.24,5.6.43,16.39.32,33.27.51,50.54.67-.53-4.3,2.64-8.56,11.81-12.3,4.94-2.01,11.02-3,17.85-3.23h.35c1.59-.04,3.22-.04,4.94-.04.18.04.35.04.53.04,1.63.04,3.26.12,4.98.24.22,0,.44.04.66.04,1.63.12,3.35.28,5.07.43.22.04.48.08.75.12,1.72.16,3.44.39,5.2.63.22.04.48.08.71.12,1.81.24,3.57.51,5.42.83.22.04.44.08.66.12,1.85.32,3.7.67,5.55,1.03.22.04.44.08.66.12,1.89.39,3.79.79,5.68,1.18.18.04.35.08.57.12,1.94.43,3.88.91,5.82,1.34.18.04.31.08.44.12,2.03.47,4.01.99,5.99,1.5.13.04.26.08.4.08,2.03.55,4.01,1.06,6.04,1.62.09.04.13.04.22.08,2.07.55,4.14,1.14,6.17,1.73.04,0,.04.04.09.04,3.92,1.14,7.76,2.33,11.54,3.51,17.67-.32,35.43-.79,53.14-1.38.18-.04.35-.08.53-.12h.18c4.54-.75,10.71-1.1,18.99-.87.62,0,1.28.08,1.98.12h.09c18.77-.79,37.5-1.73,56.01-2.88,19.3-1.26,38.34-2.68,57.02-4.38h.04c2.47-2.8,5.02-5.8,7.62-8.87,1.28-1.54,2.6-3.08,3.92-4.69.44-.51.88-1.02,1.28-1.54,1.76-2.13,3.53-4.34,5.33-6.58.26-.32.53-.63.79-.99,1.76-2.17,3.57-4.42,5.38-6.74.4-.51.79-.99,1.19-1.5-9.61.59-22.69,1.38-38.86,2.29-100.51,5.48-318.63,14.55-535.29,4.73-8.42-.39-16.83-.79-25.25-1.22Z"/>
          </g>
          <g>
            <g>
              <g>
                <path class="cls-10" d="m581.31,652.44l-1.85,40.24-48.1,3.04c-13.38.84-24.83-10.9-24.21-26.36v-.18c.72-15.53,13.25-26.26,26.55-24.19l47.62,7.45Z"/>
                <path class="cls-2" d="m580.24,675.82l-.78,16.86-48.1,3.04c-13.38.84-24.83-10.9-24.21-26.36l73.09,6.45Z"/>
                <path class="cls-7" d="m595.65,673.26c-.47,10.19-6.47,18.8-13.94,19.28-8.14.51-14.85-8.68-14.3-20.57.55-11.9,8.07-20.43,16.13-19.17,7.4,1.16,12.58,10.29,12.12,20.47Z"/>
                <path class="cls-12" d="m589.75,672.63c-.26,5.56-3.58,10.09-7.59,10.13-4.19.04-7.5-4.81-7.23-10.84.28-6.03,4.02-10.54,8.19-10.1,3.98.42,6.88,5.26,6.62,10.81Z"/>
              </g>
              <g>
                <path class="cls-10" d="m583.6,572.42l-1.85,40.24-48.1,3.04c-13.38.84-24.83-10.9-24.21-26.36v-.18c.72-15.53,13.25-26.26,26.55-24.19l47.62,7.45Z"/>
                <path class="cls-2" d="m582.53,595.8l-.78,16.86-48.1,3.04c-13.38.84-24.83-10.9-24.21-26.36l73.09,6.45Z"/>
                <path class="cls-7" d="m597.94,593.24c-.47,10.19-6.47,18.8-13.94,19.28-8.14.51-14.85-8.68-14.3-20.57.55-11.9,8.07-20.43,16.13-19.17,7.4,1.16,12.58,10.29,12.12,20.47Z"/>
                <path class="cls-12" d="m592.04,592.62c-.26,5.56-3.58,10.09-7.59,10.13-4.19.04-7.5-4.81-7.23-10.84.28-6.03,4.02-10.54,8.19-10.1,3.98.42,6.88,5.26,6.62,10.81Z"/>
              </g>
            </g>
            <g>
              <g>
                <path class="cls-10" d="m379.82,640.06l-1.85,40.24-48.1,3.04c-13.38.84-24.83-10.9-24.21-26.36v-.18c.72-15.53,13.25-26.26,26.55-24.19l47.62,7.45Z"/>
                <path class="cls-2" d="m378.74,663.44l-.78,16.86-48.1,3.04c-13.38.84-24.83-10.9-24.21-26.36l73.09,6.45Z"/>
                <path class="cls-7" d="m394.16,660.88c-.47,10.19-6.47,18.8-13.94,19.28-8.14.51-14.85-8.68-14.3-20.57.55-11.9,8.07-20.43,16.13-19.17,7.4,1.16,12.58,10.29,12.12,20.47Z"/>
                <path class="cls-12" d="m388.25,660.25c-.26,5.56-3.58,10.09-7.59,10.13-4.19.04-7.5-4.81-7.23-10.84.28-6.03,4.02-10.54,8.19-10.1,3.98.42,6.88,5.26,6.62,10.81Z"/>
              </g>
              <g>
                <path class="cls-10" d="m382.11,560.04l-1.85,40.24-48.1,3.04c-13.38.84-24.83-10.9-24.21-26.36v-.18c.72-15.53,13.25-26.26,26.55-24.19l47.62,7.45Z"/>
                <path class="cls-2" d="m381.03,583.42l-.78,16.86-48.1,3.04c-13.38.84-24.83-10.9-24.21-26.36l73.09,6.45Z"/>
                <path class="cls-7" d="m396.45,580.86c-.47,10.19-6.47,18.8-13.94,19.28-8.14.51-14.85-8.68-14.3-20.57.55-11.9,8.07-20.43,16.13-19.17,7.4,1.16,12.58,10.29,12.12,20.47Z"/>
                <path class="cls-12" d="m390.54,580.23c-.26,5.56-3.58,10.09-7.59,10.13-4.19.04-7.5-4.81-7.23-10.84.28-6.03,4.02-10.54,8.19-10.1,3.98.42,6.88,5.26,6.62,10.81Z"/>
              </g>
            </g>
            <g>
              <g>
                <path class="cls-10" d="m786.85,637.05l-1.85,40.24-48.1,3.04c-13.38.84-24.83-10.9-24.21-26.36v-.18c.72-15.53,13.25-26.26,26.55-24.19l47.62,7.45Z"/>
                <path class="cls-2" d="m785.77,660.43l-.78,16.86-48.1,3.04c-13.38.84-24.83-10.9-24.21-26.36l73.09,6.45Z"/>
                <path class="cls-7" d="m801.19,657.87c-.47,10.19-6.47,18.8-13.94,19.28-8.14.51-14.85-8.68-14.3-20.57s8.07-20.43,16.13-19.17c7.4,1.16,12.58,10.29,12.12,20.47Z"/>
                <path class="cls-12" d="m795.28,657.25c-.26,5.56-3.58,10.09-7.59,10.13-4.19.04-7.5-4.81-7.23-10.84.28-6.03,4.02-10.54,8.19-10.1,3.98.42,6.88,5.26,6.62,10.81Z"/>
              </g>
              <g>
                <path class="cls-10" d="m789.14,557.04l-1.85,40.24-48.1,3.04c-13.38.84-24.83-10.9-24.21-26.36v-.18c.72-15.53,13.25-26.26,26.55-24.19l47.62,7.45Z"/>
                <path class="cls-2" d="m788.06,580.42l-.78,16.86-48.1,3.04c-13.38.84-24.83-10.9-24.21-26.36l73.09,6.45Z"/>
                <path class="cls-7" d="m803.48,577.85c-.47,10.19-6.47,18.8-13.94,19.28-8.14.51-14.85-8.68-14.3-20.57.55-11.9,8.07-20.43,16.13-19.17,7.4,1.16,12.58,10.29,12.12,20.47Z"/>
                <path class="cls-12" d="m797.57,577.23c-.26,5.56-3.58,10.09-7.59,10.13-4.19.04-7.5-4.81-7.23-10.84.28-6.03,4.02-10.54,8.19-10.1,3.98.42,6.88,5.26,6.62,10.81Z"/>
              </g>
            </g>
          </g>
        </g>
      </g>
    </g>
  </g>
</svg>