<?xml version="1.0" encoding="UTF-8"?><svg xmlns="http://www.w3.org/2000/svg" id="Layer_2" width="30" height="30" data-name="Layer 2" viewBox="0 0 57.83 57.83"><defs><style>.cls-1 {
        fill: #fff;
        stroke: #00548d;
        stroke-miterlimit: 10;
        stroke-width: .5px;
      }</style></defs><g id="Layer_1-2" data-name="Layer 1"><g><path d="m46.42,29.21c0,10.16-8.23,18.39-18.39,18.39s-18.39-8.23-18.39-18.39S17.88,10.82,28.03,10.82s18.39,8.23,18.39,18.39ZM28.03,6.71c-12.43,0-22.5,10.07-22.5,22.5s10.07,22.5,22.5,22.5,22.5-10.07,22.5-22.5S40.46,6.71,28.03,6.71Z" class="cls-1"/><g><g><path d="m25.03.25h7.74c.6,0,1.07.53.99,1.12l-2.1,17.17c-.06.5-.49.88-.99.88h-3.89c-.51,0-.94-.39-.99-.9l-1.75-17.17c-.06-.59.4-1.1.99-1.1Z" class="cls-1"/><path d="m25.03,57.58h7.74c.6,0,1.07-.53.99-1.12l-2.1-17.17c-.06-.5-.49-.88-.99-.88h-3.89c-.51,0-.94.39-.99.9l-1.75,17.17c-.06.59.4,1.1.99,1.1Z" class="cls-1"/></g><g><path d="m.25,32.79v-7.74c0-.6.53-1.07,1.12-.99l17.17,2.1c.5.06.88.49.88.99v3.89c0,.51-.39.94-.9.99l-17.17,1.75c-.59.06-1.1-.4-1.1-.99Z" class="cls-1"/><path d="m57.58,32.79v-7.74c0-.6-.53-1.07-1.12-.99l-17.17,2.1c-.5.06-.88.49-.88.99v3.89c0,.51.39.94.9.99l17.17,1.75c.59.06,1.1-.4,1.1-.99Z" class="cls-1"/></g></g><circle cx="28.33" cy="29.11" r="4.21" class="cls-1"/></g></g></svg>