<?xml version="1.0" encoding="UTF-8"?><svg xmlns="http://www.w3.org/2000/svg" viewBox="0 0 867.88 748.29"><defs><style>.cls-1, .cls-2, .cls-3, .cls-4, .cls-5, .cls-6, .cls-7, .cls-8, .cls-9, .cls-10, .cls-11, .cls-12, .cls-13, .cls-14, .cls-15, .cls-16, .cls-17, .cls-18, .cls-19, .cls-20, .cls-21 {
        stroke-width: 0px;
      }

      .cls-1, .cls-15 {
        fill: #59595b;
      }

      .cls-2 {
        opacity: .42;
      }

      .cls-2, .cls-8, .cls-12, .cls-14, .cls-16, .cls-19 {
        mix-blend-mode: overlay;
      }

      .cls-2, .cls-8, .cls-12, .cls-16, .cls-19 {
        fill: #282f39;
      }

      .cls-3 {
        fill: #6d6e72;
      }

      .cls-4 {
        fill: #82d5f7;
        opacity: .83;
      }

      .cls-5 {
        fill: #a77c52;
      }

      .cls-22 {
        isolation: isolate;
      }

      .cls-6 {
        fill: #c3986c;
      }

      .cls-7 {
        fill: #cdd1d2;
      }

      .cls-8 {
        opacity: .66;
      }

      .cls-9 {
        fill: #82522e;
      }

      .cls-10, .cls-14 {
        fill: #414143;
      }

      .cls-11 {
        fill: #8b5e3d;
      }

      .cls-12 {
        opacity: .17;
      }

      .cls-13 {
        fill: #602e09;
      }

      .cls-14 {
        opacity: .8;
      }

      .cls-15 {
        opacity: .59;
      }

      .cls-16 {
        opacity: .3;
      }

      .cls-17 {
        fill: #fbfbfc;
        opacity: .2;
      }

      .cls-18 {
        fill: #673e18;
      }

      .cls-19 {
        opacity: .12;
      }

      .cls-20 {
        fill: #fff;
        opacity: .18;
      }

      .cls-21 {
        fill: #f69a00;
      }</style></defs><g class="cls-22"><g id="Layer_2" data-name="Layer 2"><g id="Layer_1-2" data-name="Layer 1"><g><g><g><path d="m715.6,137.05v-29.25s12.78,13.57,37.29,2.11c24.51-11.46,46.25-6.85,49.68,10.67-.17-.86-2.95-2.36-3.59-2.8-2.63-1.8-5.54-3.36-8.65-4.14-8.07-2.01-15.41,4.59-21.23,9.19-10.47,8.26-23.75,15.7-37.29,16.73-17.26,1.32-16.21-2.5-16.21-2.5Z" class="cls-10"/><polygon points="708.44 175.48 715.47 102.04 724.25 191.3 708.44 175.48" class="cls-9"/><polygon points="749.47 170.34 771.84 160.17 795.33 158.88 795.33 170.34 742.35 182.16 749.47 170.34" class="cls-9"/><path d="m781.88,248.59l-16.28,8.42-80,41.46-31.63-34.43c-31.63-34.43,0-92.07,0-92.07l132.63-14.76c-38.85,42.88-4.72,91.38-4.72,91.38Z" class="cls-10"/><path d="m781.88,248.59l-16.28,8.42c-1.89-5.01-3.12-11.25-3.46-18.89-2.88-64.57-108.16-66.14-108.16-66.14l132.63-14.76c-38.85,42.88-4.72,91.38-4.72,91.38Z" class="cls-15"/><polygon points="806.66 241.55 845.14 224.15 859.11 224.15 859.11 232.85 819.31 252.09 806.66 241.55" class="cls-9"/><path d="m729.63,430.41l138.25-10.98-.7-13.97-10.85,4.75s-77.75-13.91-79.33-13.83c-1.58.08-37.92,3.63-54.22,2.71-16.3-.92-51.59,2.67-55.13,5.7-3.54,3.04-8.08,37.3-4.69,43.55,3.39,6.25,66.66-17.93,66.66-17.93Z" class="cls-9"/><path d="m856.74,414.82l-27.5,2.08-101.64,7.7-40.59,7.25s-118.08-38.48-120.21-96.31c-2.13-57.83,19-84.5,19-84.5l259.34-26.89c-45.86,85.91,11.59,190.67,11.59,190.67Z" class="cls-1"/></g><path d="m730.52,324.41c5.06-3.12,9.87-6.66,14.33-10.59,2.11-1.85,4.25-3.99,4.69-6.76.59-3.73-2.48-7.42-6.17-8.22s-7.11,1.17-9.73,3.89c7.62-11.01,6.96-26.76-.71-37.73-7.67-10.97-21.55-16.94-34.91-16.07-14.37.94-28.1,9.73-34.52,22.62-6.42,12.89-5.05,29.43,3.82,40.79-1.68,0-3.57-.36-5.17.16s-3.09,1.66-3.59,3.27c-.6,1.93.36,4,1.52,5.66,3.1,4.45,7.92,7.66,13.22,8.83.88,5.81,1.88,11.64,4.49,16.91,1.31,2.63,2.98,5.31,5.64,6.56,1.5.7,3.48.8,4.65-.37,1.22-1.21,1.09-3.18.88-4.89-.42-3.32-.84-6.64-1.25-9.96,1.95,3.18,3.84,5.82,6.01,8.85.46.64.93,1.29,1.56,1.75.63.47,1.46.73,2.22.52.94-.27,1.53-1.18,1.95-2.05,1.5-3.08,2.02-6.63,1.46-10.02.74,1.51,1,2.54,1.74,4.06.65,1.33,1.32,2.69,2.38,3.73,1.06,1.03,2.6,1.7,4.04,1.32,1.07-.28,1.93-1.1,2.48-2.06.55-.95.83-2.04,1.05-3.12.6-2.88.89-5.82.85-8.76.2,3.18.68,6.36,2.71,8.82,2.03,2.45,5.85,3.66,8.51,1.91,2.26-1.49,2.95-4.44,3.46-7.1.74-3.91,1.66-8.05,2.41-11.96Z" class="cls-7"/><path d="m776.21,291.03c-4.85,2.45-9.83,4.63-14.92,6.53-2.05.77-4.44,1.46-6.34.38-1.35-.77-2.13-2.32-2.28-3.86-.15-1.55.25-3.09.79-4.55,3.14-8.38,11.58-14.5,20.53-14.87-.06,0,.21-.08.15-.08-.73-3.83-1.48-7.72-.68-11.53.81-3.81,2.73-7.46,5.78-9.89s7.27-3.49,10.98-2.31c3.71,1.18,6.66,4.77,6.64,8.66-.02,3.69-2.46,6.88-4.77,9.76,4-1.65,9.07.15,11.51,3.72,2.44,3.57,2.44,8.5.47,12.35-1.97,3.85-5.69,6.64-9.8,8s-8.56,1.39-12.83.67c-1.81-.3-4.61-1.26-5.25-2.98Z" class="cls-7"/><path d="m762.89,361.39c-5.83-1.24-11.15-4.7-14.66-9.51-1.13-1.55-2.1-3.28-2.4-5.18-.3-1.9.16-3.99,1.53-5.34,1.55-1.52,3.9-1.83,6.06-1.82,7.3.02,14.55,2.8,19.99,7.66-.11-2.39,1.34-5.11,3.25-6.55,1.9-1.44,4.3-2.11,6.68-2.33,4.92-.46,10.1,1,13.67,4.42,3.57,3.41,5.26,8.86,3.72,13.55-1.54,4.69-6.53,8.16-11.42,7.46,3.25,2.63,3.58,7.72,2.02,11.6s-5.28,6.66-9.34,7.65c-4.06.99-8.4.33-12.27-1.25-3.63-1.48-7.05-3.9-8.8-7.41s-.89-10.29,1.98-12.96Z" class="cls-7"/><path d="m625.42,299.71c3.38,4.73,8.55,8.14,14.23,9.39,2.73.6,6.07.48,7.68-1.8,1.65-2.33.55-5.59-.93-8.03-3.12-5.14-7.79-9.32-13.24-11.86.8-2.52.57-5.42-.31-7.91-.88-2.49-2.35-4.73-3.95-6.83-2.17-2.83-5.01-5.64-8.57-5.8-2.49-.11-4.92,1.17-6.56,3.05-3.39,3.91-3.16,10.44.5,14.1-3.27-.49-6.84,1.37-8.39,4.29s-1.25,6.67.57,9.44c1.82,2.76,5.01,4.51,8.31,4.77,3.3.27,8.06-.78,10.66-2.83Z" class="cls-7"/><path d="m754.46,467.85c-19.99-3.09-33.39-18.33-42.13-34.4-5.57-10.13-9.25-20.6-11.51-28.59-2.35-8.1-3.28-13.62-3.28-13.62-22.14-20.41-120.32-36.35-123.38-36.83,1.28-.21,2.64-.37,4.08-.51.72-.08,1.44-.13,2.16-.19.77-.08,1.6-.13,2.42-.16.75-.05,1.49-.08,2.27-.11.67-.03,1.39-.03,2.08-.05,10.82-.21,23.96.77,37.92,3.09,2.05.35,4.13.72,6.21,1.12,8.21,1.57,16.66,3.62,25.02,6.18.88.27,1.79.53,2.69.83,5.12,1.63,10.21,3.44,15.19,5.46,2.48.99,4.93,2.05,7.35,3.14,3.62,1.68,7.2,3.44,10.63,5.3,2.29,1.25,4.53,2.56,6.72,3.92,2.19,1.36,4.32,2.77,6.37,4.24,0,0,.27,1.12.83,3.12.11.43.24.88.37,1.39.13.43.27.91.4,1.39.08.24.13.51.21.77.16.51.32,1.04.48,1.63.03.11.05.21.11.35.61,2.03,1.33,4.34,2.16,6.88.32.91.61,1.87.96,2.82.05.16.11.32.16.51.05.11.08.21.11.32.43,1.25.91,2.58,1.39,3.92.8,2.24,1.68,4.58,2.64,6.98.43,1.12.91,2.27,1.39,3.41,0,.03.03.08.03.11.48,1.15.99,2.32,1.49,3.49.53,1.23,1.07,2.45,1.63,3.68.29.61.56,1.2.85,1.81.48.99.93,1.97,1.44,2.96.21.43.43.85.64,1.28.8,1.57,1.65,3.17,2.5,4.72.48.88.99,1.73,1.47,2.59.51.88,1.01,1.73,1.52,2.56.53.83,1.04,1.65,1.57,2.48.53.8,1.07,1.63,1.6,2.4l.03.03c.37.53.75,1.04,1.09,1.55.27.37.53.72.8,1.07.27.37.53.75.85,1.09.77,1.04,1.6,2.05,2.42,3.01.59.69,1.2,1.36,1.81,2.03v.03c.64.64,1.25,1.28,1.87,1.87.64.61,1.25,1.2,1.89,1.79h.03c.64.56,1.31,1.09,1.97,1.63.64.51,1.31.99,1.97,1.47.67.43,1.33.85,2.03,1.25.16.11.35.21.51.29.88.51,1.76.96,2.66,1.33.19.11.37.19.59.24.24.13.51.24.77.32.16.08.32.13.51.19.48.19.96.35,1.47.48Z" class="cls-14"/><path d="m818.07,462.22s-.08,2.85-.37,7.81l-30.09-17.91c.67-1.76,1.17-3.41,1.52-4.8.13-.51.24-.99.35-1.41.19-.88.32-1.57.4-2.03,0-.13.03-.24.05-.35.03-.19.03-.29.03-.29l28.11,18.97Z" class="cls-14"/><path d="m706.41,297.1c.39-3.4,2.33-6.41,4.47-9.08,2.43-3.04,5.24-5.85,8.64-7.75,1.55-.86,3.38-1.54,5.08-1.03,2.04.61,3.25,2.75,3.62,4.85.67,3.84-.89,7.82-3.4,10.8-2.51,2.98-5.89,5.09-9.35,6.9-1.8.94-4.88,3-7.01,1.96-2.15-1.04-2.27-4.66-2.04-6.65Z" class="cls-1"/><path d="m671.87,297.02c-1.13-1.24-2.21-2.56-2.86-4.1-.65-1.54-.85-3.34-.2-4.88.66-1.58,2.13-2.71,3.72-3.34,4.25-1.67,9.24.02,12.61,3.08s5.44,7.3,7.23,11.49c.71,1.66,1.4,3.54.76,5.23-.71,1.85-3.01,3.03-4.88,3.31-1.88.28-3.45-.82-5.01-1.72-4.22-2.45-8.08-5.46-11.37-9.07Z" class="cls-1"/><path d="m695.62,323.31c-.13.8-.18,1.7.31,2.35.69.9,2.05.85,3.17.69,1.7-.24,3.39-.5,5.07-.8.44-.08.91-.18,1.19-.52.38-.46.24-1.14.07-1.72-.71-2.42-1.09-7.06-3.69-8.34-3.99-1.98-5.73,5.91-6.14,8.34Z" class="cls-1"/><path d="m856.74,414.82l-27.5,2.08c-8.45-14.74-19.51-33.68-33.92-57.99-61.74-104.01-209.51-107.87-209.51-107.87l259.34-26.89c-45.86,85.91,11.59,190.67,11.59,190.67Z" class="cls-20"/></g><g><path d="m54.94,262.82c7.01,24.39,17.57,47.92,31.3,69.52,13.7,21.61,30.45,41.32,49.49,58.48,38.05,34.31,85.44,58.32,135.31,67.9l-2.55,10.31c-25.13-7.57-49.22-17.86-71.96-30.41-11.33-6.36-22.28-13.35-32.85-20.86-10.59-7.49-20.56-15.8-30.22-24.42-19.09-17.51-36.31-37.07-51.05-58.45-14.73-21.38-27.27-44.34-37.47-68.53l10.01-3.53Z" class="cls-13"/><path d="m125.37,313.1c5.11,15.68,12.75,31.33,21.73,45.71,8.95,14.51,19.53,28.02,31.25,40.41,5.77,6.3,12.16,11.96,18.48,17.66,3.29,2.7,6.7,5.27,10.04,7.9,1.69,1.3,3.33,2.65,5.06,3.88l5.35,3.48c13.9,9.83,29.6,16.71,45.3,22.58l-4.11,9.79c-3.84-2.19-7.68-4.34-11.55-6.4l-5.77-3.13c-1.9-1.08-3.68-2.37-5.53-3.55l-11.02-7.05c-3.56-2.51-7.02-5.15-10.53-7.72l-5.24-3.87-4.99-4.18c-3.31-2.81-6.68-5.54-9.93-8.4-6.23-6.03-12.74-11.75-18.49-18.23l-4.48-4.7c-1.5-1.56-2.84-3.26-4.27-4.88-2.77-3.32-5.74-6.48-8.36-9.93l-8.05-10.19-7.65-10.51-7.3-10.78c-2.3-3.68-4.73-7.3-6.94-11.04-4.68-7.42-8.78-14.94-12.93-23.07l9.92-3.78Z" class="cls-13"/><path d="m532.05,56.66l2.24-38.27c3.45,1.07,8.82,2.17,14.56.47,8.02-2.38,10.62-8.42,17.04-13.02,4.91-3.52,13.28-7.08,28-5.41,0,0-6.3,7.47,0,9.8,6.3,2.33,26.6-9.33,29.64,9.8,0,0-10.5-7-14.93,4.67-4.43,11.67,8.63,13.3,17.27,8.4,8.63-4.9,11.43,9.8,11.43,9.8,0,0-10.97-8.87-13.53,1.4-2.57,10.27-15.4,9.57-20.54,3.27s-22.17-9.57-15.4,3.27c0,0-28.7,19.37-55.77,5.83Z" class="cls-10"/><path d="m549.93,531.64l-9.8-38.49s.8-326.1-3.41-484.65c0,0-6.95-11.62-6.64,13.74.31,25.36-2.22,467.71-2.22,467.71l22.07,41.7Z" class="cls-5"/><path d="m624.11,100.53s-19.95,55.66-3.85,110.61c16.1,54.96-117.61,61.96-135.81,54.61-18.2-7.35-32.9-26.34-32.9-26.34,0,0-14.35-54.52,10.15-107.02l162.42-31.85Z" class="cls-10"/><path d="m407.44,247.32s-51.34,50.87-5.13,191.35c0,0,188.56-53.43,263.81-5.36,0,0-52.86-122.05,4.08-228.46l-262.76,42.47Z" class="cls-10"/><path d="m455.75,130.64s178.17-37.8,178.87-31.5c.5,4.54-42.47,12.2-45.97,12.96-24.74,5.4-49.56,10.39-74.45,15.03-12.45,2.32-24.91,4.55-37.38,6.71-5.68.98-12.98,3.57-18.7,3.17-3.3-.23-7.7-5.18-2.37-6.37Z" class="cls-21"/><path d="m407.09,252.8s-9.45-1.05-8.75-5.25c.7-4.2,277.58-49,280.73-45.5,3.15,3.5-12.25,8.4-19.25,9.1-7,.7-252.73,41.65-252.73,41.65Z" class="cls-21"/><path d="m728.57,460.92l-69.53,2.11-49.36,1.49c4.1-8.53,8.22-17.07,12.31-25.6,14.72-1.88,29.41-3.74,44.12-5.62l1.51-.02c15.09.78,30.21,1.57,45.3,2.33,5.21,8.44,10.42,16.87,15.63,25.3Z" class="cls-9"/><path d="m728.57,460.92l-69.53,2.11,8.59-29.75c15.09.78,30.21,1.57,45.3,2.33,5.21,8.44,10.42,16.87,15.63,25.3Z" class="cls-11"/><path d="m769.08,505.17l-114.06,3.82-80.97,2.69c6.72-15.43,13.48-30.86,20.2-46.29,24.14-3.4,48.24-6.76,72.38-10.16l2.48-.04c24.76,1.42,49.56,2.83,74.32,4.21,8.55,15.25,17.09,30.51,25.64,45.76Z" class="cls-9"/><path d="m769.08,505.17l-114.06,3.82,14.1-53.8c24.76,1.42,49.56,2.83,74.32,4.21,8.55,15.25,17.09,30.51,25.64,45.76Z" class="cls-11"/><path d="m486.78,448.16s199.75-28.07,210.95-19.48c11.2,8.59-199.02,26.52-199.02,26.52l-11.94-7.04Z" class="cls-21"/><path d="m787.81,486.74s-4.43,64.64-63.24,94.04c-58.81,29.4-205.48,67.24-234.17,59.51l-5.95-1.4-11.65-2.68s-22.42-6.36-29.37-9.57c-6.94-3.21-30.51-13.77-30.51-13.77l-68.49-43.29-59.74-67.21-56.71-82.38-22.65-55.54,291.24,64.22s44.58,63.89,112.84,68.44c68.26,4.55,87.16-22.75,87.16-22.75l91.24,12.37Z" class="cls-21"/><path d="m201.62,354.19s166.62,33.14,297.76,65.34c0,0,72.57,120.65,194.39,49.24l98.71,15.4s9.8,9.49-4.2,7.2c-14-2.3-87.86-10.7-87.86-10.7,0,0-59.51,37.8-120.06,15.4-60.56-22.4-88.21-58.81-88.21-58.81l-279.33-52.16-11.2-30.92Z" class="cls-13"/><path d="m208.62,364.46s99.41,241.52,283.53,275.83c0,0-196.72-22.4-293.33-270.93l9.8-4.9Z" class="cls-13"/><path d="m535.52,114.36s-274.65,217.9-330.18,250.1c0,0-2.32-64.41-172.44-111.66,0,0,405.97-97.31,502.62-138.44Z" class="cls-3"/><path d="m0,232.85s194.62,154.48,212.35,145.61c17.74-8.87-4.67-25.67-4.67-25.67,0,0-141.41-86.81-207.69-119.95Z" class="cls-13"/><polygon points="542.35 107.07 526.24 107.07 521.15 77.29 547.44 77.29 542.35 107.07" class="cls-6"/><rect width="31.27" height="8.67" x="518.66" y="70.33" class="cls-18"/><circle cx="140.95" cy="397.6" r="7.7" class="cls-21" transform="translate(-141.42 84.2) rotate(-22.5)"/><circle cx="103.14" cy="360.03" r="11.19" class="cls-21" transform="translate(-224.37 178.38) rotate(-45)"/><circle cx="136.98" cy="350.46" r="7.47" class="cls-21"/><circle cx="174.32" cy="397.6" r="11.43" class="cls-21"/><circle cx="69.07" cy="308.69" r="8.87" class="cls-21"/><path d="m535.36,114.45c-.88.71-5.98,4.78-14.3,11.33-15.32,12.14-41.62,32.84-72.84,57.23-77.79,60.8-186.16,144.4-231.4,174.24-.92.6-1.81,1.2-2.65,1.73-3.08-3.65-6.48-6.19-6.48-6.19,0,0-3.01-1.84-8.28-5.06-11.96-21.62-48.03-60.31-156.79-92.16-2.16-1.17-4.21-2.34-6.3-3.47,21.02,7.01,46.68,13.63,78.01,19.36,167.44,30.65,413.95-151.73,421.03-157Z" class="cls-12"/><path d="m464.68,138.9c-2.19.67-4.39,1.34-6.62,2.02.5-1.31,1.03-2.62,1.59-3.89,1.45-.04,2.97-.21,4.53-.46.14.78.32,1.56.5,2.34Z" class="cls-16"/><path d="m619.74,209.16c-50.01,7.36-120.87,18.86-168.82,27.43-1.56-7.29-5.17-28.03-2.69-53.58,9.52-7.4,18.55-14.51,26.97-21.09,17.38,23.93,57.16,43.67,142.77,40.14.53,2.37,1.1,4.74,1.77,7.11Z" class="cls-19"/><path d="m663.94,427.85c-2.19.14-4.46.28-6.8.46-30.37-14.79-74.18-16.92-116.94-13.84-4,.28-7.96.6-11.93.99-10.44.99-20.7,2.23-30.65,3.65-34.65-8.49-71.74-17.06-107.49-25.02-18.47-86,3.96-128.65,13.45-141.99,1.88.53,3.5.71,3.5.71h.07c.28,43.46,22.19,158.2,246.97,143.45,3.72,14.48,7.5,25.48,9.8,31.61Z" class="cls-19"/><path d="m453.43,133.66l63.49-12.07c-9.06,3.33-19.5,6.87-31,10.62-3.04.53-6.09,1.1-9.1,1.63-5.2.88-11.71,3.08-17.17,3.19-.53,0-1.06,0-1.56-.04-1.88-.11-4.07-1.73-4.67-3.33Z" class="cls-16"/><path d="m634.6,99.16c.11,1.59-4.99,3.5-11.79,5.45-12.85,3.57-31.89,6.97-34.15,7.47-22.47,4.92-45.02,9.45-67.6,13.7,3.33-2.62,6.12-4.81,8.32-6.58l105.22-20.03Z" class="cls-16"/><path d="m679.44,203.25c-.32,2.16-5.95,4.6-11.57,6.23-2.94.85-5.91,1.45-8.07,1.66-6.97.71-252.7,41.66-252.7,41.66,0,0-1.63-.18-3.5-.71-1.98-.53-4.21-1.45-4.95-2.94l280.8-45.9Z" class="cls-16"/><path d="m684.36,434.15c-4.92.99-10.97,2.02-17.87,3.04-13.2,1.98-29.41,4.03-46.54,6.02-27.25,3.11-56.7,6.05-79.77,8.21-4.25.42-8.32.81-12.1,1.13-.25.04-.46.07-.71.07-1.35-1.24-2.65-2.48-3.89-3.68l174.34-20.21c1.84,1.59-3.5,3.43-13.45,5.42Z" class="cls-16"/><path d="m727.05,458.46c-19.29-1.06-38.61-2.16-57.94-3.26l-2.48.04c-1.84.25-3.72.5-5.56.78-16.92,2.37-33.8,4.74-50.72,7.11.96-1.98,1.91-4,2.87-5.98l49.9-8.25,61.37,5.41c.85,1.38,1.7,2.76,2.55,4.14Z" class="cls-16"/><path d="m753.95,478.14l-60.17-9.38c-11.15,6.51-21.84,11.43-32.14,15.01-29.13,10.05-54.79,9.2-76.62,2.8.42-.96.85-1.95,1.27-2.9,10.76.74,51.92,2.55,78.11-10.41,0,0,18.62-2.02,26.08-8.74l62.61,12.14c.28.5.57.99.85,1.49Z" class="cls-16"/><path d="m555.15,485.15c-147.91-20.46-271.11-48.66-315.42-59.39-8.95-15.54-16-29.16-21.09-39.57l273.51,51.07s19.93,26.26,63,47.89Z" class="cls-16"/><path d="m787.29,491.2c-.5,3.54-1.52,8.92-3.36,15.47-41.59-1.77-83.28-4.92-124.12-8.99,24.28-6.65,40.63-17.02,40.63-17.02,0,0,70.71,8.07,86.85,10.55Z" class="cls-16"/><path d="m779.39,519.97c-2.09,5.24-4.71,10.79-7.93,16.42h-.07s-259.36,30.76-442.62,9.02c-21.13-21.55-39.53-44.52-55.21-66.64,60.24,14.55,245.38,52.35,505.83,41.2Z" class="cls-16"/><path d="m743.29,568.96c-5.52,4.35-11.75,8.35-18.72,11.82-58.79,29.41-205.49,67.25-234.16,59.49l-3.33-.78c3.29.6,5.06.78,5.06.78-40.14-7.47-76.27-24.81-108.19-47.36,56.73,1.24,208.89,1.56,359.34-23.96Z" class="cls-16"/><path d="m787.29,491.2c-.11.64-.21,1.34-.32,2.12l-84.09-8.18s-26.62,26.79-93.19,23.85c-66.57-2.97-128.33-60.84-128.33-60.84l-234.94-43.71c8.18,38.72,69.09,125.57,72.91,130.99-17.24-18.58-32.49-37.94-45.76-56.66-13.27-18.79-24.56-36.91-33.84-53.02-8.95-15.54-16-29.16-21.09-39.57l273.51,51.07s19.93,26.26,63,47.89c7.64,3.86,16.03,7.57,25.2,10.94,28.81,10.65,57.41,7.68,79.46,1.59,24.28-6.65,40.63-17.02,40.63-17.02,0,0,70.71,8.07,86.85,10.55Z" class="cls-2"/><path d="m451.98,630.36c-50.51-16.63-138.88-59.99-207.65-169.6-1.27-2.05-2.55-4.11-3.79-6.19-2.55-4.18-5.06-8.46-7.57-12.85-11.18-19.78-21.73-41.55-31.36-65.41-14.33-6.12-39.92-22.83-68.17-42.82-4.88-3.43-9.87-7.01-14.86-10.62-19.75-14.26-40.06-29.45-58.15-43.21-5.03-3.82-9.91-7.54-14.51-11.08C20.3,248.9,1.68,234.18.12,232.9l204.78,130.32s1.59,5.73,5.2,15.57c16.92,46.43,78.32,184.61,225.8,244.7,5.8,2.37,11.15,4.67,16.07,6.87Z" class="cls-16"/><path d="m244.33,460.76c-7.68-2.9-15.25-6.09-22.69-9.52l-2.19-7.96c1.45.6,2.94,1.2,4.42,1.77,1.49.57,2.97,1.13,4.46,1.7l-3.72-2.37c-2.05-1.45-4.07-2.94-6.09-4.42l-2.34-8.53,1.1.71c5.03,3.54,10.3,6.72,15.68,9.59,2.51,4.39,5.03,8.67,7.57,12.85,1.24,2.09,2.51,4.14,3.79,6.19Z" class="cls-8"/><path d="m60.43,279.66c1.27,3.54,2.62,7.08,4.07,10.58l-11.18-5.42c-2.58-5.34-5.06-10.76-7.4-16.25,4.6,3.54,9.49,7.26,14.51,11.08Z" class="cls-8"/><path d="m136.63,340.07c-3.5-1.7-8.03-4.57-12.99-8.03-1.73-3.01-3.4-6.05-5.06-9.17,4.99,3.61,9.98,7.18,14.86,10.62,1.03,2.23,2.05,4.39,3.19,6.58Z" class="cls-8"/><polygon points="531.43 107.05 526.23 107.05 521.45 78.98 527.22 78.98 531.43 107.05" class="cls-16"/><polygon points="547.15 78.98 542.37 107.05 535.96 107.05 538.44 78.98 547.15 78.98" class="cls-16"/></g><path d="m823.99,598.97c-6.3,12.28,0-13.63-60.56-8.74-60.56,4.92-101.15,72.45-237.45,129.86-18.16,7.64-35.64,13.48-52.35,17.77-10.76,2.8-21.16,4.95-31.22,6.55-91.7,14.65-153.96-15.86-163.8-28.95-12.6-16.81,28-5.17,28-5.17,0,0-69.55-35.46-86.32-77.47-16.46-41.06,32.95,5.34,35.14,7.4-.81-1.98-21.66-49.9-66.43-75.07-45.73-25.66-57.87-20.35-48.06-33.48,9.1-12.21,83.99,17.8,107.13,35.99-10.37-9.77-34.93-34.93-26.4-46.82,10.76-14.94,112.97,92.87,155.9,105.93,0,0-33.16-19.61-39.67-65.33-6.55-45.73,10.72-23.82,25.66-2.8,14.94,20.99,54.15,51.81,71.88,56.95,0,0-24.74-25.69-19.15-35.71,5.59-10.05,12.6,22.16,62.54,38.01,0,0-18.55-18.19-16.78-25.52,1.73-7.36,43.43,24.49,87.88,16.78,2.69-.46,5.52-1.1,8.46-1.88,3.89-1.03,8.03-2.34,12.35-3.86,45.9-16.07,112.05-56.03,156.26-59,51.46-3.5,101.19,16.78,75.28,25.2,0,0,28,17.13,21.7,29.38Z" class="cls-4"/><path d="m603,622.36c-11.01,10.3-24.39,17.63-38.29,23.22-7.18,2.9-14.51,5.31-21.94,7.54-5.91,1.77-15.01,2.44-20.14,5.8,1.52,1.7,7.64,6.58,6.37,9.34-.39.81-1.2,1.24-2.02,1.59-9.77,4.18-22.65,4.42-33.13,5.17-11.5.81-23.01.92-34.54.78-6.58-.07-14.09,2.69-20.46.28,1.63,1.56,3.36,3.75,2.44,5.8-.88,1.95-3.47,2.19-5.59,2.16l-36.63-.64c-3.36-.07-7.54.42-8.67,3.57-.92,2.62.99,5.34,3.08,7.15,9.06,7.75,23.32,11.18,34.01,15.43,1.31.53,2.9,1.38,2.87,2.83-.04,1.49-1.81,2.26-3.29,2.58-3.72.78-10.41,1.52-10.58,6.72-.07,2.19,1.63,4,3.33,5.34,12.85,10.26,31.43,9.52,46.97,10.33,2.23.11,4.53.28,6.87.46-10.76,2.8-21.16,4.95-31.22,6.55-26.72-1.27-53.09-10.48-74.71-26.23-3.5-2.58-7.26-6.87-5.2-10.69,2.65-4.92,11.4-2.3,14.69-6.83.32-.42.57-.96.42-1.49-.14-.46-.6-.78-1.06-1.06-15.11-9.24-35.14-10.44-47.21-23.39-4.28-4.64-20.74-15.75-13.87-23.25,2.02-2.23,5.24-3.01,8.28-2.97,7.5,0,15.18,1.95,22.65,2.87,7.18.88,14.69,1.84,21.2,5.31-2.48-1.31-4.39-3.61-5.2-6.26,6.58-1.24,13.48-.99,20,.67,7.75,1.98,14.86,5.91,22.44,8.6,7.61,2.69,15.61,4.07,23.57,5.42,7.47,1.31,14.97,2.62,22.47,3.89,11.61,2.02,23.64,4,35,.99,1.56-.42,3.11-.96,4.21-2.12,1.06-1.17,1.38-3.15.32-4.32-.53-.6-1.34-.88-2.12-1.13-4.32-1.38-8.78-2.3-13.31-2.65-3.43-.28-7.79-.92-8.6-4.25,5.06-4.03,12.21-3.61,18.69-3.26,17.52.96,35.11-.21,52.35-3.47,14.19-2.69,28.49-6.97,39.82-15.89,3.61-2.83,7.15-7.43,5.17-11.54-1.84-3.86-6.94-4.28-11.04-5.34-5.17-1.31-9.77-4.49-12.95-8.74,3.89-1.03,8.03-2.34,12.35-3.86,1.24,2.27,3.15,4.11,5.59,5.06,2.12.81,4.42.85,6.69.88,5.49.11,10.94.18,16.39.28,2.48.04,5.31.21,6.9,2.16,2.55,3.19-.35,7.79-3.33,10.58Z" class="cls-17"/></g></g></g></g></svg>