<?xml version="1.0" encoding="UTF-8"?>
<svg id="Layer_2" data-name="Layer 2" xmlns="http://www.w3.org/2000/svg" xmlns:xlink="http://www.w3.org/1999/xlink" viewBox="0 0 68.93 132.44">
  <defs>
    <style>
      .cls-1, .cls-2, .cls-3, .cls-4, .cls-5, .cls-6, .cls-7, .cls-8, .cls-9, .cls-10, .cls-11, .cls-12, .cls-13, .cls-14 {
        stroke: #231f20;
      }

      .cls-1, .cls-5, .cls-10, .cls-12, .cls-13, .cls-14 {
        fill: #f1f2f2;
        stroke-linecap: round;
        stroke-linejoin: round;
      }

      .cls-1, .cls-15 {
        stroke-width: .1px;
      }

      .cls-16 {
        stroke-miterlimit: 10;
        stroke-width: .09px;
      }

      .cls-16, .cls-17, .cls-18, .cls-19, .cls-20, .cls-21, .cls-22, .cls-23, .cls-24, .cls-25, .cls-26, .cls-27, .cls-28, .cls-29, .cls-15, .cls-30, .cls-31, .cls-32, .cls-33 {
        stroke: #1d1d1b;
      }

      .cls-16, .cls-18, .cls-19, .cls-23, .cls-24, .cls-26, .cls-15 {
        fill: #936037;
      }

      .cls-2 {
        fill: url(#linear-gradient-2);
      }

      .cls-2, .cls-17, .cls-18, .cls-19, .cls-3, .cls-20, .cls-22, .cls-34, .cls-35, .cls-6, .cls-7, .cls-24, .cls-25, .cls-26, .cls-27, .cls-8, .cls-36, .cls-37, .cls-28, .cls-15, .cls-30, .cls-11, .cls-31, .cls-32, .cls-33 {
        stroke-miterlimit: 10;
      }

      .cls-2, .cls-19, .cls-20, .cls-35, .cls-7, .cls-8, .cls-37, .cls-33 {
        stroke-width: .2px;
      }

      .cls-17 {
        stroke-width: .08px;
      }

      .cls-17, .cls-31 {
        fill: #3c3c3b;
      }

      .cls-18, .cls-30 {
        stroke-width: .09px;
      }

      .cls-3, .cls-4, .cls-38, .cls-6, .cls-8, .cls-9, .cls-39, .cls-11 {
        isolation: isolate;
      }

      .cls-3, .cls-4, .cls-6, .cls-8, .cls-9, .cls-11, .cls-40 {
        opacity: .25;
      }

      .cls-3, .cls-24, .cls-12 {
        stroke-width: .12px;
      }

      .cls-21 {
        stroke-miterlimit: 10;
        stroke-width: .2px;
      }

      .cls-22 {
        fill: #939598;
      }

      .cls-22, .cls-6, .cls-25, .cls-26, .cls-27, .cls-32, .cls-14 {
        stroke-width: .19px;
      }

      .cls-4 {
        stroke-miterlimit: 10;
        stroke-width: .06px;
      }

      .cls-38 {
        opacity: .2;
      }

      .cls-38, .cls-39 {
        stroke-width: 0px;
      }

      .cls-34 {
        stroke: #936037;
        stroke-width: .31px;
      }

      .cls-34, .cls-32 {
        fill: none;
      }

      .cls-35 {
        fill: url(#linear-gradient-3);
      }

      .cls-35, .cls-36, .cls-37 {
        stroke: #58595b;
      }

      .cls-5, .cls-28 {
        stroke-width: .15px;
      }

      .cls-23 {
        stroke-miterlimit: 10;
        stroke-width: .19px;
      }

      .cls-7 {
        fill: url(#linear-gradient);
      }

      .cls-25 {
        fill: #c49a6c;
      }

      .cls-27 {
        fill: #d1d3d4;
      }

      .cls-41 {
        opacity: .33;
      }

      .cls-9 {
        stroke-miterlimit: 10;
        stroke-width: .06px;
      }

      .cls-39 {
        fill: #f2f2f2;
        opacity: .24;
      }

      .cls-36 {
        fill: url(#linear-gradient-5);
        stroke-width: .14px;
      }

      .cls-37 {
        fill: url(#linear-gradient-4);
      }

      .cls-10 {
        stroke-width: .16px;
      }

      .cls-29 {
        stroke-miterlimit: 10;
        stroke-width: .2px;
      }

      .cls-30 {
        fill: #a9805f;
      }

      .cls-11 {
        stroke-width: .06px;
      }

      .cls-31 {
        stroke-width: .07px;
      }

      .cls-13 {
        stroke-width: .11px;
      }

      .cls-33 {
        fill: #dadada;
      }
    </style>
    <linearGradient id="linear-gradient" x1="113.75" y1="8356.61" x2="118.64" y2="8356.61" gradientTransform="translate(8414.58 160.35) rotate(-90) scale(1 -1)" gradientUnits="userSpaceOnUse">
      <stop offset="0" stop-color="#d1d3d4"/>
      <stop offset="1" stop-color="#f1f2f2"/>
    </linearGradient>
    <linearGradient id="linear-gradient-2" y1="8399.4" y2="8399.4" xlink:href="#linear-gradient"/>
    <linearGradient id="linear-gradient-3" x1="2398.48" y1="-4414.39" x2="2398.48" y2="-4393.77" gradientTransform="translate(-2361.82 -4311.34) scale(1 -1)" gradientUnits="userSpaceOnUse">
      <stop offset="0" stop-color="#d1d3d4"/>
      <stop offset=".87" stop-color="#fff"/>
    </linearGradient>
    <linearGradient id="linear-gradient-4" y1="-4376.51" y2="-4355.89" xlink:href="#linear-gradient-3"/>
    <linearGradient id="linear-gradient-5" x1="3265.91" y1="-3716.25" x2="3282.76" y2="-3716.25" gradientTransform="translate(-4037.42 -3367.65) rotate(-5.71) scale(1.13 -1.02)" xlink:href="#linear-gradient-3"/>
  </defs>
  <g id="Layer_2-2" data-name="Layer 2">
    <g>
      <path class="cls-3" d="m64.51,61.27c-1,17.86-.1,58.14-12.05,68.59-1.93,1.69-4.18,2.6-6.84,2.51h-26.95C0,132.88,1.13,81.76.06,61.27.23,39.92,12.31,29.13,21.63,23.97c.25-.14.48-.27.73-.39h0c.24-.13.48-.26.71-.37.37-.19.74-.37,1.1-.55,2.5-1.2,4.66-1.96,6.12-2.41,1.26-.39,2-.54,2-.54,0,0,.45.1,1.25.32.46.13,1.03.3,1.7.53.01,0,.03,0,.05.02,1.29.44,2.92,1.06,4.76,1.91,9.47,4.42,24.29,15.12,24.48,38.78h-.02Z"/>
      <path class="cls-26" d="m64.39,117.58c-1.63,6.35-5.63,11.74-11.93,12.28-.35.03-.7.05-1.07.05h-29.58c-.23-.02-.46-.03-.68-.07-9.03-1.23-12.88-15.88-14.68-32.29-.05-.44-.1-.89-.14-1.34-1.41-13.72-1.45-28.43-1.94-37.41-.79-15.77,7.86-27.03,16.57-33.81.11-.08.21-.16.31-.24.21-.17.43-.33.64-.48h0c.1-.08.2-.15.3-.22.2-.15.41-.3.61-.44.09-.07.19-.13.28-.2.36-.26.73-.51,1.09-.74,2.01-1.34,3.97-2.42,5.74-3.26.02,0,.05-.02.07-.03.04-.02.08-.04.11-.05.5-.23.98-.44,1.44-.64.08-.03.15-.06.23-.1.14-.05.27-.11.4-.16.18-.07.35-.14.52-.2.33-.12.65-.23.95-.33.02,0,.05-.02.07-.02.54-.17,1.03-.31,1.48-.41.1-.02.19-.05.28-.06.02,0,.05,0,.07-.02.17-.03.33-.06.48-.08h0c.2-.03.38-.05.55-.05h.03s.24.05.68.17c.51.13,1.29.35,2.27.68.05.02.1.03.14.05,2.59.88,6.52,2.5,10.66,5.23.01,0,.02.02.04.02.27.18.54.36.82.55.01,0,.03.02.04.03.29.2.57.4.85.61h0s.03.02.04.03c8.18,5.98,16.55,16.43,16.7,34.19.14,17.81-2.26,50.31-4.43,58.78v-.02Z"/>
      <path class="cls-25" d="m64.78,69.28c-.19,6.1-.54,12.84-1,19.32-.36,5.24-.79,10.31-1.25,14.73-.62,6-1.29,10.82-1.92,13.28-.07.29-.17.61-.27.97-.32,1.04-.81,2.32-1.52,3.56-.87,1.53-2.07,3-3.71,3.92-1.05.59-2.27.95-3.71.95h-29.47c-.07,0-.14,0-.2-.02-1.39-.17-2.62-.95-3.71-2.15-1.38-1.53-2.54-3.74-3.49-6.27-.08-.2-.15-.39-.22-.59-1.02-2.84-1.81-6.03-2.41-9.07-.07-.34-.13-.67-.19-1-.43-2.32-.8-4.75-1.11-7.23-.06-.48-.12-.95-.17-1.43-.74-6.33-1.15-12.98-1.42-19.32-.16-3.64-.27-7.17-.38-10.47-.1-3.2-.2-6.24-.33-8.85,0-.35-.03-.69-.05-1.03-.25-5.03.54-9.82,2.36-14.3.95-2.35,2.19-4.62,3.71-6.81.98-1.42,2.09-2.82,3.32-4.16.13-.14.26-.28.39-.42.73-.79,1.49-1.54,2.26-2.26.48-.45.97-.88,1.45-1.29,1.24-1.05,2.49-2,3.71-2.85,1.28-.89,2.53-1.66,3.71-2.32,1.35-.76,2.61-1.38,3.71-1.85,1.48-.63,2.68-1.01,3.46-1.15.08.02.16.04.25.07.77.21,2.07.61,3.71,1.26,1.1.44,2.36.99,3.71,1.67,1.18.6,2.43,1.3,3.71,2.12.96.62,1.95,1.3,2.92,2.05.27.2.53.41.79.62,1.33,1.08,2.57,2.23,3.71,3.44,1.38,1.47,2.62,3.03,3.71,4.68.68,1.03,1.31,2.1,1.88,3.21.7,1.35,1.31,2.76,1.83,4.22.63,1.74,1.13,3.55,1.51,5.44.57,2.8.86,5.76.89,8.87.02,3.09-.03,6.64-.15,10.44l-.02.02Z"/>
      <g>
        <path class="cls-34" d="m21.74,29.37v1.29h-1.45c.48-.45.97-.88,1.45-1.29Z"/>
        <path class="cls-34" d="m29.16,24.19v6.46h-3.71v-4.14c1.28-.89,2.53-1.66,3.71-2.32Z"/>
        <path class="cls-34" d="m36.58,21.27v9.39h-3.71v-8.31c1.48-.63,2.68-1.01,3.46-1.15.08.02.16.04.25.07Z"/>
        <path class="cls-34" d="m43.99,24.19v6.46h-3.71v-8.13c1.1.44,2.36.99,3.71,1.67Z"/>
        <path class="cls-34" d="m51.41,28.98v1.67h-3.71v-4.34c.96.62,1.95,1.3,2.92,2.05.27.2.53.41.79.62Z"/>
        <path class="cls-34" d="m14.32,37.49v12.48h-3.71v-5.67c.95-2.35,2.19-4.62,3.71-6.81Z"/>
        <path class="cls-34" d="m18.03,32.91v7.4h-3.71v-2.82c.98-1.42,2.09-2.82,3.32-4.16.13-.14.26-.28.39-.42Z"/>
        <path class="cls-34" d="m21.74,30.65v19.32h-3.71v-17.06c.73-.79,1.49-1.54,2.26-2.26,0,0,1.45,0,1.45,0Z"/>
        <path class="cls-34" d="m25.45,26.52v13.8h-3.71v-10.95c1.24-1.05,2.49-2,3.71-2.85Z"/>
        <rect class="cls-34" x="25.45" y="30.65" width="3.71" height="19.32"/>
        <path class="cls-34" d="m32.87,22.35v17.97h-3.71v-16.12c1.35-.76,2.61-1.38,3.71-1.85Z"/>
        <rect class="cls-34" x="32.87" y="30.65" width="3.71" height="19.32"/>
        <path class="cls-34" d="m40.28,22.52v17.79h-3.71v-19.05c.77.21,2.07.61,3.71,1.26Z"/>
        <rect class="cls-34" x="40.28" y="30.65" width="3.71" height="19.32"/>
        <path class="cls-34" d="m47.7,26.31v14h-3.71v-16.12c1.18.6,2.43,1.3,3.71,2.12Z"/>
        <rect class="cls-34" x="47.7" y="30.65" width="3.71" height="19.32"/>
        <path class="cls-34" d="m55.12,32.42v7.89h-3.71v-11.33c1.33,1.08,2.57,2.23,3.71,3.44Z"/>
        <path class="cls-34" d="m58.83,37.1v12.87h-3.71v-17.55c1.38,1.47,2.62,3.03,3.71,4.68Z"/>
        <path class="cls-34" d="m60.7,40.31h-1.88v-3.21c.68,1.03,1.31,2.1,1.88,3.21Z"/>
        <path class="cls-34" d="m64.04,49.96h-1.51v-5.44c.63,1.74,1.13,3.55,1.51,5.44Z"/>
        <path class="cls-34" d="m10.62,44.3v15.33h-2.31c0-.35-.03-.69-.05-1.03-.25-5.03.54-9.82,2.36-14.3Z"/>
        <rect class="cls-34" x="10.62" y="49.96" width="3.71" height="19.32"/>
        <rect class="cls-34" x="14.32" y="40.31" width="3.71" height="19.32"/>
        <rect class="cls-34" x="18.03" y="49.96" width="3.71" height="19.32"/>
        <rect class="cls-34" x="21.74" y="40.31" width="3.71" height="19.32"/>
        <rect class="cls-34" x="25.45" y="49.96" width="3.71" height="19.32"/>
        <rect class="cls-34" x="29.16" y="40.31" width="3.71" height="19.32"/>
        <rect class="cls-34" x="32.87" y="49.96" width="3.71" height="19.32"/>
        <rect class="cls-34" x="36.58" y="40.31" width="3.71" height="19.32"/>
        <rect class="cls-34" x="40.28" y="49.96" width="3.71" height="19.32"/>
        <rect class="cls-34" x="43.99" y="40.31" width="3.71" height="19.32"/>
        <rect class="cls-34" x="47.7" y="49.96" width="3.71" height="19.32"/>
        <rect class="cls-34" x="51.41" y="40.31" width="3.71" height="19.32"/>
        <rect class="cls-34" x="55.12" y="49.96" width="3.71" height="19.32"/>
        <path class="cls-34" d="m62.54,44.53v15.1h-3.71v-19.32h1.88c.7,1.35,1.31,2.76,1.83,4.22Z"/>
        <path class="cls-34" d="m64.78,69.28h-2.25v-19.32h1.51c.57,2.8.86,5.76.89,8.87.02,3.09-.03,6.64-.15,10.44h0Z"/>
        <path class="cls-34" d="m10.62,59.63v19.32h-1.6c-.16-3.64-.27-7.17-.38-10.47-.1-3.2-.2-6.24-.33-8.85h2.31Z"/>
        <rect class="cls-34" x="10.62" y="69.28" width="3.71" height="19.32"/>
        <rect class="cls-34" x="14.32" y="59.63" width="3.71" height="19.32"/>
        <rect class="cls-34" x="18.03" y="69.28" width="3.71" height="19.32"/>
        <rect class="cls-34" x="21.74" y="59.63" width="3.71" height="19.32"/>
        <rect class="cls-34" x="25.45" y="69.28" width="3.71" height="19.32"/>
        <rect class="cls-34" x="29.16" y="59.63" width="3.71" height="19.32"/>
        <rect class="cls-34" x="32.87" y="69.28" width="3.71" height="19.32"/>
        <rect class="cls-34" x="36.58" y="59.63" width="3.71" height="19.32"/>
        <rect class="cls-34" x="40.28" y="69.28" width="3.71" height="19.32"/>
        <rect class="cls-34" x="43.99" y="59.63" width="3.71" height="19.32"/>
        <rect class="cls-34" x="47.7" y="69.28" width="3.71" height="19.32"/>
        <rect class="cls-34" x="51.41" y="59.63" width="3.71" height="19.32"/>
        <rect class="cls-34" x="55.12" y="69.28" width="3.71" height="19.32"/>
        <rect class="cls-34" x="58.83" y="59.63" width="3.71" height="19.32"/>
        <path class="cls-34" d="m64.78,69.28c-.19,6.1-.54,12.84-1,19.32h-1.25v-19.32h2.25Z"/>
        <path class="cls-34" d="m10.62,78.95v19.32h-.17c-.74-6.33-1.15-12.98-1.42-19.32h1.6-.01Z"/>
        <path class="cls-34" d="m14.32,88.6v19.32h-2.41c-.07-.34-.13-.67-.19-1-.43-2.32-.8-4.75-1.11-7.23v-11.09h3.71Z"/>
        <rect class="cls-34" x="14.32" y="78.95" width="3.71" height="19.32"/>
        <rect class="cls-34" x="18.03" y="88.6" width="3.71" height="19.32"/>
        <rect class="cls-34" x="21.74" y="78.95" width="3.71" height="19.32"/>
        <rect class="cls-34" x="25.45" y="88.6" width="3.71" height="19.32"/>
        <rect class="cls-34" x="29.16" y="78.95" width="3.71" height="19.32"/>
        <rect class="cls-34" x="32.87" y="88.6" width="3.71" height="19.32"/>
        <rect class="cls-34" x="36.58" y="78.95" width="3.71" height="19.32"/>
        <rect class="cls-34" x="40.28" y="88.6" width="3.71" height="19.32"/>
        <rect class="cls-34" x="43.99" y="78.95" width="3.71" height="19.32"/>
        <rect class="cls-34" x="47.7" y="88.6" width="3.71" height="19.32"/>
        <rect class="cls-34" x="51.41" y="78.95" width="3.71" height="19.32"/>
        <rect class="cls-34" x="55.12" y="88.6" width="3.71" height="19.32"/>
        <rect class="cls-34" x="58.83" y="78.95" width="3.71" height="19.32"/>
        <path class="cls-34" d="m63.78,88.6c-.36,5.24-.79,10.31-1.25,14.73v-14.73h1.25Z"/>
        <path class="cls-34" d="m10.62,98.27v1.43c-.06-.48-.12-.95-.17-1.43h.17Z"/>
        <path class="cls-34" d="m14.32,107.92v9.07c-1.02-2.84-1.81-6.03-2.41-9.07h2.41Z"/>
        <rect class="cls-34" x="14.32" y="98.27" width="3.71" height="19.32"/>
        <path class="cls-34" d="m21.74,107.92v18.07c-1.39-.17-2.62-.95-3.71-2.15v-15.93h3.71Z"/>
        <rect class="cls-34" x="21.74" y="98.27" width="3.71" height="19.32"/>
        <rect class="cls-34" x="25.45" y="107.92" width="3.71" height="18.1"/>
        <rect class="cls-34" x="29.16" y="98.27" width="3.71" height="19.32"/>
        <rect class="cls-34" x="32.87" y="107.92" width="3.71" height="18.1"/>
        <rect class="cls-34" x="36.58" y="98.27" width="3.71" height="19.32"/>
        <rect class="cls-34" x="40.28" y="107.92" width="3.71" height="18.1"/>
        <rect class="cls-34" x="43.99" y="98.27" width="3.71" height="19.32"/>
        <rect class="cls-34" x="47.7" y="107.92" width="3.71" height="18.1"/>
        <rect class="cls-34" x="51.41" y="98.27" width="3.71" height="19.32"/>
        <path class="cls-34" d="m58.83,107.92v13.22c-.87,1.53-2.07,3-3.71,3.92v-17.14s3.71,0,3.71,0Z"/>
        <path class="cls-34" d="m62.54,98.27v5.07c-.62,6-1.29,10.82-1.92,13.28-.07.29-.17.61-.27.97h-1.52v-19.32s3.71,0,3.71,0Z"/>
        <path class="cls-34" d="m18.03,117.58v6.27c-1.38-1.53-2.54-3.74-3.49-6.27h3.49Z"/>
        <path class="cls-34" d="m25.45,117.58v8.44h-3.51c-.07,0-.14,0-.2-.02v-8.42h3.71Z"/>
        <rect class="cls-34" x="29.16" y="117.58" width="3.71" height="8.44"/>
        <rect class="cls-34" x="36.58" y="117.58" width="3.71" height="8.44"/>
        <rect class="cls-34" x="43.99" y="117.58" width="3.71" height="8.44"/>
        <path class="cls-34" d="m55.12,117.58v7.48c-1.05.59-2.27.95-3.71.95v-8.44h3.71Z"/>
        <path class="cls-34" d="m60.34,117.58c-.32,1.04-.81,2.32-1.52,3.56v-3.56h1.52Z"/>
      </g>
      <path class="cls-3" d="m60.62,116.61c-.71,2.76-2.98,9.11-8.82,9.39,2.02-2.16,3.02-5.14,3.45-6.81,2.03-7.92,4.45-40.31,4.31-57.77-.11-13-4.92-23.25-14.31-30.49-6.18-4.76-12.47-6.67-14.29-7.16-.55.09-1.3.31-2.21.65,3.33-1.92,6.15-2.98,7.57-3.23,1.82.49,8.11,2.4,14.29,7.16,9.39,7.23,14.21,17.49,14.31,30.48.14,17.46-2.28,49.86-4.31,57.78h.01Z"/>
      <path class="cls-32" d="m64.78,69.28c-.19,6.1-.54,12.84-1,19.32-.36,5.24-.79,10.31-1.25,14.73-.62,6-1.29,10.82-1.92,13.28-.07.29-.17.61-.27.97-.32,1.04-.81,2.32-1.52,3.56-.87,1.53-2.07,3-3.71,3.92-1.05.59-2.27.95-3.71.95h-29.47c-.07,0-.14,0-.2-.02-1.39-.17-2.62-.95-3.71-2.15-1.38-1.53-2.54-3.74-3.49-6.27-.08-.2-.15-.39-.22-.59-1.02-2.84-1.81-6.03-2.41-9.07-.07-.34-.13-.67-.19-1-.43-2.32-.8-4.75-1.11-7.23-.06-.48-.12-.95-.17-1.43-.74-6.33-1.15-12.98-1.42-19.32-.16-3.64-.27-7.17-.38-10.47-.1-3.2-.2-6.24-.33-8.85,0-.35-.03-.69-.05-1.03-.25-5.03.54-9.82,2.36-14.3.95-2.35,2.19-4.62,3.71-6.81.98-1.42,2.09-2.82,3.32-4.16.13-.14.26-.28.39-.42.73-.79,1.49-1.54,2.26-2.26.48-.45.97-.88,1.45-1.29,1.24-1.05,2.49-2,3.71-2.85,1.28-.89,2.53-1.66,3.71-2.32,1.35-.76,2.61-1.38,3.71-1.85,1.48-.63,2.68-1.01,3.46-1.15.08.02.16.04.25.07.77.21,2.07.61,3.71,1.26,1.1.44,2.36.99,3.71,1.67,1.18.6,2.43,1.3,3.71,2.12.96.62,1.95,1.3,2.92,2.05.27.2.53.41.79.62,1.33,1.08,2.57,2.23,3.71,3.44,1.38,1.47,2.62,3.03,3.71,4.68.68,1.03,1.31,2.1,1.88,3.21.7,1.35,1.31,2.76,1.83,4.22.63,1.74,1.13,3.55,1.51,5.44.57,2.8.86,5.76.89,8.87.02,3.09-.03,6.64-.15,10.44l-.02.02Z"/>
      <g>
        <path class="cls-6" d="m36.11,16.94l-.09.36-.82,3.43-2.68,11.18-2.61-12.51s.05-.02.07-.03c.04-.02.08-.04.11-.05.5-.23.98-.44,1.44-.64.08-.03.15-.06.23-.1.14-.05.27-.11.4-.16.18-.07.35-.14.52-.2.33-.12.65-.23.95-.33l.03-.35c.68-.22,1.29-.39,1.83-.49.22-.05.42-.08.62-.11Z"/>
        <path class="cls-26" d="m38.99,33.71h-4.82c-.46,0-.88-.19-1.18-.49-.33-.33-.52-.8-.48-1.3l1.11-14.02.03-.35.87-10.95h0l.06-.76h0l.06-.76.27-3.45c.07-.86.79-1.53,1.66-1.53.06,0,.12,0,.18.01.04,0,.08,0,.12.02.11.02.21.05.32.09.01,0,.02,0,.03.02.05.02.1.05.15.07.03.01.06.03.09.05h0s.08.05.11.08c.04.03.08.06.11.1.08.07.14.14.2.23.06.08.11.17.16.26.07.14.12.29.14.44,0,.05.02.11.02.16l.23,2.94.06.76h0l.05.6v.16l.97,12.02,1.1,13.82c.08.96-.69,1.79-1.65,1.79h.03Z"/>
        <g>
          <path class="cls-10" d="m38.58,5.92h-3.99l.34-4.3c.07-.86.79-1.53,1.66-1.53.43,0,.83.17,1.12.44.3.27.49.66.53,1.09l.34,4.3Z"/>
          <g>
            <path class="cls-10" d="m35.69,1.97c.52-.49,1.33-.47,1.82.05.49.52.47,1.33-.05,1.82-.52.49-1.33.47-1.82-.05s-.47-1.33.05-1.82Z"/>
            <path class="cls-10" d="m35.88,2.17c.41-.39,1.05-.37,1.43.04.39.41.37,1.05-.04,1.43-.41.39-1.05.37-1.43-.04-.39-.41-.37-1.05.04-1.43Z"/>
          </g>
        </g>
        <path class="cls-6" d="m37.48.36h0c-.42.28-.72.73-.76,1.26l-.02.28-.03.37h0l-.05.59-.02.3-.04.47-.02.29-.02.28-.14,1.73-.89,11.13-.03.35-.27,3.33-.89,11.18c-.08.95.66,1.76,1.6,1.79h.06-1.79c-.46,0-.88-.19-1.18-.49-.33-.33-.52-.8-.48-1.3l1.11-14.02.03-.35.87-10.95h0l.06-.76h0l.06-.76.27-3.45c.07-.86.79-1.53,1.66-1.53.06,0,.12,0,.18.01.04,0,.08,0,.12.02.11.02.21.05.32.09.01,0,.02,0,.03.02.05.02.1.05.15.07.03.01.06.03.09.05h.02Z"/>
        <g>
          <g>
            <circle class="cls-10" cx="17.94" cy="30.26" r="1.29"/>
            <path class="cls-10" d="m17.24,29.52c.41-.39,1.05-.37,1.43.04s.37,1.05-.04,1.43c-.41.39-1.05.37-1.43-.04-.39-.41-.37-1.05.04-1.43Z"/>
          </g>
          <g>
            <path class="cls-10" d="m54.8,29.32c.52-.49,1.33-.47,1.82.05s.47,1.33-.05,1.82c-.52.49-1.33.47-1.82-.05s-.47-1.33.05-1.82Z"/>
            <path class="cls-10" d="m54.99,29.52c.41-.39,1.05-.37,1.43.04.39.41.37,1.05-.04,1.43-.41.39-1.05.37-1.43-.04-.39-.41-.37-1.05.04-1.43Z"/>
          </g>
          <path class="cls-13" d="m37.14,2.62c0,.08-.01.17-.06.24l-.12.17-.23.34-.18.26-.18.27-.17.24-1.22,1.79-.46.68h0l-11.45,16.82-4.12,6.05-.17.24-.69,1.02c-.07.11-.19.17-.31.17-.08,0-.15-.02-.21-.07-.17-.12-.22-.35-.1-.53l.7-1.02.16-.24,2.91-4.28,13.41-19.69.93-1.36.16-.24.58-.86.13-.18c.05-.08.13-.13.21-.15.02,0,.05-.01.07-.01.08,0,.17.01.24.06.1.07.16.18.17.29h0Z"/>
          <path class="cls-13" d="m55.68,30.89c.07,0,.15-.02.21-.07.17-.12.22-.35.1-.53L37.01,2.42c-.12-.17-.35-.22-.53-.1-.17.12-.22.35-.1.53l18.98,27.87c.07.11.19.17.31.17h0Z"/>
        </g>
      </g>
      <g>
        <path class="cls-10" d="m10.13,110.65c.54-.51,1.4-.49,1.91.05s.49,1.4-.05,1.91-1.4.49-1.91-.05c-.51-.54-.49-1.4.05-1.91Z"/>
        <path class="cls-10" d="m10.33,110.85c.43-.4,1.1-.39,1.5.04s.39,1.1-.04,1.5-1.1.39-1.5-.04c-.4-.43-.39-1.1.04-1.5Z"/>
      </g>
      <g>
        <path class="cls-10" d="m5.59,67.2c.54-.51,1.4-.49,1.91.05s.49,1.4-.05,1.91-1.4.49-1.91-.05-.49-1.4.05-1.91Z"/>
        <path class="cls-10" d="m5.79,67.41c.43-.4,1.1-.39,1.5.04s.39,1.1-.04,1.5-1.1.39-1.5-.04-.39-1.1.04-1.5Z"/>
      </g>
      <g>
        <path class="cls-10" d="m5.88,77.84c.54-.51,1.4-.49,1.91.05s.49,1.4-.05,1.91-1.4.49-1.91-.05-.49-1.4.05-1.91Z"/>
        <path class="cls-10" d="m6.07,78.05c.43-.4,1.1-.39,1.5.04s.39,1.1-.04,1.5-1.1.39-1.5-.04-.39-1.1.04-1.5Z"/>
      </g>
      <g>
        <path class="cls-10" d="m6.64,88.1c.54-.51,1.4-.49,1.91.05s.49,1.4-.05,1.91-1.4.49-1.91-.05-.49-1.4.05-1.91Z"/>
        <path class="cls-10" d="m6.84,88.31c.43-.4,1.1-.39,1.5.04s.39,1.1-.04,1.5-1.1.39-1.5-.04-.39-1.1.04-1.5Z"/>
      </g>
      <g>
        <path class="cls-10" d="m64.63,88.1c.54-.51,1.4-.49,1.91.05s.49,1.4-.05,1.91-1.4.49-1.91-.05-.49-1.4.05-1.91Z"/>
        <path class="cls-10" d="m64.83,88.31c.43-.4,1.1-.39,1.5.04s.39,1.1-.04,1.5-1.1.39-1.5-.04-.39-1.1.04-1.5Z"/>
      </g>
      <g>
        <path class="cls-10" d="m65.7,77.73c.54-.51,1.4-.49,1.91.05s.49,1.4-.05,1.91-1.4.49-1.91-.05-.49-1.4.05-1.91Z"/>
        <path class="cls-10" d="m65.9,77.92c.43-.4,1.1-.39,1.5.04s.39,1.1-.04,1.5-1.1.39-1.5-.04-.39-1.1.04-1.5Z"/>
      </g>
      <g>
        <path class="cls-10" d="m65.99,67.2c.54-.51,1.4-.49,1.91.05s.49,1.4-.05,1.91-1.4.49-1.91-.05-.49-1.4.05-1.91Z"/>
        <path class="cls-10" d="m66.18,67.41c.43-.4,1.1-.39,1.5.04s.39,1.1-.04,1.5-1.1.39-1.5-.04-.39-1.1.04-1.5Z"/>
      </g>
      <g>
        <path class="cls-10" d="m12.19,118.6c.54-.51,1.4-.49,1.91.05.51.54.49,1.4-.05,1.91-.54.51-1.4.49-1.91-.05-.51-.54-.49-1.4.05-1.91Z"/>
        <path class="cls-10" d="m12.39,118.8c.43-.4,1.1-.39,1.5.04s.39,1.1-.04,1.5-1.1.39-1.5-.04-.39-1.1.04-1.5Z"/>
      </g>
      <g>
        <path class="cls-10" d="m54.58,126.1c.54-.51,1.4-.49,1.91.05.51.54.49,1.4-.05,1.91-.54.51-1.4.49-1.91-.05-.51-.54-.49-1.4.05-1.91Z"/>
        <path class="cls-10" d="m54.78,126.3c.43-.4,1.1-.39,1.5.04s.39,1.1-.04,1.5-1.1.39-1.5-.04-.39-1.1.04-1.5Z"/>
      </g>
      <g>
        <path class="cls-10" d="m60.63,118.38c.54-.51,1.4-.49,1.91.05.51.54.49,1.4-.05,1.91-.54.51-1.4.49-1.91-.05-.51-.54-.49-1.4.05-1.91Z"/>
        <path class="cls-10" d="m60.82,118.58c.43-.4,1.1-.39,1.5.04s.39,1.1-.04,1.5-1.1.39-1.5-.04-.39-1.1.04-1.5Z"/>
      </g>
      <g>
        <path class="cls-10" d="m62.4,110.88c.54-.51,1.4-.49,1.91.05s.49,1.4-.05,1.91c-.54.51-1.4.49-1.91-.05-.51-.54-.49-1.4.05-1.91Z"/>
        <path class="cls-10" d="m62.6,111.09c.43-.4,1.1-.39,1.5.04s.39,1.1-.04,1.5c-.43.4-1.1.39-1.5-.04s-.39-1.1.04-1.5Z"/>
      </g>
      <g>
        <path class="cls-10" d="m18.09,126.1c.54-.51,1.4-.49,1.91.05.51.54.49,1.4-.05,1.91-.54.51-1.4.49-1.91-.05-.51-.54-.49-1.4.05-1.91Z"/>
        <path class="cls-10" d="m18.29,126.3c.43-.4,1.1-.39,1.5.04s.39,1.1-.04,1.5-1.1.39-1.5-.04-.39-1.1.04-1.5Z"/>
      </g>
      <g>
        <g>
          <circle class="cls-7" cx="57.97" cy="44.16" r="2.45"/>
          <polygon class="cls-33" points="58.83 42.6 57.97 43.46 57.11 42.6 56.35 43.37 57.21 44.23 56.35 45.09 57.11 45.85 57.97 44.99 58.83 45.85 59.59 45.09 58.73 44.23 59.59 43.37 58.83 42.6"/>
          <g class="cls-41">
            <rect class="cls-29" x="56.31" y="44.6" width="1.21" height=".4" transform="translate(-15 53.47) rotate(-45.08)"/>
            <rect class="cls-21" x="58.81" y="44.18" width=".4" height="1.21" transform="translate(-14.39 54.85) rotate(-45)"/>
            <polygon class="cls-20" points="57.11 42.6 56.35 43.37 56.63 43.65 57.11 43.17 57.97 44.03 58.83 43.17 59.31 43.65 59.59 43.37 58.83 42.6 57.97 43.46 57.11 42.6"/>
          </g>
        </g>
        <g>
          <circle class="cls-2" cx="15.18" cy="44.16" r="2.45"/>
          <polygon class="cls-33" points="16.04 42.6 15.18 43.46 14.32 42.6 13.56 43.37 14.42 44.23 13.56 45.09 14.32 45.85 15.18 44.99 16.04 45.85 16.8 45.09 15.94 44.23 16.8 43.37 16.04 42.6"/>
          <g class="cls-41">
            <rect class="cls-29" x="13.52" y="44.6" width="1.21" height=".4" transform="translate(-27.57 23.17) rotate(-45.08)"/>
            <rect class="cls-21" x="16.02" y="44.18" width=".4" height="1.21" transform="translate(-26.92 24.59) rotate(-45)"/>
            <polygon class="cls-20" points="14.32 42.6 13.56 43.37 13.84 43.65 14.32 43.17 15.18 44.03 16.04 43.17 16.52 43.65 16.8 43.37 16.04 42.6 15.18 43.46 14.32 42.6"/>
          </g>
        </g>
      </g>
      <circle class="cls-8" cx="34.73" cy="67.46" r="5.17"/>
      <circle class="cls-19" cx="36.58" cy="65.63" r="5.17"/>
      <path class="cls-8" d="m40.8,68.59c-.93,1.33-2.48,2.2-4.23,2.2-2.85,0-5.16-2.31-5.16-5.16,0-1.75.87-3.29,2.2-4.23-.59.84-.95,1.87-.95,2.98,0,2.85,2.31,5.16,5.16,5.16,1.11,0,2.13-.35,2.97-.95h.01Z"/>
      <g>
        <path class="cls-15" d="m66.36,65.63h0c0,.88-.71,1.59-1.59,1.59H8.38c-.88,0-1.59-.71-1.59-1.59h0c0-.88.71-1.59,1.59-1.59h56.39c.88,0,1.59.71,1.59,1.59Z"/>
        <path class="cls-8" d="m66.31,65.24c.04.12.05.26.05.39,0,.88-.71,1.59-1.59,1.59H8.38c-.88,0-1.59-.71-1.59-1.59,0-.14.02-.27.05-.39.17.69.79,1.2,1.54,1.2h56.39c.74,0,1.36-.51,1.54-1.2Z"/>
      </g>
      <circle class="cls-8" cx="34.73" cy="105.35" r="5.17"/>
      <circle class="cls-19" cx="36.58" cy="103.51" r="5.17"/>
      <path class="cls-8" d="m40.8,106.46c-.93,1.33-2.48,2.2-4.23,2.2-2.85,0-5.16-2.31-5.16-5.16,0-1.75.87-3.29,2.2-4.23-.59.84-.95,1.87-.95,2.98,0,2.85,2.31,5.16,5.16,5.16,1.11,0,2.13-.35,2.97-.95h.01Z"/>
      <g>
        <path class="cls-15" d="m66.36,103.51h0c0,.88-.71,1.59-1.59,1.59H8.38c-.88,0-1.59-.71-1.59-1.59h0c0-.88.71-1.59,1.59-1.59h56.39c.88,0,1.59.71,1.59,1.59Z"/>
        <path class="cls-8" d="m66.31,103.12c.04.12.05.26.05.39,0,.88-.71,1.59-1.59,1.59H8.38c-.88,0-1.59-.71-1.59-1.59,0-.14.02-.27.05-.39.17.69.79,1.2,1.54,1.2h56.39c.74,0,1.36-.51,1.54-1.2Z"/>
      </g>
      <g>
        <g class="cls-40">
          <path class="cls-28" d="m27.2,43.73c.69.58,1.71.5,2.3-.19.58-.69.5-1.71-.19-2.3-.52-.44-1.24-.5-1.81-.19l-1.19-1.01,1.1-1.3c.33.15.73.07.97-.22.3-.35.25-.87-.1-1.17s-.87-.25-1.17.1c-.24.29-.26.7-.06,1l-1.1,1.3-4.46-3.77c.23-.22.48-.43.78-.65.68-.5,1.58-1.04,2.84-1.79l.03.48c0,.18.22.3.37.21l1.56-.87c.15-.09.14-.31-.02-.41l-1.67-.97c-.16-.1-.36,0-.35.19l.03.44c-1.97-.03-3.7.67-4.96,1.84l-1.19-.22c-.23-.04-.42.18-.34.41l.41,1.15c-.9,1.42-1.29,3.2-.95,5.1l-.52.04c-.18.02-.26.22-.14.37l1.2,1.51c.12.15.34.13.41-.03l.65-1.67c.06-.16-.08-.35-.26-.33l-.4.03c.75-1.92,1.19-3.06,1.76-3.91l4.46,3.77-1.08,1.27.17.15.17.15,1.08-1.27,1.19,1.01c-.2.61-.03,1.31.49,1.76h-.01Zm1.72-2.04c.44.37.49,1.03.12,1.47-.37.44-1.03.49-1.47.12s-.49-1.03-.12-1.47c.37-.44,1.03-.49,1.47-.12Z"/>
          <path class="cls-28" d="m23.1,42.18c-.3.35-.25.87.1,1.17s.87.25,1.17-.1.25-.87-.1-1.17-.87-.25-1.17.1Z"/>
        </g>
        <g>
          <path class="cls-5" d="m27.13,43.08c.69.58,1.71.5,2.3-.19.58-.69.5-1.71-.19-2.3-.52-.44-1.24-.5-1.81-.19l-1.19-1.01,1.1-1.3c.33.15.73.07.97-.22.3-.35.25-.87-.1-1.17s-.87-.25-1.17.1c-.24.29-.26.7-.06,1l-1.1,1.3-4.46-3.77c.23-.22.48-.43.78-.65.68-.5,1.58-1.04,2.84-1.79l.03.48c0,.18.22.3.37.21l1.56-.87c.15-.09.14-.31-.02-.41l-1.67-.97c-.16-.1-.36,0-.35.19l.03.44c-1.97-.03-3.7.67-4.96,1.84l-1.19-.22c-.23-.04-.42.18-.34.41l.41,1.15c-.9,1.42-1.29,3.2-.95,5.1l-.52.04c-.18.02-.26.22-.14.37l1.2,1.51c.12.15.34.13.41-.03l.65-1.67c.06-.16-.08-.35-.26-.34l-.4.03c.75-1.92,1.19-3.06,1.76-3.91l4.46,3.77-1.08,1.27.17.15.17.15,1.08-1.27,1.19,1.01c-.2.61-.03,1.31.49,1.76h-.01Zm1.72-2.04c.44.37.49,1.03.12,1.47-.37.44-1.03.49-1.47.12-.44-.37-.49-1.03-.12-1.47s1.03-.49,1.47-.12Z"/>
          <path class="cls-5" d="m23.03,41.53c-.3.35-.25.87.1,1.17s.87.25,1.17-.1.25-.87-.1-1.17-.87-.25-1.17.1Z"/>
        </g>
      </g>
      <g>
        <g>
          <path class="cls-11" d="m43.06,88.35c.47,0,.86-.28,1.04-.68h.62c.08,0,.16-.02.23-.05.02,0,.04-.02.06-.03.02,0,.03-.02.05-.03.02-.01.03-.03.05-.04.01-.01.03-.02.04-.03s.02-.02.03-.04c.01-.02.03-.03.04-.05h0c.06-.1.1-.21.1-.33h0v-1h0c0-.12-.04-.24-.1-.33h0s-.03-.04-.05-.06c0,0-.01-.02-.02-.03-.01-.01-.03-.03-.05-.04-.01-.01-.03-.02-.04-.03-.02-.01-.03-.02-.05-.03-.02,0-.03-.02-.05-.03-.07-.03-.15-.05-.23-.05h-1.01v-.62l9.53-1.04v.53h-1.01c-.33,0-.6.27-.6.6v.61h0v.4c0,.33.27.6.6.6h.59c.16.43.58.73,1.06.73s.9-.3,1.06-.73h.59c.33,0,.6-.27.6-.6v-.61h0v-.4h0c0-.12-.04-.24-.1-.33h0s-.03-.04-.05-.06c0,0-.01-.02-.02-.03-.01-.01-.03-.03-.05-.04-.01-.01-.03-.02-.04-.04-.02-.01-.04-.02-.06-.03-.01,0-.03-.02-.04-.02-.07-.03-.15-.05-.23-.05h-1.01v-.67l.93-.1c.1.09.22.14.36.14h.28s.03-.01.05-.02c.02,0,.04-.01.05-.02h.01c.09-.04.17-.11.23-.19l1.36-.15-.11-.99h0v-.13l-.06-.45h0l-1.1.12v-1c.72-.04,1.27-.07,1.58-.08v.23h0l.38.51h.76l.38-.51v-.13c1.7.21,3.08.71,3.09.71h0v.35h.51l.51-.51v-4.44l-.51-.51h-.51v.35s-1.39.5-3.09.71v-.13l-.38-.51h-.76l-.12.17-.25.34h0v.22c-.31,0-.86-.03-1.58-.08v-.85l1.1.12.11-1.02h0l.06-.55-1.29-.14c-.04-.16-.15-.29-.3-.35h-.01s-.04-.01-.05-.02c-.02,0-.03-.01-.05-.02h-.28c-.17,0-.32.08-.42.2-.02.02-.04.05-.05.08l-.82-.09v-.69h1.01c.33,0,.6-.27.6-.6v-1c0-.13-.04-.24-.1-.34-.11-.16-.29-.27-.5-.27h-.59c-.16-.43-.58-.74-1.07-.74s-.91.31-1.07.74h-.59c-.25,0-.46.15-.55.36-.03.08-.05.16-.05.25v1c0,.33.27.6.6.6h1.01v.55l-9.53-1.04v-.65h1.01c.08,0,.16-.02.23-.05,0,0,.02-.01.03-.01.03-.01.05-.03.08-.04.01,0,.02-.02.04-.03.02-.01.04-.03.05-.04,0,0,.01-.02.02-.03.02-.02.04-.04.05-.06h0c.06-.1.1-.21.1-.33h0v-1h0c0-.12-.04-.24-.1-.33h0s-.03-.04-.05-.06c0,0-.02-.02-.02-.03-.01-.01-.03-.02-.04-.04-.02-.01-.03-.03-.05-.04-.02-.01-.04-.02-.06-.03-.02,0-.03-.02-.04-.02-.07-.03-.15-.05-.23-.05h-.65c-.19-.37-.57-.62-1.01-.62s-.82.25-1.01.62h-.65c-.33,0-.6.27-.6.6v1c0,.33.27.6.6.6h1.01v.51l-2.03-.22-.06.55h0l-.11,1.02,1.23.13v1.18c-.69.07-1.46.16-2.27.24l-.56.56v4.33l.56.56c.81.09,1.58.17,2.27.24v1.33l-1.23.13h0l.02.18.04.4h0l.11.99,2.03-.22v.48h-1.01c-.33,0-.6.27-.6.6v1c0,.33.27.6.6.6h.62c.18.4.58.68,1.04.68l-.02-.03Zm11.49-7.36c.26-.02.51-.04.75-.05v1.05l-.75.08v-1.08Zm0-3.57v-.93l.75.08v.9c-.24-.02-.49-.03-.75-.05Zm-1.3-.1c-.2-.02-.41-.03-.61-.05v-.11l-.38-.51h-.76l-.37.5c-.49-.04-.98-.08-1.46-.12h0l-.56-.56c-.36-.04-.7-.07-1.04-.11v-.59l5.18.56v.98h0Zm-5.18,4.72c.29-.03.59-.06.9-.1.05,0,.09,0,.14-.01l.56-.56h0c.48-.04.97-.08,1.46-.12v.08l.38.51h.76l.38-.51v-.2c.21-.02.41-.03.61-.05v1.13l-5.18.56v-.74h0Z"/>
          <g>
            <polygon class="cls-17" points="64.25 81.87 64.25 79.65 64.25 77.42 63.74 76.92 63.22 76.92 63.22 77.27 63.22 79.65 63.22 82.03 63.22 82.38 63.74 82.38 64.25 81.87"/>
            <polygon class="cls-11" points="64.25 78.7 63.74 78.2 63.22 78.2 63.22 76.92 63.74 76.92 64.25 77.42 64.25 78.7"/>
            <polygon class="cls-39" points="64.25 80.59 63.74 81.1 63.22 81.1 63.22 82.38 63.74 82.38 64.25 81.87 64.25 80.59"/>
            <path class="cls-17" d="m54.39,87.71c-.63,0-1.14-.51-1.14-1.14s.51-1.14,1.14-1.14,1.14.51,1.14,1.14-.51,1.14-1.14,1.14Z"/>
            <path class="cls-17" d="m43.55,88.8c-.63,0-1.14-.51-1.14-1.14s.51-1.14,1.14-1.14,1.14.51,1.14,1.14-.51,1.14-1.14,1.14Z"/>
            <circle class="cls-17" cx="43.55" cy="71.83" r="1.14"/>
            <path class="cls-17" d="m54.39,73.98c-.63,0-1.14-.51-1.14-1.14s.51-1.14,1.14-1.14,1.14.51,1.14,1.14-.51,1.14-1.14,1.14Z"/>
            <path class="cls-18" d="m44.75,76.38v6.54s-2.31-.26-5.09-.55l-.56-.56v-4.33l.56-.56c2.78-.29,5.09-.55,5.09-.55h0Z"/>
            <path class="cls-30" d="m39.83,77.78l.16-.16c1.67-.18,3.16-.34,4.03-.43v4.92c-.87-.1-2.36-.26-4.03-.43l-.16-.16v-3.73h0Z"/>
            <rect class="cls-18" x="42.91" y="72.38" width="1.3" height="14.66"/>
            <rect class="cls-18" x="53.74" y="73.54" width="1.3" height="13.33"/>
            <polygon class="cls-18" points="41.93 84.7 41.93 74.66 48.55 75.53 48.55 83.92 41.93 84.7"/>
            <rect class="cls-11" x="53.74" y="73.55" width=".65" height="13.33"/>
            <rect class="cls-16" x="48.71" y="66.75" width="1.58" height="17.54" transform="translate(-30.94 116.56) rotate(-83.79)"/>
            <rect class="cls-9" x="49.28" y="66.24" width=".56" height="17.54" transform="translate(-30.37 116.18) rotate(-83.8)"/>
            <rect class="cls-16" x="40.73" y="83.12" width="17.54" height="1.58" transform="translate(-8.79 5.85) rotate(-6.21)"/>
            <polygon class="cls-11" points="40.76 84.66 40.7 84.08 58.14 82.17 58.2 82.76 40.76 84.66"/>
            <path class="cls-17" d="m55.79,83.52v-7.75c0-.35.28-.63.63-.63h0c.35,0,.63.28.63.63v7.75c0,.35-.28.63-.63.63h0c-.35,0-.63-.28-.63-.63Z"/>
            <path class="cls-11" d="m56.49,84.15h-.17c-.3,0-.54-.24-.54-.54v-7.91c0-.3.24-.54.54-.54h.17c.08,0,.16.02.23.05-.18.09-.31.27-.31.49v7.91c0,.22.13.41.31.49-.07.03-.15.05-.23.05Z"/>
            <path class="cls-17" d="m58.68,81.21c-1.06,0-5.76.36-9.68.68v-4.51c3.92.32,8.62.68,9.68.68,2.3,0,4.55-.81,4.55-.81v4.77s-2.25-.81-4.55-.81Z"/>
            <path class="cls-11" d="m58.68,78.95c-1.06,0-5.76-.36-9.68-.68v-.89c3.92.32,8.62.68,9.68.68,2.3,0,4.55-.81,4.55-.81v.89s-2.25.81-4.55.81Z"/>
            <path class="cls-11" d="m48.55,81.96v-5.5c-2.66-.28-4.83-.52-4.83-.52h-.28s-.99.76-1.52,1.89v2.75c.53,1.14,1.52,1.9,1.52,1.9h.28s2.17-.24,4.83-.52Z"/>
            <path class="cls-39" d="m58.68,80.34c-1.06,0-5.76.36-9.68.68v.89c3.92-.32,8.62-.68,9.68-.68,2.3,0,4.55.81,4.55.81v-.89s-2.25-.81-4.55-.81Z"/>
            <path class="cls-17" d="m44.5,82.92v-6.54s2.31.26,5.09.55l.56.56v4.33l-.56.56c-2.78.29-5.09.55-5.09.55h0Z"/>
            <path class="cls-11" d="m50.15,78.92l-.56-.56c-2.78-.29-5.09-.55-5.09-.55v-1.43s2.31.26,5.09.55l.56.56v1.43Z"/>
            <path class="cls-39" d="m50.15,80.38l-.56.56c-2.78.29-5.09.55-5.09.55v1.43s2.31-.26,5.09-.55l.56-.56v-1.43Z"/>
            <polygon class="cls-31" points="60.13 81.45 60.13 80.06 60.13 77.85 59.76 77.34 59.38 77.34 59 77.34 58.62 77.85 58.62 80.06 58.62 81.45 59 81.95 59.38 81.95 59.76 81.95 60.13 81.45"/>
            <polygon class="cls-11" points="59 78.95 58.62 79.46 58.62 77.85 59 77.34 59.76 77.34 60.13 77.85 60.13 79.46 59.76 78.95 59 78.95"/>
            <polygon class="cls-39" points="59 80.34 58.62 79.83 58.62 81.45 59 81.95 59.76 81.95 60.13 81.45 60.13 79.83 59.76 80.34 59 80.34"/>
            <polygon class="cls-31" points="53.12 81.77 53.12 79.83 53.12 77.6 52.74 77.1 52.37 77.1 51.99 77.1 51.61 77.6 51.61 79.83 51.61 81.77 51.99 82.28 52.37 82.28 52.74 82.28 53.12 81.77"/>
            <polygon class="cls-11" points="51.99 78.7 51.61 79.21 51.61 77.6 51.99 77.1 52.75 77.1 53.12 77.6 53.12 79.21 52.75 78.7 51.99 78.7"/>
            <polygon class="cls-39" points="51.99 80.67 51.61 80.17 51.61 81.77 51.99 82.28 52.75 82.28 53.12 81.77 53.12 80.17 52.75 80.67 51.99 80.67"/>
            <path class="cls-31" d="m44.5,79.65v-3.27h-.28s-1.31,1-1.72,2.43c-.22-.21-.52-.35-.86-.35-.68,0-1.23.55-1.23,1.23s.55,1.23,1.23,1.23c.34,0,.65-.14.88-.37.43,1.39,1.7,2.36,1.7,2.36h.28v-3.27h0Z"/>
            <path class="cls-11" d="m40.51,80.17c-.06-.15-.1-.31-.1-.48,0-.68.55-1.23,1.23-1.23.33,0,.64.13.86.35.41-1.42,1.72-2.43,1.72-2.43h.28v.96h-.28s-1.31,1-1.72,2.43c-.22-.21-.52-.35-.86-.35-.51,0-.95.31-1.14.75h0Z"/>
            <path class="cls-17" d="m52.13,85.88h0c0-.61.49-1.1,1.1-1.1h2.31c.61,0,1.1.49,1.1,1.1h0c0,.61-.49,1.1-1.1,1.1h-2.31c-.61,0-1.1-.49-1.1-1.1Z"/>
            <path class="cls-17" d="m41.29,72.41h0c0-.61.49-1.1,1.1-1.1h2.31c.61,0,1.1.49,1.1,1.1h0c0,.61-.49,1.1-1.1,1.1h-2.31c-.61,0-1.1-.49-1.1-1.1Z"/>
            <path class="cls-17" d="m41.29,87.02h0c0-.61.49-1.1,1.1-1.1h2.31c.61,0,1.1.49,1.1,1.1h0c0,.61-.49,1.1-1.1,1.1h-2.31c-.61,0-1.1-.49-1.1-1.1Z"/>
            <path class="cls-11" d="m41.29,72.52v-.61c0-.33.27-.6.6-.6h3.31c.33,0,.6.27.6.6v.61c0-.33-.27-.6-.6-.6h-3.31c-.33,0-.6.27-.6.6Z"/>
            <path class="cls-39" d="m41.29,72.3v.61c0,.33.27.6.6.6h3.31c.33,0,.6-.27.6-.6v-.61c0,.33-.27.6-.6.6h-3.31c-.33,0-.6-.27-.6-.6Z"/>
            <path class="cls-11" d="m52.13,85.99v-.61c0-.33.27-.6.6-.6h3.31c.33,0,.6.27.6.6v.61c0-.33-.27-.6-.6-.6h-3.31c-.33,0-.6.27-.6.6Z"/>
            <path class="cls-11" d="m41.29,87.13v-.61c0-.33.27-.6.6-.6h3.31c.33,0,.6.27.6.6v.61c0-.33-.27-.6-.6-.6h-3.31c-.33,0-.6.27-.6.6Z"/>
            <path class="cls-39" d="m45.81,86.91v.61c0,.33-.27.6-.6.6h-3.31c-.33,0-.6-.27-.6-.6v-.61c0,.33.27.6.6.6h3.31c.33,0,.6-.27.6-.6Z"/>
            <path class="cls-39" d="m56.65,85.77v.61c0,.33-.27.6-.6.6h-3.31c-.33,0-.6-.27-.6-.6v-.61c0,.33.27.6.6.6h3.31c.33,0,.6-.27.6-.6Z"/>
            <g>
              <path class="cls-17" d="m52.13,73.55h0c0-.61.49-1.1,1.1-1.1h2.31c.61,0,1.1.49,1.1,1.1h0c0,.61-.49,1.1-1.1,1.1h-2.31c-.61,0-1.1-.49-1.1-1.1Z"/>
              <path class="cls-11" d="m52.13,73.66v-.61c0-.33.27-.6.6-.6h3.31c.33,0,.6.27.6.6v.61c0-.33-.27-.6-.6-.6h-3.31c-.33,0-.6.27-.6.6Z"/>
              <path class="cls-39" d="m56.65,73.44v.61c0,.33-.27.6-.6.6h-3.31c-.33,0-.6-.27-.6-.6v-.61c0,.33.27.6.6.6h3.31c.33,0,.6-.27.6-.6Z"/>
            </g>
          </g>
        </g>
        <g>
          <path class="cls-11" d="m31.13,87.67h.62c.33,0,.6-.27.6-.6v-1c0-.33-.27-.6-.6-.6h-1.01v-.48l2.03.22.11-.99h0l.04-.4.02-.18h0l-1.23-.13v-1.33c.69-.07,1.46-.16,2.27-.24l.56-.56v-4.33l-.56-.56c-.81-.09-1.58-.17-2.27-.24v-1.18l1.23-.13-.11-1.02h0l-.06-.55-2.03.22v-.51h1.01c.33,0,.6-.27.6-.6v-1c0-.33-.27-.6-.6-.6h-.65c-.19-.37-.57-.62-1.01-.62s-.82.25-1.01.62h-.65c-.08,0-.16.02-.23.05-.02,0-.03.02-.04.02-.02.01-.04.02-.06.03s-.03.03-.05.04c0,.01-.03.02-.04.04,0,0-.02.02-.02.03-.02.02-.03.04-.05.06h0c-.06.09-.1.21-.1.33h0v1h0c0,.12.04.24.1.33h0s.03.04.05.06c0,0,0,.02.02.03.02.02.03.03.05.04,0,.01.02.02.04.03.02.02.05.03.08.04,0,0,.02.01.03.01.07.03.15.05.23.05h1.01v.65l-9.53,1.04v-.55h1.01c.33,0,.6-.27.6-.6v-1c0-.09-.02-.17-.05-.25-.09-.21-.3-.36-.55-.36h-.59c-.16-.43-.58-.74-1.07-.74s-.91.31-1.07.74h-.59c-.21,0-.39.11-.5.27-.07.1-.1.21-.1.34v1c0,.33.27.6.6.6h1.01v.69l-.82.09s-.03-.05-.05-.08c-.1-.12-.25-.2-.42-.2h-.28s-.03.01-.05.02c-.02,0-.04.01-.05.02h0c-.14.07-.25.2-.29.35l-1.29.14.06.55h0l.11,1.02,1.1-.12v.85c-.72.04-1.27.07-1.58.08v-.22h0l-.25-.34-.12-.17h-.76l-.38.51v.13c-1.7-.21-3.08-.71-3.09-.71v-.35h-.51l-.51.51v4.44l.51.51h.51v-.35h0s1.39-.5,3.09-.71v.13l.38.51h.76l.38-.51h0v-.23c.31,0,.86.03,1.58.08v1l-1.1-.12h0l-.05.45v.13h0l-.11.99,1.36.15c.06.08.13.15.23.19h0s.04.01.05.02c.02,0,.03.01.05.02h.28c.14,0,.26-.05.36-.14l.93.1v.67h-1.01c-.08,0-.16.02-.23.05-.02,0-.03.02-.04.02-.02.01-.04.02-.06.03s-.03.02-.04.04c-.02.01-.03.02-.05.04,0,0,0,.02-.02.03-.02.02-.04.04-.05.06h0c-.06.09-.1.21-.1.33h0v.4h0v.61c0,.33.27.6.6.6h.59c.16.43.58.73,1.06.73s.9-.3,1.06-.73h.59c.33,0,.6-.27.6-.6v-.4h0v-.61c0-.33-.27-.6-.6-.6h-1.01v-.53l9.53,1.04v.62h-1.01c-.08,0-.16.02-.23.05-.02,0-.03.02-.05.03-.02,0-.04.02-.05.03-.02.01-.03.02-.04.03-.02.01-.03.02-.05.04,0,0,0,.02-.02.03-.02.02-.04.04-.05.06h0c-.06.09-.1.21-.1.33h0v1h0c0,.12.04.23.1.32h0s.03.05.04.06c0,.01.02.02.03.04,0,.01.02.02.04.03s.03.03.05.04c0,0,.03.02.05.03s.04.02.06.03c.07.03.15.05.23.05h.62c.18.4.58.68,1.04.68s.86-.28,1.04-.68l-.03.03Zm-12.53-5.6l-.75-.08v-1.05c.24.02.49.03.75.05v1.08Zm-.75-4.6v-.9l.75-.08v.93c-.26.02-.51.04-.75.05Zm2.05-1.13l5.18-.56v.59c-.34.04-.68.07-1.04.11l-.56.56h0c-.49.04-.98.08-1.46.12l-.37-.5h-.76l-.38.51v.11c-.21.02-.41.03-.61.05v-.98h0Zm5.18,6.43l-5.18-.56v-1.13c.2.02.41.03.61.05v.2l.38.51h.76l.38-.51v-.08c.49.04.97.08,1.46.12h0l.56.56s.09,0,.14.01c.31.03.61.06.9.1v.74h-.01Z"/>
          <g>
            <polygon class="cls-17" points="8.9 81.87 8.9 79.65 8.9 77.42 9.41 76.92 9.93 76.92 9.93 77.27 9.93 79.65 9.93 82.03 9.93 82.38 9.41 82.38 8.9 81.87"/>
            <polygon class="cls-11" points="8.9 78.7 9.42 78.2 9.93 78.2 9.93 76.92 9.42 76.92 8.9 77.42 8.9 78.7"/>
            <polygon class="cls-39" points="8.9 80.59 9.42 81.1 9.93 81.1 9.93 82.38 9.42 82.38 8.9 81.87 8.9 80.59"/>
            <circle class="cls-17" cx="18.76" cy="86.58" r="1.14"/>
            <circle class="cls-17" cx="29.6" cy="87.66" r="1.14"/>
            <path class="cls-17" d="m29.6,72.96c.63,0,1.14-.51,1.14-1.14s-.51-1.14-1.14-1.14-1.14.51-1.14,1.14.51,1.14,1.14,1.14Z"/>
            <circle class="cls-17" cx="18.76" cy="72.84" r="1.14"/>
            <path class="cls-18" d="m28.4,76.38v6.54s2.31-.26,5.09-.55l.56-.56v-4.33l-.56-.56c-2.78-.29-5.09-.55-5.09-.55h0Z"/>
            <path class="cls-30" d="m33.32,77.78l-.16-.16c-1.67-.18-3.16-.34-4.03-.43v4.92c.87-.1,2.36-.26,4.03-.43l.16-.16v-3.73h0Z"/>
            <rect class="cls-18" x="28.96" y="72.4" width="1.3" height="14.66"/>
            <rect class="cls-18" x="18.11" y="73.55" width="1.3" height="13.33"/>
            <polygon class="cls-18" points="31.22 84.7 31.22 74.66 24.6 75.53 24.6 83.92 31.22 84.7"/>
            <rect class="cls-11" x="18.77" y="73.54" width=".65" height="13.33"/>
            <rect class="cls-16" x="14.87" y="74.73" width="17.54" height="1.58" transform="translate(-8.03 3) rotate(-6.21)"/>
            <rect class="cls-4" x="14.82" y="74.75" width="17.54" height=".56" transform="translate(-7.97 2.99) rotate(-6.2)"/>
            <rect class="cls-16" x="22.86" y="75.15" width="1.58" height="17.54" transform="translate(-62.34 98.35) rotate(-83.79)"/>
            <polygon class="cls-11" points="32.39 84.66 32.45 84.08 15.01 82.17 14.95 82.76 32.39 84.66"/>
            <path class="cls-17" d="m17.36,83.52v-7.75c0-.35-.28-.63-.63-.63h0c-.35,0-.63.28-.63.63v7.75c0,.35.28.63.63.63h0c.35,0,.63-.28.63-.63Z"/>
            <path class="cls-11" d="m16.66,84.15h.17c.3,0,.54-.24.54-.54v-7.91c0-.3-.24-.54-.54-.54h-.17c-.08,0-.16.02-.23.05.18.09.31.27.31.49v7.91c0,.22-.13.41-.31.49.07.03.15.05.23.05Z"/>
            <path class="cls-17" d="m14.47,81.21c1.06,0,5.76.36,9.68.68v-4.51c-3.92.32-8.62.68-9.68.68-2.3,0-4.55-.81-4.55-.81v4.77s2.25-.81,4.55-.81Z"/>
            <path class="cls-11" d="m14.47,78.95c1.06,0,5.76-.36,9.68-.68v-.89c-3.92.32-8.62.68-9.68.68-2.3,0-4.55-.81-4.55-.81v.89s2.25.81,4.55.81Z"/>
            <path class="cls-11" d="m24.6,81.96v-5.5c2.66-.28,4.83-.52,4.83-.52h.28s.99.76,1.52,1.89v2.75c-.53,1.14-1.52,1.9-1.52,1.9h-.28s-2.17-.24-4.83-.52Z"/>
            <path class="cls-39" d="m14.47,80.34c1.06,0,5.76.36,9.68.68v.89c-3.92-.32-8.62-.68-9.68-.68-2.3,0-4.55.81-4.55.81v-.89s2.25-.81,4.55-.81Z"/>
            <path class="cls-17" d="m28.65,82.92v-6.54s-2.31.26-5.09.55l-.56.56v4.33l.56.56c2.78.29,5.09.55,5.09.55h0Z"/>
            <path class="cls-11" d="m23,78.92l.56-.56c2.78-.29,5.09-.55,5.09-.55v-1.43s-2.31.26-5.09.55l-.56.56v1.43Z"/>
            <path class="cls-39" d="m23,80.38l.56.56c2.78.29,5.09.55,5.09.55v1.43s-2.31-.26-5.09-.55l-.56-.56v-1.43Z"/>
            <polygon class="cls-31" points="13.02 81.45 13.02 80.06 13.02 77.85 13.39 77.34 13.77 77.34 14.15 77.34 14.53 77.85 14.53 80.06 14.53 81.45 14.15 81.95 13.77 81.95 13.39 81.95 13.02 81.45"/>
            <polygon class="cls-11" points="14.15 78.95 14.53 79.46 14.53 77.85 14.15 77.34 13.4 77.34 13.02 77.85 13.02 79.46 13.4 78.95 14.15 78.95"/>
            <polygon class="cls-39" points="14.15 80.34 14.53 79.83 14.53 81.45 14.15 81.95 13.4 81.95 13.02 81.45 13.02 79.83 13.4 80.34 14.15 80.34"/>
            <polygon class="cls-31" points="20.03 81.77 20.03 79.83 20.03 77.6 20.41 77.1 20.79 77.1 21.16 77.1 21.54 77.6 21.54 79.83 21.54 81.77 21.16 82.28 20.79 82.28 20.41 82.28 20.03 81.77"/>
            <polygon class="cls-11" points="21.16 78.7 21.54 79.21 21.54 77.6 21.16 77.1 20.41 77.1 20.03 77.6 20.03 79.21 20.41 78.7 21.16 78.7"/>
            <polygon class="cls-39" points="21.16 80.67 21.54 80.17 21.54 81.77 21.16 82.28 20.41 82.28 20.03 81.77 20.03 80.17 20.41 80.67 21.16 80.67"/>
            <path class="cls-31" d="m28.65,79.65v-3.27h.28s1.31,1,1.72,2.43c.22-.21.52-.35.86-.35.68,0,1.23.55,1.23,1.23s-.55,1.23-1.23,1.23c-.34,0-.65-.14-.88-.37-.43,1.39-1.7,2.36-1.7,2.36h-.28v-3.27h0Z"/>
            <path class="cls-11" d="m32.64,80.17c.06-.15.1-.31.1-.48,0-.68-.55-1.23-1.23-1.23-.33,0-.64.13-.86.35-.41-1.42-1.72-2.43-1.72-2.43h-.28v.96h.28s1.31,1,1.72,2.43c.22-.21.52-.35.86-.35.51,0,.95.31,1.14.75h0Z"/>
            <path class="cls-17" d="m21.02,85.88h0c0-.61-.49-1.1-1.1-1.1h-2.31c-.61,0-1.1.49-1.1,1.1h0c0,.61.49,1.1,1.1,1.1h2.31c.61,0,1.1-.49,1.1-1.1Z"/>
            <path class="cls-17" d="m31.86,72.41h0c0-.61-.49-1.1-1.1-1.1h-2.31c-.61,0-1.1.49-1.1,1.1h0c0,.61.49,1.1,1.1,1.1h2.31c.61,0,1.1-.49,1.1-1.1Z"/>
            <path class="cls-17" d="m31.86,87.02h0c0-.61-.49-1.1-1.1-1.1h-2.31c-.61,0-1.1.49-1.1,1.1h0c0,.61.49,1.1,1.1,1.1h2.31c.61,0,1.1-.49,1.1-1.1Z"/>
            <path class="cls-11" d="m31.86,72.52v-.61c0-.33-.27-.6-.6-.6h-3.31c-.33,0-.6.27-.6.6v.61c0-.33.27-.6.6-.6h3.31c.33,0,.6.27.6.6Z"/>
            <path class="cls-39" d="m31.86,72.3v.61c0,.33-.27.6-.6.6h-3.31c-.33,0-.6-.27-.6-.6v-.61c0,.33.27.6.6.6h3.31c.33,0,.6-.27.6-.6Z"/>
            <path class="cls-11" d="m21.03,85.99v-.61c0-.33-.27-.6-.6-.6h-3.31c-.33,0-.6.27-.6.6v.61c0-.33.27-.6.6-.6h3.31c.33,0,.6.27.6.6Z"/>
            <path class="cls-11" d="m31.86,87.13v-.61c0-.33-.27-.6-.6-.6h-3.31c-.33,0-.6.27-.6.6v.61c0-.33.27-.6.6-.6h3.31c.33,0,.6.27.6.6Z"/>
            <path class="cls-39" d="m27.34,86.91v.61c0,.33.27.6.6.6h3.31c.33,0,.6-.27.6-.6v-.61c0,.33-.27.6-.6.6h-3.31c-.33,0-.6-.27-.6-.6Z"/>
            <path class="cls-39" d="m16.5,85.77v.61c0,.33.27.6.6.6h3.31c.33,0,.6-.27.6-.6v-.61c0,.33-.27.6-.6.6h-3.31c-.33,0-.6-.27-.6-.6Z"/>
            <g>
              <path class="cls-17" d="m21.02,73.55h0c0-.61-.49-1.1-1.1-1.1h-2.31c-.61,0-1.1.49-1.1,1.1h0c0,.61.49,1.1,1.1,1.1h2.31c.61,0,1.1-.49,1.1-1.1Z"/>
              <path class="cls-11" d="m21.02,73.66v-.61c0-.33-.27-.6-.6-.6h-3.31c-.33,0-.6.27-.6.6v.61c0-.33.27-.6.6-.6h3.31c.33,0,.6.27.6.6Z"/>
              <path class="cls-39" d="m16.5,73.44v.61c0,.33.27.6.6.6h3.31c.33,0,.6-.27.6-.6v-.61c0,.33-.27.6-.6.6h-3.31c-.33,0-.6-.27-.6-.6Z"/>
            </g>
          </g>
        </g>
      </g>
      <g>
        <path class="cls-38" d="m7.59,103.1s29.13-37.35,56.1,0c0,0-8.05-3.3-14.49-3.3s-13.86,3.32-13.86,3.32c0,0-7.13-3.23-14.26-3.23s-13.48,3.2-13.48,3.2h0Z"/>
        <path class="cls-35" d="m7.74,101.3s30.03-37.35,57.83,0c0,0-8.3-3.3-14.93-3.3s-14.29,3.32-14.29,3.32c0,0-7.35-3.23-14.7-3.23s-13.9,3.2-13.9,3.2h0Z"/>
      </g>
      <path class="cls-12" d="m6.09,68.2c.02.22.21.38.43.36l3.03-.27,1.55,7.93-4.62,2.08c-.2.09-.29.32-.2.52.06.13.17.21.3.23.07.01.15,0,.22-.03l4.62-2.08,3.27,5.68-7.47,6.14c-.17.14-.19.39-.05.56.06.08.15.13.25.14.11.02.22-.01.31-.09l28.26-23.24h0s.05-.06.07-.09c0-.01.02-.02.02-.03.02-.04.04-.09.04-.14v-.14h0s-.01-.03-.02-.05c-.01-.03-.03-.06-.05-.09h0s-.02-.03-.03-.04c-.02-.02-.04-.04-.07-.06-.02-.01-.04-.02-.06-.03-.03-.01-.05-.02-.08-.02h-.1l-29.24,2.33c-.22.02-.38.21-.36.43h-.02Zm11.53,5.04l-1.11-5.5,6.22-.49.6,3.41c0,.06.04.11.07.15l-5.7,2.5-.07-.08h0Zm3.52,4.08l-2.91-3.37,5.66-2.49,1.71,2.18-4.46,3.67h0Zm12.28-10.9l-9.31,4.09-.05-.07-.57-3.24,9.92-.78h.01Zm-.17.94l-7.06,5.81-1.58-2.01s8.64-3.8,8.64-3.8Zm-21.11,9.28l5.35-2.35,3.05,3.53-5.24,4.31s-3.16-5.49-3.16-5.49Zm-1.8-8.4l5.41-.43,1.16,5.72s.03.09.05.13l-5.12,2.25-1.5-7.67Z"/>
      <path class="cls-12" d="m67.02,67.77l-29.82-2.33h-.1s-.05.01-.08.02c-.02,0-.04.02-.06.03-.03.02-.05.03-.07.06l-.03.03h0s-.03.07-.05.1c0,.02-.02.03-.02.05h0v.14c0,.05.02.1.04.14,0,.01.02.02.02.03.02.03.04.06.07.08h0s28.26,23.25,28.26,23.25c.09.07.2.1.31.09.09-.01.18-.06.25-.14.14-.17.11-.42-.05-.56l-7.47-6.14,3.27-5.68,5.04,2.22c.07.03.15.04.22.03.13-.02.25-.1.3-.23.09-.2,0-.43-.2-.52l-5.04-2.22,1.55-7.93,3.62.27c.22.02.41-.14.43-.36s-.15-.41-.36-.43h-.03Zm-11.82,5.55l-5.7-2.5s.06-.1.07-.15l.6-3.41,6.22.49-1.11,5.5-.07.08h-.01Zm-7.91.33l1.71-2.18,5.66,2.49-2.91,3.37-4.46-3.67h0Zm2.1-6.46l-.57,3.24-.05.07-9.31-4.09,9.92.78h.01Zm-1.12,3.95l-1.58,2.01-7.06-5.81s8.64,3.8,8.64,3.8Zm9.32,10.98l-5.24-4.31,3.05-3.53,5.35,2.35-3.16,5.49Zm3.46-6.23l-5.12-2.25s.04-.08.05-.13l1.16-5.72,5.41.43-1.5,7.67Z"/>
      <g>
        <g>
          <rect class="cls-38" x="44.87" y="113.59" width="7.45" height="8.93" rx="1.26" ry="1.26" transform="translate(-.27 .11) rotate(-.13)"/>
          <rect class="cls-23" x="45.48" y="112.7" width="7.45" height="8.93" rx="1.26" ry="1.26" transform="translate(-.27 .11) rotate(-.13)"/>
          <path class="cls-14" d="m47.43,120.19c-.09-.39-.47-.64-.86-.55s-.64.47-.55.86.47.64.86.55.64-.47.55-.86Z"/>
          <path class="cls-14" d="m47.29,113.76c-.09-.39-.47-.64-.86-.55s-.64.47-.55.86.47.64.86.55.64-.47.55-.86Z"/>
          <path class="cls-14" d="m52.47,120.24c-.09-.39-.47-.64-.86-.55s-.64.47-.55.86.47.64.86.55.64-.47.55-.86Z"/>
          <path class="cls-14" d="m52.33,113.8c-.09-.39-.47-.64-.86-.55s-.64.47-.55.86.47.64.86.55.64-.47.55-.86Z"/>
        </g>
        <g>
          <rect class="cls-38" x="21.4" y="113.58" width="7.45" height="8.93" rx="1.26" ry="1.26" transform="translate(-.27 .06) rotate(-.13)"/>
          <rect class="cls-23" x="22.01" y="112.7" width="7.45" height="8.93" rx="1.26" ry="1.26" transform="translate(-.27 .06) rotate(-.13)"/>
          <path class="cls-14" d="m23.96,120.19c-.09-.39-.47-.64-.86-.55s-.64.47-.55.86.47.64.86.55.64-.47.55-.86Z"/>
          <path class="cls-14" d="m23.82,113.76c-.09-.39-.47-.64-.86-.55s-.64.47-.55.86.47.64.86.55.64-.47.55-.86Z"/>
          <path class="cls-14" d="m29.01,120.24c-.09-.39-.47-.64-.86-.55s-.64.47-.55.86.47.64.86.55.64-.47.55-.86Z"/>
          <path class="cls-14" d="m28.87,113.8c-.09-.39-.47-.64-.86-.55s-.64.47-.55.86.47.64.86.55.64-.47.55-.86Z"/>
        </g>
      </g>
      <path class="cls-1" d="m55.68,127.41c.14-.12.17-.33.05-.47l-4.45-5.68,4.81-4.9,5.45,3.49c.16.1.36.05.46-.11.06-.1.07-.22.02-.32-.03-.06-.07-.1-.13-.14l-5.45-3.49,2.41-5.02,4.18,1.23c.18.05.36-.05.42-.23.02-.08.01-.17-.02-.24-.04-.08-.11-.15-.21-.18l-26.15-7.58h-.13s-.08.02-.12.04c0,0-.01,0-.02.01-.03.02-.05.03-.07.06h0s-.01.02-.02.04c-.02.02-.03.05-.04.07h0v.17s.01.04.02.07c0,.02.02.03.03.05,0,0,0,.02.02.03l18.49,23.06c.12.14.33.17.47.05h-.02Zm-4.81-14.19l-3.32,3.42-3.33-4.12,2.1-2.06s.06-.08.07-.12l4.49,2.79-.02.09h.01Zm1.16-4.43l-.96,3.66-4.46-2.77.71-2.25,4.71,1.36Zm-13.54-3.37l7.34,4.56-.02.07-2,1.96-5.32-6.58h0Zm.74-.33l7.47,2.16-.65,2.07-6.81-4.23h-.01Zm16.65,10.34l-4.22-2.62,1.01-3.84,5.54,1.6-2.33,4.85h0Zm-5.02,5.3l-2.9-3.59,3.45-3.56s.05-.06.06-.1l4.04,2.51s-4.65,4.74-4.65,4.74Z"/>
      <path class="cls-1" d="m19.32,127.35l18.49-23.06s0-.02.02-.03c.01-.02.02-.03.03-.05,0-.02.02-.04.02-.07v-.16h0s-.02-.06-.04-.08c0-.01-.01-.03-.02-.04h0s-.05-.04-.07-.06c0,0-.01-.01-.02-.01-.04-.02-.08-.03-.12-.04h-.13l-26.15,7.58c-.1.03-.17.09-.21.18-.03.07-.04.16-.02.24.05.18.24.28.42.23l4.18-1.23,2.41,5.02-5.45,3.49c-.06.03-.1.08-.13.14-.05.1-.05.22.02.32.1.16.3.21.46.11l5.45-3.49,4.81,4.9-4.45,5.68c-.12.14-.09.36.05.47.14.12.36.09.47-.05h-.02Zm4.31-14.23l4.49-2.79s.04.09.07.12l2.1,2.06-3.33,4.12-3.32-3.42-.02-.09h.01Zm3.57-5.7l.71,2.25-4.46,2.77-.96-3.66,4.71-1.36Zm3.52,4.57l-2-1.96-.02-.07,7.34-4.56-5.32,6.58h0Zm-2.23-2.68l-.65-2.07,7.47-2.16-6.81,4.23h0Zm-12.17,1.25l5.54-1.6,1.01,3.84-4.22,2.62-2.33-4.85h0Zm2.7,5.42l4.04-2.51s.04.07.06.1l3.45,3.56-2.9,3.59-4.65-4.74Z"/>
      <circle class="cls-24" cx="36.58" cy="103.51" r="3.12"/>
      <g>
        <rect class="cls-6" x="30.49" y="38.62" width="16.33" height="10.56" rx="2.44" ry="2.44"/>
        <g>
          <rect class="cls-26" x="31.63" y="37.44" width="16.33" height="10.56" rx="2.44" ry="2.44"/>
          <g>
            <rect class="cls-22" x="37.51" y="39.85" width="4.58" height="2.88" rx=".87" ry=".87"/>
            <path class="cls-27" d="m42.09,42.12v-.97c-.69.08-1.47.13-2.29.13s-1.6-.05-2.29-.13v.97c0,.33.56.6,1.26.6h2.06c.7,0,1.26-.27,1.26-.6Z"/>
          </g>
        </g>
      </g>
      <g>
        <path class="cls-38" d="m7.59,65.21s29.13-37.35,56.1,0c0,0-8.05-3.3-14.49-3.3s-13.86,3.32-13.86,3.32c0,0-7.13-3.23-14.26-3.23s-13.48,3.2-13.48,3.2h0Z"/>
        <path class="cls-37" d="m7.74,63.42s30.03-37.35,57.83,0c0,0-8.3-3.3-14.93-3.3s-14.29,3.32-14.29,3.32c0,0-7.35-3.23-14.7-3.23s-13.9,3.2-13.9,3.2h0Z"/>
      </g>
      <g>
        <path class="cls-38" d="m34.81,11.73s-15.4,28-12.98,52.15c0,0,1.7-12.91,17.85-13.2,0,0-9.48-21.76-4.87-38.95Z"/>
        <path class="cls-36" d="m36.65,9.04s-15.4,28-12.98,52.15c0,0,1.7-12.91,17.85-13.2,0,0-9.48-21.76-4.87-38.95Z"/>
      </g>
      <circle class="cls-24" cx="36.58" cy="65.63" r="3.12"/>
    </g>
  </g>
</svg>