<?xml version="1.0" encoding="UTF-8"?>
<svg id="Layer_2" data-name="Layer 2" xmlns="http://www.w3.org/2000/svg" viewBox="0 0 136.2 160.08">
  <defs>
    <style>
      .cls-1 {
        fill: #f5581f;
      }

      .cls-1, .cls-2, .cls-3, .cls-4 {
        stroke-width: 0px;
      }

      .cls-2 {
        fill: #fff200;
      }

      .cls-3 {
        fill: #e13400;
      }

      .cls-4 {
        fill: #f98d25;
      }
    </style>
  </defs>
  <g id="Objects">
    <g>
      <ellipse class="cls-3" cx="68.21" cy="155.49" rx="63.64" ry="4.59"/>
      <path class="cls-1" d="m60.82,156.38s-94.25,8.14-32.72-113.18c0,0,2.14,39.45,10.61,33.14C52.69,65.95,28.32,26.52,81.34,0c0,0-7.42,42.33,21.82,72,0,0-3.05-21.82,19.2-36.22,0,0-14.4,21.82.87,53.68,7.23,15.08,22.68,66.92-62.41,66.92Z"/>
      <path class="cls-4" d="m50.07,76.59s6.43,6.43,6.03,11.65c0,0,15.67-19.26,15.67-45.59,0,0,31.34,48.41,27.32,84.17,0,0,8.04-2.81,8.84-10.85,0,0,4.42,40.48-36.97,40.48s-48.62-29.68-38.57-44.1c4.73-6.79,22.1-12.05,17.68-35.76Z"/>
      <path class="cls-2" d="m75.27,96.64s26.52,52.15-2.87,59.14c-23.05,5.48-29.75-24.01-12.55-36.2s15.41-22.94,15.41-22.94Z"/>
      <circle class="cls-2" cx="95.79" cy="53.05" r="1.43"/>
      <circle class="cls-2" cx="91.49" cy="42.56" r="1.16"/>
      <circle class="cls-2" cx="103.05" cy="29.39" r="1.25"/>
      <circle class="cls-2" cx="129.75" cy="78.5" r="1.97"/>
      <circle class="cls-2" cx="37.28" cy="62.37" r="1.25"/>
      <circle class="cls-2" cx="33.51" cy="50.72" r="2.51"/>
      <circle class="cls-2" cx="3.76" cy="90.5" r="1.61"/>
      <circle class="cls-2" cx=".63" cy="99.2" r=".63"/>
      <circle class="cls-2" cx="134.5" cy="141.67" r="1.7"/>
      <circle class="cls-2" cx="112.5" cy="100.94" r="1.39"/>
    </g>
  </g>
</svg>