<?xml version="1.0" encoding="UTF-8"?>
<svg id="Layer_2" data-name="Layer 2" xmlns="http://www.w3.org/2000/svg" viewBox="0 0 58.93 53.13">
  <defs>
    <style>
      .cls-1 {
        opacity: .2;
      }

      .cls-1, .cls-2, .cls-3 {
        stroke-width: 0px;
      }

      .cls-2 {
        fill: #ef4136;
      }

      .cls-3 {
        fill: #be1e2d;
      }
    </style>
  </defs>
  <g id="Layer_1-2" data-name="Layer 1">
    <g>
      <g>
        <polygon class="cls-2" points="28.58 0 33.81 12.81 44.63 9.15 41.04 20.14 58.93 25.2 41.12 30.06 43.75 40.37 33.64 37.66 28.58 50.4 23.35 37.59 14.72 39.06 15.69 29.01 3.38 25.2 16.19 19.97 6.85 3.47 23.32 12.26 28.58 0"/>
        <polygon class="cls-1" points="25.2 2.73 30.43 15.54 41.25 11.88 37.66 22.87 55.55 27.93 37.74 32.79 40.37 43.11 30.26 40.39 25.2 53.13 19.97 40.32 11.34 41.79 12.31 31.75 0 27.93 12.81 22.71 3.47 6.2 19.94 14.99 25.2 2.73"/>
        <polygon class="cls-2" points="28.58 0 33.81 12.81 44.63 9.15 41.04 20.14 58.93 25.2 41.12 30.06 43.75 40.37 33.64 37.66 28.58 50.4 23.35 37.59 14.72 39.06 15.69 29.01 3.38 25.2 16.19 19.97 6.85 3.47 23.32 12.26 28.58 0"/>
      </g>
      <g>
        <polygon class="cls-2" points="28.98 10.69 31.84 17.69 37.75 15.69 35.78 21.69 45.56 24.46 35.83 27.11 37.27 32.74 31.75 31.26 28.98 38.22 26.13 31.22 21.41 32.03 21.94 26.54 15.22 24.46 22.21 21.6 17.11 12.58 26.11 17.39 28.98 10.69"/>
        <polygon class="cls-1" points="27.14 12.18 29.99 19.18 35.9 17.18 33.94 23.18 43.71 25.95 33.98 28.6 35.42 34.24 29.9 32.75 27.14 39.71 24.28 32.72 19.56 33.52 20.09 28.03 13.37 25.95 20.37 23.09 15.26 14.08 24.26 18.88 27.14 12.18"/>
        <polygon class="cls-3" points="28.98 10.69 31.84 17.69 37.75 15.69 35.78 21.69 45.56 24.46 35.83 27.11 37.27 32.74 31.75 31.26 28.98 38.22 26.13 31.22 21.41 32.03 21.94 26.54 15.22 24.46 22.21 21.6 17.11 12.58 26.11 17.39 28.98 10.69"/>
      </g>
    </g>
  </g>
</svg>