<?xml version="1.0" encoding="UTF-8"?><svg xmlns="http://www.w3.org/2000/svg" viewBox="0 0 566.19 711.71"><defs><style>.cls-1 {
        fill: #343436;
        mix-blend-mode: overlay;
        opacity: .46;
      }

      .cls-1, .cls-2, .cls-3, .cls-4, .cls-5, .cls-6, .cls-7, .cls-8, .cls-9, .cls-10, .cls-11 {
        stroke-width: 0px;
      }

      .cls-2 {
        opacity: .08;
      }

      .cls-2, .cls-7 {
        fill: #414143;
      }

      .cls-3 {
        fill: #a9c4d5;
      }

      .cls-12 {
        isolation: isolate;
      }

      .cls-4 {
        fill: #cdd1d2;
      }

      .cls-5 {
        fill: #868689;
      }

      .cls-6 {
        fill: #fff;
        opacity: .36;
      }

      .cls-8 {
        fill: #97dcf8;
      }

      .cls-9 {
        fill: #ee1e27;
      }

      .cls-10 {
        fill: #e0f2fe;
      }

      .cls-11 {
        fill: #83d5f7;
      }</style></defs><g class="cls-12"><g id="Layer_2" data-name="Layer 2"><g id="Layer_1-2" data-name="Layer 1"><g><path d="m424.97,31.29l3.46-21.95s.82,13.28,17.67,17.52c16.85,4.24,24.6.55,38.06,7.01,13.46,6.45,21.21-6.09,33.93,9.59,0,0-9.96,17.81-3.87,33.53,6.09,15.72-6.64,64.03-6.64,64.03,0,0-8.48-19.36-19.92-22.13-11.43-2.77-35.22,2.95-47.03-3.14-11.8-6.09-23.5-13.46-23.5-13.46l7.83-71Z" class="cls-7"/><path d="m427.25,0l-21.39,143.36h10.7s16.35-102.29,10.7-143.36Z" class="cls-3"/><path d="m444.03,83.18s-2.36,8.09-1.46,14.86c.89,6.78,3.32,10.7,6.83,2.89,0,0-.52,10.13,4.89,9.59,5.4-.54,7.03-8.79,7.03-8.79,0,0-3.39,10.34,1.59,10.66,4.99.32,7.32-10.24,7.32-10.24,0,0-2.84,6.89,1.58,8.25,4.41,1.36,10.9-11.53,10.53-19.67,0-.15,1.85-1.22,2.02-1.34,1.65-1.24,3.16-2.67,4.5-4.24,4.21-4.96,6.3-11.29,5.95-17.78-.36-6.51-2.91-13.46-6.58-18.83-3.46-5.05-8.57-9.14-14.54-10.52-9.02-2.08-18.33,2.09-24.93,8.07-14.41,13.06-10.89,32.73-4.73,37.08Z" class="cls-4"/><path d="m482.87,59.85c8.81,7,.26,25.77-9.55,16.8-8.59-7.86-1.42-25.5,9.55-16.8Z" class="cls-7"/><path d="m446.71,60.82c.92-2.38,2.8-4.32,5.02-5.57,1.25-.71,2.66-1.22,4.09-1.14,2.77.16,4.97,2.49,6.16,4.99,1.24,2.61,1.71,5.63.99,8.43-.72,2.8-2.72,5.31-5.42,6.34-7.62,2.92-13.38-6.52-10.85-13.06Z" class="cls-7"/><path d="m459.09,85.11c-.83-1.49-1.33-3.33-.9-5.07.43-1.74,1.99-3.24,3.59-3.04,1.78.22,2.86,2.31,2.92,4.28.05,1.61-.47,3.36-1.67,4.33-1.21.97-3.15.83-3.87-.55l-.07.04Z" class="cls-7"/><path d="m483.81,211.78c.47-6.67.5-13.92-1.88-20.28-1.28-3.41-4.94-9.17-9.26-6.41-4.7,3-5.54,10.58-6.84,15.48-.72,2.71-1.35,5.46-1.97,8.2,7.19,3.65,13.62,7.3,19.07,10.88.37-2.62.7-5.24.89-7.87Z" class="cls-5"/><path d="m451.79,188.77c.47-6.67.5-13.92-1.88-20.28-1.28-3.41-4.94-9.17-9.26-6.41-4.7,3-5.54,10.58-6.84,15.48-1.41,5.35-2.58,10.77-3.64,16.22,6.95,2.76,13.58,5.55,19.8,8.35.82-4.43,1.5-8.88,1.82-13.37Z" class="cls-5"/><path d="m419.77,156.73c.47-6.67.5-13.92-1.88-20.28-1.28-3.41-4.94-9.17-9.26-6.41-4.7,3-5.54,10.58-6.84,15.48-3.08,11.63-5.16,23.59-6.84,35.53,6.42,2.12,12.7,4.3,18.8,6.51,2.94-10.07,5.28-20.38,6.03-30.83Z" class="cls-5"/><path d="m282.27,86.08l-4.03,18.57-2.98,13.76-6.94,31.92c-15.81-2.35-30.84-3.92-44.42-4.44l8.39-34.94,3.39-14.1.52-2.13,3.8-15.81c.63-2.5,3.06-4.1,5.59-3.73l32.56,4.92c2.83.41,4.7,3.17,4.1,5.97Z" class="cls-3"/><path d="m361.93,103.8l-4.03,18.57-2.98,13.76-6.71,31.03c-14.32-3.8-28.79-7.24-43.04-10.18l6.79-28.31,3.39-14.1,4.33-17.94c.63-2.5,3.06-4.1,5.59-3.73l32.56,4.92c2.83.41,4.7,3.17,4.1,5.97Z" class="cls-3"/><path d="m503.8,364.93c-34.91-13.35-84.62-28.87-149.44-40.87h-.04c-63.29-11.67-141.01-19.99-233.46-19.58,1.31-9.77,2.98-21.18,5.07-33.3,1.75-10.14,3.8-20.85,6.15-31.51,1.45-6.64,3.06-13.24,4.77-19.73,3.02-11.45,6.45-22.49,10.33-32.45,3.99-10.41,8.5-19.65,13.5-26.93,1.12-1.64,2.54-3.1,4.21-4.4,10.59-8.47,31.96-11.34,59-10.26,13.58.52,28.6,2.09,44.42,4.44,11.93,1.79,24.28,4.03,36.85,6.64,14.25,2.95,28.72,6.38,43.04,10.18,15.96,4.25,31.74,8.91,46.73,13.91,6.41,2.13,12.72,4.29,18.8,6.49,5.67,2.05,11.15,4.14,16.45,6.23,6.94,2.76,13.58,5.56,19.8,8.35,4.89,2.2,9.51,4.44,13.87,6.64,7.2,3.65,13.61,7.31,19.06,10.89,8.54,5.59,14.69,11.04,17.86,16.15,19.69,31.85,10.67,93.46,3.02,129.11Z" class="cls-10"/><polygon points="278.25 104.65 275.26 118.42 232.3 110.96 235.69 96.86 278.25 104.65" class="cls-9"/><polygon points="357.92 122.36 354.93 136.12 311.97 128.66 315.36 114.56 357.92 122.36" class="cls-9"/><path d="m548.59,700.18c-9.33-8.19-25.35-10.96-38.61-13.38-2.47-.45-4.86-.89-7.08-1.35-19.39-4.03-38.95-7.28-58.57-9.97-52.84-7.26-106.49-10.57-159.79-7.68-6.32.34-24.2-1.46-29.18,2.27,0,0,11.8-8.85,3.44-18.69-8.36-9.84-54.59,1.48-54.59,1.48,0,0,7.38-17.21-16.72-21.15-24.1-3.93-51.64,7.38-54.1,17.7.66-2.76-8.98-11.57-10.64-13.19-7.21-7.05-17.3-14-28.11-13.38-12.07.69-12.22,11.8-6.49,20.18-10.71-8.39-24.07-15.05-37.41-17.99-.44-.1-.88-.23-1.33-.32-20.89-4.21-57.46,8.48-47.85,36.26,2.69,7.77,8.76,14.01,15.7,18.43,37.96,24.21,91.29,26.74,134.82,26.56,87.56-.38,175.04-5.41,262.6-6.15,36.2-.3,73.9-3.66,109.18,6.48,4.78,1.37,28.16,11.22,28.32.4.04-2.56-1.69-4.82-3.62-6.51Z" class="cls-8"/><g><path d="m566.19,393.79c-.22,7.01-.63,14.25-1.23,21.63-4.21,56.39-17.19,121.58-29.5,174.09-6.79,28.98-13.39,54.04-18.2,71.64-122.36-30.99-406.73-68.43-476.58-77.42-12.01-61.01-15.33-131.16-15.66-185.5-.15-27.15.41-50.31,1.01-66.42.6-15.18,1.16-24.05,1.16-24.05,32.78-2.13,63.96-3.13,93.68-3.28,187.1-.82,313.94,34.05,382.94,60.45,41.77,15.96,62.39,28.87,62.39,28.87Z" class="cls-3"/><path d="m517.26,661.16c-3.73,13.46-6.38,22.53-7.27,25.66-2.5-.45-4.89-.89-7.09-1.38-19.39-4.03-38.97-7.27-58.59-9.96-52.81-7.27-106.47-10.55-159.77-7.68-6.3.34-24.05-1.45-29.09,2.2.97-.75,11.34-9.25,3.36-18.61-8.35-9.85-54.6,1.45-54.6,1.45,0,0,7.38-17.19-16.71-21.15-24.09-3.92-51.65,7.38-54.11,17.71.67-2.76-8.99-11.56-10.63-13.2-7.2-7.05-17.3-13.99-28.12-13.35-12.08.67-12.23,11.78-6.49,20.18-10.7-8.43-24.05-15.07-37.41-18.01-3.88-13.05-7.24-26.89-10.07-41.28,69.85,8.99,354.22,46.43,476.58,77.42Z" class="cls-9"/><path d="m566.19,393.79c-.22,7.01-.63,14.25-1.23,21.63-46.24-25.96-116.66-55.64-214.18-71.01-163.39-25.77-287.39-16.48-324.76-12.61.6-15.18,1.16-24.05,1.16-24.05,32.78-2.13,63.96-3.13,93.68-3.28,187.1-.82,313.94,34.05,382.94,60.45,41.77,15.96,62.39,28.87,62.39,28.87Z" class="cls-5"/></g><g><path d="m317.11,262.13c-.15,1.2-.44,2.34-.86,3.41v.02c-2.27,5.79-8.23,9.56-14.7,8.78-.24-.03-.48-.06-.71-.1t-.03,0c-7.27-1.27-12.34-8.05-11.45-15.45.04-.34.1-.68.16-1.01,1.39-7.13,8.07-12.08,15.38-11.2,4.75.57,8.67,3.47,10.73,7.42,1.26,2.41,1.83,5.21,1.48,8.13Z" class="cls-5"/><path d="m312.13,261.5s0,.02,0,.03c-.59,4.9-5.04,8.41-9.96,7.82-4.9-.59-8.41-5.06-7.82-9.96.15-1.24.55-2.4,1.13-3.41,1.74-3.01,5.16-4.85,8.83-4.41,4.9.59,8.4,5.02,7.82,9.93Z" class="cls-11"/><path d="m312.13,261.5s0,.02,0,.03c-.59,4.9-5.04,8.41-9.96,7.82-4.9-.59-8.41-5.06-7.82-9.96.15-1.24.55-2.4,1.13-3.41,3.09-.61,6.98-1.33,8.46-1.34,2.62-.03-4.83,3.39-6.23,4.59-1.38,1.19,9.5-.56,10.52,1.27,1.04,1.83-6.23,1.87-7.61,2.84-1.2.85,6.65,6.23,11.52-1.83Z" class="cls-6"/></g><g><path d="m450.42,296.67c-.15,1.2-.44,2.34-.86,3.41v.02c-2.27,5.79-8.23,9.56-14.7,8.78-.24-.03-.48-.06-.71-.1t-.03,0c-7.27-1.27-12.34-8.05-11.45-15.45.04-.34.1-.68.16-1.01,1.39-7.13,8.07-12.08,15.38-11.2,4.75.57,8.67,3.47,10.73,7.42,1.26,2.41,1.83,5.21,1.48,8.13Z" class="cls-5"/><path d="m445.43,296.04s0,.02,0,.03c-.59,4.9-5.04,8.41-9.96,7.82-4.9-.59-8.41-5.06-7.82-9.96.15-1.24.55-2.4,1.13-3.41,1.74-3.01,5.16-4.85,8.83-4.41,4.9.59,8.4,5.02,7.82,9.93Z" class="cls-11"/><path d="m445.43,296.04s0,.02,0,.03c-.59,4.9-5.04,8.41-9.96,7.82-4.9-.59-8.41-5.06-7.82-9.96.15-1.24.55-2.4,1.13-3.41,3.09-.61,6.98-1.33,8.46-1.34,2.62-.03-4.83,3.39-6.23,4.59-1.38,1.19,9.5-.56,10.52,1.27,1.04,1.83-6.23,1.87-7.61,2.84-1.2.85,6.65,6.23,11.52-1.83Z" class="cls-6"/></g><g><path d="m384.34,274.62c-.15,1.21-.44,2.34-.86,3.41v.02c-2.27,5.79-8.23,9.56-14.7,8.78-.24-.03-.48-.06-.71-.1t-.03,0c-7.27-1.27-12.34-8.05-11.45-15.45.04-.34.1-.68.16-1.01,1.39-7.13,8.07-12.08,15.38-11.2,4.75.57,8.67,3.47,10.73,7.42,1.26,2.41,1.83,5.21,1.48,8.13Z" class="cls-5"/><path d="m379.36,273.98s0,.02,0,.03c-.59,4.9-5.04,8.41-9.96,7.82-4.9-.59-8.41-5.06-7.82-9.96.15-1.24.55-2.4,1.13-3.41,1.74-3.01,5.16-4.85,8.83-4.41,4.9.59,8.4,5.02,7.82,9.93Z" class="cls-11"/><path d="m379.36,273.98s0,.02,0,.03c-.59,4.9-5.04,8.41-9.96,7.82-4.9-.59-8.41-5.06-7.82-9.96.15-1.24.55-2.4,1.13-3.41,3.09-.61,6.98-1.33,8.46-1.34,2.62-.03-4.83,3.39-6.23,4.59-1.38,1.19,9.5-.56,10.52,1.27,1.04,1.83-6.23,1.87-7.61,2.84-1.2.85,6.65,6.23,11.52-1.83Z" class="cls-6"/></g><path d="m331.94,213.95c-.15,1.2-.44,2.34-.86,3.41v.02c-2.27,5.79-8.23,9.56-14.7,8.78-.24-.03-.48-.06-.71-.1t-.03,0c-7.27-1.27-12.34-8.05-11.45-15.45.04-.34.1-.68.16-1.01,1.39-7.13,8.07-12.08,15.38-11.2,4.75.57,8.67,3.47,10.73,7.42,1.26,2.41,1.83,5.21,1.48,8.13Z" class="cls-5"/><path d="m326.95,213.31s0,.02,0,.03c-.59,4.9-5.04,8.41-9.96,7.82-4.9-.59-8.41-5.06-7.82-9.96.15-1.24.55-2.4,1.13-3.41,1.74-3.01,5.16-4.85,8.83-4.41,4.9.59,8.4,5.02,7.82,9.93Z" class="cls-11"/><path d="m326.95,213.31s0,.02,0,.03c-.59,4.9-5.04,8.41-9.96,7.82-4.9-.59-8.41-5.06-7.82-9.96.15-1.24.55-2.4,1.13-3.41,3.09-.61,6.98-1.33,8.46-1.34,2.62-.03-4.83,3.39-6.23,4.59-1.38,1.19,9.5-.56,10.52,1.27,1.04,1.83-6.23,1.87-7.61,2.84-1.2.85,6.65,6.23,11.52-1.83Z" class="cls-6"/><g><path d="m465.24,248.48c-.15,1.2-.44,2.34-.86,3.41v.02c-2.27,5.79-8.23,9.56-14.7,8.78-.24-.03-.48-.06-.71-.1t-.03,0c-7.27-1.27-12.34-8.05-11.45-15.45.04-.34.1-.68.16-1.01,1.39-7.13,8.07-12.08,15.38-11.2,4.75.57,8.67,3.47,10.73,7.42,1.26,2.41,1.83,5.21,1.48,8.13Z" class="cls-5"/><path d="m460.26,247.85s0,.02,0,.03c-.59,4.9-5.04,8.41-9.96,7.82-4.9-.59-8.41-5.06-7.82-9.96.15-1.24.55-2.4,1.13-3.41,1.74-3.01,5.16-4.85,8.83-4.41,4.9.59,8.4,5.02,7.82,9.93Z" class="cls-11"/><path d="m460.26,247.85s0,.02,0,.03c-.59,4.9-5.04,8.41-9.96,7.82-4.9-.59-8.41-5.06-7.82-9.96.15-1.24.55-2.4,1.13-3.41,3.09-.61,6.98-1.33,8.46-1.34,2.62-.03-4.83,3.39-6.23,4.59-1.38,1.19,9.5-.56,10.52,1.27,1.04,1.83-6.23,1.87-7.61,2.84-1.2.85,6.65,6.23,11.52-1.83Z" class="cls-6"/></g><g><path d="m399.17,226.43c-.15,1.2-.44,2.34-.86,3.41v.02c-2.27,5.79-8.23,9.56-14.7,8.78-.24-.03-.48-.06-.71-.1t-.03,0c-7.27-1.27-12.34-8.05-11.45-15.45.04-.34.1-.68.16-1.01,1.39-7.13,8.07-12.08,15.38-11.2,4.75.57,8.67,3.47,10.73,7.42,1.26,2.41,1.83,5.21,1.48,8.13Z" class="cls-5"/><path d="m394.18,225.8s0,.02,0,.03c-.59,4.9-5.04,8.41-9.96,7.82-4.9-.59-8.41-5.06-7.82-9.96.15-1.24.55-2.4,1.13-3.41,1.74-3.01,5.16-4.85,8.83-4.41,4.9.59,8.4,5.02,7.82,9.93Z" class="cls-11"/><path d="m394.18,225.8s0,.02,0,.03c-.59,4.9-5.04,8.41-9.96,7.82-4.9-.59-8.41-5.06-7.82-9.96.15-1.24.55-2.4,1.13-3.41,3.09-.61,6.98-1.33,8.46-1.34,2.62-.03-4.83,3.39-6.23,4.59-1.38,1.19,9.5-.56,10.52,1.27,1.04,1.83-6.23,1.87-7.61,2.84-1.2.85,6.65,6.23,11.52-1.83Z" class="cls-6"/></g><path d="m255.83,221.53c-1.79,2.69-5.22,3.77-8.2,4.18-6.94,1.01-13.84-.78-20.66-1.64-1.42-.19-2.8-.34-4.21-.52-16.56-1.94-33.19-3.51-49.82-4.21-11.6-.52-24.35-1.45-36.06.6,2.35-8.99,5-17.68,7.87-25.84.82-2.24,1.6-4.44,2.46-6.6,8.32-.37,17.01.34,24.95.52,19.02.41,38.6,1.42,57.06,6.3,9.36,2.5,18.95,6.53,24.65,14.84,2.27,3.28,4.4,8.76,1.98,12.38Z" class="cls-11"/><path d="m236.18,273.82c-1.79,2.65-5.22,3.73-8.24,4.18-6.9,1.01-13.84-.82-20.66-1.68-11.11-1.38-22.26-2.54-33.45-3.43-6.86-.56-13.72-1.01-20.59-1.31-8.73-.37-18.16-1.04-27.3-.41,1.57-9.06,3.36-18.53,5.41-28.08.26-1.16.48-2.27.75-3.43,6.86-.04,13.87.45,20.36.6,19.02.45,38.6,1.45,57.06,6.34,9.4,2.46,18.98,6.53,24.69,14.81,2.27,3.32,4.4,8.76,1.98,12.42Z" class="cls-11"/><path d="m255.83,221.53c-1.79,2.69-5.22,3.77-8.2,4.18-6.94,1.01-13.84-.78-20.66-1.64-1.42-.19-2.8-.34-4.21-.52,14.17-4.44-6.64-8.28-26.63-8.95-21.78-.75-40.05-5.33-34.5-7.91,5.52-2.57,34.83,2.76,37.26-4.81,1.79-5.74-35.77-7.35-54.15-7.79.82-2.24,1.6-4.44,2.46-6.6,8.32-.37,17.01.34,24.95.52,19.02.41,38.6,1.42,57.06,6.3,9.36,2.5,18.95,6.53,24.65,14.84,2.27,3.28,4.4,8.76,1.98,12.38Z" class="cls-6"/><path d="m236.18,273.82c-1.79,2.65-5.22,3.73-8.24,4.18-6.9,1.01-13.84-.82-20.66-1.68-11.11-1.38-22.26-2.54-33.45-3.43.6-5,29.28-1.31,32.97-4.81,3.69-3.51-7.16-3.13-37.41-4.07-30.25-.89-23.42-8.65-15.89-9.36,7.57-.75,52.21,2.57,43.37-4.1-6.6-5-46.28-6.82-65.53-7.46.26-1.16.48-2.27.75-3.43,6.86-.04,13.87.45,20.36.6,19.02.45,38.6,1.45,57.06,6.34,9.4,2.46,18.98,6.53,24.69,14.81,2.27,3.32,4.4,8.76,1.98,12.42Z" class="cls-6"/><path d="m535.46,589.51c-6.79,28.98-13.39,54.04-18.2,71.64-3.73,13.46-6.38,22.53-7.27,25.66-2.5-.45-4.89-.89-7.09-1.38-19.39-4.03-38.97-7.27-58.59-9.96-52.81-7.27-106.47-10.55-159.77-7.68-6.3.34-24.05-1.45-29.09,2.2.97-.75,11.34-9.25,3.36-18.61-8.35-9.85-54.6,1.45-54.6,1.45,0,0,7.38-17.19-16.71-21.15-24.09-3.92-51.65,7.38-54.11,17.71.67-2.76-8.99-11.56-10.63-13.2-7.2-7.05-17.3-13.99-28.12-13.35-12.08.67-12.23,11.78-6.49,20.18-10.7-8.43-24.05-15.07-37.41-18.01-3.88-13.05-7.24-26.89-10.07-41.28-12.01-61.01-15.33-131.16-15.66-185.5,39.05,65.38,129.49,174.54,309.91,207.91,80.14,14.81,146.71,4.66,200.53-16.63Z" class="cls-1"/><path d="m354.33,324.06c-63.29-11.67-141.01-19.99-233.46-19.58,1.31-9.77,2.98-21.18,5.07-33.3,1.75-10.14,3.8-20.85,6.15-31.51,1.45-6.64,3.06-13.24,4.77-19.73,3.02-11.45,6.45-22.49,10.33-32.45,3.99-10.41,8.5-19.65,13.5-26.93,1.12-1.64,2.54-3.1,4.21-4.4,14.4,30.28,59.93,101.25,189.42,167.9Z" class="cls-2"/><path d="m268.32,150.34c-15.81-2.35-30.84-3.92-44.42-4.44l8.39-34.94,3.39-14.1.52-2.13c2.2,15.03,9.58,37.03,32.11,55.61Z" class="cls-1"/><path d="m348.21,167.16c-14.32-3.8-28.79-7.24-43.04-10.18l6.79-28.31,3.39-14.1s3.47,33.38,32.86,52.58Z" class="cls-1"/></g></g></g></g></svg>