<?xml version="1.0" encoding="UTF-8"?><svg xmlns="http://www.w3.org/2000/svg" xmlns:xlink="http://www.w3.org/1999/xlink" id="Layer_2" data-name="Layer 2" viewBox="0 0 35.93 99.55"><defs><style>.cls-1 {
        fill: #fff;
        opacity: .8;
      }

      .cls-1, .cls-2, .cls-3, .cls-4, .cls-5, .cls-6, .cls-7, .cls-8, .cls-9, .cls-10, .cls-11, .cls-12, .cls-13, .cls-14, .cls-15, .cls-16, .cls-17, .cls-18, .cls-19, .cls-20, .cls-21, .cls-22, .cls-23, .cls-24, .cls-25, .cls-26, .cls-27 {
        stroke-width: 0px;
      }

      .cls-1, .cls-12, .cls-28, .cls-29 {
        isolation: isolate;
      }

      .cls-2 {
        fill: url(#linear-gradient-12);
      }

      .cls-3 {
        fill: url(#linear-gradient-19);
      }

      .cls-4 {
        fill: #666;
      }

      .cls-5 {
        fill: url(#linear-gradient);
      }

      .cls-30 {
        stroke: #464e4e;
      }

      .cls-30, .cls-31, .cls-32, .cls-33, .cls-34, .cls-28, .cls-35, .cls-36, .cls-37, .cls-38, .cls-39, .cls-40, .cls-29, .cls-41, .cls-42, .cls-43 {
        stroke-miterlimit: 10;
      }

      .cls-30, .cls-32, .cls-33, .cls-34, .cls-28, .cls-36, .cls-37, .cls-39, .cls-40, .cls-42, .cls-43 {
        stroke-width: .19px;
      }

      .cls-30, .cls-43 {
        fill: none;
      }

      .cls-44 {
        fill: #1c1f1f;
      }

      .cls-44, .cls-45, .cls-28, .cls-46, .cls-47, .cls-48, .cls-40, .cls-41 {
        stroke: #231f20;
      }

      .cls-44, .cls-45, .cls-46, .cls-47, .cls-48 {
        stroke-linecap: round;
        stroke-linejoin: round;
      }

      .cls-44, .cls-46, .cls-47, .cls-38, .cls-48 {
        stroke-width: .15px;
      }

      .cls-6 {
        fill: url(#linear-gradient-21);
      }

      .cls-49 {
        stroke-miterlimit: 10;
        stroke-width: .19px;
      }

      .cls-49, .cls-31, .cls-32, .cls-33, .cls-34, .cls-35, .cls-36, .cls-37, .cls-38, .cls-39, .cls-50, .cls-29, .cls-42, .cls-43, .cls-51 {
        stroke: #1d1d1b;
      }

      .cls-7 {
        fill: url(#linear-gradient-6);
      }

      .cls-8 {
        fill: #79b3c6;
      }

      .cls-31, .cls-29 {
        stroke-width: .1px;
      }

      .cls-31, .cls-42 {
        fill: #7e8c8c;
      }

      .cls-10 {
        fill: url(#linear-gradient-15);
      }

      .cls-32 {
        fill: #939598;
      }

      .cls-11 {
        fill: url(#linear-gradient-11);
      }

      .cls-12 {
        opacity: .2;
      }

      .cls-13 {
        fill: url(#linear-gradient-5);
      }

      .cls-33 {
        fill: red;
      }

      .cls-34 {
        fill: #707d7d;
      }

      .cls-45, .cls-35 {
        stroke-width: .11px;
      }

      .cls-45, .cls-37, .cls-48 {
        fill: #626d6d;
      }

      .cls-28, .cls-29, .cls-52 {
        opacity: .25;
      }

      .cls-14 {
        fill: #333;
      }

      .cls-15 {
        fill: url(#linear-gradient-13);
      }

      .cls-35, .cls-47 {
        fill: #8c9c9c;
      }

      .cls-16 {
        fill: url(#linear-gradient-16);
      }

      .cls-17 {
        fill: url(#linear-gradient-22);
      }

      .cls-46, .cls-36 {
        fill: #537cc4;
      }

      .cls-18 {
        fill: url(#linear-gradient-20);
      }

      .cls-53 {
        opacity: .33;
      }

      .cls-19 {
        fill: url(#linear-gradient-14);
      }

      .cls-20 {
        fill: url(#linear-gradient-2);
      }

      .cls-21 {
        fill: url(#linear-gradient-7);
      }

      .cls-22 {
        fill: url(#linear-gradient-3);
      }

      .cls-23 {
        fill: url(#linear-gradient-9);
      }

      .cls-50 {
        stroke-miterlimit: 10;
        stroke-width: .19px;
      }

      .cls-24 {
        fill: url(#linear-gradient-8);
      }

      .cls-40 {
        fill: #bae810;
      }

      .cls-25 {
        fill: url(#linear-gradient-18);
      }

      .cls-41 {
        fill: url(#linear-gradient-17);
      }

      .cls-26 {
        fill: url(#linear-gradient-10);
      }

      .cls-27 {
        fill: url(#linear-gradient-4);
      }

      .cls-51 {
        stroke-miterlimit: 10;
        stroke-width: .19px;
      }</style><linearGradient id="linear-gradient" x1="17.4" x2="18.43" y1="96.5" y2="96.5" gradientTransform="translate(.27 0) scale(.98 1)" gradientUnits="userSpaceOnUse"><stop offset="0" stop-color="#505c5c"/><stop offset="1" stop-color="#8c9c9c"/></linearGradient><linearGradient xlink:href="#linear-gradient" id="linear-gradient-2" x1="12.65" x2="17.73" y1="92.14" y2="92.14"/><linearGradient xlink:href="#linear-gradient" id="linear-gradient-3" x1="15.67" x2="20.14" y1="95.14" y2="95.14"/><linearGradient xlink:href="#linear-gradient" id="linear-gradient-4" x1="17.87" x2="23.72" y1="92.09" y2="92.09"/><linearGradient id="linear-gradient-5" x1="-319.05" x2="-318" y1="-716.16" y2="-716.16" gradientTransform="translate(-681.05 -222.7) rotate(-89.88) scale(1 -.98)" gradientUnits="userSpaceOnUse"><stop offset=".19" stop-color="#3d3e3d"/><stop offset="1" stop-color="#515151"/></linearGradient><linearGradient id="linear-gradient-6" x1="-318.5" x2="-316.9" y1="-716.25" y2="-716.25" gradientTransform="translate(-681.05 -222.7) rotate(-89.88) scale(1 -.98)" gradientUnits="userSpaceOnUse"><stop offset=".14" stop-color="gray"/><stop offset=".88" stop-color="#b3b3b3"/></linearGradient><linearGradient xlink:href="#linear-gradient-6" id="linear-gradient-7" x1="-320.45" x2="-318.87" y1="-716.16" y2="-716.16"/><linearGradient xlink:href="#linear-gradient" id="linear-gradient-8" x1="-317.77" x2="-314.97" y1="-722.09" y2="-719.29" gradientTransform="translate(-681.05 -222.7) rotate(-89.88) scale(1 -.98)"/><linearGradient xlink:href="#linear-gradient" id="linear-gradient-9" x1="-317.82" x2="-314.52" y1="-713.48" y2="-710.19" gradientTransform="translate(-681.05 -222.7) rotate(-89.88) scale(1 -.98)"/><linearGradient xlink:href="#linear-gradient" id="linear-gradient-10" x1="-320.97" x2="-318.56" y1="-720.68" y2="-718.26" gradientTransform="translate(-681.05 -222.7) rotate(-89.88) scale(1 -.98)"/><linearGradient xlink:href="#linear-gradient" id="linear-gradient-11" x1="-320.87" x2="-318.66" y1="-713.91" y2="-711.71" gradientTransform="translate(-681.05 -222.7) rotate(-89.88) scale(1 -.98)"/><linearGradient xlink:href="#linear-gradient" id="linear-gradient-12" x1="19.35" x2="22.79" y1="93.85" y2="93.85"/><linearGradient xlink:href="#linear-gradient" id="linear-gradient-13" x1="13.11" x2="16.37" y1="93.67" y2="93.67"/><linearGradient xlink:href="#linear-gradient" id="linear-gradient-14" x1="11.63" x2="12.69" y1="94.61" y2="94.61"/><linearGradient xlink:href="#linear-gradient" id="linear-gradient-15" x1="22.05" x2="23.26" y1="98.65" y2="98.65"/><linearGradient xlink:href="#linear-gradient" id="linear-gradient-16" x1="12.34" x2="13.27" y1="98.64" y2="98.64"/><linearGradient xlink:href="#linear-gradient-6" id="linear-gradient-17" x1="14.38" x2="22.14" y1="50.8" y2="50.8" gradientTransform="matrix(1,0,0,1,0,0)"/><linearGradient xlink:href="#linear-gradient-6" id="linear-gradient-18" x1="36.01" x2="38.79" y1="92.74" y2="95.52" gradientTransform="translate(62.42 127.52) rotate(175.98)"/><linearGradient xlink:href="#linear-gradient-6" id="linear-gradient-19" x1="36.51" x2="41.15" y1="96.05" y2="100.69" gradientTransform="translate(62.42 127.52) rotate(175.98)"/><linearGradient xlink:href="#linear-gradient-6" id="linear-gradient-20" x1="41.48" x2="44.64" y1="98.07" y2="101.24" gradientTransform="translate(62.42 127.52) rotate(175.98)"/><linearGradient id="linear-gradient-21" x1="48.35" x2="45.87" y1="101.02" y2="98.54" gradientTransform="translate(62.42 127.52) rotate(175.98)" gradientUnits="userSpaceOnUse"><stop offset=".14" stop-color="#fff"/><stop offset=".24" stop-color="#e2f4f8"/><stop offset=".38" stop-color="#c0e7f0"/><stop offset=".52" stop-color="#a7deea"/><stop offset=".64" stop-color="#98d8e7"/><stop offset=".74" stop-color="#93d7e6"/></linearGradient><linearGradient xlink:href="#linear-gradient-5" id="linear-gradient-22" x1="44.54" x2="46.43" y1="100.72" y2="100.72" gradientTransform="translate(62.86 133.83) rotate(175.98) scale(1 1.05)"/></defs><g id="Layer_2-2" data-name="Layer 2"><g id="Layer_1-2" data-name="Layer 1-2"><g><g><path d="m12.31,89.5s0,.01,0,.02c.12.41.25.8.38,1.17.12.34.24.66.37.96-.17.28-.33.54-.48.8-.83,1.44-1.25,2.52-1.25,3.21,0,.37.12.65.35.81.09.06.19.1.3.13.3.07.69,0,1.14-.17,1.36-.54,3.19-.73,3.32-.75h.15c.13.04.26.08.38.11v.76c-.33.07-1,.29-1.01.84,0,.02,0,.06,0,.12,0,.1,0,.26.03.45-.47-.1-1.05-.18-1.68-.23-.37-.03-.8-.04-1.22.03-.11.02-.22.04-.33.08-.36.12-.67.35-.72.72,0,.04,0,.08,0,.11,0,.56.58.86,1.16.87,0,0,.01,0,.02,0,1.23,0,2.29-.19,3.15-.6.29.4.72.6,1.27.61.15,0,.3-.02.43-.05.34-.08.63-.27.85-.56.27.13.55.24.86.32.61.18,1.3.27,2.06.29.08,0,.16,0,.24,0,.59,0,1.19-.3,1.19-.86,0-.04,0-.07,0-.11-.05-.37-.38-.61-.74-.73-.1-.03-.21-.06-.31-.08-.42-.07-.86-.06-1.22-.03-.42.03-.78.07-1.07.11-.24.03-.43.07-.59.1.05-.26.06-.48.06-.58,0-.02,0-.04,0-.04,0-.22-.12-.39-.28-.52-.19-.15-.43-.24-.55-.27v-.78c.1-.03.21-.07.32-.11h.1s0,0,0,0c.17.04,1.52.33,2.64,1.04.18.11.35.23.51.36.35.29.71.36,1.02.21.05-.02.1-.06.15-.09.34-.27.54-.83.55-1.54,0-.65-.16-1.97-1.26-3.59.45-.78.85-1.66,1.18-2.62" class="cls-9"/><path d="m13.22,99.24c-.28,0-.63-.09-.8-.29-.07-.08-.1-.17-.1-.28,0-.02,0-.05,0-.07.04-.3.4-.47.73-.54.03,0,.05-.01.08-.02.4-.06.81-.05,1.16-.02,1.35.1,2.14.32,2.36.44-.89.53-2.05.79-3.43.78h0Z" class="cls-9"/><path d="m22.04,98.04h0s.08.01.13.02c.35.06.77.24.81.56.02.14-.01.25-.1.35-.17.2-.52.29-.8.29-.09,0-.19,0-.28,0-.74-.02-1.41-.12-2-.29-.42-.13-.81-.29-1.16-.5.15-.08.56-.21,1.23-.31.32-.05.69-.09,1.12-.12.31-.02.67-.04,1.03,0h0Z" class="cls-9"/><path d="m18.98,98.16c-.32.09-.52.19-.54.28-.01.05,0,.09.05.12.08.05.16.1.24.14-.21.3-.49.48-.85.53-.08.01-.16.02-.24.02-.48,0-.84-.18-1.08-.54.09-.05.17-.1.26-.15.03-.02.05-.06.05-.09,0,0,0-.02,0-.03-.02-.09-.22-.19-.54-.28-.04-.15-.06-.3-.07-.42.36.29,1.18.29,1.5.29.17,0,.42-.02.66-.08.25-.06.49-.14.65-.27-.02.14-.04.31-.1.49h0Z" class="cls-9"/><path d="m19.09,97.33c0,.06-.03.11-.07.16-.11.12-.33.21-.58.27-.24.06-.5.09-.68.09-1.24,0-1.5-.25-1.5-.47,0-.33.54-.51.83-.57v.32s0,.03,0,.04c0,.01.15.3.65.3.2,0,.35-.05.46-.1.15-.08.21-.18.22-.19,0-.01.01-.03.01-.05v-.33c.2.05.66.23.66.52h0Z" class="cls-9"/><path d="m18.26,97.11c-.04.05-.19.19-.52.19s-.45-.14-.48-.19v-1.4c.16.02.33.04.51.04.14,0,.29-.01.45-.05.02,0,.04,0,.05-.01v1.41s0,0,0,0Z" class="cls-5"/><path d="m13.36,91.62s0-.01,0-.02c-.12-.28-.23-.56-.34-.86,0,0,0,0,0,0,0,0,0,0,0,0-.14-.38-.27-.78-.39-1.19.03,0,.06,0,.09,0,.5.05,1.93.16,4.79.17h.07s-.01,4.98-.01,4.98c0,.02,0,.03.02.05-.37,0-.7,0-.99-.03-.71-.05-1.16-.14-1.29-.17-.5-.45-.77-.89-.78-.9,0,0,0,0,0,0-.42-.52-.79-1.2-1.13-1.99,0-.01,0-.02-.01-.03h0Z" class="cls-20"/><path d="m18.61,94.87c.13,0,.26-.02.39-.04.3-.03.61-.07.94-.12-.45.34-.89.57-1.28.7-.05.02-.1.03-.15.05-.24.07-.45.11-.65.12-.03,0-.06,0-.09,0-.4,0-.76-.07-1.09-.19-.43-.15-.8-.38-1.11-.62.26.04.66.09,1.18.12.51.03,1.14.03,1.87-.03h0Z" class="cls-22"/><path d="m13.02,96.15c-.25.1-.65.23-.95.17h0c-.13-.02-.24-.08-.31-.18-.21-.26-.32-1.02.91-3.23h0c.12-.22.26-.46.41-.71.07-.11.14-.23.21-.34.33.75.69,1.39,1.09,1.9.03.05.3.47.78.91.01.03.03.05.06.05h0c.28.25.63.5,1.04.7-.13.02-.34.04-.59.08-.7.11-1.77.31-2.65.67h0Z" class="cls-9"/><path d="m22.52,92.48c1.26,2.03,1.2,3.86.65,4.4-.1.09-.21.14-.32.15-.13,0-.26-.03-.4-.11-.05-.03-.09-.06-.14-.1-.84-.7-1.96-1.1-2.65-1.31-.21-.06-.38-.1-.49-.13.96-.47,2.07-1.41,3.08-3.03.03-.05.06-.1.1-.16.07.1.13.19.19.29h0Z" class="cls-9"/><path d="m22.33,91.87c-.08.14-.15.26-.23.39-.61.98-1.26,1.71-1.88,2.23-.37.07-.73.12-1.06.16-.12.01-.24.03-.36.04-.38.04-.74.05-1.07.06,0-.01.01-.03.02-.05v-4.98c1.53,0,2.81-.06,3.79-.12.98-.06,1.64-.13,1.92-.16-.35.98-.74,1.78-1.11,2.43h0Z" class="cls-27"/><path d="m21.57,89.42h0" class="cls-9"/><g id="Layer_1-2-2" data-name="Layer 1-2"><g><path d="m18.43,96.81c.2.05.66.23.66.52,0,.34-.88.52-1.33.52-1.24,0-1.5-.25-1.5-.47,0-.33.54-.51.83-.57v.32s0,.03,0,.04c0,.01.15.3.65.3s.67-.28.68-.29c0-.01.01-.03.01-.05v-.33s0,0,0,0Z" class="cls-13"/><path d="m18.27,95.7v1.41c-.05.05-.2.19-.52.19s-.45-.14-.48-.19v-1.4c.16.02.33.04.51.04.15,0,.32-.02.5-.06h0Z" class="cls-7"/><path d="m19.07,97.67c-.02.14-.04.31-.1.49-.32.09-.52.19-.54.28-.01.05,0,.09.05.12.08.05.16.1.24.14-.25.36-.62.55-1.09.55s-.84-.18-1.08-.54c.09-.05.17-.1.26-.15.03-.02.05-.06.05-.09,0,0,0-.02,0-.03-.02-.09-.22-.19-.54-.28-.04-.15-.06-.3-.07-.42.36.29,1.18.29,1.5.29.35,0,.99-.09,1.31-.35h0Z" class="cls-21"/><path d="m22.34,92.19c1.45,2.14,1.42,4.12.83,4.69-.23.23-.54.2-.86-.06-1.1-.9-2.65-1.32-3.14-1.44.96-.47,2.07-1.41,3.08-3.03.03-.05.06-.1.1-.16h0Z" class="cls-24"/><path d="m13.28,91.85c.33.75.69,1.39,1.09,1.9.03.05.3.47.78.91.01.03.03.05.06.05h0c.28.25.63.5,1.04.7-.51.06-2.04.27-3.23.75-.36.14-.99.33-1.27,0-.24-.3-.35-1.26,1.53-4.29h0Z" class="cls-23"/><path d="m22.17,98.06c.35.06.77.24.81.56.02.14-.01.25-.1.35-.17.2-.52.29-.8.29-1.39,0-2.54-.26-3.43-.8.22-.12,1.01-.34,2.36-.43.35-.02.76-.04,1.16.03h0Z" class="cls-26"/><path d="m14.3,98.02c1.35.1,2.14.32,2.36.44-.89.53-2.05.79-3.43.78-.28,0-.63-.09-.8-.29-.07-.08-.1-.17-.1-.28,0-.02,0-.05,0-.07.04-.32.46-.5.81-.55.4-.06.81-.05,1.16-.02h0Z" class="cls-11"/><path d="m22.34,92.19c.07.1.13.19.19.29-.15.26-.53.89-1.17,1.66-.64.78-1.39,1.21-1.7,1.37-.21-.06-.38-.1-.49-.13.96-.47,2.07-1.41,3.08-3.03.03-.05.06-.1.1-.16h0Z" class="cls-2"/><path d="m13.28,91.85c.33.75.69,1.39,1.09,1.9.03.05.3.47.78.91.01.03.03.05.06.05h0c.28.25.63.5,1.04.7-.13.02-.34.04-.59.08-.24-.15-.72-.51-1.35-1.22-.71-.8-1.11-1.71-1.25-2.07.07-.11.14-.23.21-.34h0Z" class="cls-15"/><path d="m12.66,92.9c-.44.89-.76,2.12-.82,2.66-.05.46.16.69.23.75-.13-.02-.24-.08-.31-.18-.21-.26-.32-1.02.91-3.23h0Z" class="cls-19"/><path d="m19.07,97.67c-.02.14-.04.31-.1.49-.32.09-.52.19-.54.28-.01.05,0,.09.05.12.08.05.16.1.24.14-.21.3-.49.48-.85.53.16-.2.45-.64.55-1.29.25-.06.49-.14.65-.27Z" class="cls-4"/><path d="m18.43,96.81c.2.05.66.23.66.52,0,.2-.31.35-.65.43.02-.19.02-.4-.01-.62v-.33h0Z" class="cls-14"/><path d="m18.27,95.7v1.41c-.05.05-.2.19-.52.19,0,0,.01-1.09.02-1.55.14,0,.29-.01.45-.05.02,0,.04,0,.05-.01h0Z" class="cls-4"/><path d="m22.04,98.04s.08.01.13.02c.35.06.77.24.81.56.02.14-.01.25-.1.35-.17.2-.52.29-.8.29-.09,0-.19,0-.28,0,.12-.03.85-.22.84-.62-.01-.34-.42-.53-.6-.6h0Z" class="cls-10"/><path d="m13.06,98.05c-.19.08-.44.24-.41.58.04.55.57.61.57.61-.28,0-.63-.09-.8-.29-.07-.08-.1-.17-.1-.28,0-.02,0-.05,0-.07.04-.3.4-.47.73-.54h0Z" class="cls-16"/></g></g></g><path d="m26.44,42.48c-.09-33.52-9.89-40.01-9.89-40.01,0,0-9.81,6.49-9.89,40.01.33,19.73-.02,50.79,5.71,50.3h8.27c5.87.57,5.44-30.33,5.8-50.3Z" class="cls-28"/><path d="m26.4,78.54c-.53,6.46-1.86,11.87-3.99,11.87h-9.08c-5.37-1.01-5.01-30.72-5.35-50.3C7.66,19.63,12.59,7.05,15.75,2.28c.82-1.24,1.52-1.95,1.97-2.14.05-.02.11-.04.16-.04,0,0,9.81,6.49,9.89,40.01.04,17.15-.69,30.28-1.36,38.43Z" class="cls-34"/><path d="m26.36,51.7c-.12,6.19-.42,12.28-.76,17.81-.03.46-.06.91-.09,1.35-.15,2.32-.3,4.53-.46,6.59-.02.28-.05.61-.09.96-.11,1.11-.29,2.51-.55,3.8-.26,1.31-.62,2.51-1.09,3.21-.27.4-.57.64-.92.64h-9.08c-.33-.04-.62-.3-.9-.75-.42-.69-.78-1.83-1.09-3.32-.48-2.3-.83-5.44-1.09-9.05-.27-3.74-.45-7.99-.57-12.34-.17-6.11-.23-12.42-.29-17.81,0-.91-.02-1.8-.03-2.65-.07-5.24.26-10.25.89-14.79.3-2.16.67-4.22,1.09-6.14.33-1.51.69-2.93,1.09-4.26.34-1.16.71-2.24,1.09-3.24.35-.92.71-1.77,1.09-2.55.35-.73.72-1.4,1.09-1.98.36-.57.72-1.08,1.09-1.52.35-.42.71-.78,1.08-1.07,0,0,0,0,.01,0,.38.32.74.68,1.09,1.08.38.43.75.9,1.09,1.43.02.02.04.05.05.08.36.55.71,1.14,1.04,1.77.39.76.75,1.58,1.09,2.44.4,1.02.76,2.11,1.09,3.26.13.47.26.94.38,1.43.26,1.01.49,2.07.7,3.16.36,1.82.66,3.74.91,5.75.06.51.12,1.03.18,1.56.26,2.36.46,4.82.6,7.35.32,5.74.37,11.82.25,17.81v-.02Z" class="cls-42"/><g><path d="m13.53,11.71v4.38h-1.09v-1.14c.34-1.16.71-2.24,1.09-3.24Z" class="cls-30"/><path d="m15.71,7.18v8.91h-1.09v-6.92c.35-.73.72-1.4,1.09-1.98h0Z" class="cls-30"/><path d="m16.8,5.66v1.52h-1.09c.36-.58.72-1.08,1.09-1.52Z" class="cls-30"/><path d="m17.89,4.6v11.48h-1.09V5.65c.35-.42.71-.78,1.08-1.07,0,0,0,0,.01,0h0Z" class="cls-30"/><path d="m18.97,5.68v1.5h-1.09v-2.58c.38.32.74.68,1.09,1.08Z" class="cls-30"/><path d="m20.06,7.11v8.98h-1.09V5.69c.38.43.75.9,1.09,1.43h0Z" class="cls-30"/><path d="m20.12,7.18h-.05v-.08s.04.05.05.08Z" class="cls-30"/><path d="m22.24,11.4v4.69h-1.09v-7.13c.39.76.75,1.58,1.09,2.44Z" class="cls-30"/><path d="m23.72,16.09h-.38v-1.43c.13.47.26.94.38,1.43Z" class="cls-30"/><path d="m11.35,19.21v14.68h-1.09v-8.54c.3-2.16.67-4.22,1.09-6.14Z" class="cls-30"/><path d="m12.44,14.95v10.04h-1.09v-5.78c.33-1.51.69-2.93,1.09-4.26Z" class="cls-30"/><rect width="1.09" height="17.81" x="12.44" y="16.09" class="cls-30"/><path d="m14.62,9.16v15.83h-1.09v-13.28c.35-.92.71-1.77,1.09-2.55Z" class="cls-30"/><rect width="1.09" height="17.81" x="14.62" y="16.09" class="cls-30"/><rect width="1.09" height="17.81" x="15.71" y="7.18" class="cls-30"/><rect width="1.09" height="17.81" x="16.8" y="16.09" class="cls-30"/><rect width="1.09" height="17.81" x="17.89" y="7.18" class="cls-30"/><rect width="1.09" height="17.81" x="18.98" y="16.09" class="cls-30"/><path d="m21.15,8.96v16.03h-1.09V7.18h.05c.36.55.71,1.14,1.04,1.77h0Z" class="cls-30"/><rect width="1.09" height="17.81" x="21.15" y="16.09" class="cls-30"/><path d="m23.33,14.66v10.33h-1.09v-13.59c.4,1.02.76,2.11,1.09,3.26Z" class="cls-30"/><path d="m24.42,19.24v14.65h-1.09v-17.81h.38c.26,1.01.49,2.07.7,3.16h0Z" class="cls-30"/><path d="m25.33,24.99h-.91v-5.75c.36,1.82.66,3.74.91,5.75Z" class="cls-30"/><path d="m26.11,33.89h-.6v-7.35c.26,2.36.46,4.82.6,7.35Z" class="cls-30"/><path d="m10.26,25.35v17.44h-.86c0-.91-.02-1.8-.03-2.65-.07-5.24.26-10.25.89-14.79Z" class="cls-30"/><rect width="1.09" height="17.81" x="10.26" y="33.89" class="cls-30"/><rect width="1.09" height="17.81" x="11.35" y="24.99" class="cls-30"/><rect width="1.09" height="17.81" x="12.44" y="33.89" class="cls-30"/><rect width="1.09" height="17.81" x="13.53" y="24.99" class="cls-30"/><rect width="1.09" height="17.81" x="14.62" y="33.89" class="cls-30"/><rect width="1.09" height="17.81" x="15.71" y="24.99" class="cls-30"/><rect width="1.09" height="17.81" x="16.8" y="33.89" class="cls-30"/><rect width="1.09" height="17.81" x="17.89" y="24.99" class="cls-30"/><rect width="1.09" height="17.81" x="18.98" y="33.89" class="cls-30"/><rect width="1.09" height="17.81" x="20.06" y="24.99" class="cls-30"/><rect width="1.09" height="17.81" x="21.15" y="33.89" class="cls-30"/><rect width="1.09" height="17.81" x="22.24" y="24.99" class="cls-30"/><rect width="1.09" height="17.81" x="23.33" y="33.89" class="cls-30"/><path d="m25.51,26.55v16.25h-1.09v-17.81h.91c.06.51.12,1.03.18,1.56Z" class="cls-30"/><path d="m26.36,51.7h-.85v-17.81h.6c.32,5.74.37,11.82.25,17.81Z" class="cls-30"/><path d="m10.26,42.8v17.81h-.57c-.17-6.11-.23-12.42-.29-17.81h.86Z" class="cls-30"/><rect width="1.09" height="17.81" x="10.26" y="51.7" class="cls-30"/><rect width="1.09" height="17.81" x="11.35" y="42.8" class="cls-30"/><rect width="1.09" height="17.81" x="12.44" y="51.7" class="cls-30"/><rect width="1.09" height="17.81" x="13.53" y="42.8" class="cls-30"/><rect width="1.09" height="17.81" x="14.62" y="51.7" class="cls-30"/><rect width="1.09" height="17.81" x="15.71" y="42.8" class="cls-30"/><rect width="1.09" height="17.81" x="16.8" y="51.7" class="cls-30"/><rect width="1.09" height="17.81" x="17.89" y="42.8" class="cls-30"/><rect width="1.09" height="17.81" x="18.98" y="51.7" class="cls-30"/><rect width="1.09" height="17.81" x="20.06" y="42.8" class="cls-30"/><rect width="1.09" height="17.81" x="21.15" y="51.7" class="cls-30"/><rect width="1.09" height="17.81" x="22.24" y="42.8" class="cls-30"/><rect width="1.09" height="17.81" x="23.33" y="51.7" class="cls-30"/><rect width="1.09" height="17.81" x="24.42" y="42.8" class="cls-30"/><path d="m26.36,51.7c-.12,6.19-.42,12.28-.76,17.81h-.09v-17.81s.85,0,.85,0Z" class="cls-30"/><path d="m10.26,60.6v12.34c-.27-3.74-.45-7.99-.57-12.34,0,0,.57,0,.57,0Z" class="cls-30"/><path d="m11.35,69.51v12.48c-.48-2.3-.83-5.44-1.09-9.05v-3.43s1.09,0,1.09,0Z" class="cls-30"/><rect width="1.09" height="17.81" x="11.35" y="60.61" class="cls-30"/><path d="m13.53,69.51v16.55h-.19c-.33-.04-.62-.3-.9-.75v-15.8h1.09,0Z" class="cls-30"/><rect width="1.09" height="17.81" x="13.53" y="60.61" class="cls-30"/><rect width="1.09" height="16.55" x="14.62" y="69.51" class="cls-30"/><rect width="1.09" height="17.81" x="15.71" y="60.61" class="cls-30"/><rect width="1.09" height="16.55" x="16.8" y="69.51" class="cls-30"/><rect width="1.09" height="17.81" x="17.89" y="60.61" class="cls-30"/><rect width="1.09" height="16.55" x="18.97" y="69.51" class="cls-30"/><rect width="1.09" height="17.81" x="20.06" y="60.61" class="cls-30"/><rect width="1.09" height="16.55" x="21.15" y="69.51" class="cls-30"/><rect width="1.09" height="17.81" x="22.24" y="60.61" class="cls-30"/><path d="m24.42,69.51v12.7c-.26,1.31-.62,2.51-1.09,3.21v-15.91h1.09Z" class="cls-30"/><path d="m25.51,60.6v10.26c-.15,2.32-.3,4.53-.46,6.59-.02.28-.05.61-.09.96h-.55v-17.81h1.09Z" class="cls-30"/><path d="m25.6,69.51c-.03.46-.06.91-.09,1.35v-1.35h.09Z" class="cls-30"/><path d="m12.44,78.41v6.89c-.42-.69-.78-1.83-1.09-3.32v-3.58h1.09Z" class="cls-30"/><rect width="1.09" height="7.64" x="13.53" y="78.41" class="cls-30"/><rect width="1.09" height="7.64" x="15.71" y="78.41" class="cls-30"/><rect width="1.09" height="7.64" x="17.89" y="78.41" class="cls-30"/><rect width="1.09" height="7.64" x="20.06" y="78.41" class="cls-30"/><path d="m23.33,78.41v7.01c-.27.4-.57.64-.92.64h-.17v-7.64h1.09Z" class="cls-30"/><path d="m24.97,78.41c-.11,1.11-.29,2.51-.55,3.8v-3.8h.55Z" class="cls-30"/></g><path d="m25.06,77.45c-.73,8.42-1.92,9.06-4.79,8.6,3.76-.49,3.76-29.31,3.97-45.91.13-16.03-3.07-29.33-7.43-34.4.46-.57.83-.94,1.07-1.16,11,9.33,8.86,50.04,7.18,72.86h0Z" class="cls-28"/><path d="m26.36,51.7c-.12,6.19-.42,12.28-.76,17.81-.03.46-.06.91-.09,1.35-.15,2.32-.3,4.53-.46,6.59-.02.28-.05.61-.09.96-.11,1.11-.29,2.51-.55,3.8-.26,1.31-.62,2.51-1.09,3.21-.27.4-.57.64-.92.64h-9.08c-.33-.04-.62-.3-.9-.75-.42-.69-.78-1.83-1.09-3.32-.48-2.3-.83-5.44-1.09-9.05-.27-3.74-.45-7.99-.57-12.34-.17-6.11-.23-12.42-.29-17.81,0-.91-.02-1.8-.03-2.65-.07-5.24.26-10.25.89-14.79.3-2.16.67-4.22,1.09-6.14.33-1.51.69-2.93,1.09-4.26.34-1.16.71-2.24,1.09-3.24.35-.92.71-1.77,1.09-2.55.35-.73.72-1.4,1.09-1.98.36-.57.72-1.08,1.09-1.52.35-.42.71-.78,1.08-1.07,0,0,0,0,.01,0,.38.32.74.68,1.09,1.08.38.43.75.9,1.09,1.43.02.02.04.05.05.08.36.55.71,1.14,1.04,1.77.39.76.75,1.58,1.09,2.44.4,1.02.76,2.11,1.09,3.26.13.47.26.94.38,1.43.26,1.01.49,2.07.7,3.16.36,1.82.66,3.74.91,5.75.06.51.12,1.03.18,1.56.26,2.36.46,4.82.6,7.35.32,5.74.37,11.82.25,17.81v-.02Z" class="cls-43"/><path d="m18.24,43.9l-5.18,21.62-3.86-18.49c3.76-1.81,6.96-2.85,9.04-3.13Z" class="cls-28"/><g><g class="cls-52"><path d="m19.18,6.27c.25.21.63.18.84-.07.21-.25.18-.63-.07-.84-.19-.16-.46-.18-.67-.07l-.44-.37.4-.48c.12.06.27.03.36-.08.11-.13.09-.32-.04-.43s-.32-.09-.43.04c-.09.11-.09.26-.02.36l-.4.48-1.64-1.38c.08-.08.18-.16.29-.24.25-.18.58-.38,1.04-.66v.17c.01.07.09.11.15.08l.57-.32c.06-.03.05-.12,0-.15l-.61-.36c-.06-.03-.13,0-.13.07v.16c-.71-.01-1.35.25-1.82.67l-.44-.08c-.09-.01-.16.07-.13.15l.15.42c-.33.52-.47,1.18-.35,1.87h-.19c-.07.02-.1.1-.05.15l.44.56c.04.06.13.05.15-.01l.24-.61c.02-.06-.03-.13-.1-.12h-.15c.28-.69.44-1.11.65-1.43l1.64,1.38-.39.47.06.06.06.06.39-.47.44.37c-.07.23-.01.48.18.65h0Zm.63-.75c.16.14.18.38.04.54-.14.16-.38.18-.54.04s-.18-.38-.04-.54c.14-.16.38-.18.54-.04Z" class="cls-38"/><path d="m17.67,5.71c-.11.13-.09.32.04.43s.32.09.43-.04.09-.32-.04-.43-.32-.09-.43.04Z" class="cls-38"/></g><g><path d="m19.15,6.04c.25.21.63.18.84-.07.21-.25.18-.63-.07-.84-.19-.16-.46-.18-.67-.07l-.44-.37.4-.48c.12.06.27.03.36-.08.11-.13.09-.32-.04-.43s-.32-.09-.43.04c-.09.11-.09.26-.02.36l-.4.48-1.64-1.38c.08-.08.18-.16.29-.24.25-.18.58-.38,1.04-.66v.17c.01.07.09.11.15.08l.57-.32c.06-.03.05-.12,0-.15l-.61-.36c-.06-.03-.13,0-.13.07v.16c-.71-.01-1.35.25-1.81.67l-.44-.08c-.09-.01-.16.07-.13.15l.15.42c-.33.52-.47,1.18-.35,1.87h-.19c-.07.02-.1.1-.05.15l.44.56c.04.06.13.05.15-.01l.24-.61c.02-.06-.03-.13-.1-.12h-.15c.28-.69.44-1.11.65-1.43l1.64,1.38-.39.47.06.06.06.06.39-.47.44.37c-.07.23-.01.48.18.65h0Zm.63-.75c.16.14.18.38.04.54-.14.16-.38.18-.54.04-.16-.14-.18-.38-.04-.54.14-.16.38-.18.54-.04Z" class="cls-44"/><path d="m17.65,5.47c-.11.13-.09.32.04.43s.32.09.43-.04.09-.32-.04-.43-.32-.09-.43.04Z" class="cls-44"/></g></g><g><rect width="9.53" height="6.16" x="12.51" y="14.33" class="cls-28" rx="1.42" ry="1.42"/><g><rect width="9.53" height="6.16" x="13.18" y="13.65" class="cls-37" rx="1.42" ry="1.42"/><g><path d="m17.11,15.05h1.65c.28,0,.51.23.51.51v.66c0,.28-.23.51-.51.51h-1.65c-.28,0-.51-.23-.51-.51v-.66c0-.28.23-.51.51-.51Z" class="cls-32"/><path d="m19.27,16.38v-.56c-.4.05-.86.08-1.34.08s-.93-.03-1.34-.08v.56c0,.2.33.35.73.35h1.21c.41,0,.73-.16.73-.35Z" class="cls-36"/></g></g></g><g><g><circle cx="24.51" cy="43.28" r="1.47" class="cls-40"/><polygon points="25.03 42.35 24.51 42.86 24 42.35 23.54 42.8 24.05 43.32 23.54 43.83 24 44.28 24.51 43.77 25.03 44.28 25.48 43.83 24.97 43.32 25.48 42.8 25.03 42.35" class="cls-33"/><g class="cls-53"><rect width=".73" height=".24" x="23.52" y="43.53" class="cls-49" transform="translate(-23.89 29.75) rotate(-45.09)"/><rect width=".24" height=".73" x="25.02" y="43.29" class="cls-51" transform="translate(-23.51 30.56) rotate(-45)"/><polygon points="24 42.35 23.54 42.8 23.71 42.97 24 42.68 24.51 43.19 25.03 42.68 25.32 42.97 25.48 42.8 25.03 42.35 24.51 42.86 24 42.35" class="cls-39"/></g></g><g><circle cx="12.01" cy="43.74" r="1.47" class="cls-40"/><polygon points="12.52 42.8 12.01 43.31 11.5 42.8 11.04 43.26 11.56 43.77 11.04 44.29 11.5 44.74 12.01 44.23 12.52 44.74 12.98 44.29 12.47 43.77 12.98 43.26 12.52 42.8" class="cls-33"/><g class="cls-53"><rect width=".73" height=".24" x="11.02" y="43.99" class="cls-50" transform="translate(-27.89 21.02) rotate(-45.08)"/><rect width=".24" height=".73" x="12.52" y="43.75" class="cls-51" transform="translate(-27.49 21.86) rotate(-45)"/><polygon points="11.5 42.8 11.04 43.26 11.21 43.43 11.5 43.14 12.01 43.65 12.52 43.14 12.82 43.43 12.98 43.26 12.52 42.8 12.01 43.31 11.5 42.8" class="cls-39"/></g></g></g><g><g><path d="m24.5,22.6v.89s-4.21.06-4.21.06v-.89s0-.04,0-.06c.02-.33.24-.6.53-.69,0,0,.02,0,.03,0,.02,0,.04,0,.06,0h.07l2.77-.04h.07c.37.03.65.35.66.75h0Z" class="cls-42"/><path d="m24.5,22.6v.89s-.52,0-.52,0v-.2c0-.42-.34-.76-.73-.75l-2.77.04c-.06,0-.12,0-.18.02h0c.02-.33.24-.6.53-.69,0,0,.02,0,.03,0,.02,0,.04,0,.06,0h.07l2.77-.04h.07c.37.03.65.36.66.75h0Z" class="cls-12"/></g><g><path d="m15.41,22.6v.89s-4.21.06-4.21.06v-.89s0-.04,0-.06c.02-.33.24-.6.53-.69,0,0,.02,0,.03,0,.02,0,.04,0,.06,0h.07l2.77-.04h.07c.37.03.65.35.66.75h0Z" class="cls-42"/><path d="m15.4,22.6v.89s-.52,0-.52,0v-.2c0-.42-.34-.76-.73-.75l-2.77.04c-.06,0-.12,0-.18.02h0c.02-.33.24-.6.53-.69,0,0,.02,0,.03,0,.02,0,.04,0,.06,0h.07l2.77-.04h.07c.37.03.65.36.66.75h0Z" class="cls-12"/></g></g><g><path d="m20.56,66.84h-4.6c-.93,0-1.65-.79-1.57-1.71l2.3-28.9c.07-.82.75-1.46,1.57-1.46h0c.82,0,1.52.64,1.57,1.46l2.3,28.9c.08.92-.66,1.71-1.57,1.71Z" class="cls-41"/><path d="m18.39,35.02c-.34.26-.58.7-.61,1.21l-1.95,28.9c-.06.92.56,1.71,1.34,1.71h-1.45c-.78,0-1.4-.79-1.34-1.71l1.95-28.9c.06-.82.64-1.46,1.34-1.46.27,0,.51.1.73.25h0Z" class="cls-28"/><g><g id="Layer_1-2-3" data-name="Layer 1-2"><g><path d="m16.8,37.74c0-.11.13-1.49.08-2.61.36.08.68.11.98.09.91-.06,1.51-.55,1.84-.91.1,1.94,0,3.52,0,3.54,0,.01,0,.02,0,.03-1.03-.08-2.02-.13-2.9-.14Z" class="cls-25"/><path d="m14.48,29.79c1.21.1,2.37.25,2.97.48,1.4.54,2.06,1.57,2.22,3.49-.16.26-1.02,1.47-2.81.98,0-.1-.02-.21-.03-.3-.22-1.52-1.59-1.6-2.04-1.62-.09,0-.2-.01-.34-.02.77-1.2.32-2.45.03-3.02Z" class="cls-3"/><path d="m11.05,32.64c.44-.85.41-1.95-.1-2.84-.04-.07-.08-.13-.12-.19.61.01,1.9.05,3.2.14.21.33.97,1.73-.03,3.03-.95-.05-2.35-.11-2.96-.14h0Z" class="cls-18"/><path d="m7.49,32.69c.21.24.51.4.92.34,1.14-.19.99-3.13.99-3.13,0,0,0,0,0,0s0,0,0,.01c.23.75.32,2.29-.22,3.14-.21.34-.48.52-.84.55-.04,0-.08,0-.13-.01-.17-.05-.52-.22-.73-.91h0Z" class="cls-8"/><path d="m7.76,29.42s.01-.02.02-.03c.15-.22.32-.35.51-.4l1.26,2.92h0c-.04.35-.12.69-.26.98l-1.53-3.46h0Z" class="cls-1"/><path d="m7.31,31.15c.01-.43.08-.84.2-1.19l1.46,3.38c-.16.15-.35.24-.58.26l-1.09-2.45h0Z" class="cls-1"/><path d="m16.8,37.74c0-.05.03-.35.05-.77.03-.52.05-1.22.03-1.85.33.08.63.11.9.09.01.94-.05,2.08-.08,2.54-.31-.01-.61-.02-.9-.02h0Z" class="cls-4"/><path d="m14.41,32.99c.14-.24.23-.47.29-.7.62.04,1.15.09,1.4.15.9.23,1.51.91,1.67,2.06.02.12.03.26.05.41-.27.02-.58,0-.92-.08-.01-.1-.03-.2-.05-.3-.28-1.51-1.65-1.53-2.1-1.54-.09,0-.21,0-.34,0h0Z" class="cls-4"/><path d="m11.33,32.02c.6.03,1.94.11,3.08.21-.08.23-.2.47-.38.71-.95-.05-2.35-.11-2.96-.14.12-.24.21-.5.26-.77Z" class="cls-4"/><path d="m9.27,33.55c.07-.07.14-.16.21-.25,0-.02.02-.03.03-.05.13-.22.24-.47.31-.75,0-.02.01-.05.02-.07.61-.09.96-.37,1.1-.5-.06.27-.17.52-.32.75,0,0-.01.02-.02.02-.31.45-.76.74-1.33.86h0Z" class="cls-14"/><path d="m20.37,37.69c0-.15.02-.37.03-.66.02-.71.03-1.77-.05-2.96,0-.08-.01-.15-.02-.22-.18-2.16-.99-3.4-2.63-4.03-.61-.24-1.79-.42-3.49-.54-1.49-.11-2.99-.14-3.51-.15-.51-.51-1.17-.76-1.87-.71-.24.02-.42.06-.51.09-.07,0-.15.03-.23.05-.18.06-.38.17-.57.36-.07.07-.14.16-.21.25-.07.11-.14.22-.2.34-.11.22-.19.45-.24.68-.15.6-.15,1.16-.14,1.38.02.65.12,1.15.26,1.53h0c.44,1.17,1.27,1.2,1.39,1.2,0,0,.02,0,.03,0,.04,0,.07,0,.11,0,.07,0,.14,0,.21,0,.09,0,.17,0,.25,0,.1,0,.2-.02.3-.03.66-.11,1.23-.4,1.64-.85.03-.03.05-.05.07-.08.58.03,2.14.1,3.13.15.28.01.52.03.68.04.93.05,1.35.36,1.46,1.08.02.11.03.23.04.38.05.64.02,1.45-.01,2.02-.01.21-.02.38-.03.51m3.54-.48c-.01.52-.04.83-.04.84,0,.01,0,.02,0,.03-.69-.05-1.36-.09-2-.11h0c-.31-.01-.61-.02-.9-.02,0-.05.03-.35.05-.76.03-.51.05-1.21.03-1.82.33.08.63.1.9.09.03,0,.05,0,.08,0,.91-.06,1.51-.54,1.84-.9.06,1.06.05,2.01.03,2.65h0Zm-11.34-7.92c.36-.02.74.27.95.74.02.05.05.11.07.18,0,0,0,0,0,.01.15.47.23,1.24.14,1.96h0c-.04.35-.12.69-.26.97-.03.06-.06.12-.1.18-.07.11-.14.2-.23.28-.16.15-.35.23-.58.26-.01,0-.03,0-.04,0-.04,0-.08,0-.13-.01-.17-.04-.52-.22-.73-.89-.1-.3-.17-.7-.18-1.23,0-.1,0-.19,0-.29.01-.43.08-.83.2-1.18.07-.2.16-.38.26-.53,0-.01.01-.02.02-.03.15-.21.32-.35.51-.39.03,0,.06-.01.09-.02h0s0,0,0,0Zm2.24,1c.34.59.44,1.29.29,1.92-.06.26-.17.51-.32.74,0,0-.01.02-.02.02-.31.44-.76.73-1.33.85.07-.07.14-.16.21-.25,0-.02.02-.03.03-.05.13-.22.24-.47.31-.74,0-.02.01-.05.02-.07.09-.39.13-.81.12-1.22,0-.63-.12-1.23-.28-1.6-.12-.28-.3-.51-.5-.67.45.05,1.01.3,1.46,1.08h0Zm3.4-.22c.17.27.71,1.24.35,2.29-.08.23-.2.47-.38.7-.95-.05-2.35-.11-2.96-.14.12-.24.21-.5.26-.76.12-.68,0-1.41-.36-2.04-.04-.07-.08-.13-.12-.19.61.01,1.9.05,3.2.14h0Zm3.4.51c1.4.54,2.06,1.55,2.22,3.45-.13.21-.72,1.03-1.89,1.08-.27.01-.58-.02-.92-.11,0-.1-.02-.2-.03-.3-.22-1.5-1.59-1.57-2.04-1.6-.09,0-.2-.01-.34-.02.15-.23.25-.46.32-.68.29-.95-.05-1.84-.29-2.29,1.21.1,2.37.25,2.97.47h0Z" class="cls-9"/><path d="m8.23,33.59c-.24-.07-.86-.4-.92-2.15-.03-.82.15-1.59.47-2.06.17-.25.38-.39.6-.41h0c.36-.03.74.28.95.75.28.65.44,2.4-.14,3.34-.21.34-.48.52-.84.55-.04,0-.08,0-.13-.01h0Z" class="cls-6"/><path d="m9.29,33.79c.09-.09.16-.2.23-.31.62-1.06.5-3.03.15-3.87-.12-.3-.3-.54-.5-.72.45.06,1.01.32,1.47,1.15.49.9.48,2.04-.01,2.83-.3.49-.77.8-1.34.93h0Z" class="cls-17"/></g></g><g><path d="m19.7,51.74h-2.6l.22-2.81c.05-.56.52-1,1.08-1,.28,0,.54.11.73.29.19.18.32.43.34.71l.22,2.81h0Z" class="cls-48"/><g><path d="m17.81,49.16c.34-.32.87-.3,1.19.03.32.34.3.87-.03,1.19-.34.32-.87.3-1.19-.03-.32-.34-.3-.87.03-1.19Z" class="cls-46"/><path d="m17.94,49.29c.26-.25.68-.24.94.03.25.26.24.68-.03.94-.26.25-.68.24-.94-.03-.25-.26-.24-.68.03-.94Z" class="cls-46"/></g></g></g></g><g><path d="m16.76,59.43c1.65,0,2.99,1.34,2.99,2.99s-1.34,2.99-2.99,2.99-2.99-1.34-2.99-2.99,1.34-2.99,2.99-2.99Z" class="cls-28"/><circle cx="17.83" cy="61.35" r="2.99" class="cls-36"/><path d="m20.28,63.07c-.54.77-1.43,1.27-2.45,1.27-1.65,0-2.99-1.34-2.99-2.99,0-1.02.5-1.91,1.27-2.45-.34.49-.55,1.08-.55,1.72,0,1.65,1.34,2.99,2.99,2.99.64,0,1.24-.2,1.72-.55Z" class="cls-28"/><g><path d="m31.72,76.72c.31-.3.81-.28,1.11.03.3.31.28.81-.03,1.11s-.81.28-1.11-.03c-.3-.31-.28-.81.03-1.11Z" class="cls-46"/><path d="m31.84,76.84c.25-.23.63-.22.87.02.23.25.22.63-.02.87-.25.23-.63.22-.87-.02-.23-.25-.22-.63.02-.87Z" class="cls-46"/></g><g><path d="m35.07,61.35h0c0,.5-.41.92-.92.92H1.5c-.5,0-.92-.41-.92-.92h0c0-.5.41-.92.92-.92h32.66c.5,0,.92.41.92.92Z" class="cls-31"/><path d="m35.05,61.13c.02.07.03.15.03.23,0,.51-.41.92-.92.92H1.5c-.51,0-.92-.41-.92-.92,0-.08,0-.15.03-.23.1.4.46.7.89.7h32.66c.43,0,.79-.3.89-.7Z" class="cls-28"/></g><g><path d="m28.12,78.19l-3.18,2.42c-.38.28-.83.44-1.3.44H7.09c-1.18,0-2.14-.96-2.14-2.14v-9.42c0-.57.23-1.11.63-1.51l1.08-1.08.17-.17.21.11.11.06.73.39h0l.56.3.1.06,1.66.89,14.68,7.91,1.67.91.28.15.43.23h0l.85.46h-.01Z" class="cls-29"/><path d="m26.29,65.85l-17.42.02c-1.23,0-2.24,1.02-2.24,2.25l.02,8.78c0,1.23,1.02,2.24,2.25,2.24l17.42-.02c1.23,0,2.24-1.02,2.24-2.25l-.02-8.78c0-1.23-1.02-2.24-2.25-2.24Z" class="cls-37"/><path d="m8.9,78.18c-.71,0-1.29-.58-1.29-1.29l-.02-8.78c0-.71.58-1.29,1.29-1.29l17.42-.02c.71,0,1.29.58,1.29,1.29l.02,8.78c0,.71-.58,1.29-1.29,1.29l-17.42.02h0Z" class="cls-42"/><path d="m10.18,68.31c-.13-.58-.7-.94-1.28-.81-.58.13-.94.7-.81,1.28s.7.94,1.28.81c.58-.13.94-.7.81-1.28Z" class="cls-47"/><path d="m27.01,68.31c-.13-.58-.7-.94-1.28-.81s-.94.7-.81,1.28.7.94,1.28.81.94-.7.81-1.28Z" class="cls-47"/><path d="m10.18,76.23c-.13-.58-.7-.94-1.28-.81s-.94.7-.81,1.28.7.94,1.28.81c.58-.13.94-.7.81-1.28Z" class="cls-47"/><path d="m27.01,76.23c-.13-.58-.7-.94-1.28-.81s-.94.7-.81,1.28.7.94,1.28.81.94-.7.81-1.28Z" class="cls-47"/><path d="m27.58,68.09c0-.71-.58-1.29-1.29-1.29l-17.42.02c-.55,0-1.03.36-1.21.85.14-.05.28-.08.44-.08l17.42-.02c.71,0,1.29.58,1.29,1.29l.02,8.78c0,.15-.03.31-.08.44.49-.18.85-.66.85-1.21l-.02-8.78h0Z" class="cls-29"/></g><g><rect width="9.93" height="6.42" x="12.32" y="69.79" class="cls-28" rx="1.48" ry="1.48"/><g><rect width="9.93" height="6.42" x="13.02" y="69.08" class="cls-37" rx="1.48" ry="1.48"/><g><path d="m17.12,70.53h1.72c.3,0,.53.24.53.53v.69c0,.3-.24.53-.53.53h-1.72c-.3,0-.53-.24-.53-.53v-.69c0-.3.24-.53.53-.53Z" class="cls-32"/><path d="m19.37,71.91v-.58c-.42.05-.89.08-1.39.08s-.97-.03-1.39-.08v.58c0,.2.34.37.76.37h1.26c.42,0,.76-.17.76-.37Z" class="cls-36"/></g></g></g><g><path d="m33.37,70.77c.31-.3.81-.28,1.11.03.3.31.28.81-.03,1.11-.31.3-.81.28-1.11-.03-.3-.31-.28-.81.03-1.11Z" class="cls-46"/><path d="m33.49,70.9c.25-.23.63-.22.87.02.23.25.22.63-.02.87s-.63.22-.87-.02c-.23-.25-.22-.63.02-.87Z" class="cls-46"/></g><g><path d="m1.1,70.77c.31-.3.81-.28,1.11.03.3.31.28.81-.03,1.11-.31.3-.81.28-1.11-.03-.3-.31-.28-.81.03-1.11Z" class="cls-46"/><path d="m1.22,70.9c.25-.23.63-.22.87.02.23.25.22.63-.02.87s-.63.22-.87-.02c-.23-.25-.22-.63.02-.87Z" class="cls-46"/></g><g><path d="m34.54,64.92c.31-.3.81-.28,1.11.03.3.31.28.81-.03,1.11-.31.3-.81.28-1.11-.03-.3-.31-.28-.81.03-1.11Z" class="cls-46"/><path d="m34.65,65.04c.25-.23.63-.22.87.02.23.25.22.63-.02.87-.25.23-.63.22-.87-.02s-.22-.63.02-.87Z" class="cls-46"/></g><g><path d="m.32,64.92c.31-.3.81-.28,1.11.03.3.31.28.81-.03,1.11s-.81.28-1.11-.03-.28-.81.03-1.11Z" class="cls-46"/><path d="m.44,65.04c.25-.23.63-.22.87.02.23.25.22.63-.02.87-.25.23-.63.22-.87-.02-.23-.25-.22-.63.02-.87Z" class="cls-46"/></g><g><path d="m2.88,76.72c.31-.3.81-.28,1.11.03.3.31.28.81-.03,1.11-.31.3-.81.28-1.11-.03-.3-.31-.28-.81.03-1.11Z" class="cls-46"/><path d="m2.99,76.84c.25-.23.63-.22.87.02.23.25.22.63-.02.87-.25.23-.63.22-.87-.02-.23-.25-.22-.63.02-.87Z" class="cls-46"/></g><path d="m35.16,65.19l-17.28-4.06h-.06s-.03,0-.05,0c-.01,0-.02,0-.04.01-.02,0-.03.02-.04.02,0,0-.01,0-.02.01h0s-.02.04-.04.05c0,0-.01.02-.02.02h0s-.01.04-.01.06h0s0,.07.01.1c0,0,0,.01.01.02,0,.02.02.04.03.06h0s14.25,15.92,14.25,15.92c.04.05.11.07.17.07.06,0,.11-.02.15-.06.09-.09.1-.23.02-.33l-3.77-4.21,2.39-2.99,2.72,1.72s.08.04.12.04c.07,0,.15-.04.2-.1.07-.1.04-.25-.07-.32l-2.72-1.72,1.59-4.44,2.33.55c.12.03.25-.05.28-.17.03-.12-.05-.25-.17-.28h0Zm-7.59,2.09l-3.07-1.95s.04-.05.06-.08l.65-1.91,3.55.83-1.13,3.07-.05.04h0Zm-4.59-.51l1.18-1.11,3.04,1.93-1.98,1.69s-2.25-2.51-2.25-2.51Zm1.78-3.54l-.62,1.82-.04.03-5.01-3.18,5.66,1.33h0Zm-1,2.18l-1.09,1.02-3.56-3.98s4.65,2.96,4.65,2.96Zm4.41,7.16l-2.64-2.96,2.07-1.77,2.88,1.83s-2.31,2.89-2.31,2.89Zm2.55-3.29l-2.75-1.75s.03-.04.04-.07l1.17-3.2,3.08.73-1.55,4.29h0Z" class="cls-45"/><path d="m.54,65.47c.03.12.15.2.28.17l2.33-.55,1.59,4.44-2.72,1.72c-.11.07-.14.21-.07.32.04.07.12.1.2.1.04,0,.09-.01.12-.04l2.72-1.72,2.39,2.99-3.77,4.21c-.09.09-.07.24.02.33.04.04.1.06.15.06.06,0,.13-.02.17-.07l14.25-15.92h0s.02-.04.03-.06c0,0,0-.01.01-.02,0-.02.01-.06.01-.09h0s0-.06-.01-.07h0s-.01-.02-.02-.02c-.01-.02-.02-.03-.04-.04h0s-.01-.01-.02-.02c-.01-.01-.03-.02-.04-.02-.01,0-.02,0-.04-.01-.02,0-.03,0-.05,0h-.06L.71,65.2c-.12.03-.2.15-.17.28h0Zm7.71,1.77l-1.13-3.07,3.55-.83.65,1.91s.03.06.06.08l-3.07,1.95-.05-.04h0Zm2.4,2.04l-1.98-1.69,3.04-1.93,1.18,1.11s-2.25,2.51-2.25,2.51Zm6.13-7.38l-5.01,3.18-.04-.03-.62-1.82,5.66-1.33h0Zm-.01.55l-3.56,3.98-1.09-1.02s4.65-2.96,4.65-2.96Zm-11.37,7.22l2.88-1.83,2.07,1.77-2.64,2.96s-2.31-2.89-2.31-2.89Zm-1.79-4.69l3.08-.73,1.17,3.2s.02.05.04.07l-2.75,1.75-1.55-4.29h0Z" class="cls-45"/><path d="m17.83,59.55c1,0,1.8.81,1.8,1.8s-.81,1.8-1.8,1.8-1.8-.81-1.8-1.8.81-1.8,1.8-1.8Z" class="cls-35"/></g></g></g></g></svg>