<?xml version="1.0" encoding="UTF-8"?><svg xmlns="http://www.w3.org/2000/svg" id="Layer_2" data-name="Layer 2" viewBox="0 0 399 146"><defs><style>.cls-1 {
        fill: #f2ebe4;
        fill-rule: evenodd;
        stroke-width: 0px;
      }</style></defs><g id="Layer_1-2" data-name="Layer 1"><path d="m375,136v-7h15v-.51c-.44,0-.89-.1-1.27-.31-1.25-.66-1.51-2.28-.91-3.46.6-1.16,1.34-2.21,2.18-3.19v-9.49c-1.24,0-2.42-.23-3.52-.71-.37.77-.72,1.55-1.05,2.34-1.22,2.97-6.11,1.66-4.87-1.34.62-1.52,1.31-2.99,2.05-4.43-.46-1.09.13-2.51,1.11-3.08.26-.15.53-.24.8-.29,1.57-2.52,3.38-4.9,5.47-7.08v-11.99c-.9-.06-1.8-.55-2.24-1.36-1.04-.65-1.65-1.98-1.05-3.18-.2-.45-.28-.99-.15-1.59.74-3.43,1.99-6.66,3.44-9.82v-2.72c-.9.48-1.81.94-2.73,1.39-2.9,1.45-5.46-2.91-2.55-4.36,1.77-.89,3.56-1.78,5.27-2.78v-10.75c-1.17.45-2.51.14-3.18-1.02-.66-1.12-.31-2.85.91-3.46.75-.38,1.51-.74,2.27-1.07v-16.75h-38v-8h30V0h-64.42c-18.69,3.19-37.71,1.62-56.58,2.53-1.68.08-2.48-1.22-2.42-2.53h-30.1c.14,1.08-.37,2.16-1.8,2.44-.63.12-1.26.23-1.88.34-.92.19-1.89.43-2.89.68-.4.57-1.03,1-1.9,1.07-2.2.18-4.2.6-6.23.86-6.17,1.14-11.86.85-13.69-5.39h-16.79c-.12.29-.29.56-.5.79-.04.05-.07.08-.1.11-.03.05-.06.1-.09.15-.02.07-.04.14-.05.21,0,.03,0,.06,0,.08-.01.22-.01.44-.01.67,0,1.42-1.16,2.46-2.53,2.53-1.36.06-2.53-1.2-2.53-2.53,0-.7.07-1.37.22-2h-68.11c.62,1.12.09,2.9-1.58,2.9s-2.2-1.78-1.58-2.9h-18.58c0,.95-.61,1.9-1.83,1.9s-1.83-.95-1.83-1.9h-17.58c-.28.52-.81.9-1.58.9s-1.3-.38-1.58-.9h-20.83c-.28.52-.81.9-1.58.9s-1.3-.38-1.58-.9H12L0,3v11h9v9H0v123h292.47c0-.98.14-1.94.86-2.66.73-.73,1.69-.86,2.66-.86,1.42,0,2.46,1.16,2.53,2.53.02.35-.06.69-.2,1h8.31c-.52-1.62.8-3.9,3.04-3.44,7.43,1.53,14.53,3.38,21.81,2.41-.95-1.16-1.82-2.43-2.66-3.7-1.81-2.71,2.57-5.24,4.36-2.55,1.08,1.61,2.27,3.65,3.9,4.92.08-.03.17-.05.25-.08,1.87-.68,3.08.87,3.06,2.44h9c-.06-.07-.12-.14-.17-.21-1.97-2.54,1.59-6.14,3.57-3.57,1.01,1.3,2.14,2.6,3.4,3.79h42.82v-10h-24Z" class="cls-1"/></g></svg>