<?xml version="1.0" encoding="UTF-8"?>
<svg xmlns="http://www.w3.org/2000/svg" viewBox="0 0 660.56 606.44">
  <defs>
    <style>
      .cls-1 {
        opacity: .46;
      }

      .cls-1, .cls-2, .cls-3, .cls-4, .cls-5, .cls-6, .cls-7, .cls-8, .cls-9, .cls-10, .cls-11, .cls-12, .cls-13, .cls-14, .cls-15 {
        stroke-width: 0px;
      }

      .cls-1, .cls-10 {
        fill: #343436;
        mix-blend-mode: overlay;
      }

      .cls-2 {
        fill: #fbfbfd;
      }

      .cls-3 {
        fill: #a9c4d5;
      }

      .cls-16 {
        isolation: isolate;
      }

      .cls-4 {
        opacity: .24;
      }

      .cls-4, .cls-6 {
        fill: #414143;
      }

      .cls-5 {
        fill: #cdd1d2;
      }

      .cls-6 {
        opacity: .13;
      }

      .cls-7 {
        fill: #868689;
      }

      .cls-8 {
        fill: #362e2e;
      }

      .cls-9 {
        fill: #fff;
        opacity: .36;
      }

      .cls-11 {
        fill: #97dcf8;
      }

      .cls-12 {
        fill: #ee1e27;
      }

      .cls-13 {
        fill: #424244;
      }

      .cls-14 {
        fill: #e0f2fe;
      }

      .cls-15 {
        fill: #83d5f7;
      }
    </style>
  </defs>
  <g class="cls-16">
    <g id="Layer_2" data-name="Layer 2">
      <g id="Layer_1-2" data-name="Layer 1">
        <g>
          <path class="cls-14" d="m275.64,204.8s0,.04-.04.07c-.07.52-.26,1.08-.34,1.64l-1.9,10.29-56.16-14.36.75-4.06h.11l57.58,6.41Z"/>
          <path class="cls-3" d="m335.8,212.37l-31.29,3.92-3.77,20.62-2.24,12.27-29.98-5.89,4.85-26.48,1.9-10.29c.07-.6.26-1.16.37-1.72,2.76-11.45,11.75-19.95,22.64-22.49,3.99-1.01,8.2-1.16,12.49-.37,8.32,1.53,15.22,6.23,19.65,12.68,3.51,5.07,5.48,11.26,5.37,17.75Z"/>
          <path class="cls-3" d="m218.42,195.79l-25.96-7.42-2.64,14.44,26.91,2.24,1.69-9.26Zm-14.72,5.9c-2.05-.37-3.4-2.32-3.02-4.37.37-2.02,2.32-3.37,4.37-3,2.02.37,3.37,2.32,3,4.34-.37,2.05-2.32,3.4-4.35,3.03Z"/>
          <path class="cls-14" d="m335.8,212.37c.04,1.68-.15,3.39-.48,5.11l-5.82,31.96-1.04,5.63-29.95-5.89,2.24-12.27,3.77-20.62,31.29-3.92Z"/>
          <path class="cls-14" d="m424.41,394.63l-58.07-12.75s-.22-.04-.71-.15l-.75-.19-179.27-39.38c1.27-3.43,2.69-7.24,4.21-11.34l47.33,8.99c14.02,2.69,27.41-7.09,29.13-21.26l5.71-47.25c.56-4.36-2.35-8.43-6.64-9.36l-45.2-9.96c3.95-10.22,6.56-16.89,6.56-16.89l41.81,8.2,16.11,3.17,13.87,2.72,29.95,5.89,58.59,11.49,37.37,128.07Z"/>
          <path class="cls-8" d="m556.2,442.77c-10.4,28.08-32.97,74.89-32.97,74.89l-.04.04c-16.19,2.83-33.45,6.34-51.09,10.48-85.55,20.18-86.56,9.85-86.56,9.85,60.49-16.48,39.61-18.46-6.15-15.1-45.72,3.39-96.63-5.07-96.63-5.07,0,0,45.72-5.41,42.29-17.71-3.43-12.27-90.96,6.68-90.96,6.68,0,0,36.88-22.9,32.93-28.53-3.43-5-44.86,10.07-54.71,13.72-1.34.48-2.09.78-2.09.78,1.23-1.16,2.46-2.31,3.73-3.47,23.53-21.26,52.29-35.88,41.51-40.31-5.26-2.16-21.56,7.5-37.48,18.5-18.39,12.64-36.29,27-36.29,27,0,0-6.15-26.55-12.53-24.09-6.38,2.46-1.49,29.98-1.49,29.98,0,0-24.84-39.08-28.75-31.48-3.8,7.38,10.7,28.01,11.71,29.43-1.49-1.31-25.81-22.64-36.06-32.63-10.55-10.33-15.96-14.25-16.22-7.35-.26,6.86,21.41,39.83,21.41,39.83,0,0-9.21-7.01-20.77-15.74-34.83-43.3-64.26-101.78-81.75-140.45,13.84,2.42,32.37,5.59,54.26,9.36,132.47,22.75,388.64,66.94,484.71,91.41Z"/>
          <path class="cls-11" d="m506.04,549.33c40.82-15.74,158.36-15.74,154.42-21.15-3.93-5.41-72.29-8.85-72.29-8.85,0,0,29.02-1.97,37.38-8.85,6.64-5.46-40.03-3.79-102.34,7.2-16.2,2.86-33.44,6.34-51.1,10.5-85.57,20.16-86.56,9.84-86.56,9.84,60.49-16.48,39.59-18.44-6.15-15.08-45.74,3.36-96.64-5.08-96.64-5.08,0,0,45.74-5.41,42.29-17.7-3.44-12.29-90.98,6.64-90.98,6.64,0,0,36.88-22.87,32.95-28.52-3.93-5.66-56.8,14.51-56.8,14.51,24.1-23.11,56.56-39.1,45.24-43.77-11.31-4.67-73.77,45.49-73.77,45.49,0,0-6.15-26.56-12.54-24.1-6.39,2.46-1.48,30-1.48,30,0,0-24.84-39.1-28.77-31.47-3.93,7.62,11.8,29.51,11.8,29.51,0,0-25.57-22.38-36.15-32.7-10.57-10.33-15.98-14.26-16.23-7.38-.25,6.88,21.39,39.83,21.39,39.83,0,0-9.2-7.02-20.76-15.75-17.24-13.02-39.74-29.85-44.9-32.94-8.61-5.16-21.88-14.75-20.9-7.38.98,7.38,48.69,51.15,48.69,51.15-51.39-27.05-58.77-55.33-66.88-46.97-8.11,8.36,51.39,63.69,51.39,63.69,0,0-61.97-19.67-22.62,8.85,39.34,28.52,177.04,60.98,177.04,60.98,0,0-78.19,8.85-10.33,24.1,67.87,15.25,322.12-43.28,324.09-49.67,1.97-6.39-28.52-4.92-28.52-4.92Z"/>
          <path class="cls-7" d="m561.35,424.72c-.15,3.43-2.13,9.96-5.15,18.05-96.07-24.46-352.24-68.66-484.71-91.41-21.89-3.77-40.43-6.94-54.26-9.36C6.27,317.76,0,301.35,0,301.35l1.53.34,184.08,40.46,238.79,52.47,136.94,30.1Z"/>
          <path class="cls-15" d="m271.99,271.3l-.6,4.81-4.4,36.47-.71,5.97c-1.72,14.17-15.1,23.94-29.13,21.26l-17.49-3.32-29.84-5.67c6.56-17.45,15.33-40.2,22.67-59.15,2.83-7.31,5.44-14.06,7.65-19.69l45.2,9.96c4.29.93,7.2,5,6.64,9.36Z"/>
          <path class="cls-8" d="m397.69,165.12c12.17-66.22,31.89-121.76,51.18-165.12-7.22,14.01-16.97,34.13-26.93,59.01-22.29,55.69-32.38,102.15-39.84,137.21-3.71,17.44-8.08,40.15-12.02,67.01l16.25,3.19c1.27-30.44,4.59-64.51,11.35-101.31Z"/>
          <path class="cls-13" d="m442.33,15.15l-4.44,9.2-13.92,34.58-12.08,31.81.29,11.39s90.17,31.15,130.98,16.4l-17.7-6.15s28.77-2.21,41.06-6.39c12.29-4.18,31.23,2.7,31.23,2.7,0,0-5.66-9.1-28.03-16.47,0,0,3.69-1.23,13.77,0,0,0-1.48-9.84-30.98-15.98,0,0,15-3.44,1.48-10.57,0,0,15.86,3.14,18.26.74,2.4-2.4-9.04-9.04-9.04-9.04,0,0,13.28-2.95,23.42,2.58,0,0-13.09-19.55-39.65-20.29,0,0,16.23-10.88,42.6-5.53,0,0-8.67-16.6-53.48-10.51s-67.11,14.25-93.77-8.46Z"/>
          <g>
            <path class="cls-2" d="m180.09,365.45c-8.44-9.22-20.56-14.98-34.04-14.98s-25.6,5.77-34.02,14.98c-7.52,8.2-12.12,19.14-12.12,31.16s4.6,22.96,12.12,31.16c8.42,9.23,20.54,15,34.02,15s25.6-5.77,34.04-15c7.54-8.2,12.12-19.14,12.12-31.16s-4.58-22.96-12.12-31.16Zm-34.04,60.14c-8.45,0-16.06-3.62-21.37-9.4-4.72-5.16-7.61-12.02-7.61-19.58s2.87-14.41,7.61-19.56c5.29-5.78,12.92-9.42,21.37-9.42s16.08,3.64,21.37,9.42c4.73,5.16,7.61,12.02,7.61,19.56s-2.89,14.42-7.61,19.58c-5.29,5.78-12.9,9.4-21.37,9.4Z"/>
            <path class="cls-12" d="m180.09,427.78c-8.44,9.23-20.56,15-34.04,15s-25.6-5.77-34.02-15l12.65-11.58c5.31,5.78,12.92,9.4,21.37,9.4s16.08-3.62,21.37-9.4l12.66,11.58Z"/>
            <path class="cls-12" d="m180.09,365.45l-12.66,11.6c-5.29-5.78-12.9-9.42-21.37-9.42s-16.08,3.64-21.37,9.42l-12.65-11.6c8.42-9.22,20.54-14.98,34.02-14.98s25.6,5.77,34.04,14.98Z"/>
          </g>
          <path class="cls-7" d="m358.02,311.8c0,2.65-.34,5.18-.97,7.61v.04c-3.39,13.13-15.33,22.86-29.54,22.86-.52,0-1.04,0-1.57-.04h-.07c-16.07-.86-28.83-14.21-28.83-30.47,0-.75.04-1.49.07-2.24,1.16-15.81,14.32-28.27,30.39-28.27,10.44,0,19.69,5.26,25.17,13.28,3.36,4.89,5.33,10.82,5.33,17.23Z"/>
          <path class="cls-15" d="m347.06,311.72v.07c0,10.78-8.73,19.54-19.54,19.54s-19.54-8.76-19.54-19.54c0-2.72.56-5.33,1.57-7.68,2.98-6.97,9.92-11.86,17.98-11.86,10.78,0,19.5,8.69,19.54,19.47Z"/>
          <path class="cls-5" d="m486.86,89.44s28.03,14.38,30.25,14.2c2.21-.18-7.38-11.07-7.38-11.07,0,0,12.72,3.69,12.91,0,.18-3.69-26.19-15.12-26.19-15.12,0,0,33.93-22.87,34.67-29.88s-19.73,11.25-19.73,11.25c0,0,4.24-6.82,2.77-9.04-1.48-2.21-19.36,18.44-27.29,20.1,0,0-12.36-7.01-20.84-25.27-8.48-18.26-11.43-6.82-8.3-1.48,3.14,5.35,5.72,11.62,5.72,11.62,0,0-7.56-5.72-8.67-1.84-1.11,3.87,20.47,24.71,20.47,24.71,0,0-28.95,17.34-33.56,20.84-4.61,3.5,12.17,1.29,24.34-4.24,0,0-5.35,3.5-4.24,7.01,1.11,3.5,25.08-11.8,25.08-11.8Z"/>
          <path class="cls-9" d="m266.99,312.58l-58.89,9.06s40.24,4.4,40.73,5.89c.26.78-15.18,5.18-29.16,8.95l-29.84-5.67c6.56-17.45,15.33-40.2,22.67-59.15,18.05-2.69,36.36-5.3,38.79-5.26,4.92.15-38.11,25.84-38.11,25.84,0,0,37.82-10.93,58.22-16.15l-4.4,36.47Z"/>
          <path class="cls-9" d="m347.06,311.72v.07c0,10.78-8.73,19.54-19.54,19.54s-19.54-8.76-19.54-19.54c0-2.72.56-5.33,1.57-7.68,6.53-2.13,14.77-4.7,17.98-5.11,5.67-.75-9.58,8.61-12.31,11.56-2.69,2.95,20.44-3.69,23.12,0,2.72,3.69-13.02,5.67-15.74,8.13-2.39,2.16,16.04,11.75,24.47-6.97Z"/>
          <path class="cls-6" d="m364.89,381.54l-179.27-39.38c1.27-3.43,2.69-7.24,4.21-11.34l47.33,8.99c14.02,2.69,27.41-7.09,29.13-21.26l5.71-47.25c.56-4.36-2.35-8.43-6.64-9.36l-45.2-9.96c3.95-10.22,6.56-16.89,6.56-16.89l41.81,8.2,16.11,3.17c-4.7,13.57-14.47,49.9,2.09,82.05,18.91,36.62,68.92,50.68,78.17,53.03Z"/>
          <path class="cls-6" d="m329.49,249.44l-1.04,5.63-29.95-5.89-29.98-5.89,4.85-26.48,1.9-10.29c.07-.6.26-1.16.37-1.72,2.76-11.45,11.75-19.95,22.64-22.49-1.42,5.52-9.1,36.29-6.68,45.87.71,2.83,4.29,5.82,9.14,8.73,8.47,5.07,20.85,9.77,28.75,12.53Z"/>
          <path class="cls-4" d="m275.6,204.88c-.07.52-.26,1.08-.34,1.64l-1.9,10.29-56.16-14.36.75-4.06h.11c.15,1.12,1.57,3.36,1.57,3.36,0,0,37.44,7.94,45.57,8.32,7.61.34,10.14-4.59,10.4-5.18Z"/>
          <path class="cls-1" d="m217.98,467.5c-18.39,12.64-36.29,27-36.29,27,0,0-6.15-26.55-12.53-24.09-6.38,2.46-1.49,29.98-1.49,29.98,0,0-24.84-39.08-28.75-31.48-3.8,7.38,10.7,28.01,11.71,29.43-1.49-1.31-25.81-22.64-36.06-32.63-10.55-10.33-15.96-14.25-16.22-7.35-.26,6.86,21.41,39.83,21.41,39.83,0,0-9.21-7.01-20.77-15.74-34.83-43.3-64.26-101.78-81.75-140.45C6.27,317.76,0,301.35,0,301.35l1.53.34c18,18.43,37.85,37.27,59.69,56.09,54.48,46.94,108.38,82.6,156.77,109.72Z"/>
          <path class="cls-10" d="m210.23,492.79c1.23-1.16,2.46-2.31,3.73-3.47-.52.86-1.08,1.75-1.64,2.69-1.34.48-2.09.78-2.09.78Z"/>
        </g>
      </g>
    </g>
  </g>
</svg>