<?xml version="1.0" encoding="UTF-8"?>
<svg id="Layer_2" data-name="Layer 2" xmlns="http://www.w3.org/2000/svg" xmlns:xlink="http://www.w3.org/1999/xlink" viewBox="0 0 56.94 153.41">
  <defs>
    <style>
      .cls-1, .cls-2, .cls-3, .cls-4, .cls-5, .cls-6, .cls-7, .cls-8, .cls-9, .cls-10, .cls-11, .cls-12, .cls-13, .cls-14, .cls-15, .cls-16 {
        stroke: #231f20;
      }

      .cls-1, .cls-4, .cls-5, .cls-11, .cls-14 {
        fill: #f1f2f2;
        stroke-linecap: round;
        stroke-linejoin: round;
      }

      .cls-1, .cls-17, .cls-18, .cls-19, .cls-20 {
        stroke-width: .1px;
      }

      .cls-21 {
        fill: url(#linear-gradient-7);
      }

      .cls-21, .cls-2, .cls-22, .cls-3, .cls-23, .cls-17, .cls-24, .cls-6, .cls-25, .cls-7, .cls-26, .cls-27, .cls-8, .cls-9, .cls-28, .cls-10, .cls-29, .cls-30, .cls-18, .cls-19, .cls-20, .cls-31, .cls-15, .cls-32, .cls-33, .cls-34, .cls-16 {
        stroke-miterlimit: 10;
      }

      .cls-21, .cls-23, .cls-26, .cls-34, .cls-16 {
        stroke-width: .16px;
      }

      .cls-21, .cls-26, .cls-27, .cls-29, .cls-34 {
        stroke: #58595b;
      }

      .cls-2 {
        fill: url(#linear-gradient-5);
      }

      .cls-2, .cls-25, .cls-8, .cls-9, .cls-10, .cls-29, .cls-14, .cls-15 {
        stroke-width: .12px;
      }

      .cls-22, .cls-23, .cls-17, .cls-24, .cls-25, .cls-35, .cls-28, .cls-30, .cls-18, .cls-19, .cls-31, .cls-36, .cls-32 {
        stroke: #1d1d1b;
      }

      .cls-22, .cls-23, .cls-24, .cls-35, .cls-19, .cls-36, .cls-32 {
        fill: #936037;
      }

      .cls-22, .cls-11 {
        stroke-width: .09px;
      }

      .cls-3 {
        stroke-width: .15px;
      }

      .cls-3, .cls-37, .cls-7, .cls-9, .cls-38, .cls-12, .cls-13, .cls-18, .cls-16 {
        isolation: isolate;
      }

      .cls-3, .cls-7, .cls-12, .cls-13, .cls-18, .cls-39, .cls-16 {
        opacity: .25;
      }

      .cls-4 {
        stroke-width: .13px;
      }

      .cls-5, .cls-30, .cls-32 {
        stroke-width: .08px;
      }

      .cls-37 {
        opacity: .2;
      }

      .cls-37, .cls-38 {
        stroke-width: 0px;
      }

      .cls-17, .cls-25, .cls-33 {
        fill: none;
      }

      .cls-24, .cls-31 {
        stroke-width: .07px;
      }

      .cls-6 {
        stroke-width: .21px;
      }

      .cls-7 {
        stroke-width: .05px;
      }

      .cls-35 {
        stroke-width: .08px;
      }

      .cls-35, .cls-13 {
        stroke-miterlimit: 10;
      }

      .cls-26 {
        fill: url(#linear-gradient);
      }

      .cls-27 {
        fill: url(#linear-gradient-9);
        stroke-width: .11px;
      }

      .cls-8 {
        fill: url(#linear-gradient-6);
      }

      .cls-9 {
        opacity: .12;
      }

      .cls-38 {
        fill: #f2f2f2;
        opacity: .24;
      }

      .cls-28 {
        stroke-width: .06px;
      }

      .cls-28, .cls-31 {
        fill: #3c3c3b;
      }

      .cls-10 {
        fill: url(#linear-gradient-3);
      }

      .cls-29 {
        fill: url(#linear-gradient-8);
      }

      .cls-12 {
        stroke-miterlimit: 10;
        stroke-width: .05px;
      }

      .cls-30 {
        fill: #a9805f;
      }

      .cls-13 {
        stroke-width: .05px;
      }

      .cls-20 {
        fill: #c49a6c;
        stroke: #603913;
      }

      .cls-15 {
        fill: url(#linear-gradient-4);
      }

      .cls-36 {
        stroke-miterlimit: 10;
        stroke-width: .08px;
      }

      .cls-33 {
        stroke: #936037;
        stroke-width: .25px;
      }

      .cls-34 {
        fill: url(#linear-gradient-2);
      }
    </style>
    <linearGradient id="linear-gradient" x1="2392.28" y1="-4414.15" x2="2392.28" y2="-4397.26" gradientTransform="translate(-2361.82 -4299.07) scale(1 -1)" gradientUnits="userSpaceOnUse">
      <stop offset="0" stop-color="#d1d3d4"/>
      <stop offset=".87" stop-color="#fff"/>
    </linearGradient>
    <linearGradient id="linear-gradient-2" y1="-4383.27" y2="-4366.38" xlink:href="#linear-gradient"/>
    <linearGradient id="linear-gradient-3" x1="1302.23" y1="4247.14" x2="1305.47" y2="4247.14" gradientTransform="translate(-1262.73 4285.06) scale(1 -1)" gradientUnits="userSpaceOnUse">
      <stop offset="0" stop-color="#d1d3d4"/>
      <stop offset=".36" stop-color="#a7a9ac"/>
      <stop offset=".67" stop-color="#f1f2f2"/>
      <stop offset="1" stop-color="#e6e7e8"/>
    </linearGradient>
    <linearGradient id="linear-gradient-4" x1="1301.42" y1="4247.39" x2="1306.27" y2="4247.39" xlink:href="#linear-gradient-3"/>
    <linearGradient id="linear-gradient-5" x1="1280.5" x2="1283.74" xlink:href="#linear-gradient-3"/>
    <linearGradient id="linear-gradient-6" x1="1279.69" y1="4247.39" x2="1284.54" y2="4247.39" xlink:href="#linear-gradient-3"/>
    <linearGradient id="linear-gradient-7" y1="-4351.71" y2="-4334.83" xlink:href="#linear-gradient"/>
    <linearGradient id="linear-gradient-8" x1="3279.72" y1="-3664.01" x2="3293.51" y2="-3664.01" gradientTransform="translate(-4051.1 -3320.31) rotate(-5.71) scale(1.13 -1.02)" xlink:href="#linear-gradient"/>
    <linearGradient id="linear-gradient-9" x1="3541.93" y1="-3162.9" x2="3553.97" y2="-3162.9" gradientTransform="translate(-4566.06 -2208.63) rotate(-11.74) scale(1.13 -1.02)" xlink:href="#linear-gradient"/>
  </defs>
  <g id="Layer_2-2" data-name="Layer 2">
    <g>
      <path class="cls-18" d="m49.09,130.23c-1.41,5.48-4.97,10.07-10.62,10.07H14.3c-5.66,0-9.22-4.6-10.62-10.07C1.9,123.31-.06,65.84.06,51.29c.03-3.88.54-7.32,1.4-10.39,3.59-12.8,13.25-18.96,19.44-21.67.59-.26,1.14-.49,1.66-.68,2.31-.89,3.83-1.21,3.83-1.21h0s26.11,5.51,26.33,33.95c.12,14.55-1.85,72.02-3.62,78.94h-.01Z"/>
      <g>
        <path class="cls-23" d="m53.24,126.98c-1.41,5.48-4.97,10.08-10.63,10.08h-24.17c-5.66,0-9.21-4.6-10.62-10.08-1.78-6.92-3.74-64.39-3.63-78.94.03-3.88.54-7.33,1.4-10.39,2.46-8.77,7.77-14.43,12.86-17.99.23-.17.47-.33.7-.48s.45-.3.68-.44c.77-.49,1.53-.94,2.27-1.34,1.01-.55,1.98-1.02,2.88-1.41.01,0,.03-.01.04-.02.01,0,.03-.01.05-.02.57-.25,1.11-.47,1.62-.66.52-.2.99-.37,1.42-.51.6-.2,1.11-.36,1.5-.47.18-.05.33-.09.46-.12.29-.08.45-.11.45-.11h0s.92.2,2.43.7h.01c.81.27,1.79.64,2.89,1.11,1.58.69,3.4,1.6,5.3,2.8h0c.22.14.45.28.67.43h0c.23.15.47.31.7.48,6.89,4.8,14.22,13.42,14.34,28.43.12,14.55-1.85,72.02-3.62,78.94h0Z"/>
        <path class="cls-17" d="m53.24,126.98c-1.41,5.48-4.97,10.08-10.63,10.08h-24.17c-5.66,0-9.21-4.6-10.62-10.08-1.78-6.92-3.74-64.39-3.63-78.94.03-3.88.54-7.33,1.4-10.39,2.46-8.77,7.77-14.43,12.86-17.99.23-.17.47-.33.7-.48s.45-.3.68-.44c.77-.49,1.53-.94,2.27-1.34,1.01-.55,1.98-1.02,2.88-1.41.01,0,.03-.01.04-.02.01,0,.03-.01.05-.02.57-.25,1.11-.47,1.62-.66.52-.2.99-.37,1.42-.51.6-.2,1.11-.36,1.5-.47.18-.05.33-.09.46-.12.29-.08.45-.11.45-.11h0s.92.2,2.43.7h.01c.81.27,1.79.64,2.89,1.11,1.58.69,3.4,1.6,5.3,2.8h0c.22.14.45.28.67.43h0c.23.15.47.31.7.48,6.89,4.8,14.22,13.42,14.34,28.43.12,14.55-1.85,72.02-3.62,78.94h0Z"/>
      </g>
      <path class="cls-20" d="m53.1,56.87c-.08,4.51-.22,9.97-.4,15.82-.16,5.09-.34,10.49-.55,15.82-.11,2.82-.23,5.63-.35,8.36-.25,5.58-.52,10.85-.8,15.37-.43,6.96-.89,12.11-1.32,13.81-.14.54-.35,1.24-.66,2.01-.08.19-.16.38-.25.58-.64,1.4-1.61,2.89-3.04,3.81-.84.54-1.85.89-3.04.9h-24.29c-1.19,0-2.19-.36-3.04-.9-1.43-.92-2.39-2.41-3.04-3.81-.45-.98-.74-1.92-.91-2.59-.25-.96-.5-3.03-.75-5.9-.35-3.99-.7-9.53-1.02-15.82-.12-2.39-.24-4.89-.36-7.46,0-.15,0-.3-.02-.45-.23-5.15-.44-10.54-.63-15.82-.19-5.54-.36-10.95-.48-15.82-.17-6.62-.26-12.24-.25-15.82v-.89c.03-3.53.49-6.82,1.38-9.83.41-1.39.91-2.73,1.5-4.01.38-.81.79-1.6,1.24-2.37.1-.17.2-.34.3-.5.88-1.44,1.89-2.79,3.04-4.06.65-.72,1.33-1.4,2.05-2.06.32-.29.65-.58.98-.86.42-.35.85-.69,1.29-1.02.58-.44,1.17-.85,1.75-1.23,1.04-.68,2.07-1.27,3.04-1.77,1.1-.57,2.13-1.03,3.04-1.4,1.31-.53,2.37-.86,3.04-1.06.66.19,1.73.53,3.04,1.06.91.36,1.94.83,3.04,1.39.97.5,1.99,1.09,3.04,1.77.65.43,1.31.89,1.97,1.4.36.28.72.56,1.07.86,1.1.92,2.11,1.89,3.04,2.93,1.14,1.27,2.16,2.62,3.04,4.06.36.58.69,1.17,1,1.78.83,1.61,1.51,3.3,2.03,5.1.27.91.5,1.85.69,2.81.44,2.21.67,4.56.69,7.02.02,2.12-.01,5.15-.08,8.8h-.02Z"/>
      <g>
        <path class="cls-33" d="m18.38,24.37v.86h-.98c.32-.29.65-.58.98-.86Z"/>
        <path class="cls-33" d="m24.46,20.35v4.88h-3.04v-3.11c1.04-.68,2.07-1.27,3.04-1.77Z"/>
        <path class="cls-33" d="m30.53,17.9v7.33h-3.04v-6.27c1.31-.53,2.37-.86,3.04-1.06Z"/>
        <path class="cls-33" d="m36.6,20.35v4.88h-3.04v-6.27c.91.36,1.94.83,3.04,1.39Z"/>
        <path class="cls-33" d="m42.68,24.37v.86h-3.04v-3.11c.65.43,1.31.89,1.97,1.4.36.28.72.56,1.07.86h0Z"/>
        <path class="cls-33" d="m12.31,31.35v9.7h-3.04v-2.81c.41-1.39.91-2.73,1.5-4.01.38-.81.79-1.6,1.24-2.37.1-.17.2-.34.3-.5h0Z"/>
        <path class="cls-33" d="m15.34,27.29v5.85h-3.04v-1.79c.88-1.44,1.89-2.79,3.04-4.06Z"/>
        <path class="cls-33" d="m18.38,25.23v15.82h-3.04v-13.76c.65-.72,1.33-1.4,2.05-2.06h.99Z"/>
        <path class="cls-33" d="m21.42,22.12v11.02h-3.04v-8.77c.42-.35.85-.69,1.29-1.02.58-.44,1.17-.85,1.75-1.23Z"/>
        <rect class="cls-33" x="21.42" y="25.23" width="3.04" height="15.82"/>
        <path class="cls-33" d="m27.49,18.95v14.18h-3.04v-12.79c1.1-.57,2.13-1.03,3.04-1.4h0Z"/>
        <rect class="cls-33" x="27.49" y="25.23" width="3.04" height="15.82"/>
        <path class="cls-33" d="m33.57,18.95v14.18h-3.04v-15.24c.66.19,1.73.53,3.04,1.06Z"/>
        <rect class="cls-33" x="33.57" y="25.23" width="3.04" height="15.82"/>
        <path class="cls-33" d="m39.64,22.12v11.02h-3.04v-12.79c.97.5,1.99,1.09,3.04,1.77Z"/>
        <rect class="cls-33" x="39.64" y="25.23" width="3.04" height="15.82"/>
        <path class="cls-33" d="m45.72,27.3v5.84h-3.04v-8.77c1.1.92,2.11,1.89,3.04,2.93Z"/>
        <path class="cls-33" d="m48.75,31.36v9.69h-3.04v-13.75c1.14,1.27,2.16,2.62,3.04,4.06Z"/>
        <path class="cls-33" d="m49.76,33.14h-1v-1.78c.36.58.69,1.17,1,1.78Z"/>
        <path class="cls-33" d="m52.48,41.05h-.69v-2.81c.27.91.5,1.85.69,2.81Z"/>
        <path class="cls-33" d="m9.27,38.24v10.72h-1.39v-.89c.03-3.53.49-6.82,1.38-9.83h0Z"/>
        <rect class="cls-33" x="9.27" y="41.05" width="3.04" height="15.82"/>
        <rect class="cls-33" x="12.31" y="33.14" width="3.04" height="15.82"/>
        <rect class="cls-33" x="15.34" y="41.05" width="3.04" height="15.82"/>
        <rect class="cls-33" x="18.38" y="33.14" width="3.04" height="15.82"/>
        <rect class="cls-33" x="21.42" y="41.05" width="3.04" height="15.82"/>
        <rect class="cls-33" x="24.46" y="33.14" width="3.04" height="15.82"/>
        <rect class="cls-33" x="27.49" y="41.05" width="3.04" height="15.82"/>
        <rect class="cls-33" x="30.53" y="33.14" width="3.04" height="15.82"/>
        <rect class="cls-33" x="33.57" y="41.05" width="3.04" height="15.82"/>
        <rect class="cls-33" x="36.61" y="33.14" width="3.04" height="15.82"/>
        <rect class="cls-33" x="39.64" y="41.05" width="3.04" height="15.82"/>
        <rect class="cls-33" x="42.68" y="33.14" width="3.04" height="15.82"/>
        <rect class="cls-33" x="45.72" y="41.05" width="3.04" height="15.82"/>
        <path class="cls-33" d="m51.79,38.24v10.72h-3.04v-15.82h1c.83,1.61,1.51,3.3,2.03,5.1h.01Z"/>
        <path class="cls-33" d="m53.1,56.87h-1.3v-15.82h.69c.44,2.21.67,4.56.69,7.02.02,2.12-.01,5.15-.08,8.8Z"/>
        <path class="cls-33" d="m9.27,48.96v15.82h-1.13c-.17-6.62-.26-12.24-.25-15.82h1.39,0Z"/>
        <rect class="cls-33" x="9.27" y="56.87" width="3.04" height="15.82"/>
        <rect class="cls-33" x="12.31" y="48.96" width="3.04" height="15.82"/>
        <rect class="cls-33" x="15.34" y="56.87" width="3.04" height="15.82"/>
        <rect class="cls-33" x="18.38" y="48.96" width="3.04" height="15.82"/>
        <rect class="cls-33" x="21.42" y="56.87" width="3.04" height="15.82"/>
        <rect class="cls-33" x="24.46" y="48.96" width="3.04" height="15.82"/>
        <rect class="cls-33" x="27.49" y="56.87" width="3.04" height="15.82"/>
        <rect class="cls-33" x="30.53" y="48.96" width="3.04" height="15.82"/>
        <rect class="cls-33" x="33.57" y="56.87" width="3.04" height="15.82"/>
        <rect class="cls-33" x="36.61" y="48.96" width="3.04" height="15.82"/>
        <rect class="cls-33" x="39.64" y="56.87" width="3.04" height="15.82"/>
        <rect class="cls-33" x="42.68" y="48.96" width="3.04" height="15.82"/>
        <rect class="cls-33" x="45.72" y="56.87" width="3.04" height="15.82"/>
        <rect class="cls-33" x="48.75" y="48.96" width="3.04" height="15.82"/>
        <path class="cls-33" d="m53.1,56.87c-.08,4.51-.22,9.97-.4,15.82h-.91v-15.82h1.31Z"/>
        <path class="cls-33" d="m9.27,64.78v15.82h-.65c-.19-5.54-.36-10.95-.48-15.82h1.13Z"/>
        <rect class="cls-33" x="9.27" y="72.69" width="3.04" height="15.82"/>
        <rect class="cls-33" x="12.31" y="64.78" width="3.04" height="15.82"/>
        <rect class="cls-33" x="15.34" y="72.69" width="3.04" height="15.82"/>
        <rect class="cls-33" x="18.38" y="64.78" width="3.04" height="15.82"/>
        <rect class="cls-33" x="21.42" y="72.69" width="3.04" height="15.82"/>
        <rect class="cls-33" x="24.46" y="64.78" width="3.04" height="15.82"/>
        <rect class="cls-33" x="27.49" y="72.69" width="3.04" height="15.82"/>
        <rect class="cls-33" x="30.53" y="64.78" width="3.04" height="15.82"/>
        <rect class="cls-33" x="33.57" y="72.69" width="3.04" height="15.82"/>
        <rect class="cls-33" x="36.61" y="64.78" width="3.04" height="15.82"/>
        <rect class="cls-33" x="39.64" y="72.69" width="3.04" height="15.82"/>
        <rect class="cls-33" x="42.68" y="64.78" width="3.04" height="15.82"/>
        <rect class="cls-33" x="45.72" y="72.69" width="3.04" height="15.82"/>
        <rect class="cls-33" x="48.75" y="64.78" width="3.04" height="15.82"/>
        <path class="cls-33" d="m52.7,72.69c-.16,5.09-.34,10.49-.55,15.82h-.35v-15.82h.91-.01Z"/>
        <path class="cls-33" d="m9.27,80.6v15.82h-.02c-.23-5.15-.44-10.54-.63-15.82h.65Z"/>
        <rect class="cls-33" x="9.27" y="88.51" width="3.04" height="15.82"/>
        <rect class="cls-33" x="12.31" y="80.6" width="3.04" height="15.82"/>
        <rect class="cls-33" x="15.34" y="88.51" width="3.04" height="15.82"/>
        <rect class="cls-33" x="18.38" y="80.6" width="3.04" height="15.82"/>
        <rect class="cls-33" x="21.42" y="88.51" width="3.04" height="15.82"/>
        <rect class="cls-33" x="24.46" y="80.6" width="3.04" height="15.82"/>
        <rect class="cls-33" x="27.49" y="88.51" width="3.04" height="15.82"/>
        <rect class="cls-33" x="30.53" y="80.6" width="3.04" height="15.82"/>
        <rect class="cls-33" x="33.57" y="88.51" width="3.04" height="15.82"/>
        <rect class="cls-33" x="36.61" y="80.6" width="3.04" height="15.82"/>
        <rect class="cls-33" x="39.64" y="88.51" width="3.04" height="15.82"/>
        <rect class="cls-33" x="42.68" y="80.6" width="3.04" height="15.82"/>
        <rect class="cls-33" x="45.72" y="88.51" width="3.04" height="15.82"/>
        <rect class="cls-33" x="48.75" y="80.6" width="3.04" height="15.82"/>
        <path class="cls-33" d="m52.14,88.51c-.11,2.82-.23,5.63-.35,8.36v-8.36h.35Z"/>
        <path class="cls-33" d="m9.27,96.43v.45c0-.15,0-.3-.02-.45h.02Z"/>
        <path class="cls-33" d="m12.31,104.34v15.82h-1.66c-.35-3.99-.7-9.53-1.02-15.82h2.68Z"/>
        <rect class="cls-33" x="12.31" y="96.42" width="3.04" height="15.82"/>
        <rect class="cls-33" x="15.34" y="104.34" width="3.04" height="15.82"/>
        <rect class="cls-33" x="18.38" y="96.42" width="3.04" height="15.82"/>
        <rect class="cls-33" x="21.42" y="104.34" width="3.04" height="15.82"/>
        <rect class="cls-33" x="24.46" y="96.42" width="3.04" height="15.82"/>
        <rect class="cls-33" x="27.49" y="104.34" width="3.04" height="15.82"/>
        <rect class="cls-33" x="30.53" y="96.42" width="3.04" height="15.82"/>
        <rect class="cls-33" x="33.57" y="104.34" width="3.04" height="15.82"/>
        <rect class="cls-33" x="36.61" y="96.42" width="3.04" height="15.82"/>
        <rect class="cls-33" x="39.64" y="104.34" width="3.04" height="15.82"/>
        <rect class="cls-33" x="42.68" y="96.42" width="3.04" height="15.82"/>
        <rect class="cls-33" x="45.72" y="104.34" width="3.04" height="15.82"/>
        <path class="cls-33" d="m51.79,96.43v.45c-.25,5.58-.52,10.85-.8,15.37h-2.23v-15.82h3.04,0Z"/>
        <path class="cls-33" d="m12.31,120.16v8.49c-.45-.98-.74-1.92-.91-2.59-.25-.96-.5-3.03-.75-5.9h1.66Z"/>
        <rect class="cls-33" x="12.31" y="112.25" width="3.04" height="15.82"/>
        <path class="cls-33" d="m18.38,120.16v13.2c-1.19,0-2.19-.36-3.04-.9v-12.3h3.04Z"/>
        <rect class="cls-33" x="18.38" y="112.25" width="3.04" height="15.82"/>
        <rect class="cls-33" x="21.42" y="120.16" width="3.04" height="13.2"/>
        <rect class="cls-33" x="24.46" y="112.25" width="3.04" height="15.82"/>
        <rect class="cls-33" x="27.49" y="120.16" width="3.04" height="13.2"/>
        <rect class="cls-33" x="30.53" y="112.25" width="3.04" height="15.82"/>
        <rect class="cls-33" x="33.57" y="120.16" width="3.04" height="13.2"/>
        <rect class="cls-33" x="36.61" y="112.25" width="3.04" height="15.82"/>
        <rect class="cls-33" x="39.64" y="120.16" width="3.04" height="13.2"/>
        <rect class="cls-33" x="42.68" y="112.25" width="3.04" height="15.82"/>
        <path class="cls-33" d="m48.75,120.16v8.49c-.64,1.4-1.61,2.89-3.04,3.81v-12.3h3.04Z"/>
        <path class="cls-33" d="m50.99,112.25c-.43,6.96-.89,12.11-1.32,13.81-.14.54-.35,1.24-.66,2.01h-.25v-15.82h2.23Z"/>
        <path class="cls-33" d="m15.34,128.07v4.39c-1.43-.92-2.39-2.41-3.04-3.81v-.58h3.04Z"/>
        <path class="cls-33" d="m21.42,128.07v5.29h-3.03v-5.29h3.04,0Z"/>
        <rect class="cls-33" x="24.46" y="128.07" width="3.04" height="5.29"/>
        <rect class="cls-33" x="30.53" y="128.07" width="3.04" height="5.29"/>
        <rect class="cls-33" x="36.6" y="128.07" width="3.04" height="5.29"/>
        <path class="cls-33" d="m45.72,128.07v4.39c-.84.54-1.85.89-3.04.9v-5.29h3.04Z"/>
        <path class="cls-33" d="m49,128.07c-.08.19-.16.38-.25.58v-.58h.25Z"/>
      </g>
      <path class="cls-18" d="m49.66,126.06c-.56,2.2-2.38,7.3-7.05,7.3h-5.7c4.67,0,6.48-5.11,7.05-7.3,1.67-6.48,3.62-63.55,3.51-77.99-.08-10.48-3.97-18.74-11.56-24.56-2.98-2.28-5.99-3.75-8.23-4.63,1.22-.49,2.22-.8,2.85-.98,1.79.51,6.48,2.09,11.08,5.61,7.59,5.81,11.48,14.08,11.56,24.56.11,14.44-1.85,71.51-3.51,77.99Z"/>
      <path class="cls-25" d="m53.1,56.87c-.08,4.51-.22,9.97-.4,15.82-.16,5.09-.34,10.49-.55,15.82-.11,2.82-.23,5.63-.35,8.36-.25,5.58-.52,10.85-.8,15.37-.43,6.96-.89,12.11-1.32,13.81-.14.54-.35,1.24-.66,2.01-.08.19-.16.38-.25.58-.64,1.4-1.61,2.89-3.04,3.81-.84.54-1.85.89-3.04.9h-24.29c-1.19,0-2.19-.36-3.04-.9-1.43-.92-2.39-2.41-3.04-3.81-.45-.98-.74-1.92-.91-2.59-.25-.96-.5-3.03-.75-5.9-.35-3.99-.7-9.53-1.02-15.82-.12-2.39-.24-4.89-.36-7.46,0-.15,0-.3-.02-.45-.23-5.15-.44-10.54-.63-15.82-.19-5.54-.36-10.95-.48-15.82-.17-6.62-.26-12.24-.25-15.82v-.89c.03-3.53.49-6.82,1.38-9.83.41-1.39.91-2.73,1.5-4.01.38-.81.79-1.6,1.24-2.37.1-.17.2-.34.3-.5.88-1.44,1.89-2.79,3.04-4.06.65-.72,1.33-1.4,2.05-2.06.32-.29.65-.58.98-.86.42-.35.85-.69,1.29-1.02.58-.44,1.17-.85,1.75-1.23,1.04-.68,2.07-1.27,3.04-1.77,1.1-.57,2.13-1.03,3.04-1.4,1.31-.53,2.37-.86,3.04-1.06.66.19,1.73.53,3.04,1.06.91.36,1.94.83,3.04,1.39.97.5,1.99,1.09,3.04,1.77.65.43,1.31.89,1.97,1.4.36.28.72.56,1.07.86,1.1.92,2.11,1.89,3.04,2.93,1.14,1.27,2.16,2.62,3.04,4.06.36.58.69,1.17,1,1.78.83,1.61,1.51,3.3,2.03,5.1.27.91.5,1.85.69,2.81.44,2.21.67,4.56.69,7.02.02,2.12-.01,5.15-.08,8.8h-.02Z"/>
      <g>
        <path class="cls-16" d="m30.15,13.9l-.07.3-.67,2.81-2.19,9.16-2.13-10.2c.57-.25,1.11-.47,1.62-.66.52-.2.99-.37,1.42-.51l.03-.39c.56-.18,1.06-.32,1.5-.4.18-.04.35-.07.5-.09v-.02Z"/>
        <path class="cls-23" d="m32.51,27.63h-3.95c-.24,0-.46-.06-.65-.17-.12-.06-.22-.14-.31-.24-.27-.27-.42-.65-.39-1.07l.9-11.38.03-.39.71-8.88.05-.63h0l.05-.63.23-2.91c.06-.71.65-1.25,1.36-1.25h.13s.08,0,.11.01c.06,0,.12.02.17.04.03,0,.06.02.09.03h0s.08.03.11.05c.04.02.07.04.11.06h0s.02.01.03.02c.06.04.11.08.16.13.03.03.06.06.09.09.13.14.22.31.28.49,0,.02.01.05.02.08,0,.03.02.07.02.1,0,.04.01.09.02.13l.24,3,.04.52v.1l.06.62h0l.73,9.19.9,11.38c.06.79-.56,1.47-1.35,1.47v.04Z"/>
        <g>
          <path class="cls-4" d="m14.39,24.33c.42-.4,1.09-.38,1.49.04.4.42.38,1.09-.04,1.49-.42.4-1.09.38-1.49-.04-.4-.42-.38-1.09.04-1.49Z"/>
          <path class="cls-4" d="m14.54,24.5c.33-.32.86-.3,1.17.03.32.33.3.86-.03,1.17-.33.32-.86.3-1.17-.03-.32-.33-.3-.86.03-1.17Z"/>
        </g>
        <g>
          <path class="cls-4" d="m45.3,24.33c.42-.4,1.09-.38,1.49.04.4.42.38,1.09-.04,1.49s-1.09.38-1.49-.04c-.4-.42-.38-1.09.04-1.49Z"/>
          <path class="cls-4" d="m45.46,24.5c.33-.32.86-.3,1.17.03.32.33.3.86-.03,1.17-.33.32-.86.3-1.17-.03-.32-.33-.3-.86.03-1.17Z"/>
        </g>
        <g>
          <path class="cls-4" d="m32.17,4.86h-3.27l.28-3.52c.06-.71.65-1.25,1.36-1.25.35,0,.68.14.92.36.24.22.4.54.43.89,0,0,.28,3.52.28,3.52Z"/>
          <g>
            <path class="cls-4" d="m29.81,1.63c.42-.4,1.09-.38,1.49.04s.38,1.09-.04,1.49-1.09.38-1.49-.04-.38-1.09.04-1.49Z"/>
            <path class="cls-4" d="m29.96,1.79c.33-.32.86-.3,1.17.03.32.33.3.86-.03,1.17-.33.32-.86.3-1.17-.03-.32-.33-.3-.86.03-1.17Z"/>
          </g>
        </g>
        <path class="cls-16" d="m31.27.31h0c-.35.23-.59.6-.62,1.03h0l-.02.23-.05.6v.02l-.03.39-.04.49h0v.15l-.02.22-.11,1.42-.72,9.12-.03.33-.21,2.69-.73,9.16c-.06.78.54,1.44,1.31,1.47h.05-1.47c-.38,0-.72-.16-.96-.4-.27-.27-.42-.65-.39-1.07l.9-11.38.03-.39.71-8.88.05-.63h0l.05-.63.23-2.91c.06-.71.65-1.25,1.36-1.25h.13s.08,0,.11.01c.06,0,.12.02.17.04.03,0,.06.02.09.03h0s.08.03.11.05c.04.02.07.04.11.06h0v.03Z"/>
        <path class="cls-11" d="m30.84,2.46c0,.07-.01.14-.05.19l-.1.14-.19.27h0l-.1.14-.14.2-.99,1.45-.44.64-9.02,13.24-3.89,5.71-.14.2-.57.83c-.06.09-.16.14-.26.14-.06,0-.12-.02-.18-.05-.14-.1-.18-.29-.08-.43l.57-.84.13-.2,3.02-4.43,10.49-15.41h0l.79-1.17.13-.19.3-.44.1-.15c.05-.08.14-.13.23-.13h.07s.09.02.13.05c.08.05.13.14.14.24h.05Z"/>
        <path class="cls-11" d="m46.2,25.56c-.05.04-.11.05-.17.05-.1,0-.19-.05-.26-.14l-.5-.73-.14-.21-3.98-5.84h0l-8.92-13.11h0l-.5-.73-.98-1.44-.14-.2-.1-.15h0l-.19-.28-.09-.14c-.04-.06-.06-.13-.05-.2h0c0-.09.05-.18.13-.23.06-.04.13-.06.2-.05h0s.05,0,.07.02c.06.02.12.06.16.12l.11.16.32.47.13.19.83,1.22,10.4,15.27,3.08,4.52.13.19.55.81c.1.14.06.34-.08.43h0Z"/>
      </g>
      <g>
        <path class="cls-4" d="m51.61,121.3c.44-.42,1.14-.4,1.57.04.42.44.4,1.14-.04,1.57s-1.14.4-1.57-.04-.4-1.14.04-1.57Z"/>
        <path class="cls-4" d="m51.78,121.48c.35-.33.9-.32,1.23.03s.32.9-.03,1.23-.9.32-1.23-.03-.32-.9.03-1.23Z"/>
      </g>
      <g>
        <path class="cls-4" d="m8.74,121.3c.44-.42,1.14-.4,1.57.04.42.44.4,1.14-.04,1.57-.44.42-1.14.4-1.57-.04s-.4-1.14.04-1.57Z"/>
        <path class="cls-4" d="m8.9,121.48c.35-.33.9-.32,1.23.03.33.35.32.9-.03,1.23s-.9.32-1.23-.03c-.33-.35-.32-.9.03-1.23Z"/>
      </g>
      <g>
        <circle class="cls-4" cx="5.78" cy="55.11" r="1.11"/>
        <path class="cls-4" d="m5.18,54.48c.35-.33.9-.32,1.23.03.33.35.32.9-.03,1.23s-.9.32-1.23-.03c-.33-.35-.32-.9.03-1.23Z"/>
      </g>
      <g>
        <circle class="cls-4" cx="55.28" cy="55.11" r="1.11"/>
        <path class="cls-4" d="m54.68,54.48c.35-.33.9-.32,1.23.03.33.35.32.9-.03,1.23s-.9.32-1.23-.03-.32-.9.03-1.23Z"/>
      </g>
      <g>
        <path class="cls-4" d="m5.25,63.02c.44-.42,1.14-.4,1.57.04.42.44.4,1.14-.04,1.57-.44.42-1.14.4-1.57-.04-.42-.44-.4-1.14.04-1.57Z"/>
        <path class="cls-4" d="m5.42,63.2c.35-.33.9-.32,1.23.03.33.35.32.9-.03,1.23s-.9.32-1.23-.03c-.33-.35-.32-.9.03-1.23Z"/>
      </g>
      <g>
        <path class="cls-4" d="m54.26,63.02c.44-.42,1.14-.4,1.57.04.42.44.4,1.14-.04,1.57-.44.42-1.14.4-1.57-.04-.42-.44-.4-1.14.04-1.57Z"/>
        <path class="cls-4" d="m54.42,63.2c.35-.33.9-.32,1.23.03s.32.9-.03,1.23-.9.32-1.23-.03-.32-.9.03-1.23Z"/>
      </g>
      <g>
        <circle class="cls-4" cx="6.64" cy="72.24" r="1.11"/>
        <path class="cls-4" d="m6.04,71.61c.35-.33.9-.32,1.23.03.33.35.32.9-.03,1.23s-.9.32-1.23-.03c-.33-.35-.32-.9.03-1.23Z"/>
      </g>
      <g>
        <circle class="cls-4" cx="54.17" cy="72.24" r="1.11"/>
        <path class="cls-4" d="m53.57,71.61c.35-.33.9-.32,1.23.03s.32.9-.03,1.23-.9.32-1.23-.03-.32-.9.03-1.23Z"/>
      </g>
      <g>
        <path class="cls-4" d="m50.08,127.82c.44-.42,1.14-.4,1.57.04s.4,1.14-.04,1.57c-.44.42-1.14.4-1.57-.04-.42-.44-.4-1.14.04-1.57Z"/>
        <path class="cls-4" d="m50.25,127.99c.35-.33.9-.32,1.23.03s.32.9-.03,1.23-.9.32-1.23-.03-.32-.9.03-1.23Z"/>
      </g>
      <g>
        <path class="cls-4" d="m10.42,127.82c.44-.42,1.14-.4,1.57.04s.4,1.14-.04,1.57c-.44.42-1.14.4-1.57-.04-.42-.44-.4-1.14.04-1.57Z"/>
        <path class="cls-4" d="m10.59,127.99c.35-.33.9-.32,1.23.03.33.35.32.9-.03,1.23s-.9.32-1.23-.03c-.33-.35-.32-.9.03-1.23Z"/>
      </g>
      <g>
        <path class="cls-4" d="m45.14,133.95c.44-.42,1.14-.4,1.57.04.42.44.4,1.14-.04,1.57-.44.42-1.14.4-1.57-.04-.42-.44-.4-1.14.04-1.57Z"/>
        <path class="cls-4" d="m45.3,134.13c.35-.33.9-.32,1.23.03s.32.9-.03,1.23-.9.32-1.23-.03-.32-.9.03-1.23Z"/>
      </g>
      <g>
        <path class="cls-4" d="m15.26,133.95c.44-.42,1.14-.4,1.57.04.42.44.4,1.14-.04,1.57-.44.42-1.14.4-1.57-.04-.42-.44-.4-1.14.04-1.57Z"/>
        <path class="cls-4" d="m15.42,134.13c.35-.33.9-.32,1.23.03.33.35.32.9-.03,1.23s-.9.32-1.23-.03c-.33-.35-.32-.9.03-1.23Z"/>
      </g>
      <path class="cls-16" d="m28.89,50.3c2.34,0,4.23,1.89,4.23,4.23s-1.89,4.23-4.23,4.23-4.23-1.89-4.23-4.23,1.89-4.23,4.23-4.23Z"/>
      <path class="cls-23" d="m30.4,48.79c2.34,0,4.23,1.89,4.23,4.23s-1.89,4.23-4.23,4.23-4.23-1.89-4.23-4.23,1.89-4.23,4.23-4.23Z"/>
      <path class="cls-16" d="m33.86,55.45c-.76,1.09-2.03,1.8-3.46,1.8-2.34,0-4.23-1.89-4.23-4.23,0-1.43.71-2.7,1.8-3.47-.49.69-.77,1.53-.77,2.44,0,2.34,1.89,4.23,4.23,4.23.91,0,1.75-.29,2.44-.77h-.01Z"/>
      <g>
        <path class="cls-22" d="m54.79,53.02h0c0,.72-.58,1.3-1.3,1.3H7.31c-.72,0-1.3-.58-1.3-1.3h0c0-.72.58-1.3,1.3-1.3h46.18c.72,0,1.3.58,1.3,1.3Z"/>
        <path class="cls-16" d="m54.74,52.7c.03.1.04.21.04.32,0,.72-.58,1.3-1.3,1.3H7.3c-.72,0-1.3-.58-1.3-1.3,0-.11,0-.22.04-.32.14.57.65.98,1.26.98h46.18c.61,0,1.12-.41,1.26-.98Z"/>
      </g>
      <path class="cls-16" d="m28.89,112.73c2.34,0,4.23,1.89,4.23,4.23s-1.89,4.23-4.23,4.23-4.23-1.89-4.23-4.23,1.89-4.23,4.23-4.23Z"/>
      <path class="cls-23" d="m30.4,111.22c2.34,0,4.23,1.89,4.23,4.23s-1.89,4.23-4.23,4.23-4.23-1.89-4.23-4.23,1.89-4.23,4.23-4.23Z"/>
      <path class="cls-16" d="m33.86,117.88c-.76,1.09-2.03,1.8-3.46,1.8-2.34,0-4.23-1.89-4.23-4.23,0-1.43.71-2.7,1.8-3.47-.49.69-.77,1.53-.77,2.44,0,2.34,1.89,4.23,4.23,4.23.91,0,1.75-.29,2.44-.77h-.01Z"/>
      <g>
        <path class="cls-22" d="m54.79,115.45h0c0,.72-.58,1.3-1.3,1.3H7.31c-.72,0-1.3-.58-1.3-1.3h0c0-.72.58-1.3,1.3-1.3h46.18c.72,0,1.3.58,1.3,1.3Z"/>
        <path class="cls-16" d="m54.74,115.13c.03.1.04.21.04.32,0,.72-.58,1.3-1.3,1.3H7.3c-.72,0-1.3-.58-1.3-1.3,0-.11,0-.22.04-.32.14.57.65.98,1.26.98h46.18c.61,0,1.12-.41,1.26-.98Z"/>
      </g>
      <path class="cls-16" d="m28.89,81.85c2.34,0,4.23,1.89,4.23,4.23s-1.89,4.23-4.23,4.23-4.23-1.89-4.23-4.23,1.89-4.23,4.23-4.23Z"/>
      <path class="cls-23" d="m30.4,80.34c2.34,0,4.23,1.89,4.23,4.23s-1.89,4.23-4.23,4.23-4.23-1.89-4.23-4.23,1.89-4.23,4.23-4.23Z"/>
      <path class="cls-16" d="m33.86,87.01c-.76,1.09-2.03,1.8-3.46,1.8-2.34,0-4.23-1.89-4.23-4.23,0-1.43.71-2.7,1.8-3.47-.49.69-.77,1.53-.77,2.44,0,2.34,1.89,4.23,4.23,4.23.91,0,1.75-.29,2.44-.77h-.01Z"/>
      <g>
        <path class="cls-22" d="m54.79,84.58h0c0,.72-.58,1.3-1.3,1.3H7.31c-.72,0-1.3-.58-1.3-1.3h0c0-.72.58-1.3,1.3-1.3h46.18c.72,0,1.3.58,1.3,1.3Z"/>
        <path class="cls-16" d="m54.74,84.26c.03.1.04.21.04.32,0,.72-.58,1.3-1.3,1.3H7.3c-.72,0-1.3-.58-1.3-1.3,0-.11,0-.22.04-.32.14.56.65.98,1.26.98h46.18c.61,0,1.12-.41,1.26-.98Z"/>
      </g>
      <g>
        <g>
          <path class="cls-7" d="m34.71,71.07c.38,0,.71-.23.85-.56h.5c.07,0,.13-.01.19-.04.02,0,.03-.02.05-.02.01,0,.03-.01.04-.02.02-.01.03-.02.04-.04l.03-.03s.02-.02.02-.03l.04-.04h0c.05-.09.08-.18.08-.27h0v-.82h0c0-.1-.03-.19-.08-.27h0s-.03-.03-.04-.05c0,0-.01-.02-.02-.02-.01-.01-.03-.02-.04-.03-.01,0-.02-.02-.03-.03-.01,0-.03-.02-.04-.02s-.03-.02-.04-.02c-.06-.02-.12-.04-.19-.04h-.82v-.51l7.81-.85v.43h-.82c-.27,0-.49.22-.49.49v.5h0v.32c0,.27.22.49.49.49h.49c.13.35.47.6.87.6s.74-.25.87-.6h.49c.27,0,.49-.22.49-.49v-.5h0v-.32h0c0-.1-.03-.19-.08-.27h0s-.03-.04-.04-.05l-.02-.02s-.03-.02-.04-.03c-.01,0-.02-.02-.03-.03-.01,0-.03-.02-.05-.03-.01,0-.02-.01-.04-.02-.06-.03-.12-.04-.19-.04h-.82v-.55l.76-.08c.08.07.18.11.3.11h.23s.03,0,.04-.01c.01,0,.03,0,.04-.01h0c.08-.04.14-.09.19-.16l1.11-.12-.09-.81h0v-.11l-.05-.37h0l-.9.1v-.82c.59-.04,1.04-.06,1.3-.06v.18h0l.31.42h.62l.31-.42v-.11c1.39.18,2.52.58,2.53.59h0v.29h.42l.42-.42v-3.64l-.42-.42h-.42v.28s-1.14.41-2.53.59v-.11l-.31-.42h-.62l-.1.14-.21.28h0v.18c-.25,0-.71-.03-1.3-.06v-.7l.9.1.09-.84h0l.05-.45-1.06-.12c-.03-.13-.12-.23-.24-.29h0s-.03-.01-.04-.02c-.01,0-.03,0-.04-.01h-.23c-.14,0-.26.07-.34.17-.02.02-.03.04-.04.06l-.67-.07v-.57h.82c.27,0,.49-.22.49-.49v-.82c0-.1-.03-.2-.08-.28-.09-.13-.24-.22-.41-.22h-.48c-.13-.36-.47-.61-.87-.61s-.74.25-.87.61h-.48c-.2,0-.37.12-.45.29-.03.06-.04.13-.04.2v.82c0,.27.22.49.49.49h.82v.45l-7.81-.85v-.53h.82c.07,0,.13-.01.19-.04,0,0,.01,0,.02-.01.02-.01.04-.02.06-.03.01,0,.02-.02.03-.03s.03-.02.04-.03l.02-.02s.03-.03.04-.05h0c.05-.08.08-.17.08-.27h0v-.82h0c0-.1-.03-.19-.08-.27h0s-.03-.03-.04-.05c0,0-.01-.02-.02-.02-.01-.01-.02-.02-.04-.03-.01-.01-.02-.02-.04-.03-.01-.01-.03-.02-.05-.03-.01,0-.02-.01-.04-.02-.06-.02-.12-.04-.19-.04h-.53c-.16-.3-.47-.5-.83-.5s-.67.21-.83.5h-.53c-.27,0-.49.22-.49.49v.82c0,.27.22.49.49.49h.82v.42l-1.66-.18-.05.45h0l-.09.84,1.01.11v.96c-.56.06-1.19.13-1.86.2l-.46.46v3.55l.46.46c.66.07,1.29.14,1.86.2v1.09l-1.01.11h0l.02.15.04.33h0l.09.81,1.66-.18v.39h-.82c-.27,0-.49.22-.49.49v.82c0,.27.22.49.49.49h.5c.14.33.47.56.85.56v-.04Zm9.41-6.03c.21-.02.42-.03.61-.04v.86l-.61.07v-.89Zm0-2.92v-.76l.61.07v.74c-.2-.01-.4-.03-.61-.04h0Zm-1.07-.08c-.17-.01-.33-.03-.5-.04v-.09l-.31-.42h-.62l-.3.41c-.4-.03-.8-.06-1.2-.1h0l-.46-.46c-.29-.03-.58-.06-.85-.09v-.48l4.24.46v.8h0Zm-4.24,3.86c.24-.03.49-.05.74-.08.04,0,.08,0,.11-.01l.46-.46h0c.4-.03.8-.07,1.19-.1v.07l.31.42h.62l.31-.42v-.17c.17-.01.34-.03.5-.04v.92l-4.24.46v-.61.02Z"/>
          <g>
            <polygon class="cls-31" points="52.06 65.76 52.06 63.94 52.06 62.12 51.64 61.71 51.22 61.71 51.22 61.99 51.22 63.94 51.22 65.9 51.22 66.18 51.64 66.18 52.06 65.76"/>
            <polygon class="cls-7" points="52.06 63.17 51.64 62.75 51.22 62.75 51.22 61.71 51.64 61.71 52.06 62.13 52.06 63.17"/>
            <polygon class="cls-38" points="52.06 64.72 51.64 65.14 51.22 65.14 51.22 66.18 51.64 66.18 52.06 65.76 52.06 64.72"/>
            <circle class="cls-31" cx="43.98" cy="69.62" r=".93"/>
            <circle class="cls-31" cx="35.11" cy="70.5" r=".93"/>
            <path class="cls-31" d="m35.11,58.47c-.52,0-.93-.42-.93-.93s.42-.93.93-.93.93.42.93.93-.42.93-.93.93Z"/>
            <path class="cls-31" d="m43.98,59.3c-.52,0-.93-.42-.93-.93s.42-.93.93-.93.93.42.93.93-.42.93-.93.93Z"/>
            <path class="cls-32" d="m36.09,61.27v5.36s-1.89-.21-4.17-.45l-.46-.46v-3.55l.46-.46c2.27-.24,4.17-.45,4.17-.45h0Z"/>
            <path class="cls-30" d="m32.07,62.42l.13-.13c1.37-.14,2.59-.28,3.3-.35v4.03c-.71-.08-1.93-.21-3.3-.35l-.13-.13v-3.07Z"/>
            <rect class="cls-24" x="34.58" y="58" width="1.07" height="12.01"/>
            <rect class="cls-24" x="43.45" y="58.95" width="1.07" height="10.91"/>
            <polygon class="cls-32" points="33.78 68.08 33.78 59.85 39.21 60.58 39.21 67.44 33.78 68.08"/>
            <rect class="cls-7" x="43.45" y="58.95" width=".53" height="10.91"/>
            <rect class="cls-36" x="39.33" y="53.39" width="1.3" height="14.37" transform="translate(-24.57 93.77) rotate(-83.79)"/>
            <rect class="cls-13" x="39.79" y="52.97" width=".46" height="14.37" transform="translate(-24.11 93.44) rotate(-83.8)"/>
            <rect class="cls-36" x="32.8" y="66.79" width="14.37" height="1.3" transform="translate(-7.06 4.72) rotate(-6.21)"/>
            <polygon class="cls-7" points="32.83 68.05 32.78 67.57 47.06 66.02 47.11 66.49 32.83 68.05"/>
            <path class="cls-31" d="m45.13,67.12v-6.34c0-.28.23-.51.51-.51h0c.28,0,.51.23.51.51v6.34c0,.28-.23.51-.51.51h0c-.28,0-.51-.23-.51-.51Z"/>
            <path class="cls-7" d="m45.71,67.63h-.14c-.25,0-.44-.2-.44-.45v-6.48c0-.25.2-.45.44-.45h.14c.07,0,.13.02.19.04-.15.07-.26.22-.26.4v6.48c0,.18.1.33.26.4-.06.03-.12.04-.19.04v.02Z"/>
            <path class="cls-31" d="m47.5,65.23c-.87,0-4.72.3-7.93.56v-3.7c3.21.26,7.06.56,7.93.56,1.88,0,3.72-.66,3.72-.66v3.91s-1.84-.66-3.72-.66h0Z"/>
            <path class="cls-7" d="m47.5,63.38c-.87,0-4.72-.3-7.93-.56v-.73c3.21.26,7.06.56,7.93.56,1.88,0,3.72-.66,3.72-.66v.73s-1.84.66-3.72.66Z"/>
            <path class="cls-7" d="m39.21,65.85v-4.51c-2.18-.23-3.95-.43-3.95-.43h-.23s-.81.62-1.25,1.55v2.25c.43.93,1.25,1.55,1.25,1.55h.23s1.78-.2,3.95-.43v.02Z"/>
            <path class="cls-38" d="m47.5,64.51c-.87,0-4.72.3-7.93.56v.73c3.21-.26,7.06-.56,7.93-.56,1.88,0,3.72.66,3.72.66v-.73s-1.84-.66-3.72-.66Z"/>
            <path class="cls-31" d="m35.89,66.62v-5.36s1.89.21,4.17.45l.46.46v3.55l-.46.46c-2.27.24-4.17.45-4.17.45h0Z"/>
            <path class="cls-7" d="m40.52,63.34l-.46-.46c-2.27-.24-4.17-.45-4.17-.45v-1.17s1.89.21,4.17.45l.46.46v1.17Z"/>
            <path class="cls-38" d="m40.52,64.54l-.46.46c-2.27.24-4.17.45-4.17.45v1.17s1.89-.21,4.17-.45l.46-.46v-1.17Z"/>
            <polygon class="cls-28" points="48.69 65.42 48.69 64.29 48.69 62.47 48.38 62.05 48.07 62.05 47.76 62.05 47.45 62.47 47.45 64.29 47.45 65.42 47.76 65.84 48.07 65.84 48.38 65.84 48.69 65.42"/>
            <polygon class="cls-7" points="47.76 63.38 47.45 63.8 47.45 62.47 47.76 62.05 48.38 62.05 48.69 62.47 48.69 63.8 48.38 63.38 47.76 63.38"/>
            <polygon class="cls-38" points="47.76 64.51 47.45 64.09 47.45 65.42 47.76 65.84 48.38 65.84 48.69 65.42 48.69 64.09 48.38 64.51 47.76 64.51"/>
            <polygon class="cls-28" points="42.95 65.69 42.95 64.1 42.95 62.28 42.64 61.86 42.33 61.86 42.02 61.86 41.71 62.28 41.71 64.1 41.71 65.69 42.02 66.11 42.33 66.11 42.64 66.11 42.95 65.69"/>
            <polygon class="cls-7" points="42.02 63.18 41.71 63.59 41.71 62.28 42.02 61.86 42.64 61.86 42.95 62.28 42.95 63.59 42.64 63.18 42.02 63.18"/>
            <polygon class="cls-38" points="42.02 64.79 41.71 64.37 41.71 65.69 42.02 66.11 42.64 66.11 42.95 65.69 42.95 64.37 42.64 64.79 42.02 64.79"/>
            <path class="cls-28" d="m35.89,63.94v-2.68h-.23s-1.07.82-1.41,1.99c-.18-.18-.43-.28-.7-.28-.56,0-1.01.45-1.01,1.01s.45,1.01,1.01,1.01c.28,0,.54-.12.72-.3.36,1.14,1.39,1.93,1.39,1.93h.23v-2.68Z"/>
            <path class="cls-7" d="m32.62,64.37c-.05-.12-.08-.25-.08-.39,0-.56.45-1.01,1.01-1.01.27,0,.52.11.7.28.34-1.17,1.41-1.99,1.41-1.99h.23v.79h-.23s-1.07.82-1.41,1.99c-.18-.18-.43-.28-.7-.28-.42,0-.78.25-.93.62h0Z"/>
            <path class="cls-31" d="m42.13,69.05h0c0-.5.4-.9.9-.9h1.89c.5,0,.9.4.9.9h0c0,.5-.4.9-.9.9h-1.89c-.5,0-.9-.4-.9-.9Z"/>
            <path class="cls-31" d="m33.26,58.01h0c0-.5.4-.9.9-.9h1.89c.5,0,.9.4.9.9h0c0,.5-.4.9-.9.9h-1.89c-.5,0-.9-.4-.9-.9Z"/>
            <path class="cls-31" d="m33.26,69.98h0c0-.5.4-.9.9-.9h1.89c.5,0,.9.4.9.9h0c0,.5-.4.9-.9.9h-1.89c-.5,0-.9-.4-.9-.9Z"/>
            <path class="cls-7" d="m33.26,58.1v-.5c0-.27.22-.49.49-.49h2.71c.27,0,.49.22.49.49v.5c0-.27-.22-.49-.49-.49h-2.71c-.27,0-.49.22-.49.49Z"/>
            <path class="cls-38" d="m33.26,57.92v.5c0,.27.22.49.49.49h2.71c.27,0,.49-.22.49-.49v-.5c0,.27-.22.49-.49.49h-2.71c-.27,0-.49-.22-.49-.49Z"/>
            <path class="cls-7" d="m42.13,69.14v-.5c0-.27.22-.49.49-.49h2.71c.27,0,.49.22.49.49v.5c0-.27-.22-.49-.49-.49h-2.71c-.27,0-.49.22-.49.49Z"/>
            <path class="cls-7" d="m33.26,70.07v-.5c0-.27.22-.49.49-.49h2.71c.27,0,.49.22.49.49v.5c0-.27-.22-.49-.49-.49h-2.71c-.27,0-.49.22-.49.49Z"/>
            <path class="cls-38" d="m36.96,69.89v.5c0,.27-.22.49-.49.49h-2.71c-.27,0-.49-.22-.49-.49v-.5c0,.27.22.49.49.49h2.71c.27,0,.49-.22.49-.49Z"/>
            <path class="cls-38" d="m45.83,68.96v.5c0,.27-.22.49-.49.49h-2.71c-.27,0-.49-.22-.49-.49v-.5c0,.27.22.49.49.49h2.71c.27,0,.49-.22.49-.49Z"/>
            <g>
              <path class="cls-31" d="m42.13,58.95h0c0-.5.4-.9.9-.9h1.89c.5,0,.9.4.9.9h0c0,.5-.4.9-.9.9h-1.89c-.5,0-.9-.4-.9-.9Z"/>
              <path class="cls-7" d="m42.13,59.04v-.5c0-.27.22-.49.49-.49h2.71c.27,0,.49.22.49.49v.5c0-.27-.22-.49-.49-.49h-2.71c-.27,0-.49.22-.49.49Z"/>
              <path class="cls-38" d="m45.83,58.86v.5c0,.27-.22.49-.49.49h-2.71c-.27,0-.49-.22-.49-.49v-.5c0,.27.22.49.49.49h2.71c.27,0,.49-.22.49-.49Z"/>
            </g>
          </g>
        </g>
        <g>
          <path class="cls-7" d="m26.91,70.52h.5c.27,0,.49-.22.49-.49v-.82c0-.27-.22-.49-.49-.49h-.82v-.39l1.66.18.09-.81h0l.04-.33.02-.15h0l-1.01-.11v-1.09c.56-.06,1.19-.13,1.86-.2l.46-.46v-3.55l-.46-.46c-.66-.07-1.29-.14-1.86-.2v-.96l1.01-.11-.09-.84h0l-.05-.45-1.66.18v-.42h.82c.27,0,.49-.22.49-.49v-.82c0-.27-.22-.49-.49-.49h-.53c-.16-.3-.47-.5-.83-.5s-.67.21-.83.5h-.53c-.07,0-.13.01-.19.04-.01,0-.02.01-.04.02-.02,0-.03.02-.05.03-.01,0-.03.02-.04.03-.01,0-.02.02-.04.03,0,0-.01.02-.02.02-.01.02-.03.03-.04.05h0c-.05.08-.08.17-.08.27h0v.82h0c0,.1.03.19.08.27h0s.03.03.04.05c0,0,.01.02.02.02.01.01.03.02.04.03.01,0,.02.02.03.03.02.01.04.02.06.03,0,0,.01,0,.02.01.06.02.12.04.19.04h.82v.53l-7.81.85v-.45h.82c.27,0,.49-.22.49-.49v-.82c0-.07-.02-.14-.04-.2-.08-.17-.25-.29-.45-.29h-.48c-.13-.36-.47-.61-.87-.61s-.74.25-.87.61h-.48c-.17,0-.32.09-.41.22-.05.08-.08.17-.08.28v.82c0,.27.22.49.49.49h.82v.57l-.67.07s-.03-.04-.04-.06c-.08-.1-.2-.17-.34-.17h-.23s-.03,0-.04.01c0,0-.03,0-.04.02h0c-.12.06-.21.16-.24.29l-1.06.12.05.45h0l.09.84.9-.1v.7c-.59.04-1.04.06-1.3.06v-.18h0l-.21-.28-.1-.14h-.62l-.31.42v.11c-1.39-.18-2.52-.58-2.53-.59v-.28h-.42l-.42.42v3.64l.42.42h.42v-.29h0s1.14-.41,2.53-.59v.11l.31.42h.62l.31-.42h0v-.18c.25,0,.71.02,1.3.06v.82l-.9-.1h0l-.04.37v.11h0l-.09.81,1.11.12c.05.07.11.12.19.16h0s.03.01.04.01.03.01.04.01h.23c.11,0,.22-.04.3-.11l.76.08v.55h-.82c-.07,0-.13.01-.19.04,0,0-.02.01-.04.02-.02,0-.03.02-.05.03,0,0-.02.02-.03.03s-.03.02-.04.03c0,0,0,.01-.02.02-.02.02-.03.03-.04.05h0c-.05.08-.08.17-.08.27h0v.32h0v.5c0,.27.22.49.49.49h.49c.13.35.47.6.87.6s.74-.25.87-.6h.49c.27,0,.49-.22.49-.49v-.32h0v-.5c0-.27-.22-.49-.49-.49h-.82v-.43l7.81.85v.51h-.82c-.07,0-.13.01-.19.04-.01,0-.03.01-.04.02-.01,0-.03.01-.04.02-.01,0-.02.02-.03.03s-.03.02-.04.03l-.02.02s-.03.03-.04.05h0c-.05.08-.08.17-.08.27h0v.82h0c0,.1.03.19.08.26h0s.02.04.04.05c0,0,.02.02.02.03s.02.02.03.03.03.02.04.04c.01,0,.03.01.04.02.02,0,.03.02.05.02.06.02.12.04.19.04h.5c.15.33.47.56.85.56s.71-.23.85-.56v.04Zm-10.26-4.59l-.61-.07v-.86c.2.01.4.03.61.04v.89Zm-.61-3.77v-.74l.61-.07v.76c-.21.02-.42.03-.61.04h0Zm1.68-.92l4.24-.46v.48c-.28.03-.56.06-.85.09l-.46.46h0c-.4.03-.8.07-1.2.1l-.3-.41h-.62l-.31.42v.09c-.17.01-.34.03-.5.04v-.8h0Zm4.24,5.27l-4.24-.46v-.92c.17.01.33.03.5.04v.17l.31.42h.62l.31-.42v-.07c.4.03.8.06,1.19.1h0l.46.46s.08,0,.11.01c.25.03.5.05.74.08v.61-.02Z"/>
          <g>
            <polygon class="cls-31" points="8.7 65.76 8.7 63.94 8.7 62.12 9.12 61.71 9.54 61.71 9.54 61.99 9.54 63.94 9.54 65.9 9.54 66.18 9.12 66.18 8.7 65.76"/>
            <polygon class="cls-7" points="8.7 63.17 9.12 62.75 9.54 62.75 9.54 61.71 9.12 61.71 8.7 62.13 8.7 63.17"/>
            <polygon class="cls-38" points="8.7 64.72 9.12 65.14 9.54 65.14 9.54 66.18 9.12 66.18 8.7 65.76 8.7 64.72"/>
            <circle class="cls-31" cx="16.78" cy="69.62" r=".93"/>
            <circle class="cls-31" cx="25.65" cy="70.5" r=".93"/>
            <circle class="cls-31" cx="25.65" cy="57.54" r=".93"/>
            <path class="cls-31" d="m16.78,59.3c.52,0,.93-.42.93-.93s-.42-.93-.93-.93-.93.42-.93.93.42.93.93.93Z"/>
            <path class="cls-32" d="m24.67,61.27v5.36s1.89-.21,4.17-.45l.46-.46v-3.55l-.46-.46c-2.27-.24-4.17-.45-4.17-.45h0Z"/>
            <path class="cls-30" d="m28.7,62.42l-.13-.13c-1.37-.14-2.59-.28-3.3-.35v4.03c.71-.08,1.93-.21,3.3-.35l.13-.13v-3.07Z"/>
            <rect class="cls-24" x="25.12" y="58" width="1.07" height="12.01"/>
            <rect class="cls-24" x="16.24" y="58.94" width="1.07" height="10.91"/>
            <polygon class="cls-32" points="26.98 68.08 26.98 59.85 21.56 60.58 21.56 67.44 26.98 68.08"/>
            <rect class="cls-7" x="16.78" y="58.95" width=".53" height="10.91"/>
            <rect class="cls-36" x="13.59" y="59.93" width="14.37" height="1.3" transform="translate(-6.43 2.6) rotate(-6.21)"/>
            <rect class="cls-12" x="13.54" y="59.93" width="14.37" height=".46" transform="translate(-6.38 2.59) rotate(-6.2)"/>
            <rect class="cls-36" x="20.12" y="60.25" width="1.3" height="14.37" transform="translate(-48.51 80.79) rotate(-83.79)"/>
            <polygon class="cls-7" points="27.93 68.05 27.99 67.57 13.71 66.02 13.65 66.49 27.93 68.05"/>
            <path class="cls-31" d="m15.63,67.12v-6.34c0-.28-.23-.51-.51-.51h0c-.28,0-.51.23-.51.51v6.34c0,.28.23.51.51.51h0c.28,0,.51-.23.51-.51Z"/>
            <path class="cls-7" d="m15.05,67.63h.14c.25,0,.44-.2.44-.45v-6.48c0-.25-.2-.45-.44-.45h-.14c-.07,0-.13.02-.19.04.15.07.26.22.26.4v6.48c0,.18-.11.33-.26.4.06.03.12.04.19.04v.02Z"/>
            <path class="cls-31" d="m13.26,65.23c.87,0,4.72.3,7.93.56v-3.7c-3.21.26-7.06.56-7.93.56-1.88,0-3.72-.66-3.72-.66v3.91s1.84-.66,3.72-.66h0Z"/>
            <path class="cls-7" d="m13.26,63.38c.87,0,4.72-.3,7.93-.56v-.73c-3.21.26-7.06.56-7.93.56-1.88,0-3.72-.66-3.72-.66v.73s1.84.66,3.72.66Z"/>
            <path class="cls-7" d="m21.56,65.85v-4.51c2.18-.23,3.95-.43,3.95-.43h.23s.81.62,1.25,1.55v2.25c-.43.93-1.25,1.55-1.25,1.55h-.23s-1.78-.2-3.95-.43v.02Z"/>
            <path class="cls-38" d="m13.26,64.51c.87,0,4.72.3,7.93.56v.73c-3.21-.26-7.06-.56-7.93-.56-1.88,0-3.72.66-3.72.66v-.73s1.84-.66,3.72-.66Z"/>
            <path class="cls-31" d="m24.87,66.62v-5.36s-1.89.21-4.17.45l-.46.46v3.55l.46.46c2.27.24,4.17.45,4.17.45h0Z"/>
            <path class="cls-7" d="m20.25,63.34l.46-.46c2.27-.24,4.17-.45,4.17-.45v-1.17s-1.89.21-4.17.45l-.46.46s0,1.17,0,1.17Z"/>
            <path class="cls-38" d="m20.25,64.54l.46.46c2.27.24,4.17.45,4.17.45v1.17s-1.89-.21-4.17-.45l-.46-.46s0-1.17,0-1.17Z"/>
            <polygon class="cls-28" points="12.07 65.42 12.07 64.29 12.07 62.47 12.38 62.05 12.69 62.05 13 62.05 13.31 62.47 13.31 64.29 13.31 65.42 13 65.84 12.69 65.84 12.38 65.84 12.07 65.42"/>
            <polygon class="cls-7" points="13 63.38 13.31 63.8 13.31 62.47 13 62.05 12.38 62.05 12.07 62.47 12.07 63.8 12.38 63.38 13 63.38"/>
            <polygon class="cls-38" points="13 64.51 13.31 64.09 13.31 65.42 13 65.84 12.38 65.84 12.07 65.42 12.07 64.09 12.38 64.51 13 64.51"/>
            <polygon class="cls-28" points="17.81 65.69 17.81 64.1 17.81 62.28 18.12 61.86 18.43 61.86 18.74 61.86 19.05 62.28 19.05 64.1 19.05 65.69 18.74 66.11 18.43 66.11 18.12 66.11 17.81 65.69"/>
            <polygon class="cls-7" points="18.74 63.18 19.05 63.59 19.05 62.28 18.74 61.86 18.12 61.86 17.81 62.28 17.81 63.59 18.12 63.18 18.74 63.18"/>
            <polygon class="cls-38" points="18.74 64.79 19.05 64.37 19.05 65.69 18.74 66.11 18.12 66.11 17.81 65.69 17.81 64.37 18.12 64.79 18.74 64.79"/>
            <path class="cls-28" d="m24.87,63.94v-2.68h.23s1.07.82,1.41,1.99c.18-.18.43-.28.7-.28.56,0,1.01.45,1.01,1.01s-.45,1.01-1.01,1.01c-.28,0-.54-.12-.72-.3-.36,1.14-1.39,1.93-1.39,1.93h-.23v-2.68Z"/>
            <path class="cls-7" d="m28.14,64.37c.05-.12.08-.25.08-.39,0-.56-.45-1.01-1.01-1.01-.27,0-.52.11-.7.28-.34-1.17-1.41-1.99-1.41-1.99h-.23v.79h.23s1.07.82,1.41,1.99c.18-.18.43-.28.7-.28.42,0,.78.25.93.62h0Z"/>
            <path class="cls-31" d="m18.63,69.05h0c0-.5-.4-.9-.9-.9h-1.89c-.5,0-.9.4-.9.9h0c0,.5.4.9.9.9h1.89c.5,0,.9-.4.9-.9Z"/>
            <path class="cls-31" d="m27.5,58.01h0c0-.5-.4-.9-.9-.9h-1.89c-.5,0-.9.4-.9.9h0c0,.5.4.9.9.9h1.89c.5,0,.9-.4.9-.9Z"/>
            <path class="cls-31" d="m27.5,69.98h0c0-.5-.4-.9-.9-.9h-1.89c-.5,0-.9.4-.9.9h0c0,.5.4.9.9.9h1.89c.5,0,.9-.4.9-.9Z"/>
            <path class="cls-7" d="m27.5,58.1v-.5c0-.27-.22-.49-.49-.49h-2.71c-.27,0-.49.22-.49.49v.5c0-.27.22-.49.49-.49h2.71c.27,0,.49.22.49.49Z"/>
            <path class="cls-38" d="m27.5,57.92v.5c0,.27-.22.49-.49.49h-2.71c-.27,0-.49-.22-.49-.49v-.5c0,.27.22.49.49.49h2.71c.27,0,.49-.22.49-.49Z"/>
            <path class="cls-7" d="m18.63,69.14v-.5c0-.27-.22-.49-.49-.49h-2.71c-.27,0-.49.22-.49.49v.5c0-.27.22-.49.49-.49h2.71c.27,0,.49.22.49.49Z"/>
            <path class="cls-7" d="m27.5,70.07v-.5c0-.27-.22-.49-.49-.49h-2.71c-.27,0-.49.22-.49.49v.5c0-.27.22-.49.49-.49h2.71c.27,0,.49.22.49.49Z"/>
            <path class="cls-38" d="m23.8,69.89v.5c0,.27.22.49.49.49h2.71c.27,0,.49-.22.49-.49v-.5c0,.27-.22.49-.49.49h-2.71c-.27,0-.49-.22-.49-.49Z"/>
            <path class="cls-38" d="m14.93,68.96v.5c0,.27.22.49.49.49h2.71c.27,0,.49-.22.49-.49v-.5c0,.27-.22.49-.49.49h-2.71c-.27,0-.49-.22-.49-.49Z"/>
            <g>
              <path class="cls-31" d="m18.63,58.95h0c0-.5-.4-.9-.9-.9h-1.89c-.5,0-.9.4-.9.9h0c0,.5.4.9.9.9h1.89c.5,0,.9-.4.9-.9Z"/>
              <path class="cls-7" d="m18.63,59.04v-.5c0-.27-.22-.49-.49-.49h-2.71c-.27,0-.49.22-.49.49v.5c0-.27.22-.49.49-.49h2.71c.27,0,.49.22.49.49Z"/>
              <path class="cls-38" d="m14.93,58.86v.5c0,.27.22.49.49.49h2.71c.27,0,.49-.22.49-.49v-.5c0,.27-.22.49-.49.49h-2.71c-.27,0-.49-.22-.49-.49Z"/>
            </g>
          </g>
        </g>
      </g>
      <g>
        <g>
          <path class="cls-7" d="m34.49,103.04c.38,0,.71-.23.85-.56h.5c.07,0,.13-.01.19-.04.02,0,.03-.02.05-.02.01,0,.03-.01.04-.02.02-.01.03-.02.04-.04.01,0,.02-.02.03-.03,0,0,.02-.02.02-.03l.04-.04h0c.05-.09.08-.18.08-.27h0v-.82h0c0-.1-.03-.19-.08-.27h0s-.03-.03-.04-.05c0,0-.01-.02-.02-.02-.01-.01-.03-.02-.04-.03-.01,0-.02-.02-.03-.03-.01,0-.03-.02-.04-.02s-.03-.02-.04-.02c-.06-.03-.12-.04-.19-.04h-.82v-.51l7.81-.85v.43h-.82c-.27,0-.49.22-.49.49v.5h0v.32c0,.27.22.49.49.49h.49c.13.35.47.6.87.6s.74-.25.87-.6h.49c.27,0,.49-.22.49-.49v-.5h0v-.32h0c0-.1-.03-.19-.08-.27h0s-.03-.04-.04-.05l-.02-.02s-.03-.02-.04-.03c-.01,0-.02-.02-.03-.03-.01,0-.03-.02-.05-.03-.01,0-.02-.01-.04-.02-.06-.02-.12-.04-.19-.04h-.82v-.55l.76-.08c.08.07.18.11.3.11h.23s.03,0,.04-.01c.01,0,.03,0,.04-.01h0c.08-.04.14-.09.19-.16l1.11-.12-.09-.81h0v-.11l-.05-.37h0l-.9.1v-.82c.59-.04,1.04-.06,1.3-.06v.18h0l.31.42h.62l.31-.42v-.11c1.39.18,2.52.58,2.53.59h0v.29h.42l.42-.42v-3.64l-.42-.42h-.42v.28s-1.14.41-2.53.59v-.11l-.31-.42h-.62l-.1.14-.21.28h0v.18c-.25,0-.71-.02-1.3-.06v-.7l.9.1.09-.84h0l.05-.45-1.06-.12c-.03-.13-.12-.23-.24-.29h0s-.03-.01-.04-.01-.03,0-.04-.01h-.23c-.14,0-.26.07-.34.17-.02.02-.03.04-.04.06l-.67-.07v-.57h.82c.27,0,.49-.22.49-.49v-.82c0-.1-.03-.2-.08-.28-.09-.13-.24-.22-.41-.22h-.48c-.13-.36-.47-.61-.87-.61s-.74.25-.87.61h-.48c-.2,0-.37.12-.45.29-.03.06-.04.13-.04.2v.82c0,.27.22.49.49.49h.82v.45l-7.81-.85v-.53h.82c.07,0,.13-.01.19-.04,0,0,.01,0,.02-.01.02-.01.04-.02.06-.03.01,0,.02-.02.03-.03s.03-.02.04-.03l.02-.02s.03-.03.04-.05h0c.05-.08.08-.17.08-.27h0v-.82h0c0-.1-.03-.19-.08-.27h0s-.03-.03-.04-.05c0,0-.01-.02-.02-.02-.01-.01-.02-.02-.04-.03-.01-.01-.02-.02-.04-.03-.01-.01-.03-.02-.05-.03-.01,0-.02-.01-.04-.02-.06-.02-.12-.04-.19-.04h-.53c-.16-.3-.47-.5-.83-.5s-.67.21-.83.5h-.53c-.27,0-.49.22-.49.49v.82c0,.27.22.49.49.49h.82v.42l-1.66-.18-.05.45h0l-.09.84,1.01.11v.96c-.56.06-1.19.13-1.86.2l-.46.46v3.55l.46.46c.66.07,1.29.14,1.86.2v1.09l-1.01.11h0l.02.15.04.33h0l.09.81,1.66-.18v.39h-.82c-.27,0-.49.22-.49.49v.82c0,.27.22.49.49.49h.5c.14.33.47.56.85.56v-.05Zm9.41-6.03c.21-.02.42-.03.61-.04v.86l-.61.07v-.89Zm0-2.92v-.76l.61.07v.74c-.2-.01-.4-.03-.61-.04h0Zm-1.07-.08c-.17-.01-.33-.03-.5-.04v-.09l-.31-.42h-.62l-.3.41c-.4-.03-.8-.06-1.2-.1h0l-.46-.46c-.29-.03-.58-.06-.85-.09v-.48l4.24.46v.8h0Zm-4.24,3.86c.24-.03.49-.05.74-.08.04,0,.08,0,.11-.01l.46-.46h0c.4-.03.8-.07,1.19-.1v.07l.31.42h.62l.31-.42v-.16c.17-.01.34-.03.5-.04v.92l-4.24.46v-.61h0Z"/>
          <g>
            <polygon class="cls-31" points="51.85 97.73 51.85 95.91 51.85 94.09 51.43 93.67 51.01 93.67 51.01 93.96 51.01 95.91 51.01 97.86 51.01 98.15 51.43 98.15 51.85 97.73"/>
            <polygon class="cls-7" points="51.85 95.14 51.43 94.72 51.01 94.72 51.01 93.67 51.43 93.67 51.85 94.09 51.85 95.14"/>
            <polygon class="cls-38" points="51.85 96.68 51.43 97.1 51.01 97.1 51.01 98.15 51.43 98.15 51.85 97.73 51.85 96.68"/>
            <circle class="cls-31" cx="43.77" cy="101.59" r=".93"/>
            <circle class="cls-31" cx="34.9" cy="102.47" r=".93"/>
            <path class="cls-31" d="m34.9,90.43c-.52,0-.93-.42-.93-.93s.42-.93.93-.93.93.42.93.93-.42.93-.93.93Z"/>
            <circle class="cls-31" cx="43.77" cy="90.33" r=".93"/>
            <path class="cls-32" d="m35.88,93.23v5.36s-1.89-.21-4.17-.45l-.46-.46v-3.55l.46-.46c2.27-.24,4.17-.45,4.17-.45h0Z"/>
            <path class="cls-30" d="m31.85,94.38l.13-.13c1.37-.14,2.59-.28,3.3-.35v4.03c-.71-.08-1.93-.21-3.3-.35l-.13-.13v-3.07Z"/>
            <rect class="cls-24" x="34.36" y="89.96" width="1.07" height="12.01"/>
            <rect class="cls-24" x="43.24" y="90.91" width="1.07" height="10.91"/>
            <polygon class="cls-32" points="33.57 100.05 33.57 91.82 38.99 92.54 38.99 99.4 33.57 100.05"/>
            <rect class="cls-7" x="43.24" y="90.91" width=".53" height="10.91"/>
            <rect class="cls-36" x="39.11" y="85.35" width="1.3" height="14.37" transform="translate(-56.54 122.06) rotate(-83.79)"/>
            <rect class="cls-13" x="39.59" y="84.93" width=".46" height="14.37" transform="translate(-56.06 121.75) rotate(-83.8)"/>
            <rect class="cls-36" x="32.59" y="98.76" width="14.37" height="1.3" transform="translate(-10.52 4.89) rotate(-6.21)"/>
            <polygon class="cls-7" points="32.61 100.01 32.56 99.53 46.84 97.98 46.9 98.46 32.61 100.01"/>
            <path class="cls-31" d="m44.92,99.08v-6.34c0-.28.23-.51.51-.51h0c.28,0,.51.23.51.51v6.34c0,.28-.23.51-.51.51h0c-.28,0-.51-.23-.51-.51Z"/>
            <path class="cls-7" d="m45.5,99.59h-.14c-.25,0-.44-.2-.44-.44v-6.48c0-.25.2-.44.44-.44h.14c.07,0,.13.02.19.04-.15.07-.26.22-.26.4v6.48c0,.18.1.33.26.4-.06.03-.12.04-.19.04Z"/>
            <path class="cls-31" d="m47.29,97.2c-.87,0-4.72.3-7.93.56v-3.7c3.21.26,7.06.56,7.93.56,1.88,0,3.72-.66,3.72-.66v3.91s-1.84-.66-3.72-.66h0Z"/>
            <path class="cls-7" d="m47.29,95.35c-.87,0-4.72-.3-7.93-.56v-.73c3.21.26,7.06.56,7.93.56,1.88,0,3.72-.66,3.72-.66v.73s-1.84.66-3.72.66Z"/>
            <path class="cls-7" d="m38.99,97.81v-4.51c-2.18-.23-3.95-.43-3.95-.43h-.23s-.81.62-1.25,1.55v2.25c.43.93,1.25,1.55,1.25,1.55h.23s1.78-.2,3.95-.43v.02Z"/>
            <path class="cls-38" d="m47.29,96.47c-.87,0-4.72.3-7.93.56v.73c3.21-.26,7.06-.56,7.93-.56,1.88,0,3.72.66,3.72.66v-.73s-1.84-.66-3.72-.66Z"/>
            <path class="cls-31" d="m35.68,98.59v-5.36s1.89.21,4.17.45l.46.46v3.55l-.46.46c-2.27.24-4.17.45-4.17.45h0Z"/>
            <path class="cls-7" d="m40.3,95.31l-.46-.46c-2.27-.24-4.17-.45-4.17-.45v-1.17s1.89.21,4.17.45l.46.46v1.17Z"/>
            <path class="cls-38" d="m40.3,96.51l-.46.46c-2.27.24-4.17.45-4.17.45v1.17s1.89-.21,4.17-.45l.46-.46v-1.17Z"/>
            <polygon class="cls-28" points="48.48 97.38 48.48 96.26 48.48 94.44 48.17 94.02 47.86 94.02 47.55 94.02 47.24 94.44 47.24 96.26 47.24 97.38 47.55 97.8 47.86 97.8 48.17 97.8 48.48 97.38"/>
            <polygon class="cls-7" points="47.55 95.35 47.24 95.76 47.24 94.43 47.55 94.02 48.17 94.02 48.48 94.43 48.48 95.76 48.17 95.35 47.55 95.35"/>
            <polygon class="cls-38" points="47.55 96.47 47.24 96.05 47.24 97.38 47.55 97.8 48.17 97.8 48.48 97.38 48.48 96.05 48.17 96.47 47.55 96.47"/>
            <polygon class="cls-28" points="42.73 97.65 42.73 96.06 42.73 94.24 42.43 93.82 42.11 93.82 41.8 93.82 41.5 94.24 41.5 96.06 41.5 97.65 41.8 98.07 42.11 98.07 42.43 98.07 42.73 97.65"/>
            <polygon class="cls-7" points="41.8 95.14 41.5 95.56 41.5 94.24 41.8 93.82 42.43 93.82 42.73 94.24 42.73 95.56 42.43 95.14 41.8 95.14"/>
            <polygon class="cls-38" points="41.8 96.75 41.5 96.34 41.5 97.65 41.8 98.07 42.43 98.07 42.73 97.65 42.73 96.34 42.43 96.75 41.8 96.75"/>
            <path class="cls-28" d="m35.68,95.91v-2.68h-.23s-1.07.82-1.41,1.99c-.18-.18-.43-.28-.7-.28-.56,0-1.01.45-1.01,1.01s.45,1.01,1.01,1.01c.28,0,.54-.12.72-.3.36,1.14,1.39,1.93,1.39,1.93h.23v-2.68Z"/>
            <path class="cls-7" d="m32.41,96.34c-.05-.12-.08-.25-.08-.39,0-.56.45-1.01,1.01-1.01.27,0,.52.11.7.28.34-1.17,1.41-1.99,1.41-1.99h.23v.79h-.23s-1.07.82-1.41,1.99c-.18-.18-.43-.28-.7-.28-.42,0-.78.25-.93.62h0Z"/>
            <path class="cls-31" d="m41.92,101.02h0c0-.5.4-.9.9-.9h1.89c.5,0,.9.4.9.9h0c0,.5-.4.9-.9.9h-1.89c-.5,0-.9-.4-.9-.9Z"/>
            <path class="cls-31" d="m33.04,89.98h0c0-.5.4-.9.9-.9h1.89c.5,0,.9.4.9.9h0c0,.5-.4.9-.9.9h-1.89c-.5,0-.9-.4-.9-.9Z"/>
            <path class="cls-31" d="m33.04,101.94h0c0-.5.4-.9.9-.9h1.89c.5,0,.9.4.9.9h0c0,.5-.4.9-.9.9h-1.89c-.5,0-.9-.4-.9-.9Z"/>
            <path class="cls-7" d="m33.04,90.07v-.5c0-.27.22-.49.49-.49h2.71c.27,0,.49.22.49.49v.5c0-.27-.22-.49-.49-.49h-2.71c-.27,0-.49.22-.49.49Z"/>
            <path class="cls-38" d="m33.04,89.89v.5c0,.27.22.49.49.49h2.71c.27,0,.49-.22.49-.49v-.5c0,.27-.22.49-.49.49h-2.71c-.27,0-.49-.22-.49-.49Z"/>
            <path class="cls-7" d="m41.92,101.11v-.5c0-.27.22-.49.49-.49h2.71c.27,0,.49.22.49.49v.5c0-.27-.22-.49-.49-.49h-2.71c-.27,0-.49.22-.49.49Z"/>
            <path class="cls-7" d="m33.04,102.03v-.5c0-.27.22-.49.49-.49h2.71c.27,0,.49.22.49.49v.5c0-.27-.22-.49-.49-.49h-2.71c-.27,0-.49.22-.49.49Z"/>
            <path class="cls-38" d="m36.75,101.85v.5c0,.27-.22.49-.49.49h-2.71c-.27,0-.49-.22-.49-.49v-.5c0,.27.22.49.49.49h2.71c.27,0,.49-.22.49-.49Z"/>
            <path class="cls-38" d="m45.62,100.93v.5c0,.27-.22.49-.49.49h-2.71c-.27,0-.49-.22-.49-.49v-.5c0,.27.22.49.49.49h2.71c.27,0,.49-.22.49-.49Z"/>
            <g>
              <path class="cls-31" d="m41.92,90.91h0c0-.5.4-.9.9-.9h1.89c.5,0,.9.4.9.9h0c0,.5-.4.9-.9.9h-1.89c-.5,0-.9-.4-.9-.9Z"/>
              <path class="cls-7" d="m41.92,91v-.5c0-.27.22-.49.49-.49h2.71c.27,0,.49.22.49.49v.5c0-.27-.22-.49-.49-.49h-2.71c-.27,0-.49.22-.49.49Z"/>
              <path class="cls-38" d="m45.62,90.82v.5c0,.27-.22.49-.49.49h-2.71c-.27,0-.49-.22-.49-.49v-.5c0,.27.22.49.49.49h2.71c.27,0,.49-.22.49-.49Z"/>
            </g>
          </g>
        </g>
        <g>
          <path class="cls-7" d="m27.42,102.48h.5c.27,0,.49-.22.49-.49v-.82c0-.27-.22-.49-.49-.49h-.82v-.39l1.66.18.09-.81h0l.04-.33.02-.15h0l-1.01-.11v-1.09c.56-.06,1.19-.13,1.86-.2l.46-.46v-3.55l-.46-.46c-.66-.07-1.29-.14-1.86-.2v-.96l1.01-.11-.09-.84h0l-.05-.45-1.66.18v-.42h.82c.27,0,.49-.22.49-.49v-.82c0-.27-.22-.49-.49-.49h-.53c-.16-.3-.47-.5-.83-.5s-.67.21-.83.5h-.53c-.07,0-.13.01-.19.04-.01,0-.02.01-.04.02-.02,0-.03.02-.05.03-.01,0-.03.02-.04.03-.01,0-.02.02-.04.03,0,0-.01.02-.02.02-.01.02-.03.03-.04.05h0c-.05.08-.08.17-.08.27h0v.82h0c0,.1.03.19.08.27h0s.03.03.04.05c0,0,.01.02.02.02.01.01.03.02.04.03.01,0,.02.02.03.03.02.01.04.02.06.03,0,0,.01,0,.02.01.06.03.12.04.19.04h.82v.53l-7.81.85v-.45h.82c.27,0,.49-.22.49-.49v-.82c0-.07-.02-.14-.04-.2-.08-.17-.25-.29-.45-.29h-.48c-.13-.36-.47-.61-.87-.61s-.74.25-.87.61h-.48c-.17,0-.32.09-.41.22-.05.08-.08.17-.08.28v.82c0,.27.22.49.49.49h.82v.57l-.67.07s-.03-.04-.04-.06c-.08-.1-.2-.17-.34-.17h-.23s-.03,0-.04.01c0,0-.03,0-.04.01h0c-.12.06-.21.16-.24.29l-1.06.12.05.45h0l.09.84.9-.1v.7c-.59.04-1.04.06-1.3.06v-.18h0l-.21-.28-.1-.14h-.62l-.31.42v.11c-1.39-.18-2.52-.58-2.53-.59v-.28h-.42l-.42.42v3.64l.42.42h.42v-.29h0s1.14-.41,2.53-.59v.11l.31.42h.62l.31-.42h0v-.18c.25,0,.71.02,1.3.06v.82l-.9-.1h0l-.04.37v.11h0l-.09.81,1.11.12c.05.07.11.12.19.16h0s.03.01.04.01.03.01.04.01h.23c.11,0,.22-.04.3-.11l.76.08v.55h-.82c-.07,0-.13.01-.19.04,0,0-.02.01-.04.02-.02,0-.03.02-.05.03,0,0-.02.02-.03.03s-.03.02-.04.03c0,0,0,.01-.02.02-.02.02-.03.03-.04.05h0c-.05.08-.08.17-.08.27h0v.32h0v.5c0,.27.22.49.49.49h.49c.13.35.47.6.87.6s.74-.25.87-.6h.49c.27,0,.49-.22.49-.49v-.32h0v-.5c0-.27-.22-.49-.49-.49h-.82v-.43l7.81.85v.51h-.82c-.07,0-.13.01-.19.04-.01,0-.03.01-.04.02-.01,0-.03.01-.04.02-.01,0-.02.02-.03.03s-.03.02-.04.03l-.02.02s-.03.03-.04.05h0c-.05.08-.08.17-.08.27h0v.82h0c0,.1.03.19.08.26h0s.02.04.04.05c0,0,.02.02.02.03l.03.03s.03.02.04.04c.01,0,.03.01.04.02.02,0,.03.02.05.02.06.02.12.04.19.04h.5c.15.33.47.56.85.56s.71-.23.85-.56v.05Zm-10.26-4.59l-.61-.07v-.86c.2.01.4.03.61.04v.89Zm-.61-3.77v-.74l.61-.07v.76c-.21.02-.42.03-.61.04h0Zm1.68-.92l4.24-.46v.48c-.28.03-.56.06-.85.09l-.46.46h0c-.4.03-.8.07-1.2.1l-.3-.41h-.62l-.31.42v.09c-.17.01-.34.03-.5.04v-.8h0Zm4.24,5.27l-4.24-.46v-.92c.17.01.33.03.5.04v.16l.31.42h.62l.31-.42v-.07c.4.03.8.06,1.19.1h0l.46.46s.08,0,.11.01c.25.03.5.05.74.08v.61h0Z"/>
          <g>
            <polygon class="cls-31" points="9.21 97.73 9.21 95.91 9.21 94.09 9.63 93.67 10.05 93.67 10.05 93.96 10.05 95.91 10.05 97.86 10.05 98.15 9.63 98.15 9.21 97.73"/>
            <polygon class="cls-7" points="9.21 95.14 9.63 94.72 10.05 94.72 10.05 93.67 9.63 93.67 9.21 94.09 9.21 95.14"/>
            <polygon class="cls-38" points="9.21 96.68 9.63 97.1 10.05 97.1 10.05 98.15 9.63 98.15 9.21 97.73 9.21 96.68"/>
            <circle class="cls-31" cx="17.29" cy="101.59" r=".93"/>
            <circle class="cls-31" cx="26.16" cy="102.47" r=".93"/>
            <path class="cls-31" d="m26.16,90.43c.52,0,.93-.42.93-.93s-.42-.93-.93-.93-.93.42-.93.93.42.93.93.93Z"/>
            <circle class="cls-31" cx="17.29" cy="90.33" r=".93"/>
            <path class="cls-32" d="m25.18,93.23v5.36s1.89-.21,4.17-.45l.46-.46v-3.55l-.46-.46c-2.27-.24-4.17-.45-4.17-.45h0Z"/>
            <path class="cls-30" d="m29.21,94.38l-.13-.13c-1.37-.14-2.59-.28-3.3-.35v4.03c.71-.08,1.93-.21,3.3-.35l.13-.13v-3.07Z"/>
            <rect class="cls-24" x="25.62" y="89.97" width="1.07" height="12.01"/>
            <rect class="cls-24" x="16.76" y="90.91" width="1.07" height="10.91"/>
            <polygon class="cls-32" points="27.49 100.05 27.49 91.82 22.07 92.54 22.07 99.4 27.49 100.05"/>
            <rect class="cls-7" x="17.29" y="90.91" width=".53" height="10.91"/>
            <rect class="cls-36" x="14.1" y="91.9" width="14.37" height="1.3" transform="translate(-9.89 2.85) rotate(-6.21)"/>
            <rect class="cls-12" x="14.05" y="91.89" width="14.37" height=".46" transform="translate(-9.82 2.83) rotate(-6.2)"/>
            <rect class="cls-36" x="20.64" y="92.23" width="1.3" height="14.37" transform="translate(-79.84 109.83) rotate(-83.79)"/>
            <polygon class="cls-7" points="28.45 100.01 28.5 99.53 14.22 97.98 14.17 98.46 28.45 100.01"/>
            <path class="cls-31" d="m16.14,99.08v-6.34c0-.28-.23-.51-.51-.51h0c-.28,0-.51.23-.51.51v6.34c0,.28.23.51.51.51h0c.28,0,.51-.23.51-.51Z"/>
            <path class="cls-7" d="m15.56,99.59h.14c.25,0,.44-.2.44-.44v-6.48c0-.25-.2-.44-.44-.44h-.14c-.07,0-.13.02-.19.04.15.07.26.22.26.4v6.48c0,.18-.11.33-.26.4.06.03.12.04.19.04Z"/>
            <path class="cls-31" d="m13.78,97.2c.87,0,4.72.3,7.93.56v-3.7c-3.21.26-7.06.56-7.93.56-1.88,0-3.72-.66-3.72-.66v3.91s1.84-.66,3.72-.66h0Z"/>
            <path class="cls-7" d="m13.78,95.35c.87,0,4.72-.3,7.93-.56v-.73c-3.21.26-7.06.56-7.93.56-1.88,0-3.72-.66-3.72-.66v.73s1.84.66,3.72.66Z"/>
            <path class="cls-7" d="m22.07,97.81v-4.51c2.18-.23,3.95-.43,3.95-.43h.23s.81.62,1.25,1.55v2.25c-.43.93-1.25,1.55-1.25,1.55h-.23s-1.78-.2-3.95-.43v.02Z"/>
            <path class="cls-38" d="m13.78,96.47c.87,0,4.72.3,7.93.56v.73c-3.21-.26-7.06-.56-7.93-.56-1.88,0-3.72.66-3.72.66v-.73s1.84-.66,3.72-.66Z"/>
            <path class="cls-31" d="m25.38,98.59v-5.36s-1.89.21-4.17.45l-.46.46v3.55l.46.46c2.27.24,4.17.45,4.17.45h0Z"/>
            <path class="cls-7" d="m20.76,95.31l.46-.46c2.27-.24,4.17-.45,4.17-.45v-1.17s-1.89.21-4.17.45l-.46.46v1.17Z"/>
            <path class="cls-38" d="m20.76,96.51l.46.46c2.27.24,4.17.45,4.17.45v1.17s-1.89-.21-4.17-.45l-.46-.46v-1.17Z"/>
            <polygon class="cls-28" points="12.58 97.38 12.58 96.26 12.58 94.44 12.89 94.02 13.2 94.02 13.51 94.02 13.82 94.44 13.82 96.26 13.82 97.38 13.51 97.8 13.2 97.8 12.89 97.8 12.58 97.38"/>
            <polygon class="cls-7" points="13.51 95.35 13.82 95.76 13.82 94.43 13.51 94.02 12.89 94.02 12.58 94.43 12.58 95.76 12.89 95.35 13.51 95.35"/>
            <polygon class="cls-38" points="13.51 96.47 13.82 96.05 13.82 97.38 13.51 97.8 12.89 97.8 12.58 97.38 12.58 96.05 12.89 96.47 13.51 96.47"/>
            <polygon class="cls-28" points="18.33 97.65 18.33 96.06 18.33 94.24 18.64 93.82 18.95 93.82 19.26 93.82 19.57 94.24 19.57 96.06 19.57 97.65 19.26 98.07 18.95 98.07 18.64 98.07 18.33 97.65"/>
            <polygon class="cls-7" points="19.26 95.14 19.57 95.56 19.57 94.24 19.26 93.82 18.63 93.82 18.33 94.24 18.33 95.56 18.63 95.14 19.26 95.14"/>
            <polygon class="cls-38" points="19.26 96.75 19.57 96.34 19.57 97.65 19.26 98.07 18.63 98.07 18.33 97.65 18.33 96.34 18.63 96.75 19.26 96.75"/>
            <path class="cls-28" d="m25.38,95.91v-2.68h.23s1.07.82,1.41,1.99c.18-.18.43-.28.7-.28.56,0,1.01.45,1.01,1.01s-.45,1.01-1.01,1.01c-.28,0-.54-.12-.72-.3-.36,1.14-1.39,1.93-1.39,1.93h-.23v-2.68Z"/>
            <path class="cls-7" d="m28.66,96.34c.05-.12.08-.25.08-.39,0-.56-.45-1.01-1.01-1.01-.27,0-.52.11-.7.28-.34-1.17-1.41-1.99-1.41-1.99h-.23v.79h.23s1.07.82,1.41,1.99c.18-.18.43-.28.7-.28.42,0,.78.25.93.62h0Z"/>
            <path class="cls-31" d="m19.14,101.02h0c0-.5-.4-.9-.9-.9h-1.89c-.5,0-.9.4-.9.9h0c0,.5.4.9.9.9h1.89c.5,0,.9-.4.9-.9Z"/>
            <path class="cls-31" d="m28.02,89.98h0c0-.5-.4-.9-.9-.9h-1.89c-.5,0-.9.4-.9.9h0c0,.5.4.9.9.9h1.89c.5,0,.9-.4.9-.9Z"/>
            <path class="cls-31" d="m28.02,101.94h0c0-.5-.4-.9-.9-.9h-1.89c-.5,0-.9.4-.9.9h0c0,.5.4.9.9.9h1.89c.5,0,.9-.4.9-.9Z"/>
            <path class="cls-7" d="m28.02,90.07v-.5c0-.27-.22-.49-.49-.49h-2.71c-.27,0-.49.22-.49.49v.5c0-.27.22-.49.49-.49h2.71c.27,0,.49.22.49.49Z"/>
            <path class="cls-38" d="m28.02,89.89v.5c0,.27-.22.49-.49.49h-2.71c-.27,0-.49-.22-.49-.49v-.5c0,.27.22.49.49.49h2.71c.27,0,.49-.22.49-.49Z"/>
            <path class="cls-7" d="m19.14,101.11v-.5c0-.27-.22-.49-.49-.49h-2.71c-.27,0-.49.22-.49.49v.5c0-.27.22-.49.49-.49h2.71c.27,0,.49.22.49.49Z"/>
            <path class="cls-7" d="m28.02,102.03v-.5c0-.27-.22-.49-.49-.49h-2.71c-.27,0-.49.22-.49.49v.5c0-.27.22-.49.49-.49h2.71c.27,0,.49.22.49.49Z"/>
            <path class="cls-38" d="m24.31,101.85v.5c0,.27.22.49.49.49h2.71c.27,0,.49-.22.49-.49v-.5c0,.27-.22.49-.49.49h-2.71c-.27,0-.49-.22-.49-.49Z"/>
            <path class="cls-38" d="m15.44,100.93v.5c0,.27.22.49.49.49h2.71c.27,0,.49-.22.49-.49v-.5c0,.27-.22.49-.49.49h-2.71c-.27,0-.49-.22-.49-.49Z"/>
            <g>
              <path class="cls-31" d="m19.14,90.91h0c0-.5-.4-.9-.9-.9h-1.89c-.5,0-.9.4-.9.9h0c0,.5.4.9.9.9h1.89c.5,0,.9-.4.9-.9Z"/>
              <path class="cls-7" d="m19.14,91v-.5c0-.27-.22-.49-.49-.49h-2.71c-.27,0-.49.22-.49.49v.5c0-.27.22-.49.49-.49h2.71c.27,0,.49.22.49.49Z"/>
              <path class="cls-38" d="m15.44,90.82v.5c0,.27.22.49.49.49h2.71c.27,0,.49-.22.49-.49v-.5c0,.27-.22.49-.49.49h-2.71c-.27,0-.49-.22-.49-.49Z"/>
            </g>
          </g>
        </g>
      </g>
      <g>
        <g>
          <path class="cls-7" d="m34.49,132.61c.38,0,.71-.23.85-.56h.5c.07,0,.13,0,.19-.04.02,0,.03-.02.05-.02.01,0,.03,0,.04-.02.02,0,.03-.02.04-.04.01,0,.02-.02.03-.03s.02-.02.02-.03c.01,0,.03-.03.04-.04h0c.05-.09.08-.18.08-.27h0v-.82h0c0-.1-.03-.19-.08-.27h0s-.03-.03-.04-.05c0,0-.01-.02-.02-.02-.01,0-.03-.02-.04-.03-.01,0-.02-.02-.03-.03-.01,0-.03-.02-.04-.02s-.03-.02-.04-.02c-.06-.02-.12-.04-.19-.04h-.82v-.51l7.81-.85v.43h-.82c-.27,0-.49.22-.49.49v.5h0v.32c0,.27.22.49.49.49h.49c.13.35.47.6.87.6s.74-.25.87-.6h.49c.27,0,.49-.22.49-.49v-.5h0v-.32h0c0-.1-.03-.19-.08-.27h0s-.03-.04-.04-.05c0,0-.01,0-.02-.02-.01,0-.03-.02-.04-.03-.01,0-.02-.02-.03-.03s-.03-.02-.05-.03c-.01,0-.02,0-.04-.02-.06-.02-.12-.04-.19-.04h-.82v-.55l.76-.08c.08.07.18.11.3.11h.23s.03,0,.04,0c.01,0,.03,0,.04,0h0c.08-.04.14-.09.19-.16l1.11-.12-.09-.81h0v-.11l-.05-.37h0l-.9.1v-.82c.59-.04,1.04-.06,1.3-.06v.18h0l.31.42h.62l.31-.42v-.11c1.39.18,2.52.58,2.53.59h0v.29h.42l.42-.42v-3.64l-.42-.42h-.42v.28s-1.14.41-2.53.59v-.11l-.31-.42h-.62l-.1.14-.21.28h0v.18c-.25,0-.71-.02-1.3-.06v-.7l.9.1.09-.84h0l.05-.45-1.06-.12c-.03-.13-.12-.23-.24-.29h0s-.03,0-.04-.02c-.01,0-.03,0-.04,0h-.23c-.14,0-.26.07-.34.17-.02.02-.03.04-.04.06l-.67-.07v-.57h.82c.27,0,.49-.22.49-.49v-.82c0-.1-.03-.2-.08-.28-.09-.13-.24-.22-.41-.22h-.48c-.13-.36-.47-.61-.87-.61s-.74.25-.87.61h-.48c-.2,0-.37.12-.45.29-.03.06-.04.13-.04.2v.82c0,.27.22.49.49.49h.82v.45l-7.81-.85v-.53h.82c.07,0,.13,0,.19-.04,0,0,.01,0,.02,0,.02,0,.04-.02.06-.03.01,0,.02-.02.03-.03s.03-.02.04-.03c0,0,.01,0,.02-.02.01-.02.03-.03.04-.05h0c.05-.08.08-.17.08-.27h0v-.82h0c0-.1-.03-.19-.08-.27h0s-.03-.03-.04-.05c0,0-.01-.02-.02-.02-.01-.01-.02-.02-.04-.03-.01-.01-.02-.02-.04-.03-.01-.01-.03-.02-.05-.03-.01,0-.02-.01-.04-.02-.06-.02-.12-.04-.19-.04h-.53c-.16-.3-.47-.5-.83-.5s-.67.21-.83.5h-.53c-.27,0-.49.22-.49.49v.82c0,.27.22.49.49.49h.82v.42l-1.66-.18-.05.45h0l-.09.84,1.01.11v.96c-.56.06-1.19.13-1.86.2l-.46.46v3.55l.46.46c.66.07,1.29.14,1.86.2v1.09l-1.01.11h0l.02.15.04.33h0l.09.81,1.66-.18v.39h-.82c-.27,0-.49.22-.49.49v.82c0,.27.22.49.49.49h.5c.14.33.47.56.85.56v-.04Zm9.41-6.03c.21-.02.42-.03.61-.04v.86l-.61.07v-.89h0Zm0-2.93v-.76l.61.07v.74c-.2,0-.4-.03-.61-.04h0Zm-1.07-.08c-.17,0-.33-.03-.5-.04v-.09l-.31-.42h-.62l-.3.41c-.4-.03-.8-.06-1.2-.1h0l-.46-.46c-.29-.03-.58-.06-.85-.09v-.48l4.24.46v.8h0Zm-4.24,3.86c.24-.03.49-.05.74-.08.04,0,.08,0,.11,0l.46-.46h0c.4-.03.8-.07,1.19-.1v.07l.31.42h.62l.31-.42v-.17c.17,0,.34-.03.5-.04v.92l-4.24.46v-.61.02Z"/>
          <g>
            <polygon class="cls-31" points="51.85 127.3 51.85 125.48 51.85 123.66 51.43 123.24 51.01 123.24 51.01 123.53 51.01 125.48 51.01 127.44 51.01 127.72 51.43 127.72 51.85 127.3"/>
            <polygon class="cls-7" points="51.85 124.71 51.43 124.29 51.01 124.29 51.01 123.24 51.43 123.24 51.85 123.66 51.85 124.71"/>
            <polygon class="cls-38" points="51.85 126.26 51.43 126.67 51.01 126.67 51.01 127.72 51.43 127.72 51.85 127.3 51.85 126.26"/>
            <circle class="cls-31" cx="43.77" cy="131.16" r=".93"/>
            <path class="cls-31" d="m34.9,132.98c-.52,0-.93-.42-.93-.93s.42-.93.93-.93.93.42.93.93-.42.93-.93.93Z"/>
            <circle class="cls-31" cx="34.9" cy="119.07" r=".93"/>
            <circle class="cls-31" cx="43.77" cy="119.9" r=".93"/>
            <path class="cls-32" d="m35.88,122.8v5.36s-1.89-.21-4.17-.45l-.46-.46v-3.55l.46-.46c2.27-.24,4.17-.45,4.17-.45h0Z"/>
            <path class="cls-30" d="m31.85,123.96l.13-.13c1.37-.14,2.59-.28,3.3-.35v4.03c-.71-.08-1.93-.21-3.3-.35l-.13-.13v-3.07Z"/>
            <rect class="cls-24" x="34.36" y="119.54" width="1.07" height="12.01"/>
            <rect class="cls-24" x="43.23" y="120.48" width="1.07" height="10.91"/>
            <polygon class="cls-32" points="33.57 129.62 33.57 121.39 38.99 122.11 38.99 128.98 33.57 129.62"/>
            <rect class="cls-7" x="43.24" y="120.49" width=".53" height="10.91"/>
            <rect class="cls-36" x="39.11" y="114.93" width="1.3" height="14.37" transform="translate(-85.93 148.43) rotate(-83.79)"/>
            <rect class="cls-13" x="39.58" y="114.5" width=".46" height="14.37" transform="translate(-85.46 148.13) rotate(-83.8)"/>
            <rect class="cls-36" x="32.58" y="128.33" width="14.37" height="1.3" transform="translate(-13.72 5.06) rotate(-6.21)"/>
            <polygon class="cls-7" points="32.61 129.59 32.56 129.11 46.84 127.55 46.9 128.03 32.61 129.59"/>
            <path class="cls-31" d="m44.92,128.65v-6.34c0-.28.23-.51.51-.51h0c.28,0,.51.23.51.51v6.34c0,.28-.23.51-.51.51h0c-.28,0-.51-.23-.51-.51Z"/>
            <path class="cls-7" d="m45.5,129.17h-.14c-.25,0-.44-.2-.44-.45v-6.48c0-.25.2-.45.44-.45h.14c.07,0,.13.02.19.04-.15.07-.26.22-.26.4v6.48c0,.18.1.33.26.4-.06.03-.12.04-.19.04v.02Z"/>
            <path class="cls-31" d="m47.29,126.77c-.87,0-4.72.3-7.93.56v-3.7c3.21.26,7.06.56,7.93.56,1.88,0,3.72-.66,3.72-.66v3.91s-1.84-.66-3.72-.66h0Z"/>
            <path class="cls-7" d="m47.29,124.92c-.87,0-4.72-.3-7.93-.56v-.73c3.21.26,7.06.56,7.93.56,1.88,0,3.72-.66,3.72-.66v.73s-1.84.66-3.72.66Z"/>
            <path class="cls-7" d="m38.99,127.38v-4.51c-2.18-.23-3.95-.43-3.95-.43h-.23s-.81.62-1.25,1.55v2.25c.43.93,1.25,1.55,1.25,1.55h.23s1.78-.2,3.95-.43v.02Z"/>
            <path class="cls-38" d="m47.29,126.05c-.87,0-4.72.3-7.93.56v.73c3.21-.26,7.06-.56,7.93-.56,1.88,0,3.72.66,3.72.66v-.73s-1.84-.66-3.72-.66Z"/>
            <path class="cls-31" d="m35.68,128.16v-5.36s1.89.21,4.17.45l.46.46v3.55l-.46.46c-2.27.24-4.17.45-4.17.45h0Z"/>
            <path class="cls-7" d="m40.3,124.88l-.46-.46c-2.27-.24-4.17-.45-4.17-.45v-1.17s1.89.21,4.17.45l.46.46v1.17Z"/>
            <path class="cls-38" d="m40.3,126.08l-.46.46c-2.27.24-4.17.45-4.17.45v1.17s1.89-.21,4.17-.45l.46-.46v-1.17Z"/>
            <polygon class="cls-28" points="48.48 126.96 48.48 125.83 48.48 124.01 48.17 123.59 47.86 123.59 47.55 123.59 47.24 124.01 47.24 125.83 47.24 126.96 47.55 127.37 47.86 127.37 48.17 127.37 48.48 126.96"/>
            <polygon class="cls-7" points="47.55 124.92 47.24 125.34 47.24 124.01 47.55 123.59 48.17 123.59 48.48 124.01 48.48 125.34 48.17 124.92 47.55 124.92"/>
            <polygon class="cls-38" points="47.55 126.05 47.24 125.63 47.24 126.96 47.55 127.37 48.17 127.37 48.48 126.96 48.48 125.63 48.17 126.05 47.55 126.05"/>
            <polygon class="cls-28" points="42.73 127.23 42.73 125.63 42.73 123.81 42.43 123.39 42.11 123.39 41.8 123.39 41.5 123.81 41.5 125.63 41.5 127.23 41.8 127.64 42.11 127.64 42.43 127.64 42.73 127.23"/>
            <polygon class="cls-7" points="41.8 124.71 41.5 125.13 41.5 123.81 41.8 123.4 42.43 123.4 42.73 123.81 42.73 125.13 42.43 124.71 41.8 124.71"/>
            <polygon class="cls-38" points="41.8 126.33 41.5 125.91 41.5 127.23 41.8 127.64 42.43 127.64 42.73 127.23 42.73 125.91 42.43 126.33 41.8 126.33"/>
            <path class="cls-28" d="m35.68,125.48v-2.68h-.23s-1.07.82-1.41,1.99c-.18-.18-.43-.28-.7-.28-.56,0-1.01.45-1.01,1.01s.45,1.01,1.01,1.01c.28,0,.54-.12.72-.3.36,1.14,1.39,1.93,1.39,1.93h.23v-2.68Z"/>
            <path class="cls-7" d="m32.41,125.91c-.05-.12-.08-.25-.08-.39,0-.56.45-1.01,1.01-1.01.27,0,.52.11.7.28.34-1.17,1.41-1.99,1.41-1.99h.23v.79h-.23s-1.07.82-1.41,1.99c-.18-.18-.43-.28-.7-.28-.42,0-.78.25-.93.62h0Z"/>
            <path class="cls-31" d="m41.92,130.59h0c0-.5.4-.9.9-.9h1.89c.5,0,.9.4.9.9h0c0,.5-.4.9-.9.9h-1.89c-.5,0-.9-.4-.9-.9Z"/>
            <path class="cls-31" d="m33.04,119.55h0c0-.5.4-.9.9-.9h1.89c.5,0,.9.4.9.9h0c0,.5-.4.9-.9.9h-1.89c-.5,0-.9-.4-.9-.9Z"/>
            <path class="cls-31" d="m33.04,131.52h0c0-.5.4-.9.9-.9h1.89c.5,0,.9.4.9.9h0c0,.5-.4.9-.9.9h-1.89c-.5,0-.9-.4-.9-.9Z"/>
            <path class="cls-7" d="m33.04,119.64v-.5c0-.27.22-.49.49-.49h2.71c.27,0,.49.22.49.49v.5c0-.27-.22-.49-.49-.49h-2.71c-.27,0-.49.22-.49.49Z"/>
            <path class="cls-38" d="m33.04,119.46v.5c0,.27.22.49.49.49h2.71c.27,0,.49-.22.49-.49v-.5c0,.27-.22.49-.49.49h-2.71c-.27,0-.49-.22-.49-.49Z"/>
            <path class="cls-7" d="m41.92,130.68v-.5c0-.27.22-.49.49-.49h2.71c.27,0,.49.22.49.49v.5c0-.27-.22-.49-.49-.49h-2.71c-.27,0-.49.22-.49.49Z"/>
            <path class="cls-7" d="m33.04,131.61v-.5c0-.27.22-.49.49-.49h2.71c.27,0,.49.22.49.49v.5c0-.27-.22-.49-.49-.49h-2.71c-.27,0-.49.22-.49.49Z"/>
            <path class="cls-38" d="m36.75,131.43v.5c0,.27-.22.49-.49.49h-2.71c-.27,0-.49-.22-.49-.49v-.5c0,.27.22.49.49.49h2.71c.27,0,.49-.22.49-.49Z"/>
            <path class="cls-38" d="m45.62,130.5v.5c0,.27-.22.49-.49.49h-2.71c-.27,0-.49-.22-.49-.49v-.5c0,.27.22.49.49.49h2.71c.27,0,.49-.22.49-.49Z"/>
            <g>
              <path class="cls-31" d="m41.92,120.48h0c0-.5.4-.9.9-.9h1.89c.5,0,.9.4.9.9h0c0,.5-.4.9-.9.9h-1.89c-.5,0-.9-.4-.9-.9Z"/>
              <path class="cls-7" d="m41.92,120.57v-.5c0-.27.22-.49.49-.49h2.71c.27,0,.49.22.49.49v.5c0-.27-.22-.49-.49-.49h-2.71c-.27,0-.49.22-.49.49Z"/>
              <path class="cls-38" d="m45.62,120.39v.5c0,.27-.22.49-.49.49h-2.71c-.27,0-.49-.22-.49-.49v-.5c0,.27.22.49.49.49h2.71c.27,0,.49-.22.49-.49Z"/>
            </g>
          </g>
        </g>
        <g>
          <path class="cls-7" d="m27.42,132.05h.5c.27,0,.49-.22.49-.49v-.82c0-.27-.22-.49-.49-.49h-.82v-.39l1.66.18.09-.81h0l.04-.33.02-.15h0l-1.01-.11v-1.09c.56-.06,1.19-.13,1.86-.2l.46-.46v-3.55l-.46-.46c-.66-.07-1.29-.14-1.86-.2v-.96l1.01-.11-.09-.84h0l-.05-.45-1.66.18v-.42h.82c.27,0,.49-.22.49-.49v-.82c0-.27-.22-.49-.49-.49h-.53c-.16-.3-.47-.5-.83-.5s-.67.21-.83.5h-.53c-.07,0-.13.01-.19.04-.01,0-.02.01-.04.02-.02,0-.03.02-.05.03-.01,0-.03.02-.04.03-.01,0-.02.02-.04.03,0,0-.01.02-.02.02-.01.02-.03.03-.04.05h0c-.05.08-.08.17-.08.27h0v.82h0c0,.1.03.19.08.27h0s.03.03.04.05c0,0,.01.02.02.02.01,0,.03.02.04.03.01,0,.02.02.03.03.02,0,.04.02.06.03,0,0,.01,0,.02,0,.06.02.12.04.19.04h.82v.53l-7.81.85v-.45h.82c.27,0,.49-.22.49-.49v-.82c0-.07-.02-.14-.04-.2-.08-.17-.25-.29-.45-.29h-.48c-.13-.36-.47-.61-.87-.61s-.74.25-.87.61h-.48c-.17,0-.32.09-.41.22-.05.08-.08.17-.08.28v.82c0,.27.22.49.49.49h.82v.57l-.67.07s-.03-.04-.04-.06c-.08-.1-.2-.17-.34-.17h-.23s-.03,0-.04,0c0,0-.03,0-.04.02h0c-.12.06-.21.16-.24.29l-1.06.12.05.45h0l.09.84.9-.1v.7c-.59.04-1.04.06-1.3.06v-.18h0l-.21-.28-.1-.14h-.62l-.31.42v.11c-1.39-.18-2.52-.58-2.53-.59v-.28h-.42l-.42.42v3.64l.42.42h.42v-.29h0s1.14-.41,2.53-.59v.11l.31.42h.62l.31-.42h0v-.18c.25,0,.71.03,1.3.06v.82l-.9-.1h0l-.04.37v.11h0l-.09.81,1.11.12c.05.07.11.12.19.16h0s.03,0,.04,0,.03,0,.04,0h.23c.11,0,.22-.04.3-.11l.76.08v.55h-.82c-.07,0-.13,0-.19.04,0,0-.02,0-.04.02-.02,0-.03.02-.05.03,0,0-.02.02-.03.03s-.03.02-.04.03c0,0,0,0-.02.02-.02.02-.03.03-.04.05h0c-.05.08-.08.17-.08.27h0v.32h0v.5c0,.27.22.49.49.49h.49c.13.35.47.6.87.6s.74-.25.87-.6h.49c.27,0,.49-.22.49-.49v-.32h0v-.5c0-.27-.22-.49-.49-.49h-.82v-.43l7.81.85v.51h-.82c-.07,0-.13,0-.19.04-.01,0-.03,0-.04.02-.01,0-.03,0-.04.02-.01,0-.02.02-.03.03s-.03.02-.04.03c0,0-.01,0-.02.02-.01.02-.03.03-.04.05h0c-.05.08-.08.17-.08.27h0v.82h0c0,.1.03.19.08.26h0s.02.04.04.05c0,0,.02.02.02.03,0,0,.02.02.03.03s.03.02.04.04c.01,0,.03,0,.04.02.02,0,.03.02.05.02.06.02.12.04.19.04h.5c.15.33.47.56.85.56s.71-.23.85-.56v.04Zm-10.26-4.59l-.61-.07v-.86c.2,0,.4.03.61.04v.89h0Zm-.61-3.77v-.74l.61-.07v.76c-.21.02-.42.03-.61.04h0Zm1.68-.92l4.24-.46v.48c-.28.03-.56.06-.85.09l-.46.46h0c-.4.03-.8.07-1.2.1l-.3-.41h-.62l-.31.42v.09c-.17,0-.34.03-.5.04v-.8h0Zm4.24,5.27l-4.24-.46v-.92c.17,0,.33.03.5.04v.17l.31.42h.62l.31-.42v-.07c.4.03.8.06,1.19.1h0l.46.46s.08,0,.11,0c.25.03.5.05.74.08v.61-.02Z"/>
          <g>
            <polygon class="cls-31" points="9.21 127.3 9.21 125.48 9.21 123.66 9.63 123.24 10.05 123.24 10.05 123.53 10.05 125.48 10.05 127.44 10.05 127.72 9.63 127.72 9.21 127.3"/>
            <polygon class="cls-7" points="9.21 124.71 9.63 124.29 10.05 124.29 10.05 123.24 9.63 123.24 9.21 123.66 9.21 124.71"/>
            <polygon class="cls-38" points="9.21 126.26 9.63 126.67 10.05 126.67 10.05 127.72 9.63 127.72 9.21 127.3 9.21 126.26"/>
            <circle class="cls-31" cx="17.29" cy="131.16" r=".93"/>
            <path class="cls-31" d="m26.16,132.98c.52,0,.93-.42.93-.93s-.42-.93-.93-.93-.93.42-.93.93.42.93.93.93Z"/>
            <path class="cls-31" d="m26.16,120.01c.52,0,.93-.42.93-.93s-.42-.93-.93-.93-.93.42-.93.93.42.93.93.93Z"/>
            <circle class="cls-31" cx="17.29" cy="119.9" r=".93"/>
            <path class="cls-32" d="m25.18,122.8v5.36s1.89-.21,4.17-.45l.46-.46v-3.55l-.46-.46c-2.27-.24-4.17-.45-4.17-.45h0Z"/>
            <path class="cls-30" d="m29.21,123.96l-.13-.13c-1.37-.14-2.59-.28-3.3-.35v4.03c.71-.08,1.93-.21,3.3-.35l.13-.13v-3.07Z"/>
            <rect class="cls-24" x="25.63" y="119.54" width="1.07" height="12.01"/>
            <rect class="cls-24" x="16.75" y="120.48" width="1.07" height="10.91"/>
            <polygon class="cls-32" points="27.49 129.62 27.49 121.39 22.07 122.11 22.07 128.98 27.49 129.62"/>
            <rect class="cls-7" x="17.3" y="120.48" width=".53" height="10.91"/>
            <rect class="cls-35" x="14.09" y="121.46" width="14.37" height="1.3" transform="translate(-13.06 3.01) rotate(-6.2)"/>
            <rect class="cls-12" x="14.05" y="121.47" width="14.37" height=".46" transform="translate(-13.02 3) rotate(-6.2)"/>
            <rect class="cls-36" x="20.64" y="121.8" width="1.3" height="14.37" transform="translate(-109.24 136.19) rotate(-83.79)"/>
            <polygon class="cls-7" points="28.45 129.59 28.5 129.11 14.22 127.55 14.17 128.03 28.45 129.59"/>
            <path class="cls-31" d="m16.14,128.65v-6.34c0-.28-.23-.51-.51-.51h0c-.28,0-.51.23-.51.51v6.34c0,.28.23.51.51.51h0c.28,0,.51-.23.51-.51Z"/>
            <path class="cls-7" d="m15.56,129.17h.14c.25,0,.44-.2.44-.45v-6.48c0-.25-.2-.45-.44-.45h-.14c-.07,0-.13.02-.19.04.15.07.26.22.26.4v6.48c0,.18-.11.33-.26.4.06.03.12.04.19.04v.02Z"/>
            <path class="cls-31" d="m13.78,126.77c.87,0,4.72.3,7.93.56v-3.7c-3.21.26-7.06.56-7.93.56-1.88,0-3.72-.66-3.72-.66v3.91s1.84-.66,3.72-.66h0Z"/>
            <path class="cls-7" d="m13.78,124.92c.87,0,4.72-.3,7.93-.56v-.73c-3.21.26-7.06.56-7.93.56-1.88,0-3.72-.66-3.72-.66v.73s1.84.66,3.72.66Z"/>
            <path class="cls-7" d="m22.07,127.38v-4.51c2.18-.23,3.95-.43,3.95-.43h.23s.81.62,1.25,1.55v2.25c-.43.93-1.25,1.55-1.25,1.55h-.23s-1.78-.2-3.95-.43v.02Z"/>
            <path class="cls-38" d="m13.78,126.05c.87,0,4.72.3,7.93.56v.73c-3.21-.26-7.06-.56-7.93-.56-1.88,0-3.72.66-3.72.66v-.73s1.84-.66,3.72-.66Z"/>
            <path class="cls-31" d="m25.38,128.16v-5.36s-1.89.21-4.17.45l-.46.46v3.55l.46.46c2.27.24,4.17.45,4.17.45h0Z"/>
            <path class="cls-7" d="m20.76,124.88l.46-.46c2.27-.24,4.17-.45,4.17-.45v-1.17s-1.89.21-4.17.45l-.46.46v1.17Z"/>
            <path class="cls-38" d="m20.76,126.08l.46.46c2.27.24,4.17.45,4.17.45v1.17s-1.89-.21-4.17-.45l-.46-.46v-1.17Z"/>
            <polygon class="cls-28" points="12.58 126.96 12.58 125.83 12.58 124.01 12.89 123.59 13.2 123.59 13.51 123.59 13.82 124.01 13.82 125.83 13.82 126.96 13.51 127.37 13.2 127.37 12.89 127.37 12.58 126.96"/>
            <polygon class="cls-7" points="13.51 124.92 13.82 125.34 13.82 124.01 13.51 123.59 12.89 123.59 12.58 124.01 12.58 125.34 12.89 124.92 13.51 124.92"/>
            <polygon class="cls-38" points="13.51 126.05 13.82 125.63 13.82 126.96 13.51 127.37 12.89 127.37 12.58 126.96 12.58 125.63 12.89 126.05 13.51 126.05"/>
            <polygon class="cls-28" points="18.33 127.23 18.33 125.63 18.33 123.81 18.64 123.39 18.95 123.39 19.26 123.39 19.57 123.81 19.57 125.63 19.57 127.23 19.26 127.64 18.95 127.64 18.64 127.64 18.33 127.23"/>
            <polygon class="cls-7" points="19.26 124.71 19.57 125.13 19.57 123.81 19.26 123.4 18.63 123.4 18.33 123.81 18.33 125.13 18.63 124.71 19.26 124.71"/>
            <polygon class="cls-38" points="19.26 126.33 19.57 125.91 19.57 127.23 19.26 127.64 18.63 127.64 18.33 127.23 18.33 125.91 18.63 126.33 19.26 126.33"/>
            <path class="cls-28" d="m25.38,125.48v-2.68h.23s1.07.82,1.41,1.99c.18-.18.43-.28.7-.28.56,0,1.01.45,1.01,1.01s-.45,1.01-1.01,1.01c-.28,0-.54-.12-.72-.3-.36,1.14-1.39,1.93-1.39,1.93h-.23v-2.68Z"/>
            <path class="cls-7" d="m28.66,125.91c.05-.12.08-.25.08-.39,0-.56-.45-1.01-1.01-1.01-.27,0-.52.11-.7.28-.34-1.17-1.41-1.99-1.41-1.99h-.23v.79h.23s1.07.82,1.41,1.99c.18-.18.43-.28.7-.28.42,0,.78.25.93.62h0Z"/>
            <path class="cls-31" d="m19.14,130.59h0c0-.5-.4-.9-.9-.9h-1.89c-.5,0-.9.4-.9.9h0c0,.5.4.9.9.9h1.89c.5,0,.9-.4.9-.9Z"/>
            <path class="cls-31" d="m28.02,119.55h0c0-.5-.4-.9-.9-.9h-1.89c-.5,0-.9.4-.9.9h0c0,.5.4.9.9.9h1.89c.5,0,.9-.4.9-.9Z"/>
            <path class="cls-31" d="m28.02,131.52h0c0-.5-.4-.9-.9-.9h-1.89c-.5,0-.9.4-.9.9h0c0,.5.4.9.9.9h1.89c.5,0,.9-.4.9-.9Z"/>
            <path class="cls-7" d="m28.02,119.64v-.5c0-.27-.22-.49-.49-.49h-2.71c-.27,0-.49.22-.49.49v.5c0-.27.22-.49.49-.49h2.71c.27,0,.49.22.49.49Z"/>
            <path class="cls-38" d="m28.02,119.46v.5c0,.27-.22.49-.49.49h-2.71c-.27,0-.49-.22-.49-.49v-.5c0,.27.22.49.49.49h2.71c.27,0,.49-.22.49-.49Z"/>
            <path class="cls-7" d="m19.14,130.68v-.5c0-.27-.22-.49-.49-.49h-2.71c-.27,0-.49.22-.49.49v.5c0-.27.22-.49.49-.49h2.71c.27,0,.49.22.49.49Z"/>
            <path class="cls-7" d="m28.02,131.61v-.5c0-.27-.22-.49-.49-.49h-2.71c-.27,0-.49.22-.49.49v.5c0-.27.22-.49.49-.49h2.71c.27,0,.49.22.49.49Z"/>
            <path class="cls-38" d="m24.31,131.43v.5c0,.27.22.49.49.49h2.71c.27,0,.49-.22.49-.49v-.5c0,.27-.22.49-.49.49h-2.71c-.27,0-.49-.22-.49-.49Z"/>
            <path class="cls-38" d="m15.44,130.5v.5c0,.27.22.49.49.49h2.71c.27,0,.49-.22.49-.49v-.5c0,.27-.22.49-.49.49h-2.71c-.27,0-.49-.22-.49-.49Z"/>
            <g>
              <path class="cls-31" d="m19.14,120.48h0c0-.5-.4-.9-.9-.9h-1.89c-.5,0-.9.4-.9.9h0c0,.5.4.9.9.9h1.89c.5,0,.9-.4.9-.9Z"/>
              <path class="cls-7" d="m19.14,120.57v-.5c0-.27-.22-.49-.49-.49h-2.71c-.27,0-.49.22-.49.49v.5c0-.27.22-.49.49-.49h2.71c.27,0,.49.22.49.49Z"/>
              <path class="cls-38" d="m15.44,120.39v.5c0,.27.22.49.49.49h2.71c.27,0,.49-.22.49-.49v-.5c0,.27-.22.49-.49.49h-2.71c-.27,0-.49-.22-.49-.49Z"/>
            </g>
          </g>
        </g>
      </g>
      <g>
        <path class="cls-37" d="m6.66,115.12s23.86-30.59,45.94,0c0,0-6.59-2.7-11.87-2.7s-11.35,2.72-11.35,2.72c0,0-5.84-2.64-11.68-2.64s-11.04,2.62-11.04,2.62Z"/>
        <path class="cls-26" d="m6.78,113.64s24.59-30.59,47.36,0c0,0-6.8-2.7-12.23-2.7s-11.7,2.72-11.7,2.72c0,0-6.02-2.64-12.04-2.64s-11.38,2.62-11.38,2.62h-.01Z"/>
      </g>
      <path class="cls-1" d="m5.43,55.14c0,.18.17.31.35.3l2.48-.22,1.27,6.49-3.79,1.7c-.16.07-.24.26-.17.43.05.11.14.17.25.19.06,0,.12,0,.18-.02l3.79-1.7,2.68,4.66-6.12,5.03c-.14.11-.16.32-.04.46.05.06.12.1.2.11.09.01.18,0,.26-.07l23.14-19.04h0s.04-.04.06-.07c0,0,.01-.02.02-.02.02-.04.03-.07.03-.11v-.11h0s-.01-.02-.02-.04c-.01-.02-.02-.05-.04-.07h0s-.02-.02-.03-.03c-.02-.02-.04-.03-.06-.05-.01,0-.03-.02-.05-.02s-.04,0-.06-.02h-.08l-23.95,1.91c-.18.01-.31.17-.3.35v-.04Zm9.44,4.13l-.91-4.5,5.09-.4.49,2.79s.03.09.06.13l-4.67,2.05s-.06-.07-.06-.07Zm2.89,3.34l-2.38-2.76,4.63-2.04,1.4,1.79-3.65,3h0Zm10.06-8.93l-7.62,3.35-.04-.05-.46-2.66,8.13-.64h-.01Zm-.14.77l-5.78,4.76-1.29-1.65s7.07-3.11,7.07-3.11Zm-17.29,7.6l4.38-1.92,2.5,2.89-4.29,3.53-2.59-4.5Zm-1.48-6.88l4.43-.35.95,4.68s.02.07.04.1l-4.19,1.84-1.23-6.28h0Z"/>
      <path class="cls-1" d="m55.33,54.79l-24.42-1.91h-.08s-.04,0-.06.02c-.02,0-.03,0-.05.02s-.04.03-.06.05c0,0-.02,0-.03.02h0s-.03.06-.04.08c0,0-.01.02-.02.04h0v.11s.02.08.03.11c0,0,.01.02.02.02.02.03.03.05.06.07h0l23.14,19.04c.07.06.17.08.25.07s.15-.05.2-.11c.11-.14.09-.34-.04-.46l-6.12-5.03,2.68-4.66,4.13,1.81c.06.03.12.03.18.02.11-.02.2-.08.25-.19.07-.16,0-.35-.17-.43l-4.13-1.82,1.27-6.49,2.96.22c.18.01.33-.12.35-.3.01-.18-.12-.33-.3-.35v.05Zm-9.68,4.55l-4.67-2.05s.05-.08.06-.13l.49-2.79,5.09.4-.91,4.5-.06.07Zm-6.48.27l1.4-1.79,4.63,2.04-2.38,2.76-3.65-3h0Zm1.72-5.29l-.46,2.66-.04.05-7.62-3.35,8.13.64h0Zm-.92,3.24l-1.29,1.65-5.78-4.76,7.07,3.11Zm7.63,8.99l-4.29-3.53,2.5-2.89,4.38,1.92-2.59,4.5Zm2.83-5.1l-4.19-1.84s.04-.07.04-.1l.95-4.68,4.43.35-1.23,6.28h0Z"/>
      <g>
        <path class="cls-37" d="m6.66,84.24s23.86-30.59,45.94,0c0,0-6.59-2.7-11.87-2.7s-11.35,2.72-11.35,2.72c0,0-5.84-2.64-11.68-2.64s-11.04,2.62-11.04,2.62Z"/>
        <path class="cls-34" d="m6.78,82.76s24.59-30.59,47.36,0c0,0-6.8-2.7-12.23-2.7s-11.7,2.72-11.7,2.72c0,0-6.02-2.64-12.04-2.64s-11.38,2.62-11.38,2.62h-.01Z"/>
      </g>
      <g>
        <g>
          <path class="cls-4" d="m53.66,88c.44-.42,1.14-.4,1.57.04.42.44.4,1.14-.04,1.57-.44.42-1.14.4-1.57-.04s-.4-1.14.04-1.57Z"/>
          <path class="cls-4" d="m53.82,88.17c.35-.33.9-.32,1.23.03s.32.9-.03,1.23-.9.32-1.23-.03-.32-.9.03-1.23Z"/>
        </g>
        <g>
          <path class="cls-4" d="m52.79,96.73c.44-.42,1.14-.4,1.57.04.42.44.4,1.14-.04,1.57-.44.42-1.14.4-1.57-.04-.42-.44-.4-1.14.04-1.57Z"/>
          <path class="cls-4" d="m52.95,96.9c.35-.33.9-.32,1.23.03s.32.9-.03,1.23-.9.32-1.23-.03-.32-.9.03-1.23Z"/>
        </g>
        <g>
          <circle class="cls-4" cx="53.07" cy="107.01" r="1.11"/>
          <path class="cls-4" d="m52.47,106.38c.35-.33.9-.32,1.23.03s.32.9-.03,1.23-.9.32-1.23-.03-.32-.9.03-1.23Z"/>
        </g>
        <path class="cls-1" d="m54.34,88.61l-24.23-3.61h-.08s-.04,0-.06.01c-.02,0-.03.01-.05.02-.02.01-.04.03-.06.04,0,0-.02.01-.03.02h0s-.03.05-.04.08c0,.01-.02.02-.02.04h0s-.01.06-.01.09v.02s.01.08.03.12c0,0,.01.02.02.03.01.03.03.05.05.07h0s22.95,21.78,22.95,21.78c.07.07.16.09.25.09.08,0,.15-.04.21-.1.12-.13.12-.34-.01-.46l-6.95-6.61,2.99-4.46,3.99,2.1c.06.03.12.04.18.04.11,0,.21-.07.26-.17.08-.16.02-.35-.14-.44l-3.99-2.1,1.72-6.39,2.94.42c.18.02.34-.1.37-.27.03-.18-.1-.34-.27-.37h-.02Zm-9.98,3.86l-4.51-2.37s.05-.08.06-.12l.68-2.75,5.05.76-1.22,4.43-.06.06h0Zm-6.48-.19l1.52-1.69,4.48,2.35-2.57,2.58-3.43-3.25h0Zm2.08-5.16l-.65,2.62-.05.05-7.37-3.87,8.06,1.21h.01Zm-1.14,3.16l-1.4,1.56-5.44-5.15,6.84,3.6h0Zm6.99,9.5l-4.04-3.82,2.7-2.71,4.23,2.23-2.89,4.31h0Zm3.18-4.89l-4.05-2.13s.04-.06.05-.1l1.27-4.6,4.39.66-1.66,6.18h0Z"/>
      </g>
      <g>
        <g>
          <circle class="cls-4" cx="6.6" cy="88.81" r="1.11"/>
          <path class="cls-4" d="m7.2,88.17c-.35-.33-.9-.32-1.23.03-.33.35-.32.9.03,1.23s.9.32,1.23-.03c.33-.35.32-.9-.03-1.23Z"/>
        </g>
        <g>
          <path class="cls-4" d="m8.24,96.73c-.44-.42-1.14-.4-1.57.04-.42.44-.4,1.14.04,1.57.44.42,1.14.4,1.57-.04s.4-1.14-.04-1.57Z"/>
          <path class="cls-4" d="m8.08,96.9c-.35-.33-.9-.32-1.23.03-.33.35-.32.9.03,1.23s.9.32,1.23-.03c.33-.35.32-.9-.03-1.23Z"/>
        </g>
        <g>
          <circle class="cls-4" cx="7.96" cy="107.01" r="1.11"/>
          <path class="cls-4" d="m8.56,106.38c-.35-.33-.9-.32-1.23.03-.33.35-.32.9.03,1.23s.9.32,1.23-.03c.33-.35.32-.9-.03-1.23Z"/>
        </g>
        <path class="cls-1" d="m6.41,88.98c.03.18.19.3.37.27l2.94-.42,1.72,6.39-3.99,2.1c-.16.08-.22.28-.14.44.05.1.15.16.26.17.06,0,.12,0,.18-.04l3.99-2.1,2.99,4.46-6.95,6.61c-.13.12-.14.33,0,.46.06.06.13.09.21.1.09,0,.18-.02.25-.09l22.95-21.77h0s.04-.06.05-.08c0,0,.01-.02.02-.03.02-.04.02-.08.03-.12v-.02s0-.06-.01-.09h0s-.01-.02-.02-.04c-.01-.02-.02-.05-.04-.07h0s-.02-.02-.03-.03c-.02-.02-.04-.03-.06-.04-.02,0-.03-.01-.05-.02-.02,0-.04-.01-.06-.01h-.08l-24.23,3.61c-.18.03-.3.19-.27.37h-.02Zm10.19,3.43l-1.22-4.43,5.05-.76.68,2.75s.04.09.06.12l-4.51,2.37-.06-.06h0Zm3.11,3.13l-2.57-2.58,4.48-2.35,1.52,1.69-3.43,3.25h0Zm9.41-9.61l-7.37,3.87-.05-.05-.65-2.62,8.06-1.21h.01Zm-.08.77l-5.44,5.15-1.4-1.56,6.84-3.6h0Zm-16.72,8.79l4.23-2.23,2.7,2.71-4.04,3.82-2.89-4.31h0Zm-1.95-6.76l4.39-.66,1.27,4.6s.03.07.05.1l-4.05,2.13-1.66-6.18h0Z"/>
      </g>
      <circle class="cls-19" cx="30.4" cy="84.57" r="2.56"/>
      <g>
        <g>
          <path class="cls-14" d="m44.01,43.67c.11-1.62-1.11-3.02-2.73-3.13s-3.02,1.11-3.13,2.73,1.11,3.02,2.73,3.13,3.02-1.11,3.13-2.73Z"/>
          <path class="cls-14" d="m43.39,43.63c.09-1.27-.87-2.38-2.14-2.47s-2.38.87-2.47,2.15c-.09,1.27.87,2.38,2.14,2.47s2.38-.87,2.47-2.14h0Z"/>
          <path class="cls-14" d="m43.46,31.3c.09-1.27-.87-2.38-2.14-2.47s-2.38.87-2.47,2.14c-.09,1.27.87,2.38,2.14,2.47s2.38-.87,2.47-2.14Z"/>
          <path class="cls-9" d="m37.29,35.98l.15,4.52c.01.41.32.75.71.82v2.78c.01.22.06.43.14.62.24.57.81.97,1.46.96h.02c.09,0,.18,0,.27-.03.02,0,.04,0,.05,0,.09-.02.18-.05.27-.09h0c.05-.02.1-.04.15-.07h0c.49-.27.82-.79.82-1.39v-2.82h-.01c.14,0,.27-.04.39-.11h-.39l-.05-9.4c0-.67-.42-1.24-1.01-1.47h0c-.07-.03-.15-.05-.23-.07-.02,0-.03,0-.05,0-.1-.02-.2-.03-.31-.03h-.11c-.44.03-.82.24-1.09.55-.11.13-.21.28-.27.44-.07.18-.11.38-.11.59v3.35c-.45.02-.81.4-.8.86h0Z"/>
          <path class="cls-10" d="m41.26,45.67h-.1c-.88,0-1.59-.7-1.59-1.58l-.07-12.33c0-.88.71-1.59,1.58-1.59s1.59.7,1.59,1.58l.07,12.33c0,.84-.65,1.53-1.47,1.59h-.01Z"/>
          <path class="cls-15" d="m42.71,40.74l-3.01.06c-.47,0-.85-.36-.86-.83l-.15-4.52c0-.47.36-.85.83-.86l3.01-.06c.47,0,.85.36.86.83l.15,4.52c0,.47-.36.85-.83.86Z"/>
        </g>
        <g>
          <path class="cls-14" d="m22.28,43.67c.11-1.62-1.11-3.02-2.73-3.13s-3.02,1.11-3.13,2.73,1.11,3.02,2.73,3.13,3.02-1.11,3.13-2.73Z"/>
          <path class="cls-14" d="m21.66,43.63c.09-1.27-.87-2.38-2.14-2.47s-2.38.87-2.47,2.15c-.09,1.27.87,2.38,2.15,2.47,1.27.09,2.38-.87,2.47-2.14h-.01Z"/>
          <path class="cls-14" d="m21.72,31.3c.09-1.27-.87-2.38-2.14-2.47s-2.38.87-2.47,2.14.87,2.38,2.14,2.47,2.38-.87,2.47-2.14Z"/>
          <path class="cls-9" d="m15.56,35.98l.15,4.52c0,.41.32.75.71.82v2.78c0,.22.06.43.14.62.24.57.81.97,1.46.96h.02c.09,0,.18,0,.27-.03.02,0,.04,0,.05,0,.09-.02.19-.05.27-.09h0s.1-.04.15-.07h0c.49-.27.82-.79.82-1.39v-2.82h0c.14,0,.27-.04.39-.11h-.39l-.05-9.4c0-.67-.42-1.24-1.01-1.47h0c-.07-.03-.15-.05-.23-.07-.02,0-.03,0-.05,0-.1-.02-.2-.03-.31-.03h-.11c-.44.03-.82.24-1.09.55-.11.13-.21.28-.27.44-.07.18-.11.38-.11.59v3.35c-.45.02-.81.4-.8.86h0Z"/>
          <path class="cls-2" d="m19.53,45.67h-.1c-.88,0-1.59-.7-1.59-1.58l-.07-12.33c0-.88.71-1.59,1.58-1.59s1.59.7,1.59,1.58l.07,12.33c0,.84-.65,1.53-1.47,1.59h-.01Z"/>
          <path class="cls-8" d="m20.98,40.74l-3.01.06c-.47,0-.85-.36-.86-.83l-.15-4.52c0-.47.36-.85.83-.86l3.01-.06c.47,0,.85.36.86.83l.15,4.52c0,.47-.36.85-.83.86Z"/>
        </g>
      </g>
      <g>
        <path class="cls-37" d="m6.66,52.69s23.86-30.59,45.94,0c0,0-6.59-2.7-11.87-2.7s-11.35,2.72-11.35,2.72c0,0-5.84-2.64-11.68-2.64s-11.04,2.62-11.04,2.62Z"/>
        <path class="cls-21" d="m6.78,51.21s24.59-30.59,47.36,0c0,0-6.8-2.7-12.23-2.7s-11.7,2.72-11.7,2.72c0,0-6.02-2.64-12.04-2.64s-11.38,2.62-11.38,2.62h-.01Z"/>
      </g>
      <g>
        <path class="cls-37" d="m28.95,8.88s-12.61,22.93-10.63,42.71c0,0,1.39-10.58,14.62-10.81,0,0-7.76-17.82-3.99-31.9Z"/>
        <path class="cls-29" d="m30.46,6.68s-12.61,22.93-10.63,42.71c0,0,1.39-10.58,14.62-10.81,0,0-7.76-17.82-3.99-31.9Z"/>
      </g>
      <circle class="cls-19" cx="30.4" cy="53.02" r="2.56"/>
      <path class="cls-5" d="m46.04,135.03c.12-.1.14-.27.04-.39l-3.64-4.65,3.94-4.01,4.47,2.86c.13.08.3.04.38-.09.05-.08.05-.18.01-.26-.02-.05-.06-.09-.1-.11l-4.47-2.86,1.98-4.11,3.42,1.01c.15.04.3-.04.34-.19.02-.07.01-.14-.02-.2-.03-.07-.09-.12-.17-.14l-21.42-6.2h-.12s-.07.01-.1.03h-.01s-.04.04-.06.06h0s-.01.02-.02.03c-.01.02-.02.04-.03.06h0v.14s0,.04.02.05c0,.01.01.03.02.04,0,0,0,.02.01.02l15.15,18.88c.1.12.27.14.39.04h-.01Zm-3.94-11.62l-2.72,2.8-2.73-3.38,1.72-1.69s.05-.06.06-.1l3.68,2.28-.02.08h.01Zm.95-3.63l-.79,2.99-3.65-2.27.58-1.84,3.86,1.11h0Zm-11.09-2.76l6.01,3.73-.02.06-1.64,1.6-4.36-5.39h0Zm.6-.27l6.11,1.77-.54,1.7-5.58-3.46h.01Zm13.64,8.47l-3.45-2.14.82-3.14,4.54,1.31-1.91,3.98h0Zm-4.11,4.34l-2.37-2.94,2.83-2.91s.04-.05.05-.08l3.3,2.05s-3.81,3.88-3.81,3.88Z"/>
      <path class="cls-5" d="m16.27,134.99l15.15-18.88s0-.02.01-.02c0-.01.02-.03.02-.04,0-.02.01-.04.02-.05v-.13h0s-.02-.05-.03-.07c0-.01-.01-.02-.02-.03h0s-.04-.03-.06-.05h-.01s-.06-.04-.1-.04h-.12l-21.42,6.2c-.08.02-.14.08-.17.14s-.04.13-.02.2c.04.15.19.23.34.19l3.42-1.01,1.98,4.11-4.47,2.86s-.08.07-.1.11c-.04.08-.04.18,0,.26.08.13.25.17.38.09l4.47-2.86,3.94,4.01-3.64,4.65c-.09.12-.08.29.04.39.12.1.29.08.39-.04h-.01Zm3.53-11.66l3.68-2.28s.03.07.06.1l1.72,1.69-2.73,3.38-2.72-2.8-.02-.08h.01Zm2.93-4.67l.58,1.84-3.65,2.27-.79-2.99,3.86-1.11h0Zm2.88,3.75l-1.64-1.6-.02-.06,6.01-3.73-4.36,5.39h0Zm-1.83-2.2l-.54-1.7,6.11-1.77-5.58,3.46h.01Zm-9.97,1.03l4.54-1.31.82,3.14-3.45,2.14-1.91-3.98h0Zm2.21,4.44l3.3-2.05s.03.06.05.08l2.83,2.91-2.37,2.94-3.81-3.88Z"/>
      <g>
        <path class="cls-32" d="m30.41,143.41h0c-.66,0-1.19-.53-1.19-1.19v-20.67c0-.64.52-1.17,1.17-1.17h.06c.64,0,1.17.52,1.17,1.17v20.67c0,.66-.53,1.19-1.19,1.19h-.02Z"/>
        <path class="cls-3" d="m30.61,143.39c-.05,0-.11.02-.16.02-.68.03-1.24-.57-1.24-1.26v-20.54c0-.67.55-1.24,1.22-1.23.09,0,.19,0,.27.04-.52.13-.9.6-.9,1.15v20.64c0,.53.34.97.81,1.13.02,0,.02.04,0,.05Z"/>
      </g>
      <g>
        <rect class="cls-14" x="29.02" y="123.5" width="2.74" height="4.09"/>
        <g class="cls-39">
          <rect class="cls-6" x="29.02" y="123.5" width="1.03" height="4.09"/>
        </g>
      </g>
      <polygon class="cls-32" points="31.76 123.5 32.75 115.37 28.06 115.37 29.02 123.5 31.76 123.5"/>
      <polygon class="cls-3" points="30.21 123.5 29.02 123.5 28.06 115.37 29.25 115.37 30.21 123.5"/>
      <g>
        <path class="cls-4" d="m29.65,124.75c.44-.42,1.14-.4,1.55.04.42.44.4,1.14-.04,1.55-.44.42-1.14.4-1.55-.04-.42-.44-.4-1.14.04-1.55Z"/>
        <path class="cls-4" d="m29.81,124.92c.35-.33.89-.31,1.22.03.33.35.31.89-.03,1.22-.35.33-.89.31-1.22-.03-.33-.35-.31-.89.03-1.22Z"/>
      </g>
      <g>
        <path class="cls-37" d="m26.68,115.35s-8.85,21.07-5.32,38.06c0,0,.24-9.31,11.71-10.73,0,0-8.38-14.77-6.39-27.34h0Z"/>
        <path class="cls-27" d="m27.79,113.3s-8.85,21.07-5.32,38.06c0,0,.24-9.31,11.71-10.73,0,0-8.38-14.77-6.39-27.34h0Z"/>
      </g>
      <circle class="cls-19" cx="30.4" cy="115.45" r="2.56"/>
    </g>
  </g>
</svg>